<?xml version="1.0" encoding="UTF-8" standalone="no"?>
<!-- Generator: Adobe Illustrator 16.0.3, SVG Export Plug-In . SVG Version: 6.00 Build 0)  -->

<svg
   xmlns:dc="http://purl.org/dc/elements/1.1/"
   xmlns:cc="http://creativecommons.org/ns#"
   xmlns:rdf="http://www.w3.org/1999/02/22-rdf-syntax-ns#"
   xmlns:svg="http://www.w3.org/2000/svg"
   xmlns="http://www.w3.org/2000/svg"
   xmlns:sodipodi="http://sodipodi.sourceforge.net/DTD/sodipodi-0.dtd"
   xmlns:inkscape="http://www.inkscape.org/namespaces/inkscape"
   version="1.1"
   id="Layer_1"
   x="0px"
   y="0px"
   width="85px"
   height="75px"
   viewBox="0 0 100 100"
   xml:space="preserve"
   inkscape:version="0.91 r13725"
   sodipodi:docname="loading.svg"><metadata
   id="metadata23"><rdf:RDF><cc:Work
       rdf:about=""><dc:format>image/svg+xml</dc:format><dc:type
         rdf:resource="http://purl.org/dc/dcmitype/StillImage" /></cc:Work></rdf:RDF></metadata><defs
   id="defs21" /><sodipodi:namedview
   pagecolor="#ffffff"
   bordercolor="#666666"
   borderopacity="1"
   objecttolerance="10"
   gridtolerance="10"
   guidetolerance="10"
   inkscape:pageopacity="0"
   inkscape:pageshadow="2"
   inkscape:window-width="1133"
   inkscape:window-height="707"
   id="namedview19"
   showgrid="false"
   inkscape:zoom="2.2250293"
   inkscape:cx="-32.949935"
   inkscape:cy="23.60895"
   inkscape:window-x="486"
   inkscape:window-y="60"
   inkscape:window-maximized="0"
   inkscape:current-layer="Layer_1" />
	 
	 <g
   id="g3"
   transform="matrix(1.223637,0,0,1.1036277,0.60416275,-8.0557105)">
	<path
   d="m 63.678,29.086 c -2.813,-2.499 -3.071,-6.801 -0.573,-9.611 2.497,-2.812 6.802,-3.065 9.611,-0.57 2.815,2.499 3.068,6.803 0.568,9.613 -2.492,2.809 -6.799,3.062 -9.606,0.568 z"
   id="path5"
   inkscape:connector-curvature="0"
   style="clip-rule:evenodd;fill:#ec2f84;fill-rule:evenodd" />
	<path
   d="m 52.029,21.319 c -3.244,-0.967 -5.089,-4.379 -4.122,-7.623 0.968,-3.242 4.384,-5.088 7.626,-4.119 3.243,0.967 5.087,4.38 4.115,7.623 -0.962,3.24 -4.377,5.086 -7.619,4.119 z"
   id="path7"
   inkscape:connector-curvature="0"
   style="clip-rule:evenodd;fill:#71669d;fill-rule:evenodd" />
	<path
   d="m 37.897,19.18 c -2.977,0.439 -5.747,-1.615 -6.184,-4.591 -0.439,-2.974 1.618,-5.744 4.594,-6.185 2.978,-0.438 5.745,1.618 6.183,4.598 0.439,2.971 -1.62,5.738 -4.593,6.178 z"
   id="path9"
   inkscape:connector-curvature="0"
   style="clip-rule:evenodd;fill:#1ab5e9;fill-rule:evenodd" />
	<path
   d="m 23.91,23.319 c -2.201,1.449 -5.154,0.846 -6.603,-1.354 -1.448,-2.196 -0.841,-5.154 1.355,-6.604 2.199,-1.45 5.154,-0.843 6.602,1.357 1.448,2.197 0.841,5.153 -1.354,6.601 z"
   id="path11"
   inkscape:connector-curvature="0"
   style="clip-rule:evenodd;fill:#73b544;fill-rule:evenodd" />
	<path
   d="m 12.776,33.193 c -1.185,1.923 -3.699,2.522 -5.62,1.34 -1.921,-1.181 -2.52,-3.699 -1.338,-5.622 1.184,-1.919 3.7,-2.521 5.622,-1.335 1.917,1.18 2.517,3.698 1.336,5.617 z"
   id="path13"
   inkscape:connector-curvature="0"
   style="clip-rule:evenodd;fill:#febc11;fill-rule:evenodd" />
	<circle
   cx="3.382"
   cy="46.734001"
   r="3.404"
   id="circle15"
   style="clip-rule:evenodd;fill:#ef8122;fill-rule:evenodd" />
	<path
   d="M 7.232,62.586 C 7.707,64.018 6.936,65.558 5.507,66.032 4.081,66.506 2.539,65.735 2.064,64.305 1.589,62.878 2.36,61.335 3.791,60.864 5.216,60.389 6.757,61.161 7.232,62.586 Z"
   id="path17"
   inkscape:connector-curvature="0"
   style="clip-rule:evenodd;fill:#a41c47;fill-rule:evenodd" />
		
	
</g>


</svg>