<?xml version="1.0" encoding="UTF-8" standalone="no"?>
<svg
   xmlns:dc="http://purl.org/dc/elements/1.1/"
   xmlns:cc="http://creativecommons.org/ns#"
   xmlns:rdf="http://www.w3.org/1999/02/22-rdf-syntax-ns#"
   xmlns:svg="http://www.w3.org/2000/svg"
   xmlns="http://www.w3.org/2000/svg"
   xmlns:xlink="http://www.w3.org/1999/xlink"
   xml:space="preserve"
   enable-background="new 0 0 617 770"
   viewBox="0 0 617 770"
   height="770px"
   width="617px"
   y="0px"
   x="0px"
   id="Layer_1"
   version="1.1"><metadata
   id="metadata100"><rdf:RDF><cc:Work
       rdf:about=""><dc:format>image/svg+xml</dc:format><dc:type
         rdf:resource="http://purl.org/dc/dcmitype/StillImage" /><dc:title></dc:title></cc:Work></rdf:RDF></metadata><defs
   id="defs98" />
<g
   id="g3">
	<defs
   id="defs5">
		<rect
   height="770"
   width="617"
   id="SVGID_1_" />
	</defs>
	<clipPath
   id="SVGID_2_">
		<use
   id="use9"
   overflow="visible"
   xlink:href="#SVGID_1_" />
	</clipPath>
	<g
   id="g11"
   clip-path="url(#SVGID_2_)"
   transform="matrix(1 0 0 1 -6.103516e-005 -4.768372e-007)">
		
			<image
   xlink:href="amandagradyyc.jpg"
   overflow="visible"
   width="5184"
   height="3456"
   transform="matrix(0.2274,0,0,0.2274,-521.3682,-5.9878)"
   id="image13"
   style="overflow:visible">
		</image>
	</g>
</g>
<linearGradient
   y2="384.75"
   x2="617"
   y1="384.75"
   x1="271"
   gradientUnits="userSpaceOnUse"
   id="SVGID_3_">
	<stop
   id="stop16"
   style="stop-color:#93C14F"
   offset="0" />
	<stop
   id="stop18"
   style="stop-color:#9AC45C"
   offset="0" />
	<stop
   id="stop20"
   style="stop-color:#9FC667"
   offset="0" />
	<stop
   id="stop22"
   style="stop-color:#A0C76A"
   offset="0" />
	<stop
   id="stop24"
   style="stop-color:#8FC070"
   offset="0.1828" />
	<stop
   id="stop26"
   style="stop-color:#80BA74"
   offset="0.3118" />
	<stop
   id="stop28"
   style="stop-color:#7DB885"
   offset="0.4307" />
	<stop
   id="stop30"
   style="stop-color:#75B6AF"
   offset="0.6884" />
	<stop
   id="stop32"
   style="stop-color:#67B3E6"
   offset="0.9892" />
</linearGradient>
<rect
   style="opacity:0.85;fill:url(#SVGID_3_);stroke:#81ba5e;stroke-miterlimit:10"
   id="rect34"
   height="770.5"
   width="346"
   stroke-miterlimit="10"
   y="-0.5"
   x="271" />
<g
   id="g36">
	<path
   id="path38"
   d="M375.398,109.243h-10.319v-8.64h30.96v8.64h-10.32v30.36h-10.32V109.243z"
   fill="#FFFFFF" />
	<path
   id="path40"
   d="M400.358,97.843h10.319v9.72l-0.479,5.16c1.039-0.92,2.289-1.79,3.75-2.61c1.459-0.819,3.21-1.23,5.25-1.23   c3.279,0,5.659,1.11,7.14,3.33c1.479,2.22,2.22,5.19,2.22,8.91v18.48h-10.319v-17.16c0-1.92-0.24-3.2-0.721-3.84   c-0.479-0.639-1.24-0.96-2.279-0.96c-0.96,0-1.761,0.201-2.4,0.6c-0.641,0.4-1.36,0.96-2.16,1.68v19.68h-10.319V97.843z"
   fill="#FFFFFF" />
	<path
   id="path42"
   d="M433.117,124.603c0-2.439,0.41-4.629,1.23-6.57c0.819-1.94,1.899-3.59,3.239-4.95   c1.34-1.359,2.87-2.4,4.591-3.12c1.719-0.72,3.499-1.08,5.34-1.08c2.199,0,4.119,0.381,5.76,1.14c1.64,0.76,3,1.8,4.08,3.12   s1.89,2.86,2.43,4.62c0.54,1.76,0.811,3.64,0.811,5.64c0,0.921-0.051,1.74-0.15,2.46c-0.101,0.72-0.19,1.26-0.27,1.62h-17.101   c0.48,1.92,1.34,3.24,2.58,3.96c1.239,0.72,2.7,1.08,4.38,1.08c1.04,0,2.05-0.15,3.03-0.45c0.979-0.3,2.01-0.75,3.09-1.35   l3.36,6.12c-1.641,1.16-3.45,2.03-5.431,2.61c-1.979,0.579-3.81,0.87-5.489,0.87c-2.201,0-4.24-0.351-6.12-1.05   c-1.881-0.699-3.511-1.719-4.891-3.06c-1.38-1.339-2.47-2.99-3.27-4.95C433.517,129.304,433.117,127.083,433.117,124.603z    M451.837,121.243c0-1.28-0.29-2.36-0.87-3.24c-0.58-0.879-1.649-1.32-3.21-1.32c-1.16,0-2.17,0.34-3.029,1.02   c-0.861,0.681-1.45,1.86-1.771,3.54H451.837z"
   fill="#FFFFFF" />
	<path
   id="path44"
   d="M485.316,126.163l-11.76-25.56h11.04l2.88,8.16c0.479,1.48,0.96,2.92,1.439,4.32   c0.48,1.401,0.979,2.86,1.5,4.38h0.24c0.52-1.52,1.029-2.979,1.53-4.38c0.499-1.4,1.01-2.84,1.529-4.32l2.881-8.16h10.8   l-11.76,25.56v13.44h-10.32V126.163z"
   fill="#FFFFFF" />
	<path
   id="path46"
   d="M504.516,124.603c0-2.479,0.41-4.7,1.23-6.66c0.819-1.959,1.92-3.609,3.3-4.95   c1.38-1.34,2.97-2.36,4.77-3.06c1.8-0.699,3.66-1.05,5.58-1.05s3.77,0.351,5.55,1.05c1.779,0.7,3.36,1.72,4.74,3.06   c1.38,1.34,2.49,2.991,3.33,4.95c0.84,1.96,1.26,4.181,1.26,6.66c0,2.48-0.42,4.701-1.26,6.66c-0.84,1.96-1.95,3.61-3.33,4.95   c-1.38,1.341-2.961,2.361-4.74,3.06c-1.78,0.699-3.63,1.05-5.55,1.05s-3.78-0.351-5.58-1.05s-3.39-1.719-4.77-3.06   c-1.38-1.339-2.48-2.99-3.3-4.95C504.926,129.304,504.516,127.083,504.516,124.603z M515.076,124.603c0,2.28,0.329,4.09,0.989,5.43   c0.66,1.34,1.771,2.01,3.33,2.01c1.561,0,2.67-0.669,3.33-2.01c0.66-1.34,0.99-3.15,0.99-5.43s-0.33-4.089-0.99-5.43   c-0.66-1.339-1.77-2.01-3.33-2.01c-1.56,0-2.67,0.67-3.33,2.01C515.405,120.514,515.076,122.323,515.076,124.603z"
   fill="#FFFFFF" />
	<path
   id="path48"
   d="M537.396,144.523c0-2.36,1.399-4.281,4.2-5.76v-0.24c-0.801-0.56-1.461-1.239-1.98-2.04   c-0.52-0.8-0.779-1.839-0.779-3.12c0-1.04,0.3-2.06,0.899-3.06c0.601-1,1.42-1.86,2.46-2.58v-0.24c-1.08-0.72-2.03-1.74-2.85-3.06   c-0.82-1.32-1.23-2.859-1.23-4.62c0-1.839,0.36-3.45,1.08-4.83c0.721-1.38,1.681-2.52,2.881-3.42c1.199-0.9,2.569-1.569,4.109-2.01   c1.539-0.439,3.13-0.66,4.771-0.66c1.76,0,3.359,0.24,4.8,0.72h11.16v7.44h-4.32c0.12,0.36,0.229,0.82,0.33,1.38   c0.1,0.561,0.15,1.14,0.15,1.74c0,1.761-0.321,3.27-0.961,4.53c-0.64,1.26-1.5,2.291-2.579,3.09c-1.08,0.8-2.361,1.39-3.841,1.77   c-1.479,0.38-3.06,0.57-4.739,0.57c-1.001,0-2.121-0.14-3.36-0.42c-0.32,0.28-0.521,0.531-0.6,0.75   c-0.081,0.22-0.12,0.55-0.12,0.99c0,0.681,0.319,1.15,0.96,1.41c0.639,0.261,1.719,0.39,3.24,0.39h4.5   c3.759,0,6.669,0.61,8.729,1.83c2.06,1.22,3.09,3.21,3.09,5.97c0,1.64-0.41,3.129-1.229,4.47c-0.82,1.339-1.98,2.49-3.48,3.45   s-3.32,1.7-5.46,2.22c-2.141,0.52-4.551,0.78-7.229,0.78c-1.721,0-3.341-0.13-4.86-0.39c-1.521-0.261-2.85-0.69-3.99-1.29   c-1.14-0.6-2.05-1.371-2.729-2.31C537.735,147.033,537.396,145.882,537.396,144.523z M545.796,142.843c0,0.96,0.54,1.659,1.62,2.1   c1.08,0.44,2.499,0.66,4.26,0.66c1.68,0,3.08-0.25,4.2-0.75c1.119-0.5,1.68-1.17,1.68-2.01c0-0.801-0.351-1.301-1.05-1.5   c-0.7-0.201-1.69-0.3-2.97-0.3h-2.341c-1.199,0-2.11-0.03-2.729-0.09c-0.621-0.06-1.15-0.15-1.59-0.27   c-0.36,0.36-0.63,0.699-0.811,1.02C545.886,142.023,545.796,142.402,545.796,142.843z M550.956,124.003   c0.96,0,1.739-0.339,2.34-1.02c0.6-0.68,0.899-1.74,0.899-3.18c0-1.4-0.3-2.43-0.899-3.09c-0.601-0.66-1.38-0.99-2.34-0.99   s-1.74,0.33-2.341,0.99c-0.6,0.66-0.899,1.69-0.899,3.09c0,1.44,0.3,2.5,0.899,3.18   C549.216,123.664,549.996,124.003,550.956,124.003z"
   fill="#FFFFFF" />
	<path
   id="path50"
   d="M569.075,131.083c0-3.12,1.28-5.57,3.841-7.35c2.559-1.779,6.72-2.97,12.479-3.57   c-0.24-2.08-1.641-3.12-4.2-3.12c-1.08,0-2.22,0.21-3.42,0.63c-1.2,0.42-2.58,1.05-4.14,1.89l-3.6-6.72   c2.119-1.28,4.26-2.26,6.42-2.94c2.159-0.68,4.419-1.02,6.779-1.02c3.88,0,6.931,1.11,9.15,3.33c2.22,2.22,3.33,5.79,3.33,10.71   v16.68h-8.4l-0.72-2.88h-0.24c-1.2,1.08-2.47,1.95-3.81,2.61c-1.341,0.66-2.83,0.99-4.471,0.99c-1.4,0-2.66-0.25-3.779-0.75   c-1.12-0.5-2.07-1.17-2.851-2.01c-0.779-0.84-1.37-1.82-1.77-2.94C569.275,133.503,569.075,132.323,569.075,131.083z    M578.916,130.243c0,1.44,0.919,2.16,2.76,2.16c0.84,0,1.53-0.189,2.07-0.57c0.54-0.38,1.089-0.87,1.649-1.47v-4.08   c-2.48,0.36-4.18,0.9-5.1,1.62C579.375,128.623,578.916,129.403,578.916,130.243z"
   fill="#FFFFFF" />
	<path
   id="path52"
   d="M286.48,162.603h10.68l6.12,16.2l2.16,6.36h0.239l2.16-6.36l5.88-16.2H324.4v39H314.8v-11.52   c0-1,0.05-2.1,0.15-3.3c0.1-1.2,0.21-2.43,0.33-3.69c0.12-1.26,0.26-2.49,0.42-3.69c0.159-1.2,0.3-2.28,0.42-3.24h-0.24   l-3.239,9.12l-5.4,13.14h-3.84l-5.4-13.14l-3.12-9.12h-0.239c0.119,0.96,0.259,2.04,0.42,3.24c0.159,1.2,0.3,2.43,0.42,3.69   c0.12,1.26,0.229,2.49,0.33,3.69c0.099,1.2,0.149,2.3,0.149,3.3v11.52h-9.479V162.603z"
   fill="#FFFFFF" />
	<path
   id="path54"
   d="M330.639,193.083c0-3.12,1.28-5.57,3.841-7.35c2.559-1.779,6.72-2.97,12.479-3.57   c-0.24-2.08-1.641-3.12-4.2-3.12c-1.08,0-2.22,0.21-3.42,0.63c-1.2,0.42-2.58,1.05-4.14,1.89l-3.6-6.72   c2.119-1.28,4.26-2.26,6.42-2.94c2.159-0.68,4.419-1.02,6.779-1.02c3.88,0,6.931,1.11,9.15,3.33c2.22,2.22,3.33,5.79,3.33,10.71   v16.68h-8.4l-0.72-2.88h-0.24c-1.2,1.08-2.47,1.95-3.81,2.61c-1.341,0.66-2.83,0.99-4.471,0.99c-1.4,0-2.66-0.25-3.779-0.75   c-1.12-0.5-2.07-1.17-2.851-2.01c-0.779-0.84-1.37-1.82-1.77-2.94C330.839,195.503,330.639,194.323,330.639,193.083z    M340.479,192.243c0,1.44,0.919,2.16,2.76,2.16c0.84,0,1.53-0.189,2.07-0.57c0.54-0.38,1.089-0.87,1.649-1.47v-4.08   c-2.48,0.36-4.18,0.9-5.1,1.62C340.938,190.623,340.479,191.403,340.479,192.243z"
   fill="#FFFFFF" />
	<path
   id="path56"
   d="M373.839,203.883v8.28H363.52v-40.56h8.399l0.72,2.76h0.24c1.119-1.04,2.38-1.879,3.78-2.52   c1.399-0.64,2.859-0.96,4.38-0.96c1.76,0,3.36,0.36,4.8,1.08c1.44,0.72,2.67,1.74,3.69,3.06c1.02,1.32,1.8,2.92,2.34,4.8   c0.54,1.88,0.81,3.98,0.81,6.3c0,2.601-0.351,4.9-1.05,6.9c-0.7,2-1.63,3.69-2.79,5.07c-1.16,1.38-2.49,2.43-3.99,3.15   c-1.5,0.72-3.05,1.08-4.649,1.08c-2.48,0-4.721-1-6.72-3L373.839,203.883z M373.839,192.483c0.601,0.561,1.22,0.94,1.86,1.14   c0.64,0.201,1.299,0.3,1.979,0.3c1.2,0,2.24-0.56,3.12-1.68c0.88-1.12,1.32-3.12,1.32-6c0-2.48-0.351-4.26-1.05-5.34   c-0.7-1.08-1.751-1.62-3.15-1.62c-0.801,0-1.51,0.16-2.13,0.48c-0.621,0.32-1.271,0.88-1.95,1.68V192.483z"
   fill="#FFFFFF" />
	<path
   id="path58"
   d="M410.558,162.603h15.12c2.079,0,4.069,0.21,5.97,0.63c1.899,0.42,3.56,1.14,4.979,2.16   s2.551,2.36,3.391,4.02c0.84,1.66,1.26,3.71,1.26,6.15c0,2.4-0.431,4.46-1.29,6.18c-0.86,1.72-2.01,3.13-3.45,4.23   c-1.439,1.101-3.101,1.92-4.979,2.46c-1.881,0.54-3.84,0.81-5.88,0.81h-4.801v12.36h-10.319V162.603z M425.197,181.083   c2.04,0,3.55-0.48,4.53-1.44c0.979-0.96,1.47-2.319,1.47-4.08c0-1.76-0.521-3-1.56-3.72c-1.041-0.72-2.521-1.08-4.44-1.08h-4.32   v10.32H425.197z"
   fill="#FFFFFF" />
	<path
   id="path60"
   d="M446.198,171.603h8.399l0.72,5.16h0.24c1.119-2.04,2.45-3.53,3.99-4.47c1.539-0.939,3.05-1.41,4.53-1.41   c0.919,0,1.659,0.051,2.22,0.15c0.56,0.1,1.06,0.25,1.5,0.45l-1.68,8.88c-0.561-0.12-1.091-0.229-1.591-0.33   c-0.5-0.1-1.09-0.15-1.77-0.15c-1.08,0-2.211,0.371-3.39,1.11c-1.181,0.741-2.131,2.05-2.851,3.93v16.68h-10.319V171.603z"
   fill="#FFFFFF" />
	<path
   id="path62"
   d="M468.518,186.603c0-2.479,0.41-4.7,1.23-6.66c0.819-1.959,1.92-3.609,3.3-4.95   c1.38-1.34,2.97-2.36,4.77-3.06c1.8-0.699,3.66-1.05,5.58-1.05s3.77,0.351,5.55,1.05c1.779,0.7,3.36,1.72,4.74,3.06   c1.38,1.34,2.49,2.991,3.33,4.95c0.84,1.96,1.26,4.181,1.26,6.66c0,2.48-0.42,4.701-1.26,6.66c-0.84,1.96-1.95,3.61-3.33,4.95   c-1.38,1.341-2.961,2.361-4.74,3.06c-1.78,0.699-3.63,1.05-5.55,1.05s-3.78-0.351-5.58-1.05s-3.39-1.719-4.77-3.06   c-1.38-1.339-2.48-2.99-3.3-4.95C468.928,191.304,468.518,189.083,468.518,186.603z M479.078,186.603c0,2.28,0.329,4.09,0.989,5.43   c0.66,1.34,1.771,2.01,3.33,2.01c1.561,0,2.67-0.669,3.33-2.01c0.66-1.34,0.99-3.15,0.99-5.43s-0.33-4.089-0.99-5.43   c-0.66-1.339-1.77-2.01-3.33-2.01c-1.56,0-2.67,0.67-3.33,2.01C479.407,182.514,479.078,184.323,479.078,186.603z"
   fill="#FFFFFF" />
	<path
   id="path64"
   d="M503.197,171.603h10.32v28.44c0,1.68-0.18,3.29-0.54,4.83c-0.36,1.54-0.99,2.91-1.89,4.11   c-0.9,1.2-2.101,2.15-3.601,2.85c-1.5,0.699-3.37,1.05-5.609,1.05c-1.401,0-2.521-0.081-3.36-0.24c-0.84-0.16-1.6-0.36-2.28-0.6   l1.801-7.56c0.44,0.12,0.82,0.21,1.14,0.27c0.32,0.06,0.66,0.09,1.02,0.09c1.08,0,1.85-0.33,2.311-0.99   c0.459-0.66,0.689-1.811,0.689-3.45V171.603z M508.357,167.883c-1.68,0-3.06-0.48-4.14-1.44s-1.62-2.199-1.62-3.72   c0-1.52,0.54-2.76,1.62-3.72s2.46-1.44,4.14-1.44c1.681,0,3.061,0.48,4.141,1.44s1.619,2.2,1.619,3.72   c0,1.521-0.539,2.76-1.619,3.72S510.038,167.883,508.357,167.883z"
   fill="#FFFFFF" />
	<path
   id="path66"
   d="M518.317,186.603c0-2.439,0.41-4.629,1.23-6.57c0.819-1.94,1.899-3.59,3.239-4.95   c1.34-1.359,2.87-2.4,4.591-3.12c1.719-0.72,3.499-1.08,5.34-1.08c2.199,0,4.119,0.381,5.76,1.14c1.64,0.76,3,1.8,4.08,3.12   s1.89,2.86,2.43,4.62c0.54,1.76,0.811,3.64,0.811,5.64c0,0.921-0.051,1.74-0.15,2.46c-0.101,0.72-0.19,1.26-0.27,1.62h-17.101   c0.48,1.92,1.34,3.24,2.58,3.96c1.239,0.72,2.7,1.08,4.38,1.08c1.04,0,2.05-0.15,3.03-0.45c0.979-0.3,2.01-0.75,3.09-1.35   l3.36,6.12c-1.641,1.16-3.45,2.03-5.431,2.61c-1.979,0.579-3.81,0.87-5.489,0.87c-2.201,0-4.24-0.351-6.12-1.05   c-1.881-0.699-3.511-1.719-4.891-3.06c-1.38-1.339-2.47-2.99-3.27-4.95C518.717,191.304,518.317,189.083,518.317,186.603z    M537.037,183.243c0-1.28-0.29-2.36-0.87-3.24c-0.58-0.879-1.649-1.32-3.21-1.32c-1.16,0-2.17,0.34-3.029,1.02   c-0.861,0.681-1.45,1.86-1.771,3.54H537.037z"
   fill="#FFFFFF" />
	<path
   id="path68"
   d="M549.276,186.603c0-2.479,0.439-4.7,1.32-6.66c0.879-1.959,2.06-3.609,3.54-4.95   c1.479-1.34,3.189-2.36,5.13-3.06c1.939-0.699,3.969-1.05,6.09-1.05c1.8,0,3.45,0.3,4.95,0.9c1.5,0.6,2.77,1.42,3.81,2.46   l-4.68,6.36c-0.681-0.56-1.29-0.939-1.83-1.14c-0.54-0.2-1.09-0.3-1.65-0.3c-1.92,0-3.42,0.67-4.5,2.01   c-1.08,1.341-1.619,3.15-1.619,5.43s0.549,4.09,1.649,5.43c1.1,1.34,2.47,2.01,4.11,2.01c0.96,0,1.83-0.2,2.609-0.6   c0.78-0.399,1.51-0.84,2.19-1.32l4.08,6.48c-1.521,1.32-3.19,2.271-5.01,2.85c-1.821,0.579-3.511,0.87-5.07,0.87   c-2.121,0-4.101-0.351-5.94-1.05s-3.44-1.719-4.8-3.06c-1.36-1.339-2.43-2.99-3.21-4.95   C549.666,191.304,549.276,189.083,549.276,186.603z"
   fill="#FFFFFF" />
	<path
   id="path70"
   d="M579.875,179.643h-3.96v-7.68l4.561-0.36l1.199-7.8h8.521v7.8h6.84v8.04h-6.84v10.26   c0,1.68,0.36,2.831,1.08,3.45c0.72,0.621,1.56,0.93,2.52,0.93c0.48,0,0.95-0.05,1.41-0.15c0.46-0.099,0.87-0.21,1.23-0.33   l1.56,7.44c-0.801,0.24-1.761,0.48-2.88,0.72c-1.12,0.24-2.521,0.36-4.2,0.36c-1.96,0-3.63-0.291-5.01-0.87   c-1.38-0.58-2.521-1.41-3.42-2.49c-0.9-1.08-1.561-2.37-1.98-3.87s-0.63-3.17-0.63-5.01V179.643z"
   fill="#FFFFFF" />
</g>
<g
   id="g72">
</g>
<g
   id="g74">
</g>
<path
   id="path76"
   d="M534.653,643.859l5.056-5.057l14.677,14.676l-14.553,14.553l-5.242-5.241l9.619-9.619  C544.21,653.171,534.776,643.735,534.653,643.859"
   fill="#FFFFFF" />
<path
   id="path78"
   d="M554.069,643.859l5.057-5.057l14.675,14.676l-14.553,14.553l-5.241-5.241l9.619-9.619  C563.626,653.171,554.192,643.735,554.069,643.859"
   fill="#FFFFFF" />
<rect
   id="rect80"
   height="329"
   width="313.218"
   fill="none"
   y="266"
   x="284.777" />
<text
   y="285.2236"
   x="344.0957"
   id="text82"><tspan
     style="font-size:27px;font-family:SourceSansPro-Regular;fill:#ffffff"
     id="tspan84"
     font-size="27"
     y="285.2236"
     x="344.0957">We want to get the</tspan><tspan
     style="font-size:27px;font-family:SourceSansPro-Regular;fill:#ffffff"
     id="tspan86"
     font-size="27"
     y="317.2236"
     x="370.61069">world on its mat</tspan><tspan
     style="font-size:27px;font-family:SourceSansPro-Regular;fill:#ffffff"
     id="tspan88"
     font-size="27"
     y="413.2236"
     x="290.12469">To create a world that’s </tspan><tspan
     style="font-size:27px;font-family:SourceSansPro-Regular;fill:#ffffff"
     id="tspan90"
     font-size="27"
     y="445.2236"
     x="360.45871">powered by yoga</tspan><tspan
     style="font-size:27px;font-family:SourceSansPro-Semibold;fill:#ffffff"
     id="tspan92"
     font-size="27"
     y="541.22357"
     x="340.23669">Share your story &amp; </tspan><tspan
     style="font-size:27px;font-family:SourceSansPro-Semibold;fill:#ffffff"
     id="tspan94"
     font-size="27"
     y="573.22357"
     x="282.37469">inspire someone today!</tspan></text>

</svg>