<?xml version="1.0" encoding="UTF-8" standalone="no"?>
<!-- Generator: Adobe Illustrator 16.0.3, SVG Export Plug-In . SVG Version: 6.00 Build 0)  -->

<svg
   xmlns:dc="http://purl.org/dc/elements/1.1/"
   xmlns:cc="http://creativecommons.org/ns#"
   xmlns:rdf="http://www.w3.org/1999/02/22-rdf-syntax-ns#"
   xmlns:svg="http://www.w3.org/2000/svg"
   xmlns="http://www.w3.org/2000/svg"
   xmlns:sodipodi="http://sodipodi.sourceforge.net/DTD/sodipodi-0.dtd"
   xmlns:inkscape="http://www.inkscape.org/namespaces/inkscape"
   version="1.1"
   id="Layer_1"
   x="0px"
   y="0px"
   width="19.726"
   height="28.049"
   viewBox="0 0 19.726 28.049"
   enable-background="new 0 0 25 41"
   xml:space="preserve"
   inkscape:version="0.91 r13725"
   sodipodi:docname="blue-new.svg"><metadata
   id="metadata40"><rdf:RDF><cc:Work
       rdf:about=""><dc:format>image/svg+xml</dc:format><dc:type
         rdf:resource="http://purl.org/dc/dcmitype/StillImage" /><dc:title></dc:title></cc:Work></rdf:RDF></metadata><defs
   id="defs38" /><sodipodi:namedview
   pagecolor="#ffffff"
   bordercolor="#666666"
   borderopacity="1"
   objecttolerance="10"
   gridtolerance="10"
   guidetolerance="10"
   inkscape:pageopacity="0"
   inkscape:pageshadow="2"
   inkscape:window-width="1920"
   inkscape:window-height="1057"
   id="namedview36"
   showgrid="false"
   fit-margin-top="0"
   fit-margin-left="0"
   fit-margin-right="0"
   fit-margin-bottom="0"
   inkscape:zoom="21.512195"
   inkscape:cx="9.876"
   inkscape:cy="14.431"
   inkscape:window-x="-8"
   inkscape:window-y="-8"
   inkscape:window-maximized="1"
   inkscape:current-layer="Layer_1" />
<g
   id="g3"
   transform="translate(-2.624,-6.882)">
	<path
   d="m 22.35,17.528 c 0,7.016 -9.863,17.402 -9.863,17.402 0,0 -9.863,-10.386 -9.863,-17.402 0,-7.016 4.416,-10.646 9.863,-10.646 5.447,0 9.863,3.631 9.863,10.646 z"
   id="path5"
   inkscape:connector-curvature="0"
   style="fill:#16b4e9" />
	<circle
   stroke-miterlimit="10"
   cx="12.486"
   cy="16.882"
   r="7.5640001"
   id="circle7"
   style="fill:#ffffff;stroke:#85d3e8;stroke-width:2.51620007;stroke-miterlimit:10" />
	<path
   d="m 12.487,6.882 0,28.049 c 0,0 9.863,-10.387 9.863,-17.402 0,-7.015 -4.416,-10.647 -9.863,-10.647 z"
   id="path9"
   inkscape:connector-curvature="0"
   style="opacity:0.22999998;fill:#ffffff" />
</g>
<radialGradient
   id="SVGID_1_"
   cx="107.6436"
   cy="566.69342"
   r="15.7358"
   gradientTransform="matrix(0.7626,0,0,0.2285,-69.6021,-94.3806)"
   gradientUnits="userSpaceOnUse">
	<stop
   offset="0.1828"
   style="stop-color:#434343"
   id="stop12" />
	<stop
   offset="0.2492"
   style="stop-color:#6C6C6C"
   id="stop14" />
	<stop
   offset="0.3246"
   style="stop-color:#939393"
   id="stop16" />
	<stop
   offset="0.4054"
   style="stop-color:#B4B4B4"
   id="stop18" />
	<stop
   offset="0.4914"
   style="stop-color:#D0D0D0"
   id="stop20" />
	<stop
   offset="0.5845"
   style="stop-color:#E5E5E5"
   id="stop22" />
	<stop
   offset="0.6881"
   style="stop-color:#F4F4F4"
   id="stop24" />
	<stop
   offset="0.8107"
   style="stop-color:#FCFCFC"
   id="stop26" />
	<stop
   offset="1"
   style="stop-color:#FFFFFF"
   id="stop28" />
</radialGradient>

<path
   d="m 12.287,11.867 c -0.064,1.512 -1.672,2.282 -1.672,2.282 -0.738,0.355 -1.573,0 -1.573,0 C 7.34,13.346 7.5,11.835 7.5,11.835 l 0,-1.929 4.787,0 0,1.961 z m -1.349,0.772 -2.088,0 c 0,0 -0.194,0.801 0.948,1.061 -10e-4,0 1.171,-0.065 1.14,-1.061 z M 8.785,10.71 c -0.319,0 -0.579,0.229 -0.579,0.514 0,0.285 0.259,0.515 0.579,0.515 0.32,0 0.578,-0.231 0.578,-0.515 0,-0.284 -0.258,-0.514 -0.578,-0.514 z m 2.153,0 c -0.318,0 -0.578,0.229 -0.578,0.514 0,0.285 0.259,0.515 0.578,0.515 0.32,0 0.578,-0.231 0.578,-0.515 0,-0.284 -0.258,-0.514 -0.578,-0.514 z m 2.923,1.608 0,-2.862 c 0,0 0.064,-1.576 -1.189,-2.765 0,0 -1.354,-0.965 -2.78,-0.997 0,0 -1.557,0.032 -2.777,1.126 0,0 -1.285,1.093 -1.252,2.732 l 0,2.766 c 0,0 -0.032,0.61 0.482,0.674 0,0 0.514,-0.032 0.578,-0.61 L 6.955,9.905 c 0,0 -0.136,-0.675 0.543,-0.708 l 4.79,-0.032 c 0,0 0.611,0.097 0.611,0.739 l 0,2.477 c 0,0 -0.033,0.579 0.418,0.611 -10e-4,10e-4 0.544,0.032 0.544,-0.674 z"
   id="path32"
   inkscape:connector-curvature="0"
   style="fill:#16b4e9" />
<rect
   x="9.8630009"
   y="5.3290005"
   width="4.2080002"
   height="9.2270002"
   id="rect34"
   style="opacity:0.22999998;fill:#ffffff" />
</svg>