<?xml version="1.0" encoding="utf-8"?>
<!-- Generator: Adobe Illustrator 16.0.3, SVG Export Plug-In . SVG Version: 6.00 Build 0)  -->
<!DOCTYPE svg PUBLIC "-//W3C//DTD SVG 1.1//EN" "http://www.w3.org/Graphics/SVG/1.1/DTD/svg11.dtd">
<svg version="1.1" id="Layer_1" xmlns="http://www.w3.org/2000/svg" xmlns:xlink="http://www.w3.org/1999/xlink" x="0px" y="0px"
	 width="40px" height="40px" viewBox="0 0 40 40" enable-background="new 0 0 40 40" xml:space="preserve">
<g>
	<g>
		<ellipse fill="#BDBDBD" cx="19.984" cy="20.007" rx="18.693" ry="18.684"/>
		<path fill="#FFFFFF" d="M19.984,40.014c-11.037,0-20.016-8.976-20.016-20.006C-0.032,8.976,8.947,0,19.984,0
			C31.021,0,40,8.976,40,20.007C40,31.038,31.021,40.014,19.984,40.014z M19.984,2.646c-9.578,0-17.369,7.788-17.369,17.362
			s7.792,17.361,17.369,17.361c9.577,0,17.37-7.787,17.37-17.361S29.561,2.646,19.984,2.646z"/>
	</g>
	<path fill="#FFFFFF" d="M26.229,24.807c-0.166,3.886-4.301,5.869-4.301,5.869c-1.903,0.91-4.053,0-4.053,0
		c-4.383-2.066-3.97-5.952-3.97-5.952v-4.96h12.324V24.807z M22.754,26.791h-5.375c0,0-0.499,2.062,2.44,2.728
		C19.818,29.519,22.837,29.354,22.754,26.791z M17.213,21.83c-0.822,0-1.489,0.592-1.489,1.323s0.667,1.322,1.489,1.322
		c0.823,0,1.488-0.591,1.488-1.322S18.037,21.83,17.213,21.83z M22.757,21.83c-0.822,0-1.488,0.592-1.488,1.323
		s0.666,1.322,1.488,1.322s1.488-0.591,1.488-1.322S23.579,21.83,22.757,21.83z M30.28,25.964v-7.358c0,0,0.167-4.051-3.059-7.11
		c0,0-3.484-2.48-7.16-2.563c0,0-4.007,0.083-7.149,2.894c0,0-3.309,2.811-3.227,7.027l-0.001,7.11c0,0-0.082,1.571,1.242,1.736
		c0,0,1.323-0.083,1.489-1.57l0.083-6.366c0,0-0.352-1.736,1.396-1.819l12.334-0.083c0,0,1.572,0.248,1.572,1.901v6.366
		c0,0-0.084,1.487,1.074,1.57C28.875,27.7,30.28,27.783,30.28,25.964z"/>
</g>
</svg>
