<?xml version="1.0" encoding="utf-8"?>
<!-- Generator: Adobe Illustrator 16.0.3, SVG Export Plug-In . SVG Version: 6.00 Build 0)  -->
<!DOCTYPE svg PUBLIC "-//W3C//DTD SVG 1.1//EN" "http://www.w3.org/Graphics/SVG/1.1/DTD/svg11.dtd">
<svg version="1.1" id="Layer_1" xmlns="http://www.w3.org/2000/svg" xmlns:xlink="http://www.w3.org/1999/xlink" x="0px" y="0px"
	 width="40px" height="40px" viewBox="0 0 40 40" enable-background="new 0 0 40 40" xml:space="preserve">
<g>
	<g>
		<ellipse fill="#1AB5E9" cx="20.02" cy="20" rx="18.66" ry="18.676"/>
		<path fill="#FFFFFF" d="M20.019,40C9.001,40,0.038,31.027,0.038,20c0-11.028,8.963-20,19.981-20C31.036,0,40,8.972,40,20
			C40,31.027,31.036,40,20.019,40z M20.019,2.645C10.458,2.645,2.681,10.43,2.681,20c0,9.571,7.777,17.355,17.338,17.355
			S37.357,29.571,37.357,20C37.357,10.43,29.58,2.645,20.019,2.645z"/>
	</g>
	<path fill="#FFFFFF" d="M26.253,24.798c-0.165,3.885-4.294,5.867-4.294,5.867c-1.898,0.91-4.045,0-4.045,0
		c-4.375-2.064-3.963-5.949-3.963-5.949v-4.959h12.302V24.798z M22.785,26.781h-5.367c0,0-0.499,2.061,2.436,2.729
		C19.854,29.51,22.867,29.343,22.785,26.781z M17.253,21.823c-0.821,0-1.487,0.591-1.487,1.322c0,0.73,0.666,1.323,1.487,1.323
		c0.82,0,1.486-0.593,1.486-1.323C18.739,22.414,18.073,21.823,17.253,21.823z M22.786,21.823c-0.82,0-1.486,0.591-1.486,1.322
		c0,0.73,0.666,1.323,1.486,1.323c0.822,0,1.486-0.593,1.486-1.323C24.272,22.414,23.608,21.823,22.786,21.823z M30.299,25.956V18.6
		c0,0,0.165-4.049-3.056-7.107c0,0-3.479-2.479-7.146-2.562c0,0-4,0.083-7.137,2.893c0,0-3.303,2.81-3.22,7.025l-0.001,7.108
		c0,0-0.082,1.569,1.24,1.734c0,0,1.321-0.081,1.486-1.569l0.083-6.365c0,0-0.351-1.735,1.394-1.818l12.313-0.083
		c0,0,1.568,0.248,1.568,1.9v6.365c0,0-0.082,1.488,1.074,1.569C28.896,27.69,30.299,27.772,30.299,25.956z"/>
</g>
</svg>
