<?xml version="1.0" encoding="utf-8"?>
<!-- Generator: Adobe Illustrator 16.0.3, SVG Export Plug-In . SVG Version: 6.00 Build 0)  -->
<!DOCTYPE svg PUBLIC "-//W3C//DTD SVG 1.1//EN" "http://www.w3.org/Graphics/SVG/1.1/DTD/svg11.dtd">
<svg version="1.1" id="Layer_1" xmlns="http://www.w3.org/2000/svg" xmlns:xlink="http://www.w3.org/1999/xlink" x="0px" y="0px"
	 width="40px" height="40px" viewBox="0 0 40 40" enable-background="new 0 0 40 40" xml:space="preserve">
<g>
	<g>
		<ellipse fill="#CB2026" cx="19.972" cy="20" rx="18.651" ry="18.678"/>
		<path fill="#FFFFFF" d="M19.971,40C8.959,40,0,31.027,0,20S8.959,0,19.971,0c11.013,0,19.973,8.973,19.973,20S30.983,40,19.971,40
			z M19.971,2.645C10.415,2.645,2.64,10.43,2.64,20s7.774,17.355,17.331,17.355c9.557,0,17.331-7.785,17.331-17.355
			S29.527,2.645,19.971,2.645z"/>
	</g>
	<g>
		<path fill="#FFFFFF" d="M17.164,27.899c0-1.664,1.161-2.859,2.823-2.859c1.663,0,2.761,1.195,2.792,2.859
			c0,1.633-1.099,2.857-2.792,2.857C18.292,30.757,17.164,29.532,17.164,27.899z M18.199,23.471L17.478,9.243h4.986l-0.688,14.228
			H18.199z"/>
	</g>
</g>
</svg>
