<?xml version="1.0" encoding="UTF-8" standalone="no"?>
<!-- Generator: Adobe Illustrator 16.0.3, SVG Export Plug-In . SVG Version: 6.00 Build 0)  -->

<svg
   xmlns:dc="http://purl.org/dc/elements/1.1/"
   xmlns:cc="http://creativecommons.org/ns#"
   xmlns:rdf="http://www.w3.org/1999/02/22-rdf-syntax-ns#"
   xmlns:svg="http://www.w3.org/2000/svg"
   xmlns="http://www.w3.org/2000/svg"
   xmlns:sodipodi="http://sodipodi.sourceforge.net/DTD/sodipodi-0.dtd"
   xmlns:inkscape="http://www.inkscape.org/namespaces/inkscape"
   version="1.1"
   id="Layer_1"
   x="0px"
   y="0px"
   width="40"
   height="40"
   viewBox="0 0 40 40"
   enable-background="new 0 0 1000 1000"
   xml:space="preserve"
   inkscape:version="0.91 r13725"
   sodipodi:docname="Icon_FindTeal.svg"><metadata
   id="metadata9"><rdf:RDF><cc:Work
       rdf:about=""><dc:format>image/svg+xml</dc:format><dc:type
         rdf:resource="http://purl.org/dc/dcmitype/StillImage" /><dc:title></dc:title></cc:Work></rdf:RDF></metadata><defs
   id="defs7" /><sodipodi:namedview
   pagecolor="#ffffff"
   bordercolor="#666666"
   borderopacity="1"
   objecttolerance="10"
   gridtolerance="10"
   guidetolerance="10"
   inkscape:pageopacity="0"
   inkscape:pageshadow="2"
   inkscape:window-width="1920"
   inkscape:window-height="1057"
   id="namedview5"
   showgrid="false"
   inkscape:zoom="11.345681"
   inkscape:cx="3.3648369"
   inkscape:cy="28.702381"
   inkscape:window-x="-8"
   inkscape:window-y="-8"
   inkscape:window-maximized="1"
   inkscape:current-layer="g3" />

<g
   transform="translate(-0.0413868,0.06345639)"
   id="g3"><ellipse
     style="fill:#64a59d;fill-opacity:1"
     cx="20.049999"
     cy="19.973"
     rx="18.724001"
     ry="18.666"
     id="ellipse5" /><path
     style="fill:#ffffff"
     inkscape:connector-curvature="0"
     d="M 20.049,39.96 C 8.994,39.96 0,30.993 0,19.973 0,8.952 8.994,-0.014 20.049,-0.014 c 11.054,0 20.049,8.966 20.049,19.987 10e-4,11.02 -8.994,19.987 -20.049,19.987 z m 0,-37.331 c -9.594,0 -17.399,7.781 -17.399,17.344 0,9.563 7.805,17.344 17.399,17.344 9.594,0 17.397,-7.781 17.397,-17.344 0,-9.563 -7.802,-17.344 -17.397,-17.344 z"
     id="path7" /><path
     style="fill:#ffffff"
     inkscape:connector-curvature="0"
     d="m 29.577,12.953 -8.224,0.042 0,-0.954 c 0.666,-0.376 1.119,-1.08 1.119,-1.896 0,-1.208 -0.983,-2.188 -2.196,-2.188 -1.213,0 -2.195,0.98 -2.195,2.188 0,0.816 0.454,1.52 1.118,1.896 l 0,5.867 -8.595,0 -3.48,2.396 3.48,2.519 8.595,0.041 0,9.127 2.154,0 0,-14.083 8.224,-0.082 3.396,-2.437 -3.396,-2.436 z m -9.3,-3.985 c 0.652,0 1.181,0.526 1.181,1.177 0,0.65 -0.529,1.177 -1.181,1.177 -0.652,0 -1.181,-0.527 -1.181,-1.177 0,-0.651 0.529,-1.177 1.181,-1.177 z"
     id="path9" /></g></svg>