<?xml version="1.0" encoding="utf-8"?>
<!-- Generator: Adobe Illustrator 16.0.3, SVG Export Plug-In . SVG Version: 6.00 Build 0)  -->
<!DOCTYPE svg PUBLIC "-//W3C//DTD SVG 1.1//EN" "http://www.w3.org/Graphics/SVG/1.1/DTD/svg11.dtd">
<svg version="1.1" id="Layer_1" xmlns="http://www.w3.org/2000/svg" xmlns:xlink="http://www.w3.org/1999/xlink" x="0px" y="0px"
	 width="40px" height="40px" viewBox="0 0 40 40" enable-background="new 0 0 40 40" xml:space="preserve">
<g>
	<g>
		<ellipse fill="#A3DDF2" cx="19.985" cy="19.997" rx="18.664" ry="18.681"/>
		<path fill="#FFFFFF" d="M19.985,40C8.965,40,0,31.026,0,19.997S8.965-0.006,19.985-0.006c11.019,0,19.985,8.974,19.985,20.003
			S31.004,40,19.985,40z M19.985,2.639c-9.563,0-17.343,7.786-17.343,17.358c0,9.571,7.779,17.357,17.343,17.357
			c9.562,0,17.342-7.786,17.342-17.357C37.327,10.425,29.547,2.639,19.985,2.639z"/>
	</g>
	<path fill="#FFFFFF" d="M26.22,24.795c-0.164,3.885-4.294,5.869-4.294,5.869c-1.9,0.91-4.047,0-4.047,0
		c-4.377-2.065-3.964-5.951-3.964-5.951v-4.959H26.22V24.795z M22.751,26.779h-5.367c0,0-0.5,2.063,2.436,2.729
		C19.819,29.508,22.834,29.343,22.751,26.779z M17.218,21.82c-0.821,0-1.487,0.592-1.487,1.322c0,0.731,0.666,1.322,1.487,1.322
		c0.822,0,1.486-0.591,1.486-1.322C18.705,22.412,18.04,21.82,17.218,21.82z M22.754,21.82c-0.822,0-1.486,0.592-1.486,1.322
		c0,0.731,0.664,1.322,1.486,1.322c0.82,0,1.486-0.591,1.486-1.322C24.24,22.412,23.574,21.82,22.754,21.82z M30.267,25.953v-7.356
		c0,0,0.165-4.051-3.057-7.109c0,0-3.479-2.479-7.148-2.562c0,0-4,0.083-7.138,2.893c0,0-3.304,2.81-3.22,7.026l-0.002,7.108
		c0,0-0.082,1.571,1.241,1.735c0,0,1.321-0.081,1.486-1.569l0.082-6.365c0,0-0.351-1.736,1.394-1.819l12.315-0.082
		c0,0,1.569,0.248,1.569,1.901v6.365c0,0-0.083,1.488,1.073,1.569C28.862,27.688,30.267,27.771,30.267,25.953z"/>
</g>
</svg>
