<?xml version="1.0" encoding="utf-8"?>
<!-- Generator: Adobe Illustrator 16.0.3, SVG Export Plug-In . SVG Version: 6.00 Build 0)  -->
<!DOCTYPE svg PUBLIC "-//W3C//DTD SVG 1.1//EN" "http://www.w3.org/Graphics/SVG/1.1/DTD/svg11.dtd">
<svg version="1.1" id="Layer_1" xmlns="http://www.w3.org/2000/svg" xmlns:xlink="http://www.w3.org/1999/xlink" x="0px" y="0px"
	 width="40px" height="40px" viewBox="0 0 40 40" enable-background="new 0 0 40 40" xml:space="preserve">
<g>
	<g>
		<circle fill="#C6C1D7" cx="20" cy="20" r="18.678"/>
		<path fill="#FFFFFF" d="M20,40C8.972,40,0,31.027,0,20C0,8.972,8.972,0,20,0s20,8.972,20,20C40,31.027,31.028,40,20,40z M20,2.645
			C10.43,2.645,2.644,10.43,2.644,20c0,9.569,7.786,17.355,17.356,17.355S37.354,29.569,37.354,20
			C37.354,10.43,29.57,2.645,20,2.645z"/>
	</g>
	<path fill="#FFFFFF" d="M33.223,16.731l-13.554,4.628L6.776,16.786l12.782-4.572L33.223,16.731z M26.612,20.478l-6.979,2.504
		l-6.575-2.504v2.646c0,0-0.717,4.958,5.95,4.628c0,0,7.604,0.66,7.604-3.627V20.478z"/>
</g>
</svg>
