<?xml version="1.0" encoding="utf-8"?>
<!-- Generator: Adobe Illustrator 16.0.3, SVG Export Plug-In . SVG Version: 6.00 Build 0)  -->
<!DOCTYPE svg PUBLIC "-//W3C//DTD SVG 1.1//EN" "http://www.w3.org/Graphics/SVG/1.1/DTD/svg11.dtd">
<svg version="1.1" id="Layer_1" xmlns="http://www.w3.org/2000/svg" xmlns:xlink="http://www.w3.org/1999/xlink" x="0px" y="0px"
	 width="40px" height="40px" viewBox="0 0 40 40" enable-background="new 0 0 40 40" xml:space="preserve">
<g>
	<g>
		<circle fill="#85ADAD" cx="19.993" cy="20.008" r="18.684"/>
		<path fill="#FFFFFF" d="M19.993,40.016c-11.032,0-20.007-8.976-20.007-20.008C-0.014,8.976,8.961,0,19.993,0
			C31.025,0,40,8.976,40,20.008C40,31.04,31.025,40.016,19.993,40.016z M19.993,2.646c-9.573,0-17.361,7.788-17.361,17.362
			c0,9.573,7.788,17.362,17.361,17.362c9.574,0,17.361-7.789,17.361-17.362C37.354,10.434,29.567,2.646,19.993,2.646z"/>
	</g>
	<path fill="#FFFFFF" d="M13.902,22.454h4.38c0,0,2.4,1.044,0,1.775h-3.545l0.104,7.614c0,0,2.295-0.21,0.418,0.938
		c0,0-1.981,0.887-2.399-1.356l-0.522-3.656c0,0-0.312-1.57-1.459,0l-0.939,2.509c0,0-1.199,0.678-0.625-1.564l1.251-4.59
		c0,0,0.711-1.25-2.304-3.545c0,0-0.617-2.92,1.365-0.835l2.191,2.295l0.208-0.887c0,0-0.887-1.668,0.208-2.503
		c0,0,1.773-1.251,2.138,0.73c0,0,0.393,1.356-0.612,1.826L13.902,22.454z M9.729,13.484c0,0-3.755,2.974-2.66,4.068
		c0,0,0.469-0.142,2.66-2.332v3.038l0.782,0.781c0,0,0.626-2.112,2.503-1.877l-0.704-3.677l1.799-1.095c0,0,0.755-1.182-0.352-0.984
		L9.729,13.484z M11.436,8.815c-0.624-0.271-1.438,0.212-1.817,1.082c-0.379,0.87-0.181,1.795,0.443,2.068
		c0.624,0.272,1.438-0.212,1.816-1.083C12.258,10.013,12.06,9.088,11.436,8.815z M18.882,9.887v0.782h-3.364
		c0,0-1.565,0.664,0,1.427h2.424l-0.782,6.163c0,0-1.643,1.016-0.705,1.407l1.722-0.626l0.878-2.995c0,0,0.06-0.486,0.452-0.526
		c0.391-0.039,0.469,0.508,0.469,0.508l0.548,3.012l1.407,0.626c0,0,0.667,0.128,0.471-0.626l-0.86-0.781l-0.392-6.163h2.737
		c0,0,1.643-0.449-0.078-1.349l-3.532-0.078V9.887c0,0,2.047-0.548,0.639-2.27c0,0-1.251-1.251-2.425,0
		C18.491,7.617,17.487,8.869,18.882,9.887z M26.083,22.454h-4.38c0,0-2.399,1.044,0,1.775h3.546l-0.104,7.614
		c0,0-2.294-0.21-0.417,0.938c0,0,1.981,0.887,2.399-1.356l0.521-3.656c0,0,0.313-1.57,1.461,0l0.938,2.509
		c0,0,1.2,0.678,0.627-1.564l-1.254-4.59c0,0-0.71-1.25,2.305-3.545c0,0,0.617-2.92-1.365-0.835l-2.188,2.295l-0.21-0.887
		c0,0,0.886-1.668-0.209-2.503c0,0-1.772-1.251-2.139,0.73c0,0-0.393,1.356,0.613,1.826L26.083,22.454z M26.228,11.405
		c-1.107-0.198-0.579,0.975-0.579,0.975l2.026,1.104l-0.703,3.677c1.876-0.235,2.502,1.877,2.502,1.877l0.783-0.781V15.22
		c2.19,2.19,2.66,2.332,2.66,2.332c1.095-1.094-2.66-4.068-2.66-4.068L26.228,11.405z M28.106,10.882
		c0.38,0.871,1.193,1.354,1.818,1.083c0.623-0.273,0.822-1.198,0.443-2.068c-0.381-0.869-1.195-1.353-1.817-1.082
		C27.926,9.088,27.729,10.013,28.106,10.882z"/>
</g>
</svg>
