<?xml version="1.0" encoding="utf-8"?>
<!-- Generator: Adobe Illustrator 16.0.3, SVG Export Plug-In . SVG Version: 6.00 Build 0)  -->
<!DOCTYPE svg PUBLIC "-//W3C//DTD SVG 1.1//EN" "http://www.w3.org/Graphics/SVG/1.1/DTD/svg11.dtd">
<svg version="1.1" id="Layer_1" xmlns="http://www.w3.org/2000/svg" xmlns:xlink="http://www.w3.org/1999/xlink" x="0px" y="0px"
	 width="40px" height="40px" viewBox="0 0 40 40" enable-background="new 0 0 40 40" xml:space="preserve">
<g>
	<circle fill="#EB2D83" cx="20" cy="20" r="18.678"/>
	<path fill="#FFFFFF" d="M20,40C8.972,40,0,31.029,0,20C0,8.972,8.972,0,20,0c11.03,0,20,8.972,20,20C40,31.029,31.029,40,20,40z
		 M20,2.645C10.429,2.645,2.644,10.43,2.644,20c0,9.569,7.785,17.354,17.355,17.354c9.57,0,17.356-7.785,17.356-17.354
		C37.355,10.43,29.569,2.645,20,2.645z"/>
</g>
<path fill="#FFFFFF" d="M21.45,13.178c4.369,1.433,4.868,4.851,4.868,4.851c-0.055,1.544,0.605,2.813,0.605,2.813l2.322,3.418
	c0.331,1.157,1.99,1.985,1.99,1.985c0.773,3.75-3.926,3.97-3.926,3.97H12.547c-5.64-1.708-3.207-4.136-3.207-4.136l3.097-3.362
	c1.935-2.096,1.935-4.191,1.935-4.191c0.501-3.915,5.032-5.458,5.032-5.458l0.055-1.324c-1.603-0.275-1.438-2.618-1.438-2.618
	c0.056-2.62,2.267-2.62,2.267-2.62c2.267,0,2.433,2.702,2.433,2.702c0.111,2.095-1.381,2.536-1.381,2.536L21.45,13.178z
	 M15.533,20.456c-0.332,2.315-3.207,4.742-3.207,4.742c-2.211,0.826-0.83,1.764-0.83,1.764h2.986c3.041-0.332,2.985-4.08,2.985-4.08
	v-3.639C16.196,18.14,15.533,20.456,15.533,20.456z M23.015,19.243v3.639c0,0-0.057,3.748,2.984,4.08h2.985
	c0,0,1.382-0.938-0.829-1.764c0,0-2.875-2.427-3.207-4.742C24.948,20.456,24.285,18.14,23.015,19.243z"/>
</svg>
