<?xml version="1.0" encoding="utf-8"?>
<!-- Generator: Adobe Illustrator 16.0.3, SVG Export Plug-In . SVG Version: 6.00 Build 0)  -->
<!DOCTYPE svg PUBLIC "-//W3C//DTD SVG 1.1//EN" "http://www.w3.org/Graphics/SVG/1.1/DTD/svg11.dtd">
<svg version="1.1" id="Layer_1" xmlns="http://www.w3.org/2000/svg" xmlns:xlink="http://www.w3.org/1999/xlink" x="0px" y="0px"
	 width="40px" height="40px" viewBox="0 0 40 40" enable-background="new 0 0 40 40" xml:space="preserve">
<path fill="#FFFFFF" d="M21.45,13.178c4.369,1.433,4.868,4.851,4.868,4.851c-0.055,1.544,0.605,2.813,0.605,2.813l2.322,3.418
	c0.331,1.157,1.99,1.985,1.99,1.985c0.773,3.75-3.926,3.97-3.926,3.97H12.547c-5.64-1.708-3.207-4.136-3.207-4.136l3.097-3.362
	c1.935-2.096,1.935-4.191,1.935-4.191c0.501-3.915,5.032-5.458,5.032-5.458l0.055-1.324c-1.603-0.275-1.438-2.618-1.438-2.618
	c0.056-2.62,2.267-2.62,2.267-2.62c2.267,0,2.433,2.702,2.433,2.702c0.111,2.095-1.381,2.536-1.381,2.536L21.45,13.178z
	 M15.533,20.456c-0.332,2.315-3.207,4.742-3.207,4.742c-2.211,0.826-0.83,1.764-0.83,1.764h2.986c3.041-0.332,2.985-4.08,2.985-4.08
	v-3.639C16.196,18.14,15.533,20.456,15.533,20.456z M23.015,19.243v3.639c0,0-0.057,3.748,2.984,4.08h2.985
	c0,0,1.382-0.938-0.829-1.764c0,0-2.875-2.427-3.207-4.742C24.948,20.456,24.285,18.14,23.015,19.243z"/>
<g>
	<g>
		<ellipse fill="#F57E20" cx="20.054" cy="20.008" rx="18.629" ry="18.686"/>
		<path fill="#FFFFFF" d="M20.053,40.016c-10.999,0-19.947-8.976-19.947-20.008S9.055,0,20.053,0S40,8.976,40,20.008
			S31.052,40.016,20.053,40.016z M20.053,2.646c-9.544,0-17.309,7.789-17.309,17.362c0,9.573,7.765,17.362,17.309,17.362
			s17.309-7.789,17.309-17.362C37.362,10.434,29.598,2.646,20.053,2.646z"/>
	</g>
	<path fill="#FFFFFF" d="M23.943,25.364h-7.782c-0.579,0-1.049,0.471-1.049,1.053c0,0.581,0.47,1.052,1.049,1.052h7.782
		c0.58,0,1.051-0.471,1.051-1.052C24.994,25.835,24.523,25.364,23.943,25.364L23.943,25.364z M23.943,25.364 M20.054,6.605
		c-4.5,0-8.148,3.659-8.148,8.172c0,1.904,0.653,3.653,1.744,5.041c0.965,1.227,2.844,2.747,3.23,4.365h6.108
		c0.618-1.907,2.495-3.126,3.47-4.365c1.089-1.387,1.742-3.136,1.742-5.04C28.2,10.264,24.552,6.605,20.054,6.605L20.054,6.605z
		 M20.067,9.44c-2.893,0-5.245,2.36-5.245,5.261c0,0.45-0.363,0.815-0.813,0.815c-0.449,0-0.813-0.365-0.813-0.815
		c0-3.8,3.082-6.891,6.871-6.891c0.448,0,0.813,0.364,0.813,0.814C20.88,9.075,20.516,9.44,20.067,9.44L20.067,9.44z M20.067,9.44
		 M23.13,28.229h-6.153c-0.458,0-0.829,0.373-0.829,0.832c0,0.461,0.371,0.833,0.829,0.833h6.153c0.457,0,0.829-0.372,0.829-0.833
		C23.959,28.603,23.587,28.229,23.13,28.229L23.13,28.229z M23.13,28.229 M22.364,30.338h-4.624c-0.344,0-0.623,0.501-0.623,1.119
		c0,0.617,0.279,1.117,0.623,1.117h4.624c0.346,0,0.624-0.5,0.624-1.117C22.988,30.839,22.71,30.338,22.364,30.338L22.364,30.338z
		 M22.364,30.338"/>
</g>
</svg>
