<?xml version="1.0" encoding="utf-8"?>
<!-- Generator: Adobe Illustrator 16.0.3, SVG Export Plug-In . SVG Version: 6.00 Build 0)  -->
<!DOCTYPE svg PUBLIC "-//W3C//DTD SVG 1.1//EN" "http://www.w3.org/Graphics/SVG/1.1/DTD/svg11.dtd">
<svg version="1.1" id="Layer_1" xmlns="http://www.w3.org/2000/svg" xmlns:xlink="http://www.w3.org/1999/xlink" x="0px" y="0px"
	 width="40px" height="40px" viewBox="0 0 40 40" enable-background="new 0 0 40 40" xml:space="preserve">
<g>
	<g>
		<ellipse fill="#85ADAD" cx="20" cy="20" rx="18.678" ry="18.666"/>
		<path fill="#FFFFFF" d="M20,39.986C8.972,39.986,0,31.021,0,20C0,8.979,8.972,0.013,20,0.013c11.029,0,20,8.966,20,19.987
			C40,31.021,31.028,39.986,20,39.986z M20,2.656c-9.57,0-17.355,7.78-17.355,17.344c0,9.564,7.785,17.344,17.355,17.344
			S37.355,29.563,37.355,20C37.355,10.436,29.569,2.656,20,2.656z"/>
	</g>
	<g>
		<path fill="#FFFFFF" d="M10.15,12.858c-0.349,0-0.565,0.03-0.653,0.088s-0.102,0.123-0.044,0.195
			c0.058,0.074,0.204,0.196,0.437,0.37c0.115,0.088,0.203,0.16,0.261,0.218L20,21.219l9.849-7.446l0.217-0.218
			c0.232-0.174,0.386-0.298,0.46-0.37c0.071-0.072,0.064-0.145-0.022-0.218c-0.089-0.072-0.306-0.108-0.654-0.108H10.15z
			 M10.15,12.858"/>
		<path fill="#FFFFFF" d="M8.843,14.6v11.062c0,0.318,0.131,0.646,0.392,0.979c0.262,0.334,0.523,0.501,0.785,0.501h19.958
			c0.263,0,0.524-0.167,0.784-0.501c0.262-0.334,0.394-0.661,0.394-0.979V14.6L20,23.136L8.843,14.6z M8.843,14.6"/>
	</g>
</g>
</svg>
