<?xml version="1.0" encoding="utf-8"?>
<!-- Generator: Adobe Illustrator 16.0.3, SVG Export Plug-In . SVG Version: 6.00 Build 0)  -->
<!DOCTYPE svg PUBLIC "-//W3C//DTD SVG 1.1//EN" "http://www.w3.org/Graphics/SVG/1.1/DTD/svg11.dtd">
<svg version="1.1" id="Layer_1" xmlns="http://www.w3.org/2000/svg" xmlns:xlink="http://www.w3.org/1999/xlink" x="0px" y="0px"
	 width="40px" height="40px" viewBox="0 0 40 40" enable-background="new 0 0 40 40" xml:space="preserve">
<g>
	<g>
		<ellipse fill="#479088" cx="20.033" cy="20.03" rx="18.646" ry="18.704"/>
		<path fill="#FFFFFF" d="M20.034,40.06c-11.01,0-19.966-8.985-19.966-20.029C0.067,8.986,9.024,0,20.034,0
			C31.042,0,40,8.986,40,20.03C40,31.074,31.042,40.06,20.034,40.06z M20.034,2.649c-9.554,0-17.326,7.797-17.326,17.381
			c0,9.585,7.772,17.381,17.326,17.381c9.553,0,17.327-7.796,17.327-17.381C37.36,10.446,29.587,2.649,20.034,2.649z"/>
	</g>
	<path fill="#FFFFFF" d="M26.264,24.835c-0.165,3.891-4.289,5.876-4.289,5.876c-1.899,0.911-4.044,0-4.044,0
		c-4.373-2.068-3.96-5.959-3.96-5.959v-4.966h12.293V24.835z M22.8,26.821h-5.365c0,0-0.498,2.063,2.435,2.732
		C19.87,29.554,22.882,29.387,22.8,26.821z M17.271,21.855c-0.82,0-1.485,0.592-1.485,1.324s0.666,1.325,1.485,1.325
		c0.82,0,1.485-0.593,1.485-1.325S18.091,21.855,17.271,21.855z M22.801,21.855c-0.821,0-1.485,0.592-1.485,1.324
		s0.664,1.325,1.485,1.325c0.819,0,1.485-0.593,1.485-1.325S23.62,21.855,22.801,21.855z M30.307,25.994v-7.367
		c0,0,0.166-4.056-3.053-7.118c0,0-3.475-2.483-7.143-2.566c0,0-3.996,0.083-7.131,2.897c0,0-3.3,2.814-3.218,7.036l-0.001,7.118
		c0,0-0.081,1.571,1.239,1.738c0,0,1.32-0.082,1.485-1.573l0.083-6.373c0,0-0.351-1.738,1.392-1.821l12.304-0.082
		c0,0,1.567,0.248,1.567,1.903v6.373c0,0-0.081,1.491,1.073,1.573C28.904,27.732,30.307,27.814,30.307,25.994z"/>
</g>
</svg>
