<?xml version="1.0" encoding="utf-8"?>
<!-- Generator: Adobe Illustrator 16.0.3, SVG Export Plug-In . SVG Version: 6.00 Build 0)  -->
<!DOCTYPE svg PUBLIC "-//W3C//DTD SVG 1.1//EN" "http://www.w3.org/Graphics/SVG/1.1/DTD/svg11.dtd">
<svg version="1.1" id="Layer_1" xmlns="http://www.w3.org/2000/svg" xmlns:xlink="http://www.w3.org/1999/xlink" x="0px" y="0px"
	 width="40px" height="40px" viewBox="0 0 40 40" enable-background="new 0 0 40 40" xml:space="preserve">
<g>
	<g>
		<ellipse fill="#85ADAD" cx="20.011" cy="20.03" rx="18.751" ry="18.645"/>
		<path fill="#FFFFFF" d="M20.011,39.994c-11.072,0-20.079-8.956-20.079-19.964S8.939,0.066,20.011,0.066
			c11.071,0,20.079,8.956,20.079,19.964S31.082,39.994,20.011,39.994z M20.011,2.707c-9.608,0-17.424,7.771-17.424,17.324
			s7.816,17.324,17.424,17.324c9.609,0,17.423-7.771,17.423-17.324S29.62,2.707,20.011,2.707z"/>
	</g>
	<path fill="#FFFFFF" d="M22.538,22.323c-0.365-0.383-0.349-0.995,0.058-1.335c1.714-1.49,2.616-3.065,2.593-4.666
		c-0.021-2.544-2.198-4.375-2.221-4.397c-0.388-0.319-0.439-0.912-0.121-1.297c0.319-0.386,0.916-0.435,1.305-0.12
		c0.13,0.092,2.845,2.442,2.889,5.819c0.008,2.169-1.037,4.18-3.202,6.052C23.454,22.697,22.881,22.683,22.538,22.323L22.538,22.323
		z M23.941,25.291c-0.363-0.384-0.348-0.997,0.059-1.336c2.798-2.426,4.188-4.976,4.168-7.606c-0.044-4.143-3.666-7.175-3.688-7.196
		c-0.388-0.317-0.438-0.91-0.12-1.297c0.318-0.385,0.938-0.458,1.327-0.14c0.173,0.136,4.313,3.62,4.355,8.618
		c0.049,3.201-1.574,6.226-4.802,9.013C24.858,25.664,24.286,25.649,23.941,25.291L23.941,25.291z M17.484,22.323
		c-0.344,0.359-0.916,0.374-1.299,0.056c-2.166-1.872-3.211-3.883-3.202-6.052c0.042-3.377,2.758-5.727,2.888-5.819
		c0.388-0.315,0.984-0.267,1.304,0.12c0.319,0.386,0.269,0.979-0.12,1.297c-0.021,0.022-2.199,1.853-2.22,4.397
		c-0.024,1.601,0.878,3.176,2.592,4.666C17.833,21.328,17.849,21.94,17.484,22.323L17.484,22.323z M16.081,25.291
		c-0.344,0.358-0.916,0.373-1.299,0.056c-3.225-2.787-4.848-5.813-4.801-9.013c0.044-4.999,4.184-8.482,4.357-8.618
		c0.388-0.317,1.007-0.245,1.326,0.14c0.319,0.387,0.268,0.98-0.12,1.297c-0.021,0.021-3.645,3.053-3.689,7.196
		c-0.019,2.63,1.372,5.18,4.169,7.606C16.428,24.294,16.445,24.907,16.081,25.291L16.081,25.291z M22.02,18.593
		c1.186-1.118,1.235-3.001,0.112-4.179c-1.124-1.178-2.989-1.197-4.174-0.08c-1.185,1.118-1.204,2.973-0.109,4.12
		c0.196,0.205,0.419,0.363,0.653,0.499l-1.269,13.592h5.525l-1.224-13.587C21.706,18.855,21.871,18.735,22.02,18.593z M20.991,31.35
		H19v-2.888h1.991V31.35z M20.991,27.389H19v-2.887h1.991V27.389z M20.991,23.347H19v-2.887h1.991V23.347z"/>
</g>
</svg>
