<?xml version="1.0" encoding="utf-8"?>
<!-- Generator: Adobe Illustrator 16.0.3, SVG Export Plug-In . SVG Version: 6.00 Build 0)  -->
<!DOCTYPE svg PUBLIC "-//W3C//DTD SVG 1.1//EN" "http://www.w3.org/Graphics/SVG/1.1/DTD/svg11.dtd">
<svg version="1.1" id="Layer_1" xmlns="http://www.w3.org/2000/svg" xmlns:xlink="http://www.w3.org/1999/xlink" x="0px" y="0px"
	 width="40px" height="40px" viewBox="0 0 40 40" enable-background="new 0 0 40 40" xml:space="preserve">
<g>
	<g>
		<ellipse fill="#85ADAD" cx="20.029" cy="19.982" rx="18.65" ry="18.694"/>
		<path fill="#FFFFFF" d="M20.029,40C9.018,40,0.059,31.02,0.059,19.982c0-11.038,8.959-20.018,19.971-20.018S40,8.944,40,19.982
			C40,31.02,31.041,40,20.029,40z M20.029,2.611c-9.556,0-17.33,7.792-17.33,17.371c0,9.578,7.774,17.372,17.33,17.372
			c9.556,0,17.329-7.794,17.329-17.372C37.358,10.403,29.585,2.611,20.029,2.611z"/>
	</g>
	<path d="M20.029,19.982"/>
	<rect x="9.572" y="9.394" fill="none" width="20.915" height="21.177"/>
	<polygon fill="#FFFFFF" points="20.029,9.277 23.499,16.324 31.258,17.455 25.644,22.941 26.97,30.687 20.029,27.028 
		13.089,30.687 14.415,22.941 8.801,17.455 16.559,16.324 	"/>
</g>
</svg>
