<?xml version="1.0" encoding="utf-8"?>
<!-- Generator: Adobe Illustrator 16.0.3, SVG Export Plug-In . SVG Version: 6.00 Build 0)  -->
<!DOCTYPE svg PUBLIC "-//W3C//DTD SVG 1.1//EN" "http://www.w3.org/Graphics/SVG/1.1/DTD/svg11.dtd">
<svg version="1.1" id="Layer_1" xmlns="http://www.w3.org/2000/svg" xmlns:xlink="http://www.w3.org/1999/xlink" x="0px" y="0px"
	 width="40px" height="40px" viewBox="0 0 40 40" enable-background="new 0 0 40 40" xml:space="preserve">
<g>
	<g>
		<ellipse fill="#70659C" cx="20.035" cy="20" rx="18.646" ry="18.678"/>
		<path fill="#FFFFFF" d="M20.034,40C9.025,40,0.068,31.027,0.068,20c0-11.028,8.957-20,19.966-20C31.043,0,40,8.972,40,20
			C40,31.027,31.043,40,20.034,40z M20.034,2.645C10.48,2.645,2.708,10.43,2.708,20c0,9.57,7.772,17.355,17.326,17.355
			S37.359,29.57,37.359,20C37.359,10.43,29.588,2.645,20.034,2.645z"/>
	</g>
	<path fill="#FFFFFF" d="M33.234,16.731l-13.53,4.628L6.833,16.786l12.76-4.572L33.234,16.731z M26.635,20.478l-6.967,2.504
		l-6.564-2.504v2.645c0,0-0.715,4.959,5.94,4.629c0,0,7.591,0.661,7.591-3.628V20.478z"/>
</g>
</svg>
