<?xml version="1.0" encoding="utf-8"?>
<!-- Generator: Adobe Illustrator 16.0.3, SVG Export Plug-In . SVG Version: 6.00 Build 0)  -->
<!DOCTYPE svg PUBLIC "-//W3C//DTD SVG 1.1//EN" "http://www.w3.org/Graphics/SVG/1.1/DTD/svg11.dtd">
<svg version="1.1" id="Layer_1" xmlns="http://www.w3.org/2000/svg" xmlns:xlink="http://www.w3.org/1999/xlink" x="0px" y="0px"
	 width="40px" height="40px" viewBox="0 0 40 40" enable-background="new 0 0 40 40" xml:space="preserve">
<g>
	<g>
		<ellipse fill="#85ADAD" cx="20.045" cy="20" rx="18.72" ry="18.678"/>
		<path fill="#FFFFFF" d="M20.045,40C8.992,40,0,31.027,0,20C0,8.972,8.992,0,20.045,0C31.098,0,40.09,8.972,40.09,20
			C40.09,31.027,31.098,40,20.045,40z M20.045,2.645C10.453,2.645,2.65,10.43,2.65,20c0,9.569,7.803,17.355,17.395,17.355
			c9.593,0,17.395-7.786,17.395-17.355C37.439,10.43,29.638,2.645,20.045,2.645z"/>
	</g>
	<path fill="#FFFFFF" d="M29.599,29.037H10.491V10.964h2.043l0.001,3.224h1.96l0.028-3.224h10.96v3.224l1.85-0.028l0.027-3.196
		h2.238V29.037z M28.439,15.152H11.541V28.07h16.898V15.152z M15.457,16.231h-2.916v2.854h2.916V16.231z M13.468,17.157h1.06v1.002
		h-1.06V17.157z M19.432,16.231h-2.916v2.854h2.916V16.231z M17.444,17.157h1.06v1.002h-1.06V17.157z M23.408,16.231h-2.916v2.854
		h2.916V16.231z M21.42,17.157h1.061v1.002H21.42V17.157z M27.384,16.231h-2.916v2.854h2.916V16.231z M25.396,17.157h1.06v1.002
		h-1.06V17.157z M15.457,20.198h-2.916v2.854h2.916V20.198z M13.468,21.123h1.06v1.004h-1.06V21.123z M19.432,20.198h-2.916v2.854
		h2.916V20.198z M17.444,21.123h1.06v1.004h-1.06V21.123z M23.408,20.198h-2.916v2.854h2.916V20.198z M21.42,21.123h1.061v1.004
		H21.42V21.123z M27.384,20.198h-2.916v2.854h2.916V20.198z M25.396,21.123h1.06v1.004h-1.06V21.123z M15.457,24.165h-2.916v2.855
		h2.916V24.165z M13.468,25.09h1.06v1.005h-1.06V25.09z M19.432,24.165h-2.916v2.855h2.916V24.165z M17.444,25.09h1.06v1.005h-1.06
		V25.09z M23.408,24.165h-2.916v2.855h2.916V24.165z M21.42,25.09h1.061v1.005H21.42V25.09z M27.384,24.165h-2.916v2.855h2.916
		V24.165z M25.396,25.09h1.06v1.005h-1.06V25.09z"/>
</g>
</svg>
