<?xml version="1.0" encoding="utf-8"?>
<!-- Generator: Adobe Illustrator 16.0.3, SVG Export Plug-In . SVG Version: 6.00 Build 0)  -->
<!DOCTYPE svg PUBLIC "-//W3C//DTD SVG 1.1//EN" "http://www.w3.org/Graphics/SVG/1.1/DTD/svg11.dtd">
<svg version="1.1" id="Layer_1" xmlns="http://www.w3.org/2000/svg" xmlns:xlink="http://www.w3.org/1999/xlink" x="0px" y="0px"
	 width="40px" height="40px" viewBox="0 0 40 40" enable-background="new 0 0 40 40" xml:space="preserve">
<g>
	<g>
		<ellipse fill="#1AB5E9" cx="20.048" cy="19.981" rx="18.687" ry="18.661"/>
		<path fill="#FFFFFF" d="M20.048,39.964c-11.034,0-20.01-8.964-20.01-19.982C0.038,8.964,9.015,0,20.048,0
			s20.01,8.964,20.01,19.981C40.059,31,31.082,39.964,20.048,39.964z M20.048,2.642c-9.575,0-17.364,7.778-17.364,17.339
			c0,9.563,7.789,17.34,17.364,17.34c9.575,0,17.364-7.777,17.364-17.34C37.412,10.42,29.623,2.642,20.048,2.642z"/>
	</g>
	<path fill="#FFFFFF" d="M30.549,28.92H12.523c0,0-1.068,0.146-2.087-0.504c-0.606-0.386-0.78-1.478-0.78-1.478l-0.109-2.491V16.04
		v-1.487c0,0,0.044-0.847,0.881-1.266c0.839-0.419,2.095-0.221,2.095-0.221v-2.037h18.025V28.92z M28.345,13.066H14.508v3.798
		h13.836V13.066z M17.429,18.956h-2.921v3.028h2.921V18.956z M17.429,23.966h-2.921v2.973h2.921V23.966z M28.345,18.956h-9.813v1.02
		h9.813V18.956z M28.345,20.967h-9.813v1.018h9.813V20.967z M28.345,23.938h-9.813v1.019h9.813V23.938z M28.345,25.948h-9.813v1.018
		h9.813V25.948z M12.523,14.167c0,0-1.93-0.495-1.93,1.102v11.188c0,0,0.111,1.472,1.93,1.472V14.167z"/>
</g>
<path d="M34.234,37.344"/>
</svg>
