<?xml version="1.0" encoding="utf-8"?>
<!-- Generator: Adobe Illustrator 16.0.3, SVG Export Plug-In . SVG Version: 6.00 Build 0)  -->
<!DOCTYPE svg PUBLIC "-//W3C//DTD SVG 1.1//EN" "http://www.w3.org/Graphics/SVG/1.1/DTD/svg11.dtd">
<svg version="1.1" id="Layer_1" xmlns="http://www.w3.org/2000/svg" xmlns:xlink="http://www.w3.org/1999/xlink" x="0px" y="0px"
	 width="40px" height="40px" viewBox="0 0 40 40" enable-background="new 0 0 40 40" xml:space="preserve">
<g>
	<g>
		<circle fill="#1AB5E9" cx="20" cy="20" r="18.678"/>
		<path fill="#FFFFFF" d="M20,40C8.972,40,0,31.028,0,20S8.972,0,20,0c11.027,0,20,8.972,20,20S31.027,40,20,40z M20,2.645
			C10.43,2.645,2.645,10.43,2.645,20c0,9.57,7.785,17.355,17.355,17.355c9.569,0,17.355-7.785,17.355-17.355
			C37.355,10.43,29.569,2.645,20,2.645z"/>
	</g>
	<path fill="#FFFFFF" d="M13.91,22.445h4.379c0,0,2.399,1.044,0,1.775h-3.544l0.104,7.61c0,0,2.293-0.209,0.417,0.938
		c0,0-1.981,0.887-2.398-1.356l-0.521-3.654c0,0-0.313-1.57-1.459,0l-0.939,2.508c0,0-1.199,0.679-0.626-1.563l1.251-4.589
		c0,0,0.711-1.249-2.303-3.544c0,0-0.616-2.919,1.365-0.834l2.189,2.295l0.209-0.888c0,0-0.887-1.667,0.208-2.501
		c0,0,1.773-1.251,2.138,0.729c0,0,0.391,1.356-0.612,1.825L13.91,22.445z M9.739,13.479c0,0-3.753,2.972-2.659,4.066
		c0,0,0.47-0.142,2.659-2.331v3.037l0.782,0.78c0,0,0.625-2.111,2.503-1.876l-0.704-3.676l1.799-1.095c0,0,0.754-1.182-0.351-0.984
		L9.739,13.479z M11.445,8.812c-0.624-0.272-1.437,0.211-1.815,1.081c-0.38,0.869-0.181,1.795,0.442,2.067
		c0.624,0.272,1.437-0.211,1.815-1.081C12.267,10.009,12.068,9.084,11.445,8.812z M18.889,9.883v0.781h-3.362
		c0,0-1.564,0.664,0,1.426h2.423l-0.782,6.161c0,0-1.641,1.016-0.704,1.406l1.722-0.625l0.878-2.993c0,0,0.059-0.486,0.451-0.526
		c0.391-0.039,0.47,0.508,0.47,0.508l0.546,3.011l1.409,0.625c0,0,0.663,0.128,0.469-0.625l-0.86-0.78l-0.391-6.161h2.737
		c0,0,1.642-0.448-0.079-1.348l-3.531-0.078V9.883c0,0,2.045-0.548,0.637-2.269c0,0-1.251-1.251-2.423,0
		C18.498,7.614,17.495,8.866,18.889,9.883z M26.089,22.445h-4.38c0,0-2.397,1.044,0,1.775h3.547l-0.105,7.61
		c0,0-2.294-0.209-0.416,0.938c0,0,1.98,0.887,2.397-1.356l0.521-3.654c0,0,0.313-1.57,1.459,0l0.939,2.508
		c0,0,1.198,0.679,0.625-1.563l-1.252-4.589c0,0-0.711-1.249,2.304-3.544c0,0,0.616-2.919-1.364-0.834l-2.19,2.295l-0.207-0.888
		c0,0,0.885-1.667-0.21-2.501c0,0-1.771-1.251-2.137,0.729c0,0-0.394,1.356,0.612,1.825L26.089,22.445z M26.232,11.4
		c-1.107-0.198-0.58,0.974-0.58,0.974l2.027,1.105l-0.704,3.676c1.876-0.235,2.502,1.876,2.502,1.876l0.782-0.78v-3.037
		c2.189,2.189,2.659,2.331,2.659,2.331c1.095-1.094-2.659-4.066-2.659-4.066L26.232,11.4z M28.112,10.878
		c0.379,0.87,1.192,1.353,1.814,1.081c0.625-0.272,0.821-1.198,0.444-2.067c-0.38-0.869-1.192-1.353-1.817-1.081
		C27.93,9.084,27.732,10.009,28.112,10.878z"/>
</g>
</svg>
