<?xml version="1.0" encoding="utf-8"?>
<!-- Generator: Adobe Illustrator 16.0.3, SVG Export Plug-In . SVG Version: 6.00 Build 0)  -->
<!DOCTYPE svg PUBLIC "-//W3C//DTD SVG 1.1//EN" "http://www.w3.org/Graphics/SVG/1.1/DTD/svg11.dtd">
<svg version="1.1" id="Layer_1" xmlns="http://www.w3.org/2000/svg" xmlns:xlink="http://www.w3.org/1999/xlink" x="0px" y="0px"
	 width="40px" height="40px" viewBox="0 0 40 40" enable-background="new 0 0 40 40" xml:space="preserve">
<g>
	<g>
		
			<ellipse transform="matrix(0.9999 -0.0152 0.0152 0.9999 -0.3 0.3043)" fill="#BDBDBD" cx="19.932" cy="19.95" rx="18.643" ry="18.666"/>
		<path fill="#FFFFFF" d="M19.925,39.938c-10.839,0-19.79-8.831-19.954-19.685C-0.196,9.235,8.622,0.133,19.628-0.033l0.308-0.003
			c10.841,0,19.791,8.831,19.957,19.683c0.165,11.021-8.653,20.123-19.659,20.29L19.925,39.938z M19.937,2.607L19.67,2.609
			C10.119,2.754,2.466,10.651,2.61,20.212c0.142,9.42,7.91,17.083,17.314,17.083l0.269-0.002c9.551-0.145,17.204-8.043,17.06-17.604
			C37.111,10.27,29.343,2.607,19.937,2.607z"/>
	</g>
	<path fill="#FFFFFF" d="M23.678,12.899c0,2.676-2.167,4.846-4.84,4.846s-4.84-2.17-4.84-4.846c0-2.675,2.167-4.844,4.84-4.844
		S23.678,10.225,23.678,12.899z M26.585,28.912c0,0,0.455-10.02-7.748-9.91c0,0-7.761,1.322-7.651,9.91H26.585z M28.124,26.05h3.191
		c0,0,0.329-7.378-5.171-9.47c0,0,2.974-0.992,2.587-4.295c0,0-1.253-3.964-5.054-3.194c0,0,4.558,3.303,0.598,7.377
		c0,0-1.761,1.32,0,2.532C24.275,19.001,28.016,21.205,28.124,26.05z"/>
</g>
</svg>
