<?xml version="1.0" encoding="UTF-8" standalone="no"?>
<!-- Generator: Adobe Illustrator 16.0.3, SVG Export Plug-In . SVG Version: 6.00 Build 0)  -->

<svg
   xmlns:dc="http://purl.org/dc/elements/1.1/"
   xmlns:cc="http://creativecommons.org/ns#"
   xmlns:rdf="http://www.w3.org/1999/02/22-rdf-syntax-ns#"
   xmlns:svg="http://www.w3.org/2000/svg"
   xmlns="http://www.w3.org/2000/svg"
   xmlns:sodipodi="http://sodipodi.sourceforge.net/DTD/sodipodi-0.dtd"
   xmlns:inkscape="http://www.inkscape.org/namespaces/inkscape"
   version="1.1"
   id="Layer_1"
   x="0px"
   y="0px"
   width="40px"
   height="40px"
   viewBox="0 0 40 40"
   enable-background="new 0 0 40 40"
   xml:space="preserve"
   inkscape:version="0.91 r13725"
   sodipodi:docname="Icon_ProfileGreen.svg"><metadata
   id="metadata17"><rdf:RDF><cc:Work
       rdf:about=""><dc:format>image/svg+xml</dc:format><dc:type
         rdf:resource="http://purl.org/dc/dcmitype/StillImage" /><dc:title /></cc:Work></rdf:RDF></metadata><defs
   id="defs15">
	
	
</defs><sodipodi:namedview
   pagecolor="#ffffff"
   bordercolor="#666666"
   borderopacity="1"
   objecttolerance="10"
   gridtolerance="10"
   guidetolerance="10"
   inkscape:pageopacity="0"
   inkscape:pageshadow="2"
   inkscape:window-width="1920"
   inkscape:window-height="1057"
   id="namedview13"
   showgrid="false"
   inkscape:zoom="16"
   inkscape:cx="24.07813"
   inkscape:cy="14.82071"
   inkscape:window-x="-8"
   inkscape:window-y="-8"
   inkscape:window-maximized="1"
   inkscape:current-layer="Layer_1" />
<g
   id="g5"
   inkscape:export-xdpi="375.54001"
   inkscape:export-ydpi="375.54001">
		<path
   style="fill:#85adad"
   id="circle7"
   r="18.688"
   cy="20.049999"
   cx="19.989" />
		<path
   style="fill:#ffffff"
   inkscape:connector-curvature="0"
   id="path9"
   d="M 19.989,40.06 C 8.955,40.06 -0.022,31.083 -0.022,20.051 -0.022,9.017 8.955,0.041 19.989,0.041 31.023,0.04 40,9.017 40,20.05 40,31.083 31.023,40.06 19.989,40.06 Z m 0,-37.374 c -9.575,0 -17.365,7.79 -17.365,17.364 0,9.576 7.79,17.364 17.365,17.364 9.576,0 17.364,-7.788 17.364,-17.364 C 37.354,10.476 29.565,2.686 19.989,2.686 Z" />
	</g>
<path
   style="opacity:1;fill:#7cc144;fill-opacity:0.94117647"
   d="M 18.160007,37.274081 C 13.101759,36.692925 8.4495375,33.881408 5.6611724,29.72055 4.7054514,28.294403 4.1846271,27.25547 3.647356,25.703418 2.9119008,23.578858 2.7445037,22.503849 2.7534659,19.962941 2.7604207,17.991186 2.8019962,17.539425 3.0896625,16.309819 4.67121,9.549621 9.7890872,4.5287858 16.596572,3.0590187 c 1.472725,-0.3179681 5.351853,-0.3106374 6.833101,0.012913 6.972704,1.5230541 12.194713,6.8215858 13.586998,13.7861013 0.33196,1.660535 0.300642,4.934868 -0.06345,6.634117 -1.326636,6.191499 -5.749009,11.12216 -11.675338,13.017254 -2.215981,0.708615 -5.001356,1.00785 -7.117876,0.764677 z"
   id="path4221"
   inkscape:connector-curvature="0"
   inkscape:export-xdpi="375.54001"
   inkscape:export-ydpi="375.54001" /><path
   style="opacity:1;fill:#7cc144;fill-opacity:0.94117647"
   d="m 19.318667,37.398205 c -2.173173,-0.0842 -4.298948,-0.571666 -6.28125,-1.440368 -0.517841,-0.226934 -1.041008,-0.488518 -1.559989,-0.779998 l -0.169364,-0.09512 0.07735,-0.0022 0.07735,-0.0022 0.13889,0.07736 c 0.807135,0.449544 1.629601,0.827221 2.521702,1.157967 0.132921,0.04928 0.199557,0.07245 0.496093,0.172502 1.356442,0.457663 2.895182,0.76729 4.207032,0.846544 0.667664,0.04034 1.479662,0.03303 2.148437,-0.01932 0.05156,-0.004 0.141211,-0.01106 0.199219,-0.01561 0.702095,-0.05508 1.657512,-0.188627 2.267515,-0.316945 0.0296,-0.0062 0.0571,-0.01132 0.06112,-0.01132 0.004,0 0.0073,0.01933 0.0073,0.04297 0,0.02363 -0.0033,0.04297 -0.0074,0.04297 -0.0041,0 -0.09812,0.01763 -0.208984,0.03919 -0.861809,0.167554 -1.750376,0.268879 -2.67032,0.304501 -0.234081,0.0091 -1.062649,0.0085 -1.304688,-8.59e-4 z"
   id="path4223"
   inkscape:connector-curvature="0"
   inkscape:export-xdpi="375.54001"
   inkscape:export-ydpi="375.54001" /><path
   style="fill:#ffffff"
   inkscape:connector-curvature="0"
   id="path11"
   d="m 26.24476,24.800778 c -0.166,3.887 -4.301,5.87 -4.301,5.87 -1.902,0.91 -4.052,0 -4.052,0 -4.382,-2.067 -3.969,-5.953 -3.969,-5.953 l 0,-4.961 12.322,0 0,5.044 z m -3.473,1.984 -5.375,0 c 0,0 -0.5,2.062 2.439,2.729 0,-10e-4 3.018,-0.167 2.936,-2.729 z m -5.541,-4.961 c -0.822,0 -1.488,0.592 -1.488,1.322 0,0.732 0.667,1.323 1.488,1.323 0.821,0 1.488,-0.591 1.488,-1.323 0,-0.73 -0.666,-1.322 -1.488,-1.322 z m 5.542,0 c -0.821,0 -1.489,0.592 -1.489,1.322 0,0.732 0.668,1.323 1.489,1.323 0.821,0 1.488,-0.591 1.488,-1.323 0,-0.73 -0.667,-1.322 -1.488,-1.322 z m 7.523,4.134 0,-7.359 c 0,0 0.166,-4.052 -3.061,-7.111 0,0 -3.482,-2.4800004 -7.157,-2.5630004 0,0 -4.005,0.083 -7.148,2.8940004 0,0 -3.3070008,2.812 -3.2250008,7.029 l -10e-4,7.11 c 0,0 -0.081,1.571 1.2420008,1.737 0,0 1.324,-0.083 1.488,-1.572 l 0.083,-6.366 c 0,0 -0.351,-1.736 1.396,-1.819 l 12.333,-0.083 c 0,0 1.569,0.248 1.569,1.902 l 0,6.366 c 0,0 -0.083,1.489 1.076,1.572 0,0 1.405,0.082 1.405,-1.737 z"
   inkscape:export-xdpi="375.54001"
   inkscape:export-ydpi="375.54001" /><path
   style="opacity:1;fill:#7cc144;fill-opacity:0.94117647"
   d="M 4.3478681,27.586965 C 3.7466123,26.339973 3.3081711,25.067223 3.0160228,23.720754 2.9103499,23.233723 2.8171167,22.68342 2.7579198,22.197316 c -0.00759,-0.0623 -0.014715,-0.119873 -0.015839,-0.127929 l -0.00204,-0.01465 0.037155,0 0.037156,0 1.48e-5,0.01465 c 2.03e-5,0.02029 0.021352,0.253058 0.033382,0.364257 0.103174,0.953696 0.2944246,1.770182 0.6926443,2.957032 0.3043432,0.907061 0.5511923,1.530391 0.8620328,2.176757 l 0.059643,0.124024 -0.031907,0 -0.031907,0 -0.050382,-0.104492 -2e-7,0 z"
   id="path4231"
   inkscape:connector-curvature="0"
   inkscape:export-xdpi="375.54001"
   inkscape:export-ydpi="375.54001" /><path
   style="opacity:1;fill:#7cc144;fill-opacity:0.94117647"
   d="m 2.6931016,18.50975 c 0.00111,-0.0081 0.00474,-0.04541 0.00807,-0.08301 0.063002,-0.711073 0.1936066,-1.525127 0.3634919,-2.265625 0.2499208,-1.089357 0.6236045,-2.201763 1.0756787,-3.202148 l 0.032216,-0.07129 0.040123,0 0.040123,0 -0.054532,0.121994 C 3.7407705,14.03316 3.3761797,15.108244 3.1109881,16.215805 2.894387,17.120428 2.81504,17.63398 2.7829634,18.338851 c -0.00342,0.0752 -0.00716,0.147706 -0.0083,0.161133 l -0.00208,0.02441 -0.040751,0 -0.040751,0 0.00202,-0.01465 z"
   id="path4233"
   inkscape:connector-curvature="0"
   inkscape:export-xdpi="375.54001"
   inkscape:export-ydpi="375.54001" /><path
   style="opacity:1;fill:#7cc144;fill-opacity:0.94117647"
   d="m 4.18959,12.85204 c 0.014921,-0.04701 0.2925202,-0.614004 0.4098717,-0.837156 0.8459737,-1.608677 1.9313898,-3.0716448 3.2129419,-4.3305335 l 0.1464843,-0.1438939 0.00111,0.041357 0.00111,0.041357 L 7.848672,7.7334769 C 7.5506866,8.0258011 7.219831,8.3792105 6.9196568,8.7258216 5.8679331,9.9402464 4.972819,11.329356 4.2917953,12.803947 l -0.025257,0.05469 -0.039875,0.0011 c -0.039837,0.0011 -0.039872,0.0011 -0.037073,-0.0077 z"
   id="path4235"
   inkscape:connector-curvature="0"
   inkscape:export-xdpi="375.54001"
   inkscape:export-ydpi="375.54001" /><path
   style="opacity:1;fill:#7cc144;fill-opacity:0.94117647"
   d="m 2.7537727,20.071183 c 0,-0.319027 0.00141,-0.449538 0.00314,-0.290024 0.00173,0.159513 0.00173,0.420535 0,0.580048 -0.00173,0.159513 -0.00314,0.029 -0.00314,-0.290024 z"
   id="path4237"
   inkscape:connector-curvature="0"
   inkscape:export-xdpi="375.54001"
   inkscape:export-ydpi="375.54001" /><path
   style="opacity:1;fill:#7cc144;fill-opacity:0.94117647"
   d="m 2.7228167,21.863809 c -0.1074159,-1.059086 -0.1229909,-2.121236 -0.045596,-3.109443 0.00889,-0.113541 0.016168,-0.211735 0.016168,-0.218209 0,-0.0065 0.017762,-0.01177 0.039471,-0.01177 l 0.039471,0 -0.00878,0.262403 c -0.00483,0.144321 -0.00877,0.704897 -0.00877,1.245723 1.02e-5,0.95362 0.00838,1.319783 0.041621,1.820247 l 0.013025,0.196112 -0.033921,0 -0.033921,0 -0.01877,-0.185063 z"
   id="path4239"
   inkscape:connector-curvature="0"
   inkscape:export-xdpi="375.54001"
   inkscape:export-ydpi="375.54001" /><path
   style="opacity:1;fill:#7cc144;fill-opacity:0.94117647"
   d="m 7.2084214,31.792516 c -0.00612,-0.0073 -0.057778,-0.06488 -0.1148029,-0.12793 C 6.2618991,30.745 5.5197408,29.719581 4.8981869,28.631218 4.7523892,28.375922 4.6245184,28.13819 4.4768047,27.847803 l -0.078984,-0.155274 0.032553,1.1e-5 0.032552,1.1e-5 0.049622,0.09862 c 0.2928253,0.581974 0.6495428,1.18291 1.120536,1.887684 0.481001,0.71975 0.9916858,1.37259 1.5578635,1.991514 0.05076,0.05549 0.099065,0.108663 0.1073455,0.118164 l 0.015055,0.01728 -0.046903,0 -0.046903,0 -0.011121,-0.01329 z"
   id="path4241"
   inkscape:connector-curvature="0"
   inkscape:export-xdpi="375.54001"
   inkscape:export-ydpi="375.54001" /><path
   style="opacity:1;fill:#7cc144;fill-opacity:0.94117647"
   d="M 10.979612,34.887879 C 9.989332,34.283022 9.0671177,33.587237 8.2237526,32.80866 7.8981933,32.50811 7.5057958,32.115705 7.2321333,31.817021 l -0.00984,-0.01074 0.046629,2.5e-5 0.046629,2.5e-5 0.072266,0.07694 c 0.9411599,1.002058 2.065091,1.933142 3.2597659,2.700446 0.102249,0.06567 0.364059,0.229285 0.370245,0.231379 0.0017,5.69e-4 0.0026,0.02255 0.002,0.04884 l -0.0011,0.0478 -0.03906,-0.02386 z"
   id="path4243"
   inkscape:connector-curvature="0"
   inkscape:export-xdpi="375.54001"
   inkscape:export-ydpi="375.54001" /><path
   style="opacity:1;fill:#7cc144;fill-opacity:0.94117647"
   d="m 11.199069,35.019046 c -0.0584,-0.03444 -0.122394,-0.07224 -0.142215,-0.08398 l -0.03604,-0.02136 -9.3e-5,-0.04808 c -5.1e-5,-0.02644 0.0012,-0.04728 0.0028,-0.04629 0.05756,0.03517 0.262749,0.156298 0.335596,0.198112 0.05406,0.03103 0.09743,0.0573 0.09637,0.05837 -0.0011,0.0011 -0.0353,0.0028 -0.0761,0.0039 l -0.07417,0.002 -0.106176,-0.06262 z"
   id="path4245"
   inkscape:connector-curvature="0"
   inkscape:export-xdpi="375.54001"
   inkscape:export-ydpi="375.54001" /><path
   style="opacity:1;fill:#7cc144;fill-opacity:0.94117647"
   d="m 23.510156,37.030465 c 0.0017,-0.0127 0.0012,-0.03191 -0.0013,-0.0427 l -0.0044,-0.01961 0.08619,-0.01814 c 0.777152,-0.163582 1.416333,-0.339705 2.110837,-0.581631 1.307836,-0.455575 2.557138,-1.068255 3.717835,-1.82329 0.558029,-0.362999 1.162301,-0.809704 1.64209,-1.213906 l 0.02072,-0.01745 0,0.04124 0,0.04124 -0.04557,0.03823 c -0.02507,0.02103 -0.102752,0.08425 -0.172634,0.140506 -1.364135,1.098068 -2.860745,1.972134 -4.477422,2.61495 -0.347202,0.138053 -0.558226,0.214949 -0.925315,0.337182 -0.630887,0.210071 -1.250184,0.378698 -1.863748,0.507477 l -0.09046,0.01899 0.0032,-0.02308 z"
   id="path4247"
   inkscape:connector-curvature="0"
   inkscape:export-xdpi="375.54001"
   inkscape:export-ydpi="375.54001" /><path
   style="opacity:1;fill:#7cc144;fill-opacity:0.94117647"
   d="m 31.082143,33.353087 c 0,-0.03634 0.0012,-0.04069 0.01458,-0.05118 0.04326,-0.03403 0.300597,-0.257939 0.432888,-0.376659 0.441653,-0.396345 0.918175,-0.873795 1.320665,-1.323236 0.452219,-0.504971 0.888008,-1.053739 1.276595,-1.607554 0.313658,-0.447026 0.642479,-0.965962 0.883031,-1.393575 l 0.05801,-0.103111 0.04322,-1.96e-4 0.04322,-1.96e-4 -0.01787,0.03177 c -0.972115,1.727813 -2.233521,3.280938 -3.724063,4.58531 -0.1372,0.120063 -0.318072,0.273784 -0.325349,0.276509 -0.0027,0.001 -0.0049,-0.01603 -0.0049,-0.03787 z"
   id="path4249"
   inkscape:connector-curvature="0"
   inkscape:export-xdpi="375.54001"
   inkscape:export-ydpi="375.54001" /><path
   style="opacity:1;fill:#7cc144;fill-opacity:0.94117647"
   d="m 35.079497,28.479661 c 0.0051,-0.01 0.02602,-0.04802 0.04639,-0.08448 0.117728,-0.210753 0.291168,-0.545306 0.420993,-0.812068 0.518326,-1.065045 0.926907,-2.174776 1.231034,-3.343565 l 0.02336,-0.08977 0.02963,0 c 0.01629,0 0.02963,0.0013 0.02963,0.0029 0,0.0071 -0.06965,0.279842 -0.105277,0.412221 -0.360633,1.339971 -0.887451,2.642083 -1.564197,3.866157 l -0.03512,0.06353 -0.0429,0.0016 -0.0429,0.0016 0.0094,-0.01819 z"
   id="path4251"
   inkscape:connector-curvature="0"
   inkscape:export-xdpi="375.54001"
   inkscape:export-ydpi="375.54001" /><path
   style="opacity:1;fill:#7cc144;fill-opacity:0.94117647"
   d="m 36.828111,24.040924 c 0.04011,-0.163531 0.100256,-0.425518 0.128462,-0.559585 0.115941,-0.551091 0.20176,-1.270085 0.248915,-2.085413 0.03386,-0.585433 0.04416,-1.015408 0.04032,-1.683522 l -0.0029,-0.501327 0.04299,0 0.04299,0 0.0035,0.04834 c 0.0058,0.08032 0.01372,0.359962 0.01749,0.614575 0.0059,0.397926 -0.01137,0.971648 -0.04221,1.403165 -0.06546,0.915867 -0.198319,1.803941 -0.401657,2.684796 l -0.04272,0.185063 -0.031,0.0016 -0.031,0.0016 0.02682,-0.109357 z"
   id="path4253"
   inkscape:connector-curvature="0"
   inkscape:export-xdpi="375.54001"
   inkscape:export-ydpi="375.54001" /><path
   style="opacity:1;fill:#7cc144;fill-opacity:0.94117647"
   d="m 37.236164,19.148929 c -2.8e-5,-0.09057 -0.01513,-0.442358 -0.02781,-0.647721 -0.0425,-0.688381 -0.106013,-1.226039 -0.199353,-1.687665 -0.171085,-0.846129 -0.410278,-1.70664 -0.697145,-2.50802 -0.02882,-0.08052 -0.0542,-0.150877 -0.0564,-0.156357 -0.0036,-0.009 -9.52e-4,-0.0098 0.02843,-0.0083 l 0.03243,0.0017 0.02908,0.0801 c 0.04743,0.130646 0.179491,0.527099 0.230023,0.690534 0.370441,1.198118 0.607006,2.412315 0.713052,3.65983 0.01436,0.168892 0.04163,0.578186 0.04163,0.624745 0,0.01302 -0.001,0.01331 -0.04696,0.01331 l -0.04696,0 -1.7e-5,-0.06215 -10e-7,0 z"
   id="path4255"
   inkscape:connector-curvature="0"
   inkscape:export-xdpi="375.54001"
   inkscape:export-ydpi="375.54001" /><path
   style="opacity:1;fill:#7cc144;fill-opacity:0.94117647"
   d="m 37.242304,19.545743 c -0.0016,-0.110248 -6.04e-4,-0.332188 0.0015,-0.334597 0.002,-0.0023 0.08452,-0.0027 0.08451,-3.64e-4 -2e-6,0.0016 -0.01845,0.0029 -0.04099,0.0029 l -0.04098,0 -0.001,0.233398 c -9.18e-4,0.206274 -0.0013,0.217737 -0.003,0.09863 z"
   id="path4257"
   inkscape:connector-curvature="0"
   inkscape:export-xdpi="375.54001"
   inkscape:export-ydpi="375.54001" /><path
   style="opacity:1;fill:#7cc144;fill-opacity:0.94117647"
   d="m 36.236631,14.099454 c -0.03903,-0.106182 -0.09485,-0.25079 -0.156446,-0.405274 -0.302645,-0.759077 -0.656938,-1.494383 -1.060125,-2.200204 -0.181536,-0.317797 -0.404478,-0.681676 -0.56373,-0.9201 -0.01908,-0.02857 -0.03568,-0.0545 -0.03687,-0.05762 -0.0018,-0.0047 0.0041,-0.0057 0.035,-0.0057 l 0.03718,0 0.01551,0.02441 c 0.0085,0.01343 0.04176,0.06484 0.07384,0.114258 0.621903,0.957772 1.176249,2.041174 1.593034,3.113397 0.03912,0.100639 0.120793,0.316579 0.136987,0.362189 l 0.0052,0.01465 -0.03243,0 -0.03243,0 -0.01472,-0.04004 z"
   id="path4263"
   inkscape:connector-curvature="0"
   inkscape:export-xdpi="375.54001"
   inkscape:export-ydpi="375.54001" /><path
   style="opacity:1;fill:#7cc144;fill-opacity:0.94117647"
   d="M 34.339766,10.398305 C 33.914275,9.7692445 33.49632,9.2268859 32.996424,8.6551179 32.73994,8.3617591 32.412981,8.0155424 32.129054,7.7366621 l -0.142578,-0.140044 0.04441,-4.7e-5 0.0444,-4.69e-5 0.09088,0.087929 c 0.08942,0.086526 0.343419,0.346565 0.473077,0.4843364 0.575878,0.6119154 1.121208,1.284481 1.608972,1.9843752 0.08226,0.118038 0.240219,0.35154 0.240219,0.355107 0,0.0013 -0.01636,0.0023 -0.03636,0.0023 l -0.03636,0 -0.07595,-0.112282 z"
   id="path4265"
   inkscape:connector-curvature="0"
   inkscape:export-xdpi="375.54001"
   inkscape:export-ydpi="375.54001" /><path
   style="opacity:1;fill:#7cc144;fill-opacity:0.94117647"
   d="M 31.938565,7.5524337 C 31.462594,7.0946172 30.874312,6.5983216 30.314601,6.1824013 c -0.6735,-0.5004771 -1.435724,-0.98512 -2.150391,-1.3672759 -0.0376,-0.020105 -0.07891,-0.042338 -0.0918,-0.049408 l -0.02344,-0.012854 0.0734,-4.47e-5 c 0.06739,-4.11e-5 0.07474,6.408e-4 0.08984,0.00834 0.0856,0.043623 0.430075,0.2385386 0.604336,0.3419512 1.17067,0.6947147 2.226076,1.4997632 3.226386,2.4610418 l 0.03338,0.032077 -0.04596,1.492e-4 -0.04596,1.492e-4 -0.04584,-0.044091 0,-2e-7 z"
   id="path4267"
   inkscape:connector-curvature="0"
   inkscape:export-xdpi="375.54001"
   inkscape:export-ydpi="375.54001" /><path
   style="opacity:1;fill:#7cc144;fill-opacity:0.94117647"
   d="M 27.986476,4.720863 C 27.898031,4.673446 27.551287,4.4993807 27.431789,4.4424106 26.777639,4.1305483 26.182552,3.8865841 25.502101,3.6513091 25.377928,3.6083747 25.295606,3.5811398 25.058742,3.5046309 24.760641,3.4083423 24.327921,3.2866109 23.952296,3.1933696 l -0.190429,-0.04727 0,-0.022909 c 0,-0.021727 4.53e-4,-0.022809 0.0088,-0.02097 0.183778,0.040531 0.525431,0.1245507 0.723633,0.1779561 1.266077,0.3411452 2.462945,0.8139657 3.632812,1.4351358 l 0.07031,0.037334 -0.07617,-1.848e-4 -0.07617,-1.848e-4 -0.05859,-0.031413 0,-3e-7 z"
   id="path4269"
   inkscape:connector-curvature="0"
   inkscape:export-xdpi="375.54001"
   inkscape:export-ydpi="375.54001" /><path
   style="opacity:1;fill:#7cc144;fill-opacity:0.94117647"
   d="M 23.713039,3.1351165 C 23.326893,3.0449485 23.137073,3.0102148 22.798976,2.9678591 21.774627,2.8395319 20.162155,2.7914415 18.736476,2.846699 c -0.282459,0.010948 -0.654164,0.031468 -0.845703,0.046689 -0.323886,0.025737 -0.496997,0.042732 -0.717661,0.070457 -0.107356,0.013488 -0.285135,0.038902 -0.317709,0.045417 l -0.0115,0.0023 0,-0.019523 0,-0.019523 0.03591,-0.00657 c 0.473286,-0.086589 1.132801,-0.1755012 1.551985,-0.2092304 0.02793,-0.00225 0.05781,-0.00496 0.06641,-0.00602 0.02036,-0.00252 0.19476,-0.015691 0.30664,-0.02315 0.422717,-0.028184 0.741714,-0.038583 1.183594,-0.038583 0.379514,0 0.661795,0.00757 0.996094,0.026719 0.102817,0.00589 0.135683,0.00806 0.296875,0.019577 0.577995,0.04131 1.235016,0.1247733 1.816406,0.2307432 0.211469,0.038544 0.656478,0.1294508 0.662328,0.1353003 0.0012,0.00118 0.0016,0.011739 9.66e-4,0.023457 l -0.0012,0.021306 -0.04687,-0.010946 z"
   id="path4271"
   inkscape:connector-curvature="0"
   inkscape:export-xdpi="375.54001"
   inkscape:export-ydpi="375.54001" /><path
   style="opacity:1;fill:#7cc144;fill-opacity:0.94117647"
   d="m 11.043945,5.2113283 0.0011,-0.038632 0.04492,-0.026876 C 11.607762,4.8360452 12.130629,4.5583372 12.67007,4.3065998 13.984094,3.6933929 15.363576,3.25031 16.794093,2.9819842 l 0.0498,-0.00934 0,0.018898 c 0,0.016424 -0.0011,0.019149 -0.0088,0.020818 -0.0048,0.00106 -0.04395,0.00821 -0.08691,0.015908 -0.149449,0.026758 -0.440345,0.092351 -0.736328,0.1660336 -1.5598,0.3882973 -3.050119,0.9742288 -4.423828,1.739265 -0.153751,0.085626 -0.484414,0.2771542 -0.536281,0.3106274 l -0.0089,0.00577 0.0011,-0.038632 z"
   id="path4273"
   inkscape:connector-curvature="0"
   inkscape:export-xdpi="375.54001"
   inkscape:export-ydpi="375.54001" /><path
   style="opacity:1;fill:#7cc144;fill-opacity:0.94117647"
   d="m 7.9610854,7.5801404 0,-0.041032 0.06543,-0.062338 C 8.9322232,6.6138643 9.9761376,5.8162742 11.030568,5.1815611 l 0.01284,-0.00773 -0.0011,0.038177 -0.0011,0.038177 -0.05078,0.031223 c -0.295705,0.1818151 -0.55822,0.3519169 -0.798828,0.5176174 -0.7659354,0.5274804 -1.4718939,1.1004612 -2.1348247,1.7326994 -0.043001,0.041011 -0.082113,0.077913 -0.086914,0.082006 l -0.00873,0.00744 0,-0.041032 z"
   id="path4275"
   inkscape:connector-curvature="0"
   inkscape:export-xdpi="375.54001"
   inkscape:export-ydpi="375.54001" /><path
   style="opacity:1;fill:#7cc144;fill-opacity:0.94117647"
   d="m 4.1759292,12.884216 c 0,-7.53e-4 0.00178,-0.0065 0.00396,-0.0127 l 0.00396,-0.01132 0.040958,-1.91e-4 c 0.022527,-1.06e-4 0.040958,4.21e-4 0.040958,0.0012 0,7.49e-4 -0.00268,0.0065 -0.00596,0.01289 l -0.00596,0.01152 -0.038962,0 c -0.021429,0 -0.038962,-6.17e-4 -0.038962,-0.0014 z"
   id="path4277"
   inkscape:connector-curvature="0"
   inkscape:export-xdpi="375.54001"
   inkscape:export-ydpi="375.54001" /><path
   style="opacity:1;fill:#7cc144;fill-opacity:0.94117647"
   d="m 2.7609435,19.00668 c -0.00158,-0.0054 -0.00266,-0.03877 -0.00239,-0.07422 4.789e-4,-0.0638 5.18e-4,-0.06408 0.00388,-0.02734 0.00396,0.04331 0.00289,0.116429 -0.00149,0.101562 z"
   id="path4279"
   inkscape:connector-curvature="0"
   inkscape:export-xdpi="375.54001"
   inkscape:export-ydpi="375.54001" /></svg>