<?xml version="1.0" encoding="utf-8"?>
<!-- Generator: Adobe Illustrator 16.0.3, SVG Export Plug-In . SVG Version: 6.00 Build 0)  -->
<!DOCTYPE svg PUBLIC "-//W3C//DTD SVG 1.1//EN" "http://www.w3.org/Graphics/SVG/1.1/DTD/svg11.dtd">
<svg version="1.1" id="Layer_1" xmlns="http://www.w3.org/2000/svg" xmlns:xlink="http://www.w3.org/1999/xlink" x="0px" y="0px"
	 width="40px" height="40px" viewBox="0 0 40 40" enable-background="new 0 0 40 40" xml:space="preserve">
<g>
	<g>
		<circle fill="#BDBDBD" cx="19.999" cy="20" r="18.677"/>
		<path fill="#FFFFFF" d="M20,40C8.972,40,0,31.028,0,20C0,8.972,8.972,0,20,0s20,8.972,20,20C40,31.028,31.027,40,20,40z M20,2.645
			C10.43,2.645,2.644,10.43,2.644,20c0,9.569,7.786,17.355,17.355,17.355c9.571,0,17.356-7.786,17.356-17.355
			C37.355,10.43,29.57,2.645,20,2.645z"/>
	</g>
	<g>
		<path fill="#FFFFFF" d="M10.151,12.853c-0.349,0-0.567,0.03-0.653,0.088c-0.088,0.058-0.103,0.123-0.044,0.195
			c0.058,0.074,0.204,0.197,0.437,0.371c0.114,0.087,0.202,0.16,0.261,0.218L20,21.221l9.849-7.453l0.219-0.217
			c0.231-0.174,0.385-0.298,0.457-0.371c0.072-0.073,0.063-0.145-0.021-0.219c-0.088-0.072-0.306-0.108-0.654-0.108H10.151z
			 M10.151,12.853"/>
		<path fill="#FFFFFF" d="M8.844,14.596v11.07c0,0.317,0.13,0.645,0.391,0.979c0.263,0.334,0.523,0.501,0.785,0.501h19.959
			c0.262,0,0.523-0.167,0.783-0.501c0.262-0.335,0.393-0.662,0.393-0.979v-11.07L20,23.137L8.844,14.596z M8.844,14.596"/>
	</g>
</g>
</svg>
