<?xml version="1.0" encoding="utf-8"?>
<!-- Generator: Adobe Illustrator 16.0.3, SVG Export Plug-In . SVG Version: 6.00 Build 0)  -->
<!DOCTYPE svg PUBLIC "-//W3C//DTD SVG 1.1//EN" "http://www.w3.org/Graphics/SVG/1.1/DTD/svg11.dtd">
<svg version="1.1" id="Layer_1" xmlns="http://www.w3.org/2000/svg" xmlns:xlink="http://www.w3.org/1999/xlink" x="0px" y="0px"
	 width="40px" height="40px" viewBox="0 0 40 40" enable-background="new 0 0 40 40" xml:space="preserve">
<g>
	<g>
		<ellipse fill="#BDBDBD" cx="19.989" cy="19.961" rx="18.667" ry="18.708"/>
		<path fill="#FFFFFF" d="M19.989,39.994C8.967,39.994,0,31.007,0,19.961C0,8.915,8.967-0.072,19.989-0.072
			c11.021,0,19.989,8.987,19.989,20.033C39.978,31.007,31.01,39.994,19.989,39.994z M19.989,2.577
			c-9.565,0-17.346,7.798-17.346,17.384c0,9.585,7.781,17.384,17.346,17.384c9.564,0,17.345-7.799,17.345-17.384
			C37.334,10.375,29.553,2.577,19.989,2.577z"/>
	</g>
	<path fill="#FFFFFF" d="M22.504,22.262c-0.362-0.384-0.348-0.998,0.057-1.339c1.708-1.494,2.604-3.076,2.582-4.682
		c-0.021-2.552-2.189-4.39-2.211-4.412c-0.387-0.32-0.437-0.915-0.12-1.302c0.317-0.388,0.912-0.437,1.299-0.12
		c0.13,0.091,2.831,2.45,2.875,5.838c0.01,2.177-1.033,4.195-3.188,6.073C23.417,22.638,22.846,22.623,22.504,22.262L22.504,22.262z
		 M23.901,25.24c-0.362-0.385-0.347-1.001,0.057-1.34c2.786-2.435,4.17-4.994,4.151-7.633c-0.045-4.157-3.652-7.2-3.673-7.221
		C24.051,8.728,24,8.133,24.317,7.744c0.317-0.386,0.934-0.459,1.321-0.141c0.17,0.137,4.293,3.632,4.336,8.648
		c0.047,3.212-1.568,6.248-4.78,9.044C24.813,25.615,24.243,25.601,23.901,25.24L23.901,25.24z M17.473,22.262
		c-0.342,0.361-0.913,0.376-1.293,0.057c-2.157-1.878-3.196-3.896-3.188-6.073c0.042-3.389,2.745-5.747,2.874-5.838
		c0.387-0.317,0.981-0.268,1.298,0.12c0.318,0.387,0.267,0.982-0.12,1.302c-0.021,0.022-2.189,1.86-2.21,4.412
		c-0.023,1.606,0.874,3.188,2.582,4.682C17.819,21.264,17.836,21.878,17.473,22.262L17.473,22.262z M16.075,25.24
		c-0.342,0.36-0.912,0.375-1.293,0.056c-3.21-2.797-4.826-5.833-4.78-9.044c0.044-5.016,4.166-8.511,4.338-8.648
		c0.386-0.318,1.002-0.246,1.32,0.141c0.318,0.389,0.267,0.983-0.12,1.302c-0.021,0.021-3.628,3.064-3.672,7.221
		c-0.018,2.64,1.365,5.199,4.15,7.633C16.421,24.239,16.438,24.855,16.075,25.24L16.075,25.24z M21.988,18.519
		c1.181-1.122,1.229-3.011,0.11-4.193c-1.118-1.182-2.975-1.202-4.154-0.081c-1.18,1.122-1.199,2.983-0.108,4.134
		c0.195,0.206,0.418,0.364,0.65,0.5l-1.264,13.64h5.499l-1.216-13.635C21.676,18.782,21.839,18.661,21.988,18.519z M20.964,31.319
		h-1.982v-2.897h1.982V31.319z M20.964,27.346h-1.982v-2.897h1.982V27.346z M20.964,23.289h-1.982v-2.897h1.982V23.289z"/>
</g>
</svg>
