<?xml version="1.0" encoding="utf-8"?>
<!-- Generator: Adobe Illustrator 16.0.3, SVG Export Plug-In . SVG Version: 6.00 Build 0)  -->
<!DOCTYPE svg PUBLIC "-//W3C//DTD SVG 1.1//EN" "http://www.w3.org/Graphics/SVG/1.1/DTD/svg11.dtd">
<svg version="1.1" id="Layer_1" xmlns="http://www.w3.org/2000/svg" xmlns:xlink="http://www.w3.org/1999/xlink" x="0px" y="0px"
	 width="40px" height="40px" viewBox="0 0 40 40" enable-background="new 0 0 40 40" xml:space="preserve">
<g>
	<g>
		<ellipse fill="#70659C" cx="20.049" cy="20.008" rx="18.724" ry="18.685"/>
		<path fill="#FFFFFF" d="M20.049,40.016C8.994,40.016,0,31.04,0,20.008S8.994,0,20.049,0c11.054,0,20.049,8.976,20.049,20.008
			S31.104,40.016,20.049,40.016z M20.049,2.646c-9.594,0-17.398,7.789-17.398,17.362c0,9.573,7.805,17.362,17.398,17.362
			c9.593,0,17.399-7.789,17.399-17.362C37.448,10.434,29.643,2.646,20.049,2.646z"/>
	</g>
	<path fill="#FFFFFF" d="M13.944,22.454h4.39c0,0,2.404,1.044,0,1.775H14.78l0.105,7.614c0,0,2.299-0.21,0.418,0.938
		c0,0-1.986,0.887-2.404-1.356l-0.522-3.656c0,0-0.313-1.57-1.464,0l-0.94,2.509c0,0-1.202,0.679-0.627-1.564l1.254-4.59
		c0,0,0.713-1.25-2.309-3.545c0,0-0.618-2.92,1.368-0.835l2.195,2.295l0.209-0.887c0,0-0.889-1.668,0.209-2.503
		c0,0,1.777-1.251,2.142,0.73c0,0,0.394,1.356-0.614,1.826L13.944,22.454z M9.764,13.484c0,0-3.763,2.974-2.666,4.068
		c0,0,0.471-0.142,2.666-2.332v3.038l0.783,0.78c0,0,0.627-2.112,2.509-1.877l-0.706-3.677l1.803-1.095c0,0,0.758-1.183-0.352-0.984
		L9.764,13.484z M11.473,8.815c-0.625-0.272-1.44,0.212-1.82,1.081s-0.181,1.795,0.444,2.067c0.625,0.272,1.44-0.211,1.82-1.081
		C12.297,10.013,12.098,9.088,11.473,8.815z M18.936,9.887v0.782h-3.371c0,0-1.568,0.664,0,1.427h2.43l-0.784,6.163
		c0,0-1.646,1.016-0.706,1.406l1.726-0.626l0.88-2.994c0,0,0.061-0.486,0.452-0.526c0.392-0.039,0.471,0.508,0.471,0.508
		l0.548,3.012l1.412,0.626c0,0,0.665,0.128,0.47-0.626l-0.862-0.78l-0.392-6.163h2.745c0,0,1.646-0.449-0.08-1.349l-3.54-0.078
		V9.887c0,0,2.051-0.548,0.639-2.27c0,0-1.253-1.251-2.43,0C18.543,7.617,17.538,8.869,18.936,9.887z M26.154,22.454h-4.392
		c0,0-2.403,1.044,0,1.775h3.556l-0.106,7.614c0,0-2.3-0.21-0.417,0.938c0,0,1.985,0.887,2.403-1.356l0.522-3.656
		c0,0,0.314-1.57,1.464,0l0.941,2.509c0,0,1.201,0.679,0.626-1.564l-1.254-4.59c0,0-0.714-1.25,2.309-3.545
		c0,0,0.618-2.92-1.367-0.835l-2.196,2.295l-0.208-0.887c0,0,0.888-1.668-0.209-2.503c0,0-1.777-1.251-2.143,0.73
		c0,0-0.395,1.356,0.613,1.826L26.154,22.454z M26.297,11.405c-1.11-0.198-0.581,0.975-0.581,0.975l2.032,1.105l-0.706,3.677
		c1.881-0.235,2.509,1.877,2.509,1.877l0.784-0.78V15.22C32.529,17.411,33,17.552,33,17.552c1.098-1.094-2.665-4.068-2.665-4.068
		L26.297,11.405z M28.182,10.883c0.379,0.87,1.195,1.354,1.819,1.081c0.626-0.272,0.823-1.198,0.442-2.067
		c-0.378-0.869-1.192-1.353-1.819-1.081C28.001,9.088,27.801,10.013,28.182,10.883z"/>
</g>
</svg>
