<?xml version="1.0" encoding="utf-8"?>
<!-- Generator: Adobe Illustrator 16.0.3, SVG Export Plug-In . SVG Version: 6.00 Build 0)  -->
<!DOCTYPE svg PUBLIC "-//W3C//DTD SVG 1.1//EN" "http://www.w3.org/Graphics/SVG/1.1/DTD/svg11.dtd">
<svg version="1.1" id="Layer_1" xmlns="http://www.w3.org/2000/svg" xmlns:xlink="http://www.w3.org/1999/xlink" x="0px" y="0px"
	 width="40px" height="40px" viewBox="0 0 40 40" enable-background="new 0 0 40 40" xml:space="preserve">
<g>
	<g>
		<ellipse fill="#479088" cx="20.055" cy="20.049" rx="18.752" ry="18.69"/>
		<path fill="#FFFFFF" d="M20.055,40.062c-11.072,0-20.08-8.978-20.08-20.012S8.983,0.037,20.055,0.037
			c11.071,0,20.079,8.978,20.079,20.013S31.126,40.062,20.055,40.062z M20.055,2.683c-9.608,0-17.425,7.791-17.425,17.367
			c0,9.576,7.816,17.366,17.425,17.366c9.607,0,17.424-7.79,17.424-17.366C37.479,10.473,29.662,2.683,20.055,2.683z"/>
	</g>
	<path fill="#FFFFFF" d="M13.941,22.496h4.397c0,0,2.408,1.044,0,1.775h-3.559l0.104,7.616c0,0,2.303-0.209,0.419,0.938
		c0,0-1.989,0.887-2.408-1.356l-0.523-3.656c0,0-0.314-1.572-1.465,0l-0.942,2.509c0,0-1.205,0.679-0.628-1.564l1.256-4.592
		c0,0,0.713-1.25-2.313-3.546c0,0-0.619-2.921,1.371-0.835l2.198,2.296l0.209-0.888c0,0-0.889-1.669,0.209-2.503
		c0,0,1.78-1.252,2.146,0.73c0,0,0.394,1.356-0.614,1.827L13.941,22.496z M9.754,13.524c0,0-3.769,2.974-2.669,4.069
		c0,0,0.471-0.143,2.669-2.333v3.039l0.785,0.781c0,0,0.628-2.112,2.512-1.877l-0.706-3.678l1.806-1.096
		c0,0,0.758-1.183-0.353-0.984L9.754,13.524z M11.466,8.854c-0.626-0.272-1.442,0.212-1.823,1.082
		c-0.381,0.87-0.182,1.795,0.444,2.068c0.627,0.272,1.444-0.211,1.824-1.082C12.292,10.052,12.092,9.126,11.466,8.854z
		 M18.939,9.925v0.782h-3.376c0,0-1.57,0.663,0,1.427h2.434l-0.785,6.165c0,0-1.649,1.016-0.707,1.407l1.727-0.626l0.881-2.995
		c0,0,0.061-0.486,0.454-0.526c0.393-0.039,0.471,0.509,0.471,0.509l0.55,3.013l1.413,0.626c0,0,0.667,0.127,0.471-0.626
		l-0.864-0.781l-0.391-6.165h2.746c0,0,1.648-0.449-0.078-1.349l-3.546-0.078V9.925c0,0,2.055-0.548,0.641-2.27
		c0,0-1.255-1.251-2.433,0C18.547,7.655,17.539,8.908,18.939,9.925z M26.168,22.496h-4.396c0,0-2.408,1.044,0,1.775h3.559
		l-0.104,7.616c0,0-2.304-0.209-0.419,0.938c0,0,1.989,0.887,2.407-1.356l0.524-3.656c0,0,0.313-1.572,1.464,0l0.943,2.509
		c0,0,1.204,0.679,0.629-1.564l-1.258-4.592c0,0-0.714-1.25,2.313-3.546c0,0,0.62-2.921-1.369-0.835l-2.198,2.296l-0.211-0.888
		c0,0,0.891-1.669-0.21-2.503c0,0-1.779-1.252-2.145,0.73c0,0-0.394,1.356,0.613,1.827L26.168,22.496z M26.311,11.444
		c-1.111-0.199-0.578,0.975-0.578,0.975l2.032,1.105l-0.707,3.678c1.885-0.235,2.513,1.877,2.513,1.877l0.784-0.781V15.26
		c2.199,2.191,2.671,2.333,2.671,2.333c1.099-1.096-2.671-4.069-2.671-4.069L26.311,11.444z M28.199,10.921
		c0.38,0.871,1.196,1.354,1.822,1.082c0.626-0.272,0.825-1.198,0.444-2.068s-1.196-1.354-1.822-1.082S27.818,10.052,28.199,10.921z"
		/>
</g>
</svg>
