<?xml version="1.0" encoding="utf-8"?>
<!-- Generator: Adobe Illustrator 16.0.3, SVG Export Plug-In . SVG Version: 6.00 Build 0)  -->
<!DOCTYPE svg PUBLIC "-//W3C//DTD SVG 1.1//EN" "http://www.w3.org/Graphics/SVG/1.1/DTD/svg11.dtd">
<svg version="1.1" id="Layer_1" xmlns="http://www.w3.org/2000/svg" xmlns:xlink="http://www.w3.org/1999/xlink" x="0px" y="0px"
	 width="40px" height="40px" viewBox="0 0 40 40" enable-background="new 0 0 40 40" xml:space="preserve">
<g>
	<g>
		<circle fill="#70659C" cx="20" cy="20" r="18.678"/>
		<path fill="#FFFFFF" d="M20,40C8.972,40,0,31.027,0,20C0,8.972,8.972,0,20,0s20,8.972,20,20C40,31.027,31.028,40,20,40z M20,2.645
			C10.43,2.645,2.644,10.43,2.644,20c0,9.57,7.786,17.355,17.356,17.355S37.354,29.57,37.354,20C37.354,10.43,29.57,2.645,20,2.645z
			"/>
	</g>
	<g>
		<rect x="11.694" y="14.165" fill="#FFFFFF" width="15.785" height="1.075"/>
		<rect x="11.694" y="17.347" fill="#FFFFFF" width="15.785" height="1.074"/>
		<rect x="11.694" y="20.239" fill="#FFFFFF" width="15.785" height="1.075"/>
		<path fill="#FFFFFF" d="M31.859,27.389V10.115H8.14v17.273h13.563c0.053,0.026,0.097,0.062,0.156,0.083l-2.273,3.636
			c0,0-0.207,2.232,1.86,1.074l2.065-3.306l1.653,3.389c0,0,2.376,1.129,1.911-1.268l-1.664-3.525c0,0,0.047-0.034,0.109-0.083
			H31.859z M23.678,22.265c0,0-3.141,0-3.141,3.058c0,0,0.012,0.335,0.13,0.743H9.462V11.438h21.075v14.628h-4.199
			c0.088-0.303,0.149-0.655,0.149-1.073C26.487,24.992,26.515,22.513,23.678,22.265z"/>
	</g>
</g>
</svg>
