<?xml version="1.0" encoding="utf-8"?>
<!-- Generator: Adobe Illustrator 16.0.3, SVG Export Plug-In . SVG Version: 6.00 Build 0)  -->
<!DOCTYPE svg PUBLIC "-//W3C//DTD SVG 1.1//EN" "http://www.w3.org/Graphics/SVG/1.1/DTD/svg11.dtd">
<svg version="1.1" id="Layer_1" xmlns="http://www.w3.org/2000/svg" xmlns:xlink="http://www.w3.org/1999/xlink" x="0px" y="0px"
	 width="40px" height="40px" viewBox="0 0 40 40" enable-background="new 0 0 40 40" xml:space="preserve">
<g>
	
		<ellipse fill="#70659C" cx="20.05" cy="19.973" rx="18.724" ry="18.666"/>
		<path fill="#FFFFFF" d="M20.049,39.96C8.994,39.96,0,30.993,0,19.973C0,8.952,8.994-0.014,20.049-0.014
			c11.054,0,20.049,8.966,20.049,19.987C40.099,30.993,31.104,39.96,20.049,39.96z M20.049,2.629
			c-9.594,0-17.399,7.781-17.399,17.344c0,9.563,7.805,17.344,17.399,17.344c9.594,0,17.397-7.781,17.397-17.344
			C37.446,10.41,29.644,2.629,20.049,2.629z"/>
	
	<path fill="#FFFFFF" d="M29.577,12.953l-8.224,0.042v-0.954c0.666-0.376,1.119-1.08,1.119-1.896c0-1.208-0.983-2.188-2.196-2.188
		c-1.213,0-2.195,0.98-2.195,2.188c0,0.816,0.454,1.52,1.118,1.896v5.867l-8.595,0l-3.48,2.396l3.48,2.519l8.595,0.041v9.127h2.154
		V17.908l8.224-0.082l3.396-2.437L29.577,12.953z M20.277,8.968c0.652,0,1.181,0.526,1.181,1.177c0,0.65-0.529,1.177-1.181,1.177
		s-1.181-0.527-1.181-1.177C19.096,9.494,19.625,8.968,20.277,8.968z"/>

		</g>  
</svg>
