<?xml version="1.0" encoding="utf-8"?>
<!-- Generator: Adobe Illustrator 16.0.3, SVG Export Plug-In . SVG Version: 6.00 Build 0)  -->
<!DOCTYPE svg PUBLIC "-//W3C//DTD SVG 1.1//EN" "http://www.w3.org/Graphics/SVG/1.1/DTD/svg11.dtd">
<svg version="1.1" id="Layer_1" xmlns="http://www.w3.org/2000/svg" xmlns:xlink="http://www.w3.org/1999/xlink" x="0px" y="0px"
	 width="40px" height="40px" viewBox="0 0 40 40" enable-background="new 0 0 40 40" xml:space="preserve">
<g>
	<g>
		<ellipse fill="#85ADAD" cx="19.988" cy="19.982" rx="18.687" ry="18.661"/>
		<path fill="#FFFFFF" d="M19.988,39.964c-11.033,0-20.01-8.964-20.01-19.982C-0.021,8.964,8.955,0,19.988,0
			s20.01,8.964,20.01,19.982C39.998,31,31.021,39.964,19.988,39.964z M19.988,2.643c-9.575,0-17.364,7.779-17.364,17.339
			c0,9.562,7.789,17.34,17.364,17.34c9.576,0,17.363-7.778,17.363-17.34C37.352,10.421,29.564,2.643,19.988,2.643z"/>
	</g>
	<g>
		<path fill="#FFFFFF" d="M29.376,18.246c0-2.796-2.27-5.063-5.07-5.063c-1.828,0-3.425,0.97-4.317,2.419
			c-0.892-1.45-2.489-2.419-4.318-2.419c-2.801,0-5.07,2.267-5.07,5.063c0,1.522,0.676,2.884,1.741,3.812l7.186,7.176
			c0.122,0.121,0.289,0.191,0.462,0.191c0.174,0,0.34-0.07,0.463-0.191l7.185-7.176C28.701,21.13,29.376,19.768,29.376,18.246
			L29.376,18.246z M29.376,18.246"/>
	</g>
</g>
</svg>
