<?xml version="1.0" encoding="utf-8"?>
<!-- Generator: Adobe Illustrator 16.0.3, SVG Export Plug-In . SVG Version: 6.00 Build 0)  -->
<!DOCTYPE svg PUBLIC "-//W3C//DTD SVG 1.1//EN" "http://www.w3.org/Graphics/SVG/1.1/DTD/svg11.dtd">
<svg version="1.1" id="Layer_1" xmlns="http://www.w3.org/2000/svg" xmlns:xlink="http://www.w3.org/1999/xlink" x="0px" y="0px"
	 width="40px" height="40px" viewBox="0 0 40 40" enable-background="new 0 0 40 40" xml:space="preserve">
<g>
	<g>
		<ellipse fill="#479088" cx="20.031" cy="20" rx="18.73" ry="18.679"/>
		<path fill="#FFFFFF" d="M20.031,40C8.973,40-0.025,31.027-0.025,20c0-11.027,8.998-20,20.056-20s20.056,8.972,20.056,20
			C40.087,31.027,31.09,40,20.031,40z M20.031,2.644C10.434,2.644,2.627,10.43,2.627,20c0,9.571,7.807,17.355,17.404,17.355
			c9.597,0,17.403-7.784,17.403-17.355C37.435,10.43,29.628,2.644,20.031,2.644z"/>
	</g>
	<path fill="#FFFFFF" d="M29.589,29.037H10.473V10.964h2.043l0,3.223h1.961l0.027-3.223h10.967v3.223l1.852-0.027l0.027-3.196h2.237
		V29.037z M28.429,15.152H11.522V28.07h16.906V15.152z M15.44,16.231h-2.917v2.855h2.917V16.231z M13.451,17.157h1.061v1.002h-1.061
		V17.157z M19.417,16.231H16.5v2.855h2.917V16.231z M17.429,17.157h1.061v1.002h-1.061V17.157z M23.396,16.231h-2.918v2.855h2.918
		V16.231z M21.408,17.157h1.059v1.002h-1.059V17.157z M27.375,16.231h-2.919v2.855h2.919V16.231z M25.386,17.157h1.06v1.002h-1.06
		V17.157z M15.44,20.199h-2.917v2.855h2.917V20.199z M13.451,21.123h1.061v1.004h-1.061V21.123z M19.417,20.199H16.5v2.855h2.917
		V20.199z M17.429,21.123h1.061v1.004h-1.061V21.123z M23.396,20.199h-2.918v2.855h2.918V20.199z M21.408,21.123h1.059v1.004h-1.059
		V21.123z M27.375,20.199h-2.919v2.855h2.919V20.199z M25.386,21.123h1.06v1.004h-1.06V21.123z M15.44,24.165h-2.917v2.855h2.917
		V24.165z M13.451,25.092h1.061v1.002h-1.061V25.092z M19.417,24.165H16.5v2.855h2.917V24.165z M17.429,25.092h1.061v1.002h-1.061
		V25.092z M23.396,24.165h-2.918v2.855h2.918V24.165z M21.408,25.092h1.059v1.002h-1.059V25.092z M27.375,24.165h-2.919v2.855h2.919
		V24.165z M25.386,25.092h1.06v1.002h-1.06V25.092z"/>
</g>
</svg>
