<?xml version="1.0" encoding="utf-8"?>
<!-- Generator: Adobe Illustrator 16.0.3, SVG Export Plug-In . SVG Version: 6.00 Build 0)  -->
<!DOCTYPE svg PUBLIC "-//W3C//DTD SVG 1.1//EN" "http://www.w3.org/Graphics/SVG/1.1/DTD/svg11.dtd">
<svg version="1.1" id="Layer_1" xmlns="http://www.w3.org/2000/svg" xmlns:xlink="http://www.w3.org/1999/xlink" x="0px" y="0px"
	 width="40px" height="40px" viewBox="0 0 40 40" enable-background="new 0 0 40 40" xml:space="preserve">
<g>
	<g>
		
			<ellipse transform="matrix(0.9999 -0.0151 0.0151 0.9999 -0.3003 0.3054)" fill="#85ADAD" cx="20.034" cy="20.004" rx="18.687" ry="18.674"/>
		<path fill="#FFFFFF" d="M20.028,40C9.164,40,0.191,31.166,0.027,20.308C-0.14,9.284,8.699,0.179,19.731,0.013L20.04,0.01
			c10.864,0,19.837,8.834,20.002,19.691c0.167,11.025-8.673,20.13-19.706,20.297L20.028,40z M20.04,2.654l-0.268,0.002
			c-9.574,0.145-17.244,8.046-17.099,17.61c0.142,9.424,7.929,17.09,17.355,17.09l0.269-0.003
			c9.572-0.145,17.245-8.046,17.097-17.612C37.252,10.319,29.466,2.654,20.04,2.654z"/>
	</g>
	<path fill="#FFFFFF" d="M23.787,12.95c0,2.678-2.171,4.848-4.85,4.848c-2.679,0-4.85-2.17-4.85-4.848
		c0-2.676,2.171-4.846,4.85-4.846C21.616,8.104,23.787,10.274,23.787,12.95z M26.702,28.97c0,0,0.454-10.024-7.765-9.915
		c0,0-7.779,1.322-7.669,9.915H26.702z M28.246,26.105h3.197c0,0,0.331-7.38-5.183-9.473c0,0,2.981-0.992,2.594-4.296
		c0,0-1.256-3.966-5.067-3.195c0,0,4.568,3.304,0.6,7.38c0,0-1.763,1.321,0,2.533C24.387,19.054,28.136,21.259,28.246,26.105z"/>
</g>
</svg>
