<?xml version="1.0" encoding="utf-8"?>
<!-- Generator: Adobe Illustrator 16.0.3, SVG Export Plug-In . SVG Version: 6.00 Build 0)  -->
<!DOCTYPE svg PUBLIC "-//W3C//DTD SVG 1.1//EN" "http://www.w3.org/Graphics/SVG/1.1/DTD/svg11.dtd">
<svg version="1.1" id="Layer_1" xmlns="http://www.w3.org/2000/svg" xmlns:xlink="http://www.w3.org/1999/xlink" x="0px" y="0px"
	 width="40px" height="40px" viewBox="0 0 40 40" enable-background="new 0 0 40 40" xml:space="preserve">
<g>
	<g>
		<circle fill="#14B5E9" cx="20" cy="20" r="18.678"/>
		<path fill="#FFFFFF" d="M20,40C8.972,40,0,31.027,0,20C0,8.972,8.972,0,20,0c11.027,0,20,8.972,20,20C40,31.027,31.027,40,20,40z
			 M20,2.645C10.43,2.645,2.644,10.43,2.644,20c0,9.568,7.786,17.355,17.355,17.355c9.569,0,17.356-7.787,17.356-17.355
			C37.355,10.43,29.568,2.645,20,2.645z"/>
	</g>
	<g>
		<path fill="#FFFFE9" d="M29.628,10.191c-1.904-1.909-5.001-1.909-6.905,0L10.062,22.848c-0.099,0.1-0.16,0.225-0.179,0.361
			l-0.938,6.949c-0.028,0.197,0.042,0.396,0.179,0.531c0.118,0.119,0.283,0.189,0.448,0.189c0.029,0,0.057,0,0.085-0.004
			l4.186-0.566c0.349-0.047,0.594-0.369,0.547-0.717c-0.047-0.348-0.368-0.594-0.716-0.547l-3.356,0.453l0.655-4.846l5.1,5.1
			c0.118,0.119,0.283,0.188,0.448,0.188c0.166,0,0.33-0.064,0.448-0.188l12.66-12.655c0.924-0.925,1.433-2.15,1.433-3.456
			C31.061,12.336,30.552,11.11,29.628,10.191z M22.968,11.747l2.125,2.126L13.541,25.426l-2.125-2.125L22.968,11.747z
			 M16.524,28.404l-2.079-2.078l11.553-11.553l2.078,2.078L16.524,28.404z M28.963,15.942l-5.086-5.086
			c0.646-0.533,1.452-0.825,2.301-0.825c0.966,0,1.871,0.377,2.555,1.056c0.683,0.679,1.056,1.588,1.056,2.554
			C29.788,14.495,29.496,15.296,28.963,15.942z"/>
	</g>
</g>
</svg>
