<?xml version="1.0" encoding="utf-8"?>
<!-- Generator: Adobe Illustrator 16.0.3, SVG Export Plug-In . SVG Version: 6.00 Build 0)  -->
<!DOCTYPE svg PUBLIC "-//W3C//DTD SVG 1.1//EN" "http://www.w3.org/Graphics/SVG/1.1/DTD/svg11.dtd">
<svg version="1.1" id="Layer_1" xmlns="http://www.w3.org/2000/svg" xmlns:xlink="http://www.w3.org/1999/xlink" x="0px" y="0px"
	 width="40px" height="40px" viewBox="0 0 40 40" enable-background="new 0 0 40 40" xml:space="preserve">
<g>
	<g>
		<ellipse fill="#479088" cx="20.01" cy="19.976" rx="18.688" ry="18.654"/>
		<path fill="#FFFFFF" d="M20.011,39.95C8.977,39.95,0,30.989,0,19.976C0,8.961,8.977,0,20.011,0
			c11.034,0,20.011,8.961,20.011,19.976C40.021,30.989,31.045,39.95,20.011,39.95z M20.011,2.641
			c-9.575,0-17.365,7.776-17.365,17.334c0,9.559,7.79,17.333,17.365,17.333c9.576,0,17.365-7.774,17.365-17.333
			C37.376,10.417,29.587,2.641,20.011,2.641z"/>
	</g>
</g>
<g>
	<g>
		<path fill="#FFFFFF" d="M18.785,26.865c-1.132-0.209-2.168-0.697-3.03-1.395c-0.921,0.498-1.968,0.779-3.06,0.779c0,0,0,0-0.001,0
			c-0.603,0-1.204-0.086-1.788-0.254c-0.14-0.041-0.282-0.088-0.425-0.143h0c-0.358,1.6-0.512,3.096-0.512,3.096
			c-0.076,0.74,0.464,1.264,1.201,1.166c0,0,5.995-0.793,7.576-2.373c0.104-0.105,0.202-0.215,0.294-0.326
			C18.945,27.234,18.86,27.051,18.785,26.865L18.785,26.865L18.785,26.865z"/>
		<path fill="#FFFFFF" d="M11.354,24.436c0.202,0.057,0.408,0.102,0.614,0.133c0,0,0,0,0.001,0.002
			c-0.461-0.275-0.891-0.607-1.28-0.998c-1.254-1.252-2.188-3.605-2.777-6.99c-0.034-0.197-0.065-0.39-0.096-0.581
			c-1.436,0.479-1.907,0.68-2.483,0.925c-0.576,0.245-0.692,0.938-0.256,1.54C5.077,18.466,8.881,23.727,11.354,24.436z"/>
		<path fill="#FFFFFF" d="M11.837,22.426c0.666,0.664,1.49,1.111,2.388,1.307c-0.634-1.031-1-2.245-1-3.542
			c0-1.431,0.71-3.536,2.112-6.269c-2.118-0.616-4.918-0.947-4.918-0.947c-0.738-0.086-1.268,0.446-1.179,1.183
			C9.239,14.158,10.018,20.604,11.837,22.426z"/>
		<path fill="#FFFFFF" d="M5.386,25.48c-0.383,0.553-0.189,1.221,0.433,1.482c0.621,0.262,1.129,0.477,2.643,0.949
			c0.049-0.352,0.106-0.719,0.172-1.096c0.108-0.625,0.229-1.213,0.363-1.762l0,0c-0.636-0.432-1.299-0.992-1.987-1.676
			C6.083,24.475,5.769,24.928,5.386,25.48z"/>
		<path fill="#FFFFFF" d="M33.012,23.379L33.012,23.379c-0.688,0.684-1.35,1.244-1.987,1.676c0.001,0,0.001,0,0.001,0
			c0.133,0.549,0.255,1.137,0.363,1.762c0.065,0.377,0.122,0.744,0.172,1.098c1.514-0.475,2.022-0.689,2.644-0.951
			s0.815-0.93,0.433-1.482C34.252,24.928,33.938,24.475,33.012,23.379z"/>
		<path fill="#FFFFFF" d="M29.541,25.854c0,0,0,0,0-0.002c-0.144,0.057-0.285,0.104-0.425,0.145
			c-0.584,0.168-1.187,0.254-1.789,0.254c-1.092,0-2.139-0.281-3.061-0.779c-0.861,0.695-1.895,1.186-3.026,1.393
			c-0.076,0.189-0.162,0.373-0.258,0.553c0.092,0.111,0.188,0.221,0.294,0.326c1.58,1.58,7.576,2.373,7.576,2.373
			c0.735,0.098,1.275-0.426,1.2-1.166C30.053,28.949,29.898,27.453,29.541,25.854z"/>
		<path fill="#FFFFFF" d="M34.688,16.926c-0.576-0.245-1.048-0.445-2.483-0.924c-0.03,0.19-0.062,0.384-0.096,0.58
			c-0.588,3.384-1.522,5.736-2.776,6.99c-0.389,0.389-0.818,0.723-1.279,0.996c0.207-0.031,0.412-0.076,0.614-0.133
			c2.476-0.711,6.277-5.969,6.277-5.969C35.381,17.865,35.265,17.172,34.688,16.926z"/>
		<path fill="#FFFFFF" d="M25.172,20.19c0-2.76-4.439-9.896-4.439-9.896c-0.393-0.63-1.03-0.629-1.418,0.005
			c0,0-4.464,7.293-4.464,9.891c0,2.847,2.315,5.162,5.161,5.162S25.172,23.037,25.172,20.19z"/>
		<path fill="#FFFFFF" d="M25.796,23.732L25.796,23.732c0.898-0.195,1.723-0.643,2.389-1.307c1.822-1.824,2.599-8.268,2.599-8.268
			c0.089-0.737-0.442-1.27-1.18-1.183c0,0-2.764,0.325-4.872,0.933c1.371,2.677,2.065,4.786,2.065,6.283
			C26.797,21.488,26.431,22.701,25.796,23.732z"/>
	</g>
</g>
</svg>
