<?xml version="1.0" encoding="utf-8"?>
<!-- Generator: Adobe Illustrator 16.0.3, SVG Export Plug-In . SVG Version: 6.00 Build 0)  -->
<!DOCTYPE svg PUBLIC "-//W3C//DTD SVG 1.1//EN" "http://www.w3.org/Graphics/SVG/1.1/DTD/svg11.dtd">
<svg version="1.1" id="Layer_1" xmlns="http://www.w3.org/2000/svg" xmlns:xlink="http://www.w3.org/1999/xlink" x="0px" y="0px"
	 width="40px" height="40px" viewBox="0 0 40 40" enable-background="new 0 0 40 40" xml:space="preserve">
<g>
	<g>
		<ellipse fill="#70659C" cx="20.016" cy="19.979" rx="18.663" ry="18.687"/>
		<path fill="#FFFFFF" d="M20.016,39.988c-11.019,0-19.984-8.977-19.984-20.01c0-11.034,8.965-20.01,19.984-20.01
			S40,8.945,40,19.979C40,31.012,31.035,39.988,20.016,39.988z M20.016,2.614c-9.563,0-17.342,7.789-17.342,17.364
			c0,9.574,7.779,17.364,17.342,17.364c9.563,0,17.341-7.79,17.341-17.364C37.357,10.403,29.579,2.614,20.016,2.614z"/>
	</g>
	<path fill="#FFFFFF" d="M29.54,29.02H10.492V10.938h2.036l0,3.225h1.955l0.027-3.225h10.928v3.225l1.844-0.027l0.026-3.197h2.231
		V29.02z M28.384,15.127H11.538v12.926h16.846V15.127z M15.441,16.208h-2.907v2.856h2.907V16.208z M13.46,17.134h1.057v1.003H13.46
		V17.134z M19.406,16.208h-2.908v2.856h2.908V16.208z M17.423,17.134h1.057v1.003h-1.057V17.134z M23.369,16.208h-2.907v2.856h2.907
		V16.208z M21.388,17.134h1.057v1.003h-1.057V17.134z M27.332,16.208h-2.905v2.856h2.905V16.208z M25.351,17.134h1.058v1.003h-1.058
		V17.134z M15.441,20.176h-2.907v2.857h2.907V20.176z M13.46,21.103h1.057v1.004H13.46V21.103z M19.406,20.176h-2.908v2.857h2.908
		V20.176z M17.423,21.103h1.057v1.004h-1.057V21.103z M23.369,20.176h-2.907v2.857h2.907V20.176z M21.388,21.103h1.057v1.004h-1.057
		V21.103z M27.332,20.176h-2.905v2.857h2.905V20.176z M25.351,21.103h1.058v1.004h-1.058V21.103z M15.441,24.146h-2.907v2.854h2.907
		V24.146z M13.46,25.071h1.057v1.004H13.46V25.071z M19.406,24.146h-2.908v2.854h2.908V24.146z M17.423,25.071h1.057v1.004h-1.057
		V25.071z M23.369,24.146h-2.907v2.854h2.907V24.146z M21.388,25.071h1.057v1.004h-1.057V25.071z M27.332,24.146h-2.905v2.854h2.905
		V24.146z M25.351,25.071h1.058v1.004h-1.058V25.071z"/>
</g>
</svg>
