<?xml version="1.0" encoding="utf-8"?>
<!-- Generator: Adobe Illustrator 16.0.3, SVG Export Plug-In . SVG Version: 6.00 Build 0)  -->
<!DOCTYPE svg PUBLIC "-//W3C//DTD SVG 1.1//EN" "http://www.w3.org/Graphics/SVG/1.1/DTD/svg11.dtd">
<svg version="1.1" id="Layer_1" xmlns="http://www.w3.org/2000/svg" xmlns:xlink="http://www.w3.org/1999/xlink" x="0px" y="0px"
	 width="40px" height="40px" viewBox="0 0 40 40" enable-background="new 0 0 40 40" xml:space="preserve">
<g>
	<g>
		<ellipse fill="#85ADAD" cx="19.999" cy="19.955" rx="18.677" ry="18.635"/>
		<path fill="#FFFFFF" d="M20,39.909c-11.028,0-20-8.952-20-19.955C0,8.952,8.972,0,20,0c11.027,0,20,8.952,20,19.955
			C40,30.957,31.027,39.909,20,39.909z M20,2.638c-9.57,0-17.356,7.768-17.356,17.316c0,9.547,7.786,17.316,17.356,17.316
			s17.355-7.769,17.355-17.316C37.355,10.406,29.57,2.638,20,2.638z"/>
	</g>
	<path fill="#FFFFFF" d="M33.224,16.693l-13.554,4.618L6.777,16.748l12.782-4.562L33.224,16.693z M26.611,20.431l-6.978,2.499
		l-6.576-2.499v2.639c0,0-0.716,4.947,5.951,4.617c0,0,7.603,0.659,7.603-3.618V20.431z"/>
</g>
</svg>
