<?xml version="1.0" encoding="utf-8"?>
<!-- Generator: Adobe Illustrator 16.0.3, SVG Export Plug-In . SVG Version: 6.00 Build 0)  -->
<!DOCTYPE svg PUBLIC "-//W3C//DTD SVG 1.1//EN" "http://www.w3.org/Graphics/SVG/1.1/DTD/svg11.dtd">
<svg version="1.1" id="Layer_1" xmlns="http://www.w3.org/2000/svg" xmlns:xlink="http://www.w3.org/1999/xlink" x="0px" y="0px"
	 width="40px" height="40px" viewBox="0 0 40 40" enable-background="new 0 0 40 40" xml:space="preserve">
<g>
	<g>
		<g>
			<defs>
				<circle id="SVGID_1_" cx="20" cy="20" r="18.678"/>
			</defs>
			<clipPath id="SVGID_2_">
				<use xlink:href="#SVGID_1_"  overflow="visible"/>
			</clipPath>
			<g clip-path="url(#SVGID_2_)">
				
					<image overflow="visible" width="707" height="387" xlink:href="1E672AC1.jpg"  transform="matrix(-1.500000e-004 -0.1117 0.1027 -1.380000e-004 0.1816 59.502)">
				</image>
			</g>
			<rect x="-20.5" y="-5.5" clip-path="url(#SVGID_2_)" fill="#00C853" width="85" height="58"/>
		</g>
		<path fill="#FFFFFF" d="M20,40C8.972,40,0,31.027,0,20C0,8.972,8.972,0,20,0c11.029,0,20,8.972,20,20C40,31.027,31.027,40,20,40z
			 M20,2.645C10.429,2.645,2.644,10.43,2.644,20c0,9.568,7.785,17.355,17.355,17.355c9.569,0,17.356-7.787,17.356-17.355
			C37.355,10.43,29.568,2.645,20,2.645z"/>
	</g>
	<g>
		<path fill="#FFFFFF" d="M20.093,7.834c-4.664,0-8.457,3.774-8.457,8.411c0,1.869,1.199,4.915,3.666,9.312
			c1.746,3.108,3.461,5.703,3.534,5.813l1.258,1.896l1.256-1.896c0.07-0.107,1.79-2.703,3.532-5.813
			c2.467-4.396,3.667-7.442,3.667-9.309C28.548,11.608,24.754,7.834,20.093,7.834L20.093,7.834z M20.093,20.551
			c-2.422,0-4.383-1.954-4.383-4.362c0-2.41,1.961-4.36,4.383-4.36c2.421,0,4.382,1.951,4.382,4.36
			C24.476,18.597,22.515,20.551,20.093,20.551L20.093,20.551z"/>
	</g>
</g>
</svg>
