<?xml version="1.0" encoding="utf-8"?>
<!-- Generator: Adobe Illustrator 16.0.3, SVG Export Plug-In . SVG Version: 6.00 Build 0)  -->
<!DOCTYPE svg PUBLIC "-//W3C//DTD SVG 1.1//EN" "http://www.w3.org/Graphics/SVG/1.1/DTD/svg11.dtd">
<svg version="1.1" id="Layer_1" xmlns="http://www.w3.org/2000/svg" xmlns:xlink="http://www.w3.org/1999/xlink" x="0px" y="0px"
	 width="40px" height="40px" viewBox="0 0 40 40" enable-background="new 0 0 40 40" xml:space="preserve">
<g>
	<g>
		<circle fill="#D81B4D" cx="20" cy="20" r="18.678"/>
		<path fill="#FFFFFF" d="M20,40C8.972,40,0,31.027,0,20C0,8.972,8.972,0,20,0c11.027,0,20,8.972,20,20C40,31.027,31.027,40,20,40z
			 M20,2.645C10.43,2.645,2.644,10.43,2.644,20c0,9.568,7.786,17.355,17.355,17.355c9.569,0,17.356-7.787,17.356-17.355
			C37.355,10.43,29.568,2.645,20,2.645z"/>
	</g>
	<polygon fill="#FFFFFF" points="31.238,15.658 24.342,15.658 24.342,8.76 15.657,8.76 15.657,15.658 8.76,15.658 8.76,24.343 
		15.657,24.343 15.657,31.239 24.342,31.239 24.342,24.343 31.238,24.343 	"/>
</g>
</svg>
