<?xml version="1.0" encoding="utf-8"?>
<!-- Generator: Adobe Illustrator 16.0.3, SVG Export Plug-In . SVG Version: 6.00 Build 0)  -->
<!DOCTYPE svg PUBLIC "-//W3C//DTD SVG 1.1//EN" "http://www.w3.org/Graphics/SVG/1.1/DTD/svg11.dtd">
<svg version="1.1" id="Layer_1" xmlns="http://www.w3.org/2000/svg" xmlns:xlink="http://www.w3.org/1999/xlink" x="0px" y="0px"
	 width="40px" height="40px" viewBox="0 0 40 40" enable-background="new 0 0 40 40" xml:space="preserve">
<g>
	<g>
		<circle fill="#85ADAD" cx="19.989" cy="20.05" r="18.688"/>
		<path fill="#FFFFFF" d="M19.989,40.06c-11.034,0-20.011-8.977-20.011-20.009c0-11.034,8.977-20.01,20.011-20.01
			C31.023,0.04,40,9.017,40,20.05C40,31.083,31.023,40.06,19.989,40.06z M19.989,2.686c-9.575,0-17.365,7.79-17.365,17.364
			c0,9.576,7.79,17.364,17.365,17.364c9.576,0,17.364-7.788,17.364-17.364C37.354,10.476,29.565,2.686,19.989,2.686z"/>
	</g>
	<path fill="#FFFFFF" d="M26.234,24.851c-0.166,3.887-4.301,5.87-4.301,5.87c-1.902,0.91-4.052,0-4.052,0
		c-4.382-2.067-3.969-5.953-3.969-5.953v-4.961h12.322V24.851z M22.761,26.835h-5.375c0,0-0.5,2.062,2.439,2.729
		C19.825,29.563,22.843,29.397,22.761,26.835z M17.22,21.874c-0.822,0-1.488,0.592-1.488,1.322c0,0.732,0.667,1.323,1.488,1.323
		c0.821,0,1.488-0.591,1.488-1.323C18.708,22.466,18.042,21.874,17.22,21.874z M22.762,21.874c-0.821,0-1.489,0.592-1.489,1.322
		c0,0.732,0.668,1.323,1.489,1.323s1.488-0.591,1.488-1.323C24.25,22.466,23.583,21.874,22.762,21.874z M30.285,26.008v-7.359
		c0,0,0.166-4.052-3.061-7.111c0,0-3.482-2.48-7.157-2.563c0,0-4.005,0.083-7.148,2.894c0,0-3.307,2.812-3.225,7.029l-0.001,7.11
		c0,0-0.081,1.571,1.242,1.737c0,0,1.324-0.083,1.488-1.572l0.083-6.366c0,0-0.351-1.736,1.396-1.819l12.333-0.083
		c0,0,1.569,0.248,1.569,1.902v6.366c0,0-0.083,1.489,1.076,1.572C28.88,27.745,30.285,27.827,30.285,26.008z"/>
</g>
</svg>
