<?xml version="1.0" encoding="utf-8"?>
<!-- Generator: Adobe Illustrator 16.0.3, SVG Export Plug-In . SVG Version: 6.00 Build 0)  -->
<!DOCTYPE svg PUBLIC "-//W3C//DTD SVG 1.1//EN" "http://www.w3.org/Graphics/SVG/1.1/DTD/svg11.dtd">
<svg version="1.1" id="Layer_1" xmlns="http://www.w3.org/2000/svg" xmlns:xlink="http://www.w3.org/1999/xlink" x="0px" y="0px"
	 width="40px" height="40px" viewBox="0 0 40 40" enable-background="new 0 0 40 40" xml:space="preserve">
<g>
	<g>
		<circle fill="#70659C" cx="19.999" cy="20" r="18.677"/>
		<path fill="#FFFFFF" d="M20,40C8.972,40,0,31.028,0,20C0,8.972,8.972,0,20,0c11.027,0,20,8.972,20,20C40,31.028,31.027,40,20,40z
			 M20,2.645C10.429,2.645,2.644,10.43,2.644,20c0,9.569,7.785,17.355,17.356,17.355c9.569,0,17.355-7.786,17.355-17.355
			C37.355,10.43,29.569,2.645,20,2.645z"/>
	</g>
	<path fill="#FFFFFF" d="M32.231,20.613L20,11.907L7.769,20.613v-3.306l11.35-8.044c0.882-0.772,1.873,0,1.873,0l11.24,8.044V20.613
		z M29.256,28.435v-7.822L20,14.332l-9.367,6.281v7.822h9.808v-7.052h5.069v7.052H29.256z"/>
</g>
</svg>
