<?xml version="1.0" encoding="utf-8"?>
<!-- Generator: Adobe Illustrator 16.0.3, SVG Export Plug-In . SVG Version: 6.00 Build 0)  -->
<!DOCTYPE svg PUBLIC "-//W3C//DTD SVG 1.1//EN" "http://www.w3.org/Graphics/SVG/1.1/DTD/svg11.dtd">
<svg version="1.1" id="Layer_1" xmlns="http://www.w3.org/2000/svg" xmlns:xlink="http://www.w3.org/1999/xlink" x="0px" y="0px"
	 width="40px" height="40px" viewBox="0 0 40 40" enable-background="new 0 0 40 40" xml:space="preserve">
<g>
	<g>
		<path fill="none" stroke="#00C853" stroke-width="0.75" stroke-miterlimit="10" d="M20.093,7.834
			c-4.664,0-8.457,3.774-8.457,8.411c0,1.869,1.199,4.915,3.666,9.312c1.746,3.108,3.461,5.703,3.534,5.813l1.258,1.896l1.256-1.896
			c0.07-0.107,1.79-2.703,3.532-5.813c2.467-4.396,3.667-7.442,3.667-9.309C28.548,11.608,24.754,7.834,20.093,7.834L20.093,7.834z
			 M20.093,20.551c-2.422,0-4.383-1.954-4.383-4.362c0-2.41,1.961-4.36,4.383-4.36c2.421,0,4.382,1.951,4.382,4.36
			C24.476,18.597,22.515,20.551,20.093,20.551L20.093,20.551z"/>
	</g>
</g>
</svg>
