<?xml version="1.0" encoding="utf-8"?>
<!-- Generator: Adobe Illustrator 16.0.3, SVG Export Plug-In . SVG Version: 6.00 Build 0)  -->
<!DOCTYPE svg PUBLIC "-//W3C//DTD SVG 1.1//EN" "http://www.w3.org/Graphics/SVG/1.1/DTD/svg11.dtd">
<svg version="1.1" id="Layer_1" xmlns="http://www.w3.org/2000/svg" xmlns:xlink="http://www.w3.org/1999/xlink" x="0px" y="0px"
	 width="40px" height="40px" viewBox="0 0 40 40" enable-background="new 0 0 40 40" xml:space="preserve">
<g>
	<g>
		<ellipse fill="#348277" cx="20.031" cy="21" rx="18.731" ry="18.679"/>
		<path fill="#348277" d="M29.589,30.037H10.473V11.964h2.043v3.223h1.961l0.027-3.223h10.967v3.223l1.853-0.027l0.026-3.196h2.237
			v18.073H29.589z M28.43,16.152H11.522V29.07h16.906V16.152H28.43z M15.44,17.231h-2.917v2.855h2.917V17.231z M13.451,18.157h1.061
			v1.002h-1.061V18.157z M19.417,17.231H16.5v2.855h2.917V17.231z M17.429,18.157h1.061v1.002h-1.061V18.157z M23.396,17.231h-2.918
			v2.855h2.918V17.231z M21.408,18.157h1.059v1.002h-1.059V18.157z M27.375,17.231h-2.919v2.855h2.919V17.231z M25.387,18.157h1.059
			v1.002h-1.059V18.157z M15.44,21.199h-2.917v2.855h2.917V21.199z M13.451,22.123h1.061v1.004h-1.061V22.123z M19.417,21.199H16.5
			v2.855h2.917V21.199z M17.429,22.123h1.061v1.004h-1.061V22.123z M23.396,21.199h-2.918v2.855h2.918V21.199z M21.408,22.123h1.059
			v1.004h-1.059V22.123z M27.375,21.199h-2.919v2.855h2.919V21.199z M25.387,22.123h1.059v1.004h-1.059V22.123z M15.44,25.165
			h-2.917v2.854h2.917V25.165z M13.451,26.092h1.061v1.002h-1.061V26.092z M19.417,25.165H16.5v2.854h2.917V25.165z M17.429,26.092
			h1.061v1.002h-1.061V26.092z M23.396,25.165h-2.918v2.854h2.918V25.165z M21.408,26.092h1.059v1.002h-1.059V26.092z
			 M27.375,25.165h-2.919v2.854h2.919V25.165z M25.387,26.092h1.059v1.002h-1.059V26.092z"/>
	</g>
	<g>
		<g>
			<g>
				<ellipse fill="#46B5A9" cx="20.031" cy="20" rx="18.731" ry="18.679"/>
			</g>
			<path fill="#FFFFFF" d="M29.589,29.037H10.473V10.964h2.043v3.223h1.961l0.027-3.223h10.967v3.223l1.853-0.027l0.026-3.196h2.237
				v18.073H29.589z M28.43,15.152H11.522V28.07h16.906V15.152H28.43z M15.44,16.231h-2.917v2.855h2.917V16.231z M13.451,17.157
				h1.061v1.002h-1.061V17.157z M19.417,16.231H16.5v2.855h2.917V16.231z M17.429,17.157h1.061v1.002h-1.061V17.157z M23.396,16.231
				h-2.918v2.855h2.918V16.231z M21.408,17.157h1.059v1.002h-1.059V17.157z M27.375,16.231h-2.919v2.855h2.919V16.231z
				 M25.387,17.157h1.059v1.002h-1.059V17.157z M15.44,20.199h-2.917v2.855h2.917V20.199z M13.451,21.123h1.061v1.004h-1.061V21.123
				z M19.417,20.199H16.5v2.855h2.917V20.199z M17.429,21.123h1.061v1.004h-1.061V21.123z M23.396,20.199h-2.918v2.855h2.918V20.199
				z M21.408,21.123h1.059v1.004h-1.059V21.123z M27.375,20.199h-2.919v2.855h2.919V20.199z M25.387,21.123h1.059v1.004h-1.059
				V21.123z M15.44,24.165h-2.917v2.854h2.917V24.165z M13.451,25.092h1.061v1.002h-1.061V25.092z M19.417,24.165H16.5v2.854h2.917
				V24.165z M17.429,25.092h1.061v1.002h-1.061V25.092z M23.396,24.165h-2.918v2.854h2.918V24.165z M21.408,25.092h1.059v1.002
				h-1.059V25.092z M27.375,24.165h-2.919v2.854h2.919V24.165z M25.387,25.092h1.059v1.002h-1.059V25.092z"/>
		</g>
	</g>
</g>
</svg>
