<?xml version="1.0" encoding="utf-8"?>
<!-- Generator: Adobe Illustrator 16.0.3, SVG Export Plug-In . SVG Version: 6.00 Build 0)  -->
<!DOCTYPE svg PUBLIC "-//W3C//DTD SVG 1.1//EN" "http://www.w3.org/Graphics/SVG/1.1/DTD/svg11.dtd">
<svg version="1.1" id="Layer_1" xmlns="http://www.w3.org/2000/svg" xmlns:xlink="http://www.w3.org/1999/xlink" x="0px" y="0px"
	 width="40px" height="40px" viewBox="0 0 40 40" enable-background="new 0 0 40 40" xml:space="preserve">
<g>
	<g>
		<ellipse fill="#348277" cx="19.984" cy="21.007" rx="18.693" ry="18.684"/>
		<path fill="#348277" d="M26.229,25.807c-0.166,3.887-4.301,5.869-4.301,5.869c-1.903,0.91-4.053,0-4.053,0
			c-4.383-2.066-3.97-5.951-3.97-5.951v-4.961h12.324V25.807z M22.754,27.791h-5.375c0,0-0.499,2.063,2.44,2.729
			C19.818,30.52,22.837,30.354,22.754,27.791z M17.213,22.83c-0.822,0-1.489,0.592-1.489,1.322c0,0.731,0.667,1.322,1.489,1.322
			c0.823,0,1.488-0.591,1.488-1.322C18.701,23.422,18.037,22.83,17.213,22.83z M22.757,22.83c-0.821,0-1.487,0.592-1.487,1.322
			c0,0.731,0.666,1.322,1.487,1.322c0.822,0,1.488-0.591,1.488-1.322C24.245,23.422,23.579,22.83,22.757,22.83z M30.279,26.964
			v-7.358c0,0,0.168-4.051-3.059-7.11c0,0-3.484-2.48-7.16-2.563c0,0-4.007,0.083-7.149,2.894c0,0-3.309,2.811-3.227,7.027
			l-0.001,7.11c0,0-0.082,1.571,1.242,1.736c0,0,1.323-0.083,1.489-1.57l0.083-6.366c0,0-0.352-1.736,1.396-1.819l12.334-0.083
			c0,0,1.571,0.248,1.571,1.902v6.365c0,0-0.084,1.487,1.074,1.57C28.875,28.7,30.279,28.783,30.279,26.964z"/>
	</g>
	<g>
		<g>
			<g>
				<ellipse fill="#46B5A9" cx="19.984" cy="20.007" rx="18.693" ry="18.684"/>
			</g>
			<path fill="#FFFFFF" d="M26.229,24.807c-0.166,3.887-4.301,5.869-4.301,5.869c-1.903,0.91-4.053,0-4.053,0
				c-4.383-2.066-3.97-5.951-3.97-5.951v-4.96h12.324V24.807z M22.754,26.791h-5.375c0,0-0.499,2.063,2.44,2.729
				C19.818,29.52,22.837,29.354,22.754,26.791z M17.213,21.83c-0.822,0-1.489,0.592-1.489,1.322c0,0.731,0.667,1.322,1.489,1.322
				c0.823,0,1.488-0.591,1.488-1.322C18.701,22.422,18.037,21.83,17.213,21.83z M22.757,21.83c-0.821,0-1.487,0.592-1.487,1.322
				c0,0.731,0.666,1.322,1.487,1.322c0.822,0,1.488-0.591,1.488-1.322C24.245,22.422,23.579,21.83,22.757,21.83z M30.279,25.964
				v-7.358c0,0,0.168-4.051-3.059-7.11c0,0-3.484-2.48-7.16-2.563c0,0-4.007,0.083-7.149,2.894c0,0-3.309,2.811-3.227,7.027
				l-0.001,7.11c0,0-0.082,1.571,1.242,1.736c0,0,1.323-0.083,1.489-1.57l0.083-6.366c0,0-0.352-1.736,1.396-1.819l12.334-0.083
				c0,0,1.571,0.248,1.571,1.901v6.366c0,0-0.084,1.487,1.074,1.57C28.875,27.7,30.279,27.783,30.279,25.964z"/>
		</g>
	</g>
</g>
</svg>
