<?xml version="1.0" encoding="utf-8"?>
<!-- Generator: Adobe Illustrator 16.0.3, SVG Export Plug-In . SVG Version: 6.00 Build 0)  -->
<!DOCTYPE svg PUBLIC "-//W3C//DTD SVG 1.1//EN" "http://www.w3.org/Graphics/SVG/1.1/DTD/svg11.dtd">
<svg version="1.1" id="Layer_1" xmlns="http://www.w3.org/2000/svg" xmlns:xlink="http://www.w3.org/1999/xlink" x="0px" y="0px"
	 width="40px" height="40px" viewBox="0 0 40 40" enable-background="new 0 0 40 40" xml:space="preserve">
<path fill="#85ADAD" stroke="#FFFFFF" stroke-width="2" stroke-miterlimit="10" d="M5.698,20.551"/>
<path fill="#85ADAD" stroke="#FFFFFF" stroke-width="2" stroke-miterlimit="10" d="M5.698,20.551"/>
<g>
	<path d="M20.389,0C13.049,0,7.078,5.941,7.078,13.24c0,2.942,1.888,7.736,5.77,14.656c2.748,4.894,5.449,8.979,5.563,9.149
		l1.979,2.986l1.978-2.986c0.113-0.168,2.817-4.253,5.561-9.149c3.881-6.92,5.771-11.714,5.771-14.653
		C33.698,5.941,27.727,0,20.389,0L20.389,0z M20.389,20.015c-3.813,0-6.899-3.074-6.899-6.864c0-3.792,3.087-6.863,6.899-6.863
		c3.812,0,6.898,3.072,6.898,6.863C27.287,16.941,24.201,20.015,20.389,20.015L20.389,20.015z"/>
</g>
</svg>
