<?xml version="1.0" encoding="utf-8"?>
<!-- Generator: Adobe Illustrator 16.0.3, SVG Export Plug-In . SVG Version: 6.00 Build 0)  -->
<!DOCTYPE svg PUBLIC "-//W3C//DTD SVG 1.1//EN" "http://www.w3.org/Graphics/SVG/1.1/DTD/svg11.dtd">
<svg version="1.1" id="Layer_1" xmlns="http://www.w3.org/2000/svg" xmlns:xlink="http://www.w3.org/1999/xlink" x="0px" y="0px"
	 width="40px" height="40px" viewBox="0 0 40 40" enable-background="new 0 0 40 40" xml:space="preserve">
<g>
	<g>
		<g>
			<defs>
				<circle id="SVGID_1_" cx="20" cy="20" r="18.678"/>
			</defs>
			<clipPath id="SVGID_2_">
				<use xlink:href="#SVGID_1_"  overflow="visible"/>
			</clipPath>
			<rect x="0.076" y="-17.5" clip-path="url(#SVGID_2_)" fill="#FFBB00" width="39.848" height="62.333"/>
		</g>
		<path fill="#FFFFFF" d="M20,40C8.972,40,0,31.027,0,20C0,8.972,8.972,0,20,0c11.029,0,20,8.972,20,20C40,31.027,31.027,40,20,40z
			 M20,2.645C10.429,2.645,2.644,10.43,2.644,20c0,9.568,7.785,17.355,17.355,17.355c9.569,0,17.356-7.787,17.356-17.355
			C37.355,10.43,29.568,2.645,20,2.645z"/>
	</g>
</g>
<g>
	<path fill="#FFFFFF" d="M27.436,14.542h-2.191v-0.136c0-2.89-2.352-5.242-5.242-5.242c-2.895,0-5.243,2.352-5.243,5.242v0.136
		h-2.195l-1.283,14.292h17.438L27.436,14.542z M20.002,9.809c1.908,0,3.553,1.176,4.248,2.839c-0.918-1.375-2.479-2.284-4.248-2.284
		c-1.774,0-3.335,0.909-4.251,2.284C16.444,10.985,18.089,9.809,20.002,9.809L20.002,9.809z M15.727,14.542
		c0.426-1.969,2.182-3.446,4.275-3.446c2.094,0,3.844,1.477,4.275,3.446H15.727z M15.727,14.542"/>
</g>
</svg>
