<?xml version="1.0" encoding="UTF-8" standalone="no"?>
<!-- Generator: Adobe Illustrator 16.0.3, SVG Export Plug-In . SVG Version: 6.00 Build 0)  -->

<svg
   xmlns:dc="http://purl.org/dc/elements/1.1/"
   xmlns:cc="http://creativecommons.org/ns#"
   xmlns:rdf="http://www.w3.org/1999/02/22-rdf-syntax-ns#"
   xmlns:svg="http://www.w3.org/2000/svg"
   xmlns="http://www.w3.org/2000/svg"
   xmlns:sodipodi="http://sodipodi.sourceforge.net/DTD/sodipodi-0.dtd"
   xmlns:inkscape="http://www.inkscape.org/namespaces/inkscape"
   version="1.1"
   id="Layer_1"
   x="0px"
   y="0px"
   width="40px"
   height="40px"
   viewBox="0 0 40 40"
   enable-background="new 0 0 40 40"
   xml:space="preserve"
   inkscape:version="0.91 r13725"
   sodipodi:docname="Trendingicon.svg"><metadata
   id="metadata15"><rdf:RDF><cc:Work
       rdf:about=""><dc:format>image/svg+xml</dc:format><dc:type
         rdf:resource="http://purl.org/dc/dcmitype/StillImage" /><dc:title></dc:title></cc:Work></rdf:RDF></metadata><defs
   id="defs13">
	
	
</defs><sodipodi:namedview
   pagecolor="#ffffff"
   bordercolor="#666666"
   borderopacity="1"
   objecttolerance="10"
   gridtolerance="10"
   guidetolerance="10"
   inkscape:pageopacity="0"
   inkscape:pageshadow="2"
   inkscape:window-width="1920"
   inkscape:window-height="1057"
   id="namedview11"
   showgrid="false"
   inkscape:zoom="5.9"
   inkscape:cx="20"
   inkscape:cy="19.830508"
   inkscape:window-x="1912"
   inkscape:window-y="-8"
   inkscape:window-maximized="1"
   inkscape:current-layer="Layer_1" />
<circle
   style="fill:#075780;fill-opacity:1"
   id="circle5"
   r="18.677999"
   cy="20"
   cx="20" /><path
   style="fill:#ffffff"
   inkscape:connector-curvature="0"
   id="path7"
   d="M 20,40 C 8.972,40 0,31.029 0,20 0,8.972 8.972,0 20,0 31.03,0 40,8.972 40,20 40,31.029 31.029,40 20,40 Z M 20,2.645 C 10.429,2.645 2.644,10.43 2.644,20 c 0,9.569 7.785,17.354 17.355,17.354 9.57,0 17.356,-7.785 17.356,-17.354 C 37.355,10.43 29.569,2.645 20,2.645 Z" />

<path
   inkscape:connector-curvature="0"
   style="fill:#fefefe"
   d="m 22.645401,21.401999 c 0.608,-0.038 1.128,-0.078 1.648,-0.102 0.427,-0.02 0.794,0.092 0.995,0.517 0.148,0.311 0.298,0.684 0.154,0.967 -0.123,0.243 -0.508,0.078 -0.775,0.068 -2.582,-0.104 -2.581,-0.106 -3.594,2.204 -0.765,1.744 -1.562,3.474 -2.559,5.099 -0.134,0.219 -0.183,0.795 -0.647,0.511 -0.339,-0.207 -0.474,-0.603 -0.265,-1.054 0.529,-1.142 1.044,-2.291 1.529,-3.452 0.412,-0.985 0.774,-1.991 1.167,-3.014 -0.16,-0.043 -0.241,-0.078 -0.324,-0.086 -1.293,-0.124 -2.11,0.257 -2.572,1.659 -0.622,1.888 -1.572,3.667 -2.613,5.375 -0.151,0.248 -0.247,0.788 -0.626,0.611 -0.456,-0.213 -0.513,-0.699 -0.28,-1.199 0.48,-1.029 0.943,-2.066 1.382,-3.114 0.401,-0.957 0.761,-1.931 1.161,-2.953 -0.889,0 -1.679,0.005 -2.47,-0.002 -0.49,-0.005 -0.913,-0.147 -1.117,-0.648 -0.283,-0.693 0.061,-1.114 0.794,-1.079 0.982,0.047 1.968,0.034 2.951,0.022 0.384,-0.005 1.227,-1.563 1.047,-1.894 -0.092,-0.169 -0.262,-0.114 -0.404,-0.113 -0.492,0.002 -0.985,0.008 -1.477,0.022 -0.317,0.009 -0.618,-0.041 -0.875,-0.232 -0.443,-0.329 -0.429,-0.806 -0.325,-1.261 0.121,-0.533 0.536,-0.256 0.834,-0.221 2.822,0.328 2.835,0.335 3.651,-2.395 0.536,-1.794 1.069,-3.59 1.517,-5.407 0.176,-0.7120002 0.474,-0.7350002 1.031,-0.5060002 1.002,0.4130002 1.257,0.9630002 0.881,2.0020002 -0.73,2.017 -1.466,4.032 -2.2,6.051 1.63,0.302 1.832,0.203 2.278,-1.302 0.611,-2.06 1.225,-4.12 1.758,-6.201 0.189,-0.7380002 0.492,-0.8010002 1.094,-0.5350002 0.975,0.4310002 1.223,0.9560002 0.865,1.9370002 -0.714,1.958 -1.43,3.915 -2.192,5.999 0.675,-0.037 1.265,-0.068 1.854,-0.103 0.501,-0.029 0.928,0.095 1.129,0.603 0.112,0.282 0.311,0.621 0.146,0.88 -0.157,0.247 -0.512,0.069 -0.78,0.059 -0.246,-0.009 -0.493,-0.056 -0.736,-0.041 -2.8,0.175 -1.972,-0.411 -3.035,2.328 z"
   id="path5" /></svg>