<?xml version="1.0" encoding="utf-8"?>
<!-- Generator: Adobe Illustrator 16.0.3, SVG Export Plug-In . SVG Version: 6.00 Build 0)  -->
<!DOCTYPE svg PUBLIC "-//W3C//DTD SVG 1.1//EN" "http://www.w3.org/Graphics/SVG/1.1/DTD/svg11.dtd">
<svg version="1.1" id="Layer_1" xmlns="http://www.w3.org/2000/svg" xmlns:xlink="http://www.w3.org/1999/xlink" x="0px" y="0px"
	 width="30px" height="30px" viewBox="0 0 30 30" enable-background="new 0 0 30 30" xml:space="preserve">
<circle fill="#73679D" cx="14.964" cy="15.821" r="12.5"/>
<g>
	<path fill="#FFFFFF" d="M19.784,12.551c0.066,0.854-0.106,1.67-0.521,2.45c-0.413,0.78-1.026,1.464-1.84,2.05
		c-0.187,0.133-0.347,0.347-0.48,0.641c-0.133,0.293-0.199,0.572-0.199,0.84h-3.38c0-0.4,0.05-0.804,0.15-1.211
		c0.1-0.406,0.24-0.796,0.42-1.17c0.18-0.373,0.4-0.716,0.66-1.03c0.26-0.313,0.543-0.583,0.85-0.81c0.68-0.493,1-1.006,0.96-1.54
		c-0.014-0.213-0.09-0.413-0.23-0.6c-0.14-0.187-0.323-0.34-0.55-0.46c-0.28-0.16-0.54-0.213-0.78-0.16
		c-0.24,0.053-0.42,0.12-0.54,0.2c-0.253,0.146-0.45,0.343-0.59,0.59c-0.14,0.247-0.21,0.523-0.21,0.83v1.02h-3.38v-1.02
		c0-0.907,0.217-1.74,0.65-2.5c0.433-0.76,1.03-1.373,1.79-1.84c0.733-0.426,1.51-0.65,2.33-0.67s1.603,0.17,2.35,0.57
		c0.746,0.4,1.343,0.937,1.79,1.61C19.48,11.014,19.73,11.751,19.784,12.551z M15.064,19.591c0.467,0,0.867,0.167,1.2,0.5
		c0.334,0.333,0.5,0.739,0.5,1.22c0,0.467-0.166,0.867-0.5,1.2c-0.333,0.333-0.733,0.5-1.2,0.5s-0.867-0.167-1.2-0.5
		c-0.333-0.333-0.5-0.733-0.5-1.2c0-0.48,0.167-0.887,0.5-1.22C14.197,19.758,14.597,19.591,15.064,19.591z"/>
</g>
</svg>
