<?xml version="1.0" encoding="utf-8"?>
<!-- Generator: Adobe Illustrator 16.0.3, SVG Export Plug-In . SVG Version: 6.00 Build 0)  -->
<!DOCTYPE svg PUBLIC "-//W3C//DTD SVG 1.1//EN" "http://www.w3.org/Graphics/SVG/1.1/DTD/svg11.dtd">
<svg version="1.1" id="Layer_1" xmlns="http://www.w3.org/2000/svg" xmlns:xlink="http://www.w3.org/1999/xlink" x="0px" y="0px"
	 width="118px" height="30px" viewBox="0 0 118 30" enable-background="new 0 0 118 30" xml:space="preserve">
<g>
	<rect x="1.662" y="1.041" fill="#FFFFFF" width="114.25" height="27.918"/>
	<path fill="#FDBA12" d="M116.412,29.459H1.162V0.541h115.25V29.459z M2.162,28.459h113.25V1.541H2.162V28.459z"/>
</g>
<g>
	<path fill="#FDBA12" d="M8.345,6.097h2.862c2.535,0,5.812,0.316,5.812,4.228v0.907c0,1.988-1.234,3.365-2.491,3.671v0.087
		c1.846,0.338,2.797,1.825,2.797,4.042v0.95c0,4.064-2.83,4.774-6.009,4.774H8.345V6.097z M11.667,14.083
		c1.519,0,2.535-0.688,2.535-2.437v-0.765c0-1.737-0.667-2.721-2.535-2.721H11.12v5.922H11.667z M11.929,22.79
		c1.508,0,2.523-0.786,2.523-2.534v-1.453c0-1.748-0.666-2.721-2.523-2.721H11.12v6.708H11.929z"/>
	<path fill="#FDBA12" d="M19.784,6.097H26.7v2.229h-4.086v5.583h3.157v2.229h-3.157v6.392h4.195v2.229h-7.025V6.097z"/>
	<path fill="#FDBA12" d="M33.637,6.097h6.916v2.229h-4.086v5.583h3.157v2.229h-3.157v6.392h4.195v2.229h-7.025V6.097z"/>
	<path fill="#FDBA12" d="M42.301,18.683v-6.61c0-5.626,2.895-6.14,4.643-6.14c1.683,0,4.6,0.426,4.6,6.14v6.61
		c0,4.315-1.803,5.691-3.365,6.085v0.164c0,1.42,0.666,1.672,1.956,1.672c0.197,0,0.415,0,0.59-0.011v1.529
		c-0.71,0.316-1.3,0.415-2,0.415c-0.917,0-2.928-0.208-2.928-2.993v-0.732C44.136,24.483,42.301,23.194,42.301,18.683z
		 M48.594,19.786v-8.489c0-2.393-0.535-3.136-1.65-3.136c-1.147,0-1.682,0.743-1.682,3.136v8.489c0,2.315,0.535,3.004,1.682,3.004
		C48.059,22.79,48.594,22.102,48.594,19.786z"/>
	<path fill="#FDBA12" d="M54.264,6.097h2.852v13.678c0,2.316,0.459,3.016,1.573,3.016c1.115,0,1.649-0.699,1.649-3.016V6.097h2.819
		v12.925c0,5.484-2.841,5.899-4.469,5.899c-1.617,0-4.425-0.415-4.425-5.899V6.097z"/>
	<path fill="#FDBA12" d="M66.281,6.097h2.83v18.66h-2.83V6.097z"/>
	<path fill="#FDBA12" d="M72.302,6.097h2.83c2.152,0,5.758,0.284,5.758,5.779v0.655c0,5.987-3.311,6.544-5.484,6.544h-0.273v5.682
		h-2.83V6.097z M75.273,17c2.055,0,2.71-1.136,2.71-3.944v-1.682c0-2.218-0.568-3.212-2.71-3.212h-0.142V17H75.273z"/>
	<path fill="#FDBA12" d="M83.03,6.097h2.83c2.152,0,5.758,0.284,5.758,5.779v0.655c0,5.987-3.311,6.544-5.484,6.544H85.86v5.682
		h-2.83V6.097z M86.002,17c2.055,0,2.71-1.136,2.71-3.944v-1.682c0-2.218-0.568-3.212-2.71-3.212H85.86V17H86.002z"/>
	<path fill="#FDBA12" d="M93.759,6.097h6.916v2.229h-4.086v5.583h3.157v2.229h-3.157v6.392h4.195v2.229h-7.025V6.097z"/>
	<path fill="#FDBA12" d="M102.826,6.097h2.939c2.688,0,6.129,0.142,6.129,6.621v5.418c0,6.49-3.441,6.621-6.129,6.621h-2.939V6.097z
		 M106.377,22.779c2.055,0,2.557-0.907,2.557-4.414v-5.79c0-3.507-0.502-4.414-2.557-4.414h-0.721v14.618H106.377z"/>
</g>
</svg>
