<?xml version="1.0" encoding="utf-8"?>
<!-- Generator: Adobe Illustrator 16.0.3, SVG Export Plug-In . SVG Version: 6.00 Build 0)  -->
<!DOCTYPE svg PUBLIC "-//W3C//DTD SVG 1.1//EN" "http://www.w3.org/Graphics/SVG/1.1/DTD/svg11.dtd">
<svg version="1.1" id="Layer_1" xmlns="http://www.w3.org/2000/svg" xmlns:xlink="http://www.w3.org/1999/xlink" x="0px" y="0px"
	 width="118px" height="30px" viewBox="0 0 118 30" enable-background="new 0 0 118 30" xml:space="preserve">
<g>
	<rect x="1.123" y="1.041" fill="#FFFFFF" width="116.25" height="27.918"/>
	<path fill="#D71D4D" d="M117.873,29.459H0.623V0.541h117.25V29.459z M1.623,28.459h115.25V1.541H1.623V28.459z"/>
</g>
<g>
	<path fill="#D71D4D" d="M4.884,6.097h2.862c2.535,0,5.812,0.316,5.812,4.228v0.907c0,1.988-1.234,3.365-2.491,3.671v0.087
		c1.846,0.338,2.797,1.825,2.797,4.042v0.95c0,4.064-2.83,4.774-6.009,4.774H4.884V6.097z M8.206,14.083
		c1.519,0,2.535-0.688,2.535-2.437v-0.765c0-1.737-0.667-2.721-2.535-2.721H7.659v5.922H8.206z M8.468,22.79
		c1.508,0,2.523-0.786,2.523-2.534v-1.453c0-1.748-0.666-2.721-2.523-2.721H7.659v6.708H8.468z"/>
	<path fill="#D71D4D" d="M16.323,6.097h6.916v2.229h-4.086v5.583h3.157v2.229h-3.157v6.392h4.195v2.229h-7.025V6.097z"/>
	<path fill="#D71D4D" d="M30.176,6.097h2.83v18.66h-2.83V6.097z"/>
	<path fill="#D71D4D" d="M36.196,6.097h2.294l4.523,12.487h0.065c-0.098-1.158-0.295-2.786-0.295-5.681V6.097h2.535v18.66h-2.316
		l-4.501-12.16h-0.087c0.098,1.322,0.295,2.895,0.295,6.675v5.484h-2.513V6.097z"/>
	<path fill="#D71D4D" d="M48.509,6.097h7.134v2.229h-4.305v5.583h3.376v2.229h-3.376v8.62h-2.83V6.097z"/>
	<path fill="#D71D4D" d="M57.02,18.683v-6.61c0-5.626,2.896-6.14,4.644-6.14c1.683,0,4.6,0.426,4.6,6.14v6.61
		c0,5.539-2.972,6.238-4.6,6.238C59.849,24.921,57.02,24.287,57.02,18.683z M63.313,19.786v-8.489c0-2.393-0.535-3.136-1.649-3.136
		c-1.147,0-1.683,0.743-1.683,3.136v8.489c0,2.315,0.535,3.004,1.683,3.004C62.777,22.79,63.313,22.102,63.313,19.786z"/>
	<path fill="#D71D4D" d="M68.938,6.097h3.07c2.108,0,5.659,0.262,5.659,5.331v0.47c0,2.83-0.841,4.61-2.414,5.397l2.993,7.462
		h-2.993l-2.48-6.981h-1.06v6.981h-2.775V6.097z M72.14,15.732c1.988,0,2.688-0.809,2.688-3.321v-1.475
		c0-1.923-0.622-2.775-2.688-2.775h-0.426v7.571H72.14z"/>
	<path fill="#D71D4D" d="M80.389,6.097h3.693l1.792,7.221c0.382,1.595,0.567,3.071,0.765,4.337h0.087
		c0.197-1.267,0.383-2.742,0.765-4.337l1.847-7.221h3.616v18.66H90.31v-6.173c0-3.791,0.175-7.102,0.295-8.413h-0.208l-2.818,12.182
		h-1.792l-2.841-12.182h-0.207c0.12,1.311,0.295,4.622,0.295,8.413v6.173h-2.645V6.097z"/>
	<path fill="#D71D4D" d="M96.143,6.097h6.916v2.229h-4.086v5.583h3.157v2.229h-3.157v6.392h4.195v2.229h-7.025V6.097z"/>
	<path fill="#D71D4D" d="M105.211,6.097h2.939c2.688,0,6.129,0.142,6.129,6.621v5.418c0,6.49-3.441,6.621-6.129,6.621h-2.939V6.097z
		 M108.762,22.779c2.055,0,2.557-0.907,2.557-4.414v-5.79c0-3.507-0.502-4.414-2.557-4.414h-0.721v14.618H108.762z"/>
</g>
</svg>
