<?xml version="1.0" encoding="utf-8"?>
<!-- Generator: Adobe Illustrator 16.0.3, SVG Export Plug-In . SVG Version: 6.00 Build 0)  -->
<!DOCTYPE svg PUBLIC "-//W3C//DTD SVG 1.1//EN" "http://www.w3.org/Graphics/SVG/1.1/DTD/svg11.dtd">
<svg version="1.1" id="Layer_1" xmlns="http://www.w3.org/2000/svg" xmlns:xlink="http://www.w3.org/1999/xlink" x="0px" y="0px"
	 width="118px" height="30px" viewBox="0 0 118 30" enable-background="new 0 0 118 30" xml:space="preserve">
<g>
	<rect x="0.875" y="1.041" fill="#FFFFFF" width="116.25" height="27.918"/>
	<path fill="#41B655" d="M117.625,29.459H0.375V0.541h117.25V29.459z M1.375,28.459h115.25V1.541H1.375V28.459z"/>
</g>
<g>
	<path fill="#41B655" d="M9.132,6.097h2.862c2.535,0,5.812,0.316,5.812,4.228v0.907c0,1.988-1.234,3.365-2.491,3.671v0.087
		c1.846,0.338,2.797,1.824,2.797,4.042v0.95c0,4.063-2.83,4.773-6.009,4.773H9.132V6.097z M12.454,14.083
		c1.519,0,2.535-0.688,2.535-2.437v-0.765c0-1.737-0.667-2.721-2.535-2.721h-0.546v5.922L12.454,14.083L12.454,14.083z
		 M12.716,22.79c1.508,0,2.523-0.786,2.523-2.534v-1.453c0-1.748-0.666-2.721-2.523-2.721h-0.809v6.708H12.716z"/>
	<path fill="#41B655" d="M20.571,6.097h6.916v2.229h-4.086v5.583h3.157v2.229h-3.157v6.391h4.195v2.229h-7.025V6.097z"/>
	<path fill="#41B655" d="M34.424,6.097h2.83v18.66h-2.83V6.097z"/>
	<path fill="#41B655" d="M40.444,6.097h2.294l4.523,12.487h0.065c-0.098-1.158-0.295-2.786-0.295-5.681V6.097h2.535v18.66H47.25
		l-4.501-12.16h-0.087c0.098,1.322,0.295,2.895,0.295,6.674v5.484h-2.513V6.097z"/>
	<path fill="#41B655" d="M52.32,18.77h2.196v0.907c0,2.011,0.459,3.113,1.835,3.113c1.071,0,1.661-0.61,1.661-1.737
		c0-1.156-0.273-1.855-1.311-3.179l-2.95-3.507c-1.038-1.333-1.639-2.666-1.639-4.206c0-2.48,1.573-4.228,4.293-4.228
		c3.299,0,4.272,2.065,4.272,3.955c0,0.797-0.153,1.42-0.307,2.229h-2.185v-0.885c0-1.967-0.535-3.07-1.813-3.07
		c-1.06,0-1.584,0.645-1.584,1.628c0,1.06,0.338,1.617,0.885,2.338l3.289,3.978c1.202,1.563,1.856,2.918,1.856,4.522
		c0,2.644-1.714,4.306-4.445,4.306c-3.376,0-4.337-1.968-4.337-3.955C52.036,20.18,52.134,19.546,52.32,18.77z"/>
	<path fill="#41B655" d="M63.201,6.097h2.83c2.152,0,5.758,0.284,5.758,5.779v0.655c0,5.986-3.311,6.544-5.484,6.544h-0.272v5.682
		h-2.83L63.201,6.097L63.201,6.097z M66.173,17c2.056,0,2.71-1.136,2.71-3.944v-1.682c0-2.218-0.568-3.212-2.71-3.212h-0.142V17
		H66.173z"/>
	<path fill="#41B655" d="M73.93,6.097h2.83v18.66h-2.83V6.097z"/>
	<path fill="#41B655" d="M79.949,6.097h3.07c2.107,0,5.658,0.262,5.658,5.331v0.47c0,2.83-0.841,4.61-2.414,5.397l2.993,7.462
		h-2.993l-2.479-6.981h-1.06v6.981h-2.775V6.097L79.949,6.097z M83.15,15.732c1.988,0,2.688-0.81,2.688-3.321v-1.475
		c0-1.923-0.622-2.775-2.688-2.775h-0.426v7.571H83.15z"/>
	<path fill="#41B655" d="M91.398,6.097h6.916v2.229h-4.086v5.583h3.157v2.229h-3.157v6.391h4.195v2.229h-7.025V6.097z"/>
	<path fill="#41B655" d="M100.467,6.097h2.939c2.688,0,6.129,0.142,6.129,6.621v5.418c0,6.49-3.441,6.621-6.129,6.621h-2.939V6.097z
		 M104.018,22.779c2.056,0,2.558-0.907,2.558-4.414v-5.79c0-3.507-0.502-4.414-2.558-4.414h-0.721v14.618H104.018z"/>
</g>
</svg>
