<?xml version="1.0" encoding="utf-8"?>
<!-- Generator: Adobe Illustrator 16.0.3, SVG Export Plug-In . SVG Version: 6.00 Build 0)  -->
<!DOCTYPE svg PUBLIC "-//W3C//DTD SVG 1.1//EN" "http://www.w3.org/Graphics/SVG/1.1/DTD/svg11.dtd">
<svg version="1.1" id="Layer_1" xmlns="http://www.w3.org/2000/svg" xmlns:xlink="http://www.w3.org/1999/xlink" x="0px" y="0px"
	 width="320px" height="52.264px" viewBox="0 0 320 52.264" enable-background="new 0 0 320 52.264" xml:space="preserve">
<path fill="#FFFFFF" stroke="#FFFFFF" stroke-width="0.25" d="M320,52.264H0V0h320V52.264z M14.379,40.387h4.603
	c4.924,0,9.307-1.1,9.307-7.395v-1.473c0-3.435-1.472-5.736-4.332-6.261v-0.135c1.946-0.474,3.858-2.606,3.858-5.686v-1.405
	c0-6.058-5.077-6.549-9.002-6.549h-4.434V40.387z M18.678,23.854v-9.172h0.846c2.894,0,3.926,1.523,3.926,4.214v1.184
	c0,2.708-1.574,3.774-3.926,3.774H18.678z M18.678,37.34V26.95h1.252c2.877,0,3.909,1.506,3.909,4.213v2.251
	c0,2.707-1.574,3.926-3.909,3.926H18.678z M32.956,40.387h10.881v-3.453h-6.498v-9.899h4.89v-3.452h-4.89v-8.647h6.329v-3.452
	H32.956V40.387z M56.138,40.387h4.383v-8.8h0.423c3.368,0,8.495-0.863,8.495-10.136v-1.016c0-8.512-5.584-8.952-8.918-8.952h-4.383
	V40.387z M60.521,28.372v-13.69h0.22c3.317,0,4.197,1.54,4.197,4.975v2.606c0,4.349-1.015,6.109-4.197,6.109H60.521z M80.011,40.641
	c2.521,0,7.124-1.084,7.124-9.663V20.74c0-8.85-4.518-9.51-7.124-9.51c-2.708,0-7.192,0.795-7.192,9.51v10.238
	C72.819,39.658,77.202,40.641,80.011,40.641z M80.011,37.34c-1.777,0-2.606-1.066-2.606-4.653V19.539
	c0-3.706,0.829-4.857,2.606-4.857c1.726,0,2.555,1.151,2.555,4.857v13.148C82.566,36.274,81.737,37.34,80.011,37.34z M94.459,40.387
	h4.399l2.504-13.894l0.728-6.041h0.338l0.745,6.041l2.386,13.894h4.451l4.044-28.903h-4.214l-1.777,17.463l-0.203,4.078h-0.44
	l-0.338-4.585l-2.978-16.956h-3.503l-3.114,16.956l-0.406,4.585h-0.423l-0.22-4.078l-1.946-17.463h-4.197L94.459,40.387z
	 M118.025,40.387h10.881v-3.453h-6.498v-9.899h4.89v-3.452h-4.89v-8.647h6.329v-3.452h-10.711V40.387z M132.931,40.387h4.298V29.573
	h1.641l3.841,10.813h4.637l-4.637-11.558c2.437-1.218,3.74-3.977,3.74-8.359v-0.728c0-7.852-5.5-8.258-8.766-8.258h-4.755V40.387z
	 M137.229,26.409V14.682h0.66c3.198,0,4.163,1.32,4.163,4.298v2.284c0,3.892-1.083,5.145-4.163,5.145H137.229z M151.524,40.387
	h10.881v-3.453h-6.498v-9.899h4.891v-3.452h-4.891v-8.647h6.329v-3.452h-10.712V40.387z M166.432,40.387h4.552
	c4.163,0,9.493-0.203,9.493-10.255v-8.393c0-10.035-5.33-10.255-9.493-10.255h-4.552V40.387z M170.814,37.324V14.682h1.117
	c3.181,0,3.959,1.405,3.959,6.836v8.969c0,5.432-0.778,6.837-3.959,6.837H170.814z M193.52,40.387h4.603
	c4.925,0,9.308-1.1,9.308-7.395v-1.473c0-3.435-1.473-5.736-4.332-6.261v-0.135c1.945-0.474,3.857-2.606,3.857-5.686v-1.405
	c0-6.058-5.076-6.549-9.002-6.549h-4.434V40.387z M197.817,23.854v-9.172h0.847c2.894,0,3.926,1.523,3.926,4.214v1.184
	c0,2.708-1.574,3.774-3.926,3.774H197.817z M197.817,37.34V26.95h1.253c2.876,0,3.908,1.506,3.908,4.213v2.251
	c0,2.707-1.573,3.926-3.908,3.926H197.817z M215.532,40.387h4.382v-9.629l5.855-19.274h-4.399l-3.503,13.825h-0.203l-3.537-13.825
	h-4.416l5.821,19.274V40.387z M240.896,40.387h4.382v-9.629l5.855-19.274h-4.399l-3.503,13.825h-0.203l-3.537-13.825h-4.416
	l5.821,19.274V40.387z M260.944,40.641c2.521,0,7.124-1.084,7.124-9.663V20.74c0-8.85-4.519-9.51-7.124-9.51
	c-2.708,0-7.192,0.795-7.192,9.51v10.238C253.752,39.658,258.135,40.641,260.944,40.641z M260.944,37.34
	c-1.777,0-2.606-1.066-2.606-4.653V19.539c0-3.706,0.829-4.857,2.606-4.857c1.726,0,2.555,1.151,2.555,4.857v13.148
	C263.499,36.274,262.67,37.34,260.944,37.34z M278.912,40.656c1.963,0,3.351-0.861,4.45-3.011l0.475,2.742h2.91V25.749h-6.515v2.877
	h2.25v3.773c0,2.775-0.829,4.925-2.774,4.925c-1.845,0-2.674-1.101-2.674-4.688V19.539c0-3.706,0.862-4.857,2.707-4.857
	c1.676,0,2.556,1.591,2.556,4.755v1.371h3.503c0.236-1.252,0.406-2.217,0.406-3.452c0-3.351-1.659-6.126-6.347-6.126
	c-2.758,0-7.411,0.795-7.411,9.51v10.238C272.448,39.658,276.864,40.656,278.912,40.656z M289.502,40.387h4.451l0.761-5.178h5.28
	l0.795,5.178h4.434l-5.348-28.903h-5.042L289.502,40.387z M295.222,31.909l2.048-14.401h0.186l2.031,14.401H295.222z"/>
</svg>
