<?xml version="1.0" encoding="utf-8"?>
<!-- Generator: Adobe Illustrator 16.0.3, SVG Export Plug-In . SVG Version: 6.00 Build 0)  -->
<!DOCTYPE svg PUBLIC "-//W3C//DTD SVG 1.1//EN" "http://www.w3.org/Graphics/SVG/1.1/DTD/svg11.dtd">
<svg version="1.1" id="Layer_1" xmlns="http://www.w3.org/2000/svg" xmlns:xlink="http://www.w3.org/1999/xlink" x="0px" y="0px"
	 width="30px" height="30px" viewBox="0 0 30 30" enable-background="new 0 0 30 30" xml:space="preserve">
<circle fill="#FDBA12" cx="15.034" cy="15.315" r="12.5"/>
<g>
	<path fill="#FFFFFF" d="M20.817,11.673h-1.704v-0.105c0-2.249-1.831-4.079-4.079-4.079c-2.252,0-4.079,1.83-4.079,4.079v0.105
		H9.247L8.249,22.792h13.568L20.817,11.673z M15.033,7.991c1.484,0,2.765,0.915,3.306,2.209c-0.715-1.07-1.929-1.777-3.306-1.777
		c-1.38,0-2.595,0.707-3.308,1.777C12.266,8.905,13.545,7.991,15.033,7.991L15.033,7.991z M11.708,11.673
		c0.331-1.531,1.697-2.681,3.325-2.681c1.629,0,2.99,1.149,3.326,2.681H11.708z"/>
</g>
</svg>
