<?xml version="1.0" encoding="utf-8"?>
<!-- Generator: Adobe Illustrator 16.0.3, SVG Export Plug-In . SVG Version: 6.00 Build 0)  -->
<!DOCTYPE svg PUBLIC "-//W3C//DTD SVG 1.1//EN" "http://www.w3.org/Graphics/SVG/1.1/DTD/svg11.dtd">
<svg version="1.1" id="Layer_1" xmlns="http://www.w3.org/2000/svg" xmlns:xlink="http://www.w3.org/1999/xlink" x="0px" y="0px"
	 width="30px" height="30px" viewBox="0 0 30 30" enable-background="new 0 0 30 30" xml:space="preserve">
<circle fill="#41B655" cx="14.85" cy="15.229" r="12.5"/>
<g>
	<path fill="#FFFFFF" d="M14.851,6.769c-3.103,0-5.626,2.511-5.626,5.595c0,1.244,0.797,3.27,2.439,6.194
		c1.161,2.068,2.302,3.795,2.351,3.868l0.837,1.261l0.835-1.261c0.047-0.071,1.19-1.799,2.349-3.868
		c1.641-2.924,2.438-4.951,2.438-6.192C20.475,9.28,17.95,6.769,14.851,6.769L14.851,6.769z M14.851,15.229
		c-1.611,0-2.916-1.3-2.916-2.902c0-1.603,1.305-2.9,2.916-2.9c1.61,0,2.913,1.298,2.913,2.9
		C17.766,13.929,16.461,15.229,14.851,15.229L14.851,15.229z"/>
</g>
</svg>
