<?xml version="1.0" encoding="UTF-8" standalone="no"?>
<!-- Generator: Adobe Illustrator 16.0.3, SVG Export Plug-In . SVG Version: 6.00 Build 0)  -->

<svg
   xmlns:dc="http://purl.org/dc/elements/1.1/"
   xmlns:cc="http://creativecommons.org/ns#"
   xmlns:rdf="http://www.w3.org/1999/02/22-rdf-syntax-ns#"
   xmlns:svg="http://www.w3.org/2000/svg"
   xmlns="http://www.w3.org/2000/svg"
   xmlns:sodipodi="http://sodipodi.sourceforge.net/DTD/sodipodi-0.dtd"
   xmlns:inkscape="http://www.inkscape.org/namespaces/inkscape"
   version="1.1"
   id="Layer_1"
   x="0px"
   y="0px"
   width="40px"
   height="40px"
   viewBox="0 0 40 40"
   enable-background="new 0 0 40 40"
   xml:space="preserve"
   inkscape:version="0.91 r13725"
   sodipodi:docname="shop.svg"><metadata
   id="metadata11"><rdf:RDF><cc:Work
       rdf:about=""><dc:format>image/svg+xml</dc:format><dc:type
         rdf:resource="http://purl.org/dc/dcmitype/StillImage" /></cc:Work></rdf:RDF></metadata><defs
   id="defs9" /><sodipodi:namedview
   pagecolor="#ffffff"
   bordercolor="#666666"
   borderopacity="1"
   objecttolerance="10"
   gridtolerance="10"
   guidetolerance="10"
   inkscape:pageopacity="0"
   inkscape:pageshadow="2"
   inkscape:window-width="857"
   inkscape:window-height="480"
   id="namedview7"
   showgrid="false"
   inkscape:zoom="5.9"
   inkscape:cx="20"
   inkscape:cy="19.830508"
   inkscape:window-x="0"
   inkscape:window-y="0"
   inkscape:window-maximized="0"
   inkscape:current-layer="Layer_1" />
<g
   id="g3"
   transform="matrix(0.7820885,0,0,0.77839967,4.4848413,4.4564933)">
	<path
   stroke-miterlimit="10"
   d="m 34.271,11.903 -4.033,0 0,-0.25 C 30.237,6.332 25.904,2 20.584,2 15.252,2 10.928,6.332 10.928,11.653 l 0,0.25 -4.041,0 -2.362,26.318 32.112,0 -2.366,-26.318 z M 20.582,3.188 c 3.514,0 6.542,2.165 7.822,5.228 C 26.713,5.883 23.84,4.21 20.582,4.21 c -3.267,0 -6.142,1.673 -7.828,4.206 1.275,-3.063 4.305,-5.228 7.828,-5.228 l 0,0 z m -7.873,8.715 c 0.785,-3.625 4.019,-6.345 7.873,-6.345 3.854,0 7.077,2.72 7.872,6.345 l -15.745,0 z"
   id="path5"
   inkscape:connector-curvature="0"
   style="fill:none;stroke:#ffbb00;stroke-width:0.5;stroke-miterlimit:10" />
</g>
</svg>