<?xml version="1.0" encoding="UTF-8" standalone="no"?>
<!-- Generator: Adobe Illustrator 16.0.3, SVG Export Plug-In . SVG Version: 6.00 Build 0)  -->

<svg
   xmlns:dc="http://purl.org/dc/elements/1.1/"
   xmlns:cc="http://creativecommons.org/ns#"
   xmlns:rdf="http://www.w3.org/1999/02/22-rdf-syntax-ns#"
   xmlns:svg="http://www.w3.org/2000/svg"
   xmlns="http://www.w3.org/2000/svg"
   xmlns:xlink="http://www.w3.org/1999/xlink"
   xmlns:sodipodi="http://sodipodi.sourceforge.net/DTD/sodipodi-0.dtd"
   xmlns:inkscape="http://www.inkscape.org/namespaces/inkscape"
   version="1.1"
   id="Layer_1"
   x="0px"
   y="0px"
   width="800px"
   height="172.032px"
   viewBox="0 0 800 172.032"
   enable-background="new 0 0 800 172.032"
   xml:space="preserve"
   inkscape:version="0.91 r13725"
   sodipodi:docname="logo.svg"><metadata
   id="metadata182"><rdf:RDF><cc:Work
       rdf:about=""><dc:format>image/svg+xml</dc:format><dc:type
         rdf:resource="http://purl.org/dc/dcmitype/StillImage" /><dc:title></dc:title></cc:Work></rdf:RDF></metadata><defs
   id="defs180" /><sodipodi:namedview
   pagecolor="#ffffff"
   bordercolor="#666666"
   borderopacity="1"
   objecttolerance="10"
   gridtolerance="10"
   guidetolerance="10"
   inkscape:pageopacity="0"
   inkscape:pageshadow="2"
   inkscape:window-width="1920"
   inkscape:window-height="1057"
   id="namedview178"
   showgrid="false"
   inkscape:zoom="0.74"
   inkscape:cx="396.38367"
   inkscape:cy="-178.90898"
   inkscape:window-x="-8"
   inkscape:window-y="-8"
   inkscape:window-maximized="1"
   inkscape:current-layer="Layer_1" />
<g
   id="g3">
	<defs
   id="defs5">
		<path
   id="SVGID_1_"
   d="M24.926,15.368H4.585V1.355h57.18v14.013H41.537v59.665H24.926V15.368z" />
	</defs>
	<defs
   id="defs8">
		<path
   id="SVGID_2_"
   d="M78.827,1.355h16.725V29.72h25.425V1.355h16.612v73.678h-16.612V44.297H95.552v30.736H78.827V1.355z" />
	</defs>
	<defs
   id="defs11">
		<path
   id="SVGID_3_"
   d="M160.415,1.355h46.219v14.013H177.14v14.803h25.087v13.9H177.14v16.951h30.624v14.011h-47.349V1.355z" />
	</defs>
	<defs
   id="defs14">
		<path
   id="SVGID_4_"
   d="M269.575,48.817L247.426,1.355h17.742l6.667,16.951c0.978,2.789,1.958,5.481,2.938,8.08    c0.978,2.599,1.995,5.332,3.051,8.193h0.452c1.055-2.861,2.091-5.594,3.108-8.193c1.017-2.599,2.052-5.291,3.107-8.08    l6.554-16.951h17.403l-22.262,47.462v26.216h-16.611V48.817z" />
	</defs>
	<defs
   id="defs17">
		<path
   id="SVGID_5_"
   d="M349.692,76.39c-4.972,0-9.511-0.887-13.616-2.655c-4.107-1.771-7.628-4.313-10.566-7.628    c-2.938-3.314-5.218-7.345-6.837-12.092c-1.621-4.746-2.429-10.131-2.429-16.159c0-6.026,0.809-11.394,2.429-16.103    c1.619-4.708,3.899-8.663,6.837-11.866c2.938-3.2,6.459-5.649,10.566-7.344C340.181,0.847,344.721,0,349.692,0    c4.973,0,9.51,0.847,13.617,2.542c4.105,1.695,7.627,4.163,10.565,7.401c2.938,3.241,5.216,7.214,6.837,11.922    c1.619,4.709,2.429,10.039,2.429,15.99c0,6.028-0.81,11.413-2.429,16.159c-1.621,4.747-3.899,8.777-6.837,12.092    c-2.938,3.316-6.46,5.858-10.565,7.628C359.203,75.503,354.665,76.39,349.692,76.39z M349.692,62.038    c5.046,0,9.041-2.164,11.979-6.498c2.938-4.331,4.407-10.227,4.407-17.685c0-7.382-1.469-13.146-4.407-17.289    c-2.938-4.143-6.933-6.215-11.979-6.215c-4.972,0-8.947,2.072-11.921,6.215c-2.977,4.143-4.463,9.907-4.463,17.289    c0,3.691,0.395,7.026,1.186,10c0.792,2.977,1.882,5.521,3.277,7.628c1.393,2.11,3.107,3.729,5.142,4.858    C344.947,61.474,347.207,62.038,349.692,62.038z" />
	</defs>
	<defs
   id="defs20">
		<path
   id="SVGID_6_"
   d="M399.075,38.646c0-6.102,0.96-11.544,2.882-16.329c1.92-4.783,4.52-8.831,7.797-12.147    c3.277-3.314,7.119-5.838,11.527-7.572C425.688,0.867,430.377,0,435.35,0c5.197,0,9.699,0.979,13.504,2.938    c3.803,1.961,6.949,4.181,9.436,6.667l-9.154,10.284c-1.883-1.732-3.822-3.089-5.818-4.068c-1.998-0.979-4.576-1.468-7.742-1.468    c-2.863,0-5.48,0.546-7.852,1.638c-2.373,1.094-4.408,2.657-6.104,4.69c-1.693,2.034-3.033,4.52-4.012,7.458    s-1.469,6.255-1.469,9.945c0,7.61,1.713,13.503,5.143,17.685c3.428,4.181,8.645,6.271,15.65,6.271    c1.506,0,2.955-0.186,4.352-0.564c1.393-0.377,2.541-0.941,3.445-1.695V47.122h-12.205v-13.56h27.008v33.901    c-1.355,1.129-2.92,2.242-4.689,3.333c-1.771,1.094-3.711,2.054-5.818,2.882c-2.109,0.83-4.371,1.486-6.781,1.978    c-2.412,0.489-4.898,0.734-7.457,0.734c-4.973,0-9.625-0.811-13.957-2.43s-8.117-4.012-11.355-7.176    c-3.24-3.164-5.784-7.099-7.63-11.808C399.997,50.269,399.075,44.825,399.075,38.646z" />
	</defs>
	<defs
   id="defs23">
		<path
   id="SVGID_7_"
   d="M513.885,57.519h-22.6l-4.521,17.515h-16.949L492.98,1.355h19.889l23.166,73.678h-17.629L513.885,57.519z     M510.496,44.523l-1.809-6.78c-1.057-3.691-2.053-7.608-2.994-11.753c-0.943-4.142-1.941-8.136-2.996-11.979h-0.451    c-0.83,3.918-1.734,7.93-2.713,12.035c-0.979,4.107-1.996,8.005-3.051,11.696l-1.807,6.78H510.496z" />
	</defs>
	<defs
   id="defs26">
		<path
   id="SVGID_8_"
   d="M578.521,1.355h17.629l12.318,33.11l4.406,12.882h0.453l4.406-12.882l11.979-33.11h17.629v73.678h-15.596    V48.025c0-1.807,0.076-3.803,0.227-5.988c0.152-2.185,0.338-4.389,0.566-6.61c0.227-2.222,0.451-4.408,0.678-6.555    c0.227-2.147,0.451-4.125,0.678-5.932h-0.451l-5.992,17.063l-11.41,28.589h-6.668L598.07,40.003l-5.875-17.063h-0.451    c0.227,1.807,0.451,3.784,0.678,5.932c0.227,2.147,0.451,4.333,0.678,6.555s0.414,4.425,0.564,6.61    c0.152,2.186,0.227,4.181,0.227,5.988v27.008h-15.369V1.355z" />
	</defs>
	<defs
   id="defs29">
		<path
   id="SVGID_9_"
   d="M704.857,57.519h-22.6l-4.52,17.515h-16.949l23.164-73.678h19.889l23.164,73.678h-17.627L704.857,57.519z     M701.467,44.523l-1.807-6.78c-1.055-3.691-2.055-7.608-2.994-11.753c-0.943-4.142-1.939-8.136-2.996-11.979h-0.451    c-0.83,3.918-1.734,7.93-2.711,12.035c-0.982,4.107-1.998,8.005-3.051,11.696l-1.811,6.78H701.467z" />
	</defs>
	<defs
   id="defs32">
		<path
   id="SVGID_10_"
   d="M740.34,1.355h26.896c3.992,0,7.738,0.397,11.242,1.188s6.555,2.11,9.152,3.955    c2.602,1.846,4.652,4.294,6.16,7.345c1.506,3.052,2.26,6.799,2.26,11.245c0,4.294-0.771,8.022-2.316,11.187    c-1.543,3.163-3.635,5.763-6.271,7.797s-5.689,3.542-9.154,4.52c-3.463,0.979-7.156,1.468-11.072,1.468h-10.172v24.974H740.34    V1.355z M766.217,36.838c9.043,0,13.563-3.916,13.563-11.751c0-3.842-1.15-6.554-3.445-8.136    c-2.303-1.583-5.67-2.373-10.117-2.373h-9.152v22.261H766.217z" />
	</defs>
	<linearGradient
   id="SVGID_11_"
   gradientUnits="userSpaceOnUse"
   x1="29.5088"
   y1="-5.3228"
   x2="50.4036"
   y2="72.6578">
		<stop
   offset="0"
   style="stop-color:#7DC243"
   id="stop36" />
		<stop
   offset="0.4409"
   style="stop-color:#61BA94"
   id="stop38" />
		<stop
   offset="1"
   style="stop-color:#18B4E9"
   id="stop40" />
	</linearGradient>
	<use
   xlink:href="#SVGID_1_"
   overflow="visible"
   fill="url(#SVGID_11_)"
   id="use42" />
	<linearGradient
   id="SVGID_12_"
   gradientUnits="userSpaceOnUse"
   x1="97.0303"
   y1="-3.522"
   x2="119.3863"
   y2="79.9118">
		<stop
   offset="0"
   style="stop-color:#7DC243"
   id="stop45" />
		<stop
   offset="0.4409"
   style="stop-color:#61BA94"
   id="stop47" />
		<stop
   offset="1"
   style="stop-color:#18B4E9"
   id="stop49" />
	</linearGradient>
	<use
   xlink:href="#SVGID_2_"
   overflow="visible"
   fill="url(#SVGID_12_)"
   id="use51" />
	<linearGradient
   id="SVGID_13_"
   gradientUnits="userSpaceOnUse"
   x1="172.7666"
   y1="-1.9546"
   x2="194.358"
   y2="78.6257">
		<stop
   offset="0"
   style="stop-color:#7DC243"
   id="stop54" />
		<stop
   offset="0.4409"
   style="stop-color:#61BA94"
   id="stop56" />
		<stop
   offset="1"
   style="stop-color:#18B4E9"
   id="stop58" />
	</linearGradient>
	<use
   xlink:href="#SVGID_3_"
   overflow="visible"
   fill="url(#SVGID_13_)"
   id="use60" />
	<linearGradient
   id="SVGID_14_"
   gradientUnits="userSpaceOnUse"
   x1="275.8936"
   y1="-6.2725"
   x2="296.9097"
   y2="72.1609">
		<stop
   offset="0"
   style="stop-color:#7DC243"
   id="stop63" />
		<stop
   offset="0.4409"
   style="stop-color:#61BA94"
   id="stop65" />
		<stop
   offset="1"
   style="stop-color:#18B4E9"
   id="stop67" />
	</linearGradient>
	<use
   xlink:href="#SVGID_4_"
   overflow="visible"
   fill="url(#SVGID_14_)"
   id="use69" />
	<linearGradient
   id="SVGID_15_"
   gradientUnits="userSpaceOnUse"
   x1="339.8652"
   y1="1.252"
   x2="359.6404"
   y2="75.0538">
		<stop
   offset="0"
   style="stop-color:#7DC243"
   id="stop72" />
		<stop
   offset="0.4409"
   style="stop-color:#61BA94"
   id="stop74" />
		<stop
   offset="1"
   style="stop-color:#18B4E9"
   id="stop76" />
	</linearGradient>
	<use
   xlink:href="#SVGID_5_"
   overflow="visible"
   fill="url(#SVGID_15_)"
   id="use78" />
	<linearGradient
   id="SVGID_16_"
   gradientUnits="userSpaceOnUse"
   x1="421.8877"
   y1="2.1934"
   x2="441.6385"
   y2="75.9046">
		<stop
   offset="0"
   style="stop-color:#7DC243"
   id="stop81" />
		<stop
   offset="0.4409"
   style="stop-color:#61BA94"
   id="stop83" />
		<stop
   offset="1"
   style="stop-color:#18B4E9"
   id="stop85" />
	</linearGradient>
	<use
   xlink:href="#SVGID_6_"
   overflow="visible"
   fill="url(#SVGID_16_)"
   id="use87" />
	<linearGradient
   id="SVGID_17_"
   gradientUnits="userSpaceOnUse"
   x1="483.8398"
   y1="3.8047"
   x2="505.1436"
   y2="83.3115">
		<stop
   offset="0"
   style="stop-color:#7DC243"
   id="stop90" />
		<stop
   offset="0.4409"
   style="stop-color:#61BA94"
   id="stop92" />
		<stop
   offset="1"
   style="stop-color:#18B4E9"
   id="stop94" />
	</linearGradient>
	<use
   xlink:href="#SVGID_7_"
   overflow="visible"
   fill="url(#SVGID_17_)"
   id="use96" />
	<linearGradient
   id="SVGID_18_"
   gradientUnits="userSpaceOnUse"
   x1="601.417"
   y1="-4.7793"
   x2="624.4466"
   y2="81.1683">
		<stop
   offset="0"
   style="stop-color:#7DC243"
   id="stop99" />
		<stop
   offset="0.4409"
   style="stop-color:#61BA94"
   id="stop101" />
		<stop
   offset="1"
   style="stop-color:#18B4E9"
   id="stop103" />
	</linearGradient>
	<use
   xlink:href="#SVGID_8_"
   overflow="visible"
   fill="url(#SVGID_18_)"
   id="use105" />
	<linearGradient
   id="SVGID_19_"
   gradientUnits="userSpaceOnUse"
   x1="674.8125"
   y1="3.8047"
   x2="696.116"
   y2="83.3106">
		<stop
   offset="0"
   style="stop-color:#7DC243"
   id="stop108" />
		<stop
   offset="0.4409"
   style="stop-color:#61BA94"
   id="stop110" />
		<stop
   offset="1"
   style="stop-color:#18B4E9"
   id="stop112" />
	</linearGradient>
	<use
   xlink:href="#SVGID_9_"
   overflow="visible"
   fill="url(#SVGID_19_)"
   id="use114" />
	<linearGradient
   id="SVGID_20_"
   gradientUnits="userSpaceOnUse"
   x1="754.6807"
   y1="-2.4873"
   x2="774.2208"
   y2="70.4373">
		<stop
   offset="0"
   style="stop-color:#7DC243"
   id="stop117" />
		<stop
   offset="0.4409"
   style="stop-color:#61BA94"
   id="stop119" />
		<stop
   offset="1"
   style="stop-color:#18B4E9"
   id="stop121" />
	</linearGradient>
	<use
   xlink:href="#SVGID_10_"
   overflow="visible"
   fill="url(#SVGID_20_)"
   id="use123" />
	<clipPath
   id="SVGID_21_">
		<use
   xlink:href="#SVGID_1_"
   overflow="visible"
   id="use126" />
	</clipPath>
	<clipPath
   id="SVGID_22_"
   clip-path="url(#SVGID_21_)">
		<use
   xlink:href="#SVGID_2_"
   overflow="visible"
   id="use129" />
	</clipPath>
	<clipPath
   id="SVGID_23_"
   clip-path="url(#SVGID_22_)">
		<use
   xlink:href="#SVGID_3_"
   overflow="visible"
   id="use132" />
	</clipPath>
	<clipPath
   id="SVGID_24_"
   clip-path="url(#SVGID_23_)">
		<use
   xlink:href="#SVGID_4_"
   overflow="visible"
   id="use135" />
	</clipPath>
	<clipPath
   id="SVGID_25_"
   clip-path="url(#SVGID_24_)">
		<use
   xlink:href="#SVGID_5_"
   overflow="visible"
   id="use138" />
	</clipPath>
	<clipPath
   id="SVGID_26_"
   clip-path="url(#SVGID_25_)">
		<use
   xlink:href="#SVGID_6_"
   overflow="visible"
   id="use141" />
	</clipPath>
	<clipPath
   id="SVGID_27_"
   clip-path="url(#SVGID_26_)">
		<use
   xlink:href="#SVGID_7_"
   overflow="visible"
   id="use144" />
	</clipPath>
	<clipPath
   id="SVGID_28_"
   clip-path="url(#SVGID_27_)">
		<use
   xlink:href="#SVGID_8_"
   overflow="visible"
   id="use147" />
	</clipPath>
	<clipPath
   id="SVGID_29_"
   clip-path="url(#SVGID_28_)">
		<use
   xlink:href="#SVGID_9_"
   overflow="visible"
   id="use150" />
	</clipPath>
	<clipPath
   id="SVGID_30_"
   clip-path="url(#SVGID_29_)">
		<use
   xlink:href="#SVGID_10_"
   overflow="visible"
   id="use153" />
	</clipPath>
	<linearGradient
   id="SVGID_31_"
   gradientUnits="userSpaceOnUse"
   x1="452.8213"
   y1="-123.6255"
   x2="345.3298"
   y2="207.1991">
		<stop
   offset="0"
   style="stop-color:#7DC243"
   id="stop156" />
		<stop
   offset="1"
   style="stop-color:#18B4E9"
   id="stop158" />
	</linearGradient>
	
		<rect
   y="-11.421"
   clip-path="url(#SVGID_30_)"
   fill-rule="evenodd"
   clip-rule="evenodd"
   fill="url(#SVGID_31_)"
   width="798.15"
   height="106.416"
   id="rect160" />
</g>
<g
   id="g162">
	<path
   fill="#7DC243"
   d="M540.975,155.901l-2.862,15.091h-3.556l12.142-60.45h2.949l-0.868,5.897h0.348   c2.196-1.85,4.566-3.469,7.111-4.856c2.544-1.388,5.261-2.082,8.152-2.082c3.699,0,6.648,1.272,8.847,3.816   c2.196,2.545,3.296,6.274,3.296,11.188c0,3.99-0.638,7.734-1.908,11.231c-1.272,3.499-2.964,6.548-5.074,9.15   c-2.111,2.602-4.524,4.64-7.241,6.114c-2.719,1.475-5.494,2.212-8.326,2.212c-2.429,0-4.568-0.637-6.418-1.908   c-1.851-1.271-3.383-2.862-4.597-4.771h-0.173L540.975,155.901z M563.61,112.623c-2.313,0-4.856,0.724-7.632,2.169   s-5.349,3.325-7.719,5.637l-4.511,22.463c1.503,2.602,3.093,4.453,4.771,5.551c1.677,1.099,3.498,1.647,5.464,1.647   c2.485,0,4.87-0.707,7.155-2.125c2.283-1.416,4.307-3.295,6.071-5.637c1.763-2.342,3.165-5.016,4.206-8.022   c1.041-3.006,1.561-6.071,1.561-9.193c0-4.163-0.839-7.285-2.515-9.366C568.784,113.664,566.501,112.623,563.61,112.623z"
   id="path164" />
	<path
   fill="#7DC243"
   d="M594.311,110.542h2.949l-1.302,7.893h0.348c1.734-2.485,3.671-4.597,5.811-6.331   c2.139-1.735,4.566-2.603,7.285-2.603c0.577,0,1.171,0.044,1.777,0.13c0.607,0.087,1.258,0.275,1.952,0.564l-1.388,3.382   c-0.405-0.173-0.854-0.332-1.345-0.477c-0.492-0.144-1.143-0.217-1.951-0.217c-2.198,0-4.524,1.012-6.981,3.035   c-2.458,2.024-4.611,4.915-6.462,8.673l-5.464,27.58h-3.643L594.311,110.542z"
   id="path166" />
	<path
   fill="#7DC243"
   d="M629.089,153.213c-4.279,0-7.69-1.432-10.234-4.294c-2.545-2.861-3.815-6.923-3.815-12.185   c0-3.873,0.606-7.473,1.821-10.798c1.214-3.324,2.847-6.201,4.899-8.63c2.052-2.429,4.394-4.336,7.025-5.724   c2.63-1.388,5.362-2.082,8.196-2.082c4.336,0,7.775,1.432,10.32,4.293c2.544,2.862,3.816,6.925,3.816,12.186   c0,3.874-0.622,7.474-1.865,10.798c-1.244,3.325-2.877,6.201-4.9,8.63c-2.024,2.428-4.366,4.336-7.024,5.724   C634.668,152.519,631.921,153.213,629.089,153.213z M636.721,112.623c-2.255,0-4.467,0.638-6.635,1.908   c-2.168,1.272-4.105,2.979-5.811,5.117c-1.706,2.14-3.079,4.64-4.12,7.502c-1.04,2.862-1.561,5.884-1.561,9.063   c0,4.51,0.938,7.95,2.818,10.32c1.878,2.372,4.554,3.556,8.022,3.556c2.255,0,4.452-0.635,6.592-1.908   c2.138-1.271,4.061-2.977,5.768-5.116c1.704-2.139,3.078-4.641,4.119-7.502c1.041-2.862,1.562-5.911,1.562-9.15   c0-4.51-0.926-7.936-2.775-10.277C642.849,113.794,640.19,112.623,636.721,112.623z"
   id="path168" />
	<path
   fill="#7DC243"
   d="M662.652,159.804c-0.811,3.816-2.038,6.809-3.687,8.977c-1.647,2.168-3.916,3.252-6.808,3.252   c-1.271,0-2.313-0.13-3.122-0.39c-0.81-0.261-1.59-0.594-2.342-0.997l1.388-2.862c0.521,0.347,1.07,0.62,1.647,0.823   c0.579,0.202,1.388,0.304,2.429,0.304c1.734,0,3.137-0.78,4.206-2.342c1.069-1.561,1.922-3.672,2.559-6.331l10.061-49.695h3.556   L662.652,159.804z M673.06,100.481c-0.811,0-1.504-0.273-2.081-0.824c-0.579-0.549-0.868-1.228-0.868-2.038   c0-1.155,0.361-2.095,1.085-2.818c0.722-0.723,1.574-1.084,2.559-1.084c0.809,0,1.502,0.26,2.081,0.78   c0.577,0.521,0.867,1.244,0.867,2.168c0,1.1-0.377,2.01-1.127,2.732C674.822,100.121,673.983,100.481,673.06,100.481z"
   id="path170" />
	<path
   fill="#7DC243"
   d="M681.991,136.04c0-3.931,0.636-7.53,1.908-10.798c1.271-3.266,2.919-6.07,4.943-8.412   c2.023-2.342,4.337-4.148,6.938-5.421c2.602-1.271,5.232-1.908,7.893-1.908c2.255,0,4.176,0.362,5.767,1.084   c1.59,0.724,2.876,1.735,3.859,3.036c0.982,1.301,1.705,2.861,2.169,4.683c0.462,1.821,0.693,3.803,0.693,5.941   c0,1.504-0.116,2.892-0.347,4.163c-0.231,1.272-0.492,2.313-0.78,3.122H685.98c-0.578,3.296-0.637,6.114-0.173,8.456   c0.462,2.342,1.271,4.265,2.428,5.768c1.156,1.504,2.616,2.616,4.38,3.339c1.764,0.724,3.687,1.084,5.768,1.084   c1.85,0,3.671-0.403,5.464-1.214c1.792-0.81,3.439-1.764,4.943-2.862l1.648,2.602c-1.678,1.215-3.586,2.271-5.725,3.166   c-2.14,0.896-4.423,1.345-6.852,1.345c-4.856,0-8.716-1.46-11.578-4.38C683.422,145.914,681.991,141.649,681.991,136.04z    M712.347,128.668c0.347-1.618,0.52-3.266,0.52-4.943c0-1.388-0.159-2.761-0.477-4.119c-0.318-1.358-0.854-2.559-1.604-3.6   c-0.752-1.041-1.734-1.878-2.949-2.515c-1.214-0.636-2.718-0.954-4.51-0.954c-1.851,0-3.657,0.39-5.42,1.171   c-1.765,0.78-3.397,1.894-4.9,3.339c-1.504,1.445-2.818,3.151-3.946,5.117c-1.127,1.966-1.981,4.134-2.559,6.504H712.347z"
   id="path172" />
	<path
   fill="#7DC243"
   d="M725.008,136.734c0-4.047,0.65-7.732,1.951-11.059c1.301-3.324,3.006-6.186,5.117-8.586   c2.11-2.398,4.51-4.263,7.198-5.594c2.688-1.329,5.421-1.995,8.196-1.995c2.428,0,4.451,0.464,6.07,1.388   c1.618,0.926,3.093,2.14,4.424,3.643l-2.255,2.429c-1.272-1.503-2.53-2.602-3.772-3.296c-1.244-0.693-2.819-1.041-4.728-1.041   c-2.371,0-4.669,0.638-6.895,1.908c-2.227,1.272-4.206,2.979-5.941,5.117c-1.734,2.14-3.122,4.64-4.162,7.502   c-1.041,2.862-1.562,5.884-1.562,9.063c0,4.51,0.954,7.95,2.862,10.32c1.908,2.372,4.798,3.556,8.673,3.556   c2.081,0,4.018-0.434,5.811-1.301c1.792-0.867,3.439-1.878,4.943-3.035l1.821,2.602c-1.504,1.157-3.325,2.255-5.464,3.296   c-2.14,1.041-4.654,1.562-7.545,1.562c-4.51,0-8.096-1.432-10.755-4.294C726.337,146.058,725.008,141.996,725.008,136.734z"
   id="path174" />
	<path
   fill="#7DC243"
   d="M773.142,113.664h-6.505l0.521-2.775l6.765-0.347l2.862-11.882h3.035l-2.428,11.882h11.274l-0.693,3.122   h-11.275l-5.637,27.319c-0.117,0.521-0.204,1.041-0.261,1.562c-0.059,0.521-0.087,1.099-0.087,1.734   c0,1.908,0.419,3.354,1.258,4.337c0.838,0.983,2.385,1.474,4.64,1.474c0.982,0,1.894-0.158,2.732-0.477   c0.837-0.317,1.604-0.65,2.298-0.997l0.954,2.688c-0.811,0.463-1.793,0.896-2.948,1.301c-1.157,0.404-2.4,0.607-3.729,0.607   c-1.619,0-2.992-0.217-4.12-0.65c-1.127-0.434-2.038-1.026-2.731-1.778c-0.694-0.751-1.186-1.633-1.475-2.646   c-0.29-1.011-0.434-2.066-0.434-3.165c0-0.81,0.028-1.519,0.087-2.125c0.057-0.607,0.144-1.286,0.26-2.038L773.142,113.664z"
   id="path176" />
</g>
</svg>