<?xml version="1.0" encoding="UTF-8" standalone="no"?>
<!-- Generator: Adobe Illustrator 16.0.3, SVG Export Plug-In . SVG Version: 6.00 Build 0)  -->

<svg
   xmlns:dc="http://purl.org/dc/elements/1.1/"
   xmlns:cc="http://creativecommons.org/ns#"
   xmlns:rdf="http://www.w3.org/1999/02/22-rdf-syntax-ns#"
   xmlns:svg="http://www.w3.org/2000/svg"
   xmlns="http://www.w3.org/2000/svg"
   xmlns:sodipodi="http://sodipodi.sourceforge.net/DTD/sodipodi-0.dtd"
   xmlns:inkscape="http://www.inkscape.org/namespaces/inkscape"
   version="1.1"
   id="Layer_1"
   x="0px"
   y="0px"
   width="563"
   height="563"
   viewBox="0 0 563 563"
   enable-background="new 0 0 94 77.5"
   xml:space="preserve"
   inkscape:version="0.91 r13725"
   sodipodi:docname="quote.svg"><metadata
   id="metadata11"><rdf:RDF><cc:Work
       rdf:about=""><dc:format>image/svg+xml</dc:format><dc:type
         rdf:resource="http://purl.org/dc/dcmitype/StillImage" /><dc:title></dc:title></cc:Work></rdf:RDF></metadata><defs
   id="defs9" /><sodipodi:namedview
   pagecolor="#ffffff"
   bordercolor="#666666"
   borderopacity="1"
   objecttolerance="10"
   gridtolerance="10"
   guidetolerance="10"
   inkscape:pageopacity="0"
   inkscape:pageshadow="2"
   inkscape:window-width="1920"
   inkscape:window-height="1057"
   id="namedview7"
   showgrid="false"
   inkscape:zoom="0.53831355"
   inkscape:cx="-196.29848"
   inkscape:cy="399.85172"
   inkscape:window-x="-8"
   inkscape:window-y="-8"
   inkscape:window-maximized="1"
   inkscape:current-layer="Layer_1" />
<g
   id="g3"
   transform="translate(234.4985,154.90345)">
	<path
   d="m 40.202,16.395 c -6.4,2.8 -11.2,6.234 -14.4,10.3 -3.2,4.069 -4.8,9.101 -4.8,15.101 0.4,-0.132 1.065,-0.201 2,-0.201 4.8,0 8.866,1.469 12.2,4.4 3.331,2.935 5,6.935 5,12 0,5.6 -1.6,10.068 -4.8,13.4 -3.2,3.334 -7.334,5 -12.4,5 -7.069,0 -12.369,-2.566 -15.9,-7.7 -3.535,-5.132 -5.3,-12.3 -5.3,-21.5 0,-10 2.531,-18.831 7.6,-26.5 5.066,-7.666 12.931,-14.031 23.6,-19.1 l 7.2,14.8 z m 51.999,0 c -6.4,2.8 -11.199,6.234 -14.4,10.3 -3.199,4.069 -4.799,9.101 -4.799,15.101 0.4,-0.132 1.064,-0.201 2,-0.201 4.799,0 8.865,1.469 12.199,4.4 3.332,2.935 5,6.935 5,12 0,5.6 -1.6,10.068 -4.799,13.4 -3.201,3.334 -7.336,5 -12.4,5 -7.069,0 -12.369,-2.566 -15.9,-7.7 -3.535,-5.132 -5.301,-12.3 -5.301,-21.5 0,-10 2.531,-18.831 7.601,-26.5 5.065,-7.666 12.931,-14.031 23.601,-19.1 l 7.198,14.8 z"
   id="path5"
   inkscape:connector-curvature="0"
   style="fill:#ffffff" />
</g>
</svg>