<?xml version="1.0" encoding="utf-8"?>
<!-- Generator: Adobe Illustrator 16.0.3, SVG Export Plug-In . SVG Version: 6.00 Build 0)  -->
<!DOCTYPE svg PUBLIC "-//W3C//DTD SVG 1.1//EN" "http://www.w3.org/Graphics/SVG/1.1/DTD/svg11.dtd">
<svg version="1.1" id="Layer_1" xmlns="http://www.w3.org/2000/svg" xmlns:xlink="http://www.w3.org/1999/xlink" x="0px" y="0px"
	 width="818.266px" height="112.495px" viewBox="0 0 818.266 112.495" enable-background="new 0 0 818.266 112.495"
	 xml:space="preserve">
<g>
	<path fill="#7CC244" d="M13.12,14.244h9.2c2.5,0,4.758,0.316,6.775,0.949c2.017,0.634,3.742,1.609,5.175,2.926
		c1.433,1.316,2.533,2.992,3.3,5.024c0.767,2.034,1.15,4.45,1.15,7.25s-0.383,5.233-1.15,7.3c-0.767,2.067-1.85,3.775-3.25,5.125
		c-1.4,1.351-3.075,2.359-5.025,3.025c-1.95,0.667-4.125,1-6.525,1h-9.65V14.244z M21.92,40.894c1.366,0,2.616-0.183,3.75-0.55
		c1.133-0.366,2.108-0.958,2.925-1.775c0.816-0.816,1.45-1.891,1.9-3.225c0.45-1.333,0.675-2.982,0.675-4.95
		c0-1.933-0.225-3.558-0.675-4.875c-0.45-1.316-1.083-2.366-1.9-3.149c-0.817-0.783-1.792-1.342-2.925-1.676
		c-1.134-0.332-2.384-0.5-3.75-0.5h-1.4v20.7H21.92z"/>
	<path fill="#7CC244" d="M63.47,46.844l-6.25-11.75h-4v11.75h-7.4v-32.6h11.75c1.733,0,3.358,0.167,4.875,0.5
		c1.517,0.333,2.85,0.892,4,1.675c1.15,0.783,2.058,1.825,2.725,3.125c0.667,1.3,1,2.917,1,4.85c0,2.4-0.534,4.375-1.6,5.925
		c-1.067,1.551-2.467,2.709-4.2,3.476l7.35,13.05H63.47z M53.22,29.244h3.75c1.933,0,3.408-0.408,4.425-1.226
		c1.017-0.816,1.525-2.024,1.525-3.625c0-1.6-0.508-2.716-1.525-3.35c-1.017-0.633-2.492-0.95-4.425-0.95h-3.75V29.244z"/>
	<path fill="#7CC244" d="M90.819,47.443c-2.2,0-4.208-0.392-6.025-1.175c-1.817-0.782-3.375-1.907-4.675-3.375
		c-1.3-1.466-2.309-3.25-3.025-5.35c-0.717-2.101-1.075-4.483-1.075-7.15c0-2.666,0.358-5.041,1.075-7.125
		c0.716-2.083,1.725-3.833,3.025-5.25c1.3-1.416,2.858-2.5,4.675-3.25c1.816-0.75,3.825-1.125,6.025-1.125
		c2.2,0,4.208,0.375,6.025,1.125c1.816,0.75,3.375,1.843,4.675,3.275c1.3,1.434,2.308,3.192,3.025,5.274
		c0.716,2.084,1.075,4.442,1.075,7.075c0,2.667-0.359,5.05-1.075,7.15c-0.717,2.1-1.725,3.884-3.025,5.35
		c-1.3,1.468-2.858,2.593-4.675,3.375C95.027,47.052,93.019,47.443,90.819,47.443z M90.819,41.094c2.233,0,4-0.958,5.3-2.875
		c1.3-1.916,1.95-4.525,1.95-7.825c0-3.267-0.65-5.816-1.95-7.649c-1.3-1.833-3.067-2.75-5.3-2.75c-2.2,0-3.958,0.917-5.275,2.75
		c-1.317,1.833-1.975,4.383-1.975,7.649c0,1.634,0.175,3.108,0.525,4.425c0.35,1.317,0.833,2.442,1.45,3.375
		c0.617,0.934,1.375,1.65,2.275,2.15C88.719,40.844,89.719,41.094,90.819,41.094z"/>
	<path fill="#7CC244" d="M112.719,14.244h11.9c1.766,0,3.425,0.175,4.975,0.524c1.55,0.351,2.9,0.934,4.05,1.75
		c1.15,0.817,2.058,1.9,2.725,3.25c0.666,1.351,1,3.009,1,4.976c0,1.899-0.342,3.55-1.025,4.949c-0.684,1.4-1.608,2.551-2.775,3.45
		c-1.167,0.9-2.517,1.567-4.05,2c-1.534,0.434-3.167,0.65-4.9,0.65h-4.5v11.05h-7.4V14.244z M124.169,29.943c4,0,6-1.732,6-5.199
		c0-1.7-0.509-2.9-1.525-3.601c-1.017-0.7-2.509-1.05-4.475-1.05h-4.05v9.85H124.169z"/>
	<path fill="#7CC244" d="M160.968,35.244l-9.8-21h7.85l2.95,7.5c0.433,1.233,0.867,2.425,1.3,3.574
		c0.433,1.15,0.883,2.359,1.35,3.625h0.2c0.466-1.266,0.925-2.475,1.375-3.625c0.45-1.149,0.908-2.341,1.375-3.574l2.9-7.5h7.7
		l-9.85,21v11.6h-7.35V35.244z"/>
	<path fill="#7CC244" d="M194.918,47.443c-2.2,0-4.208-0.392-6.025-1.175c-1.817-0.782-3.375-1.907-4.675-3.375
		c-1.3-1.466-2.309-3.25-3.025-5.35c-0.717-2.101-1.075-4.483-1.075-7.15c0-2.666,0.358-5.041,1.075-7.125
		c0.716-2.083,1.725-3.833,3.025-5.25c1.3-1.416,2.858-2.5,4.675-3.25c1.816-0.75,3.825-1.125,6.025-1.125
		c2.2,0,4.208,0.375,6.025,1.125c1.816,0.75,3.375,1.843,4.675,3.275c1.3,1.434,2.308,3.192,3.025,5.274
		c0.716,2.084,1.075,4.442,1.075,7.075c0,2.667-0.359,5.05-1.075,7.15c-0.717,2.1-1.725,3.884-3.025,5.35
		c-1.3,1.468-2.858,2.593-4.675,3.375C199.126,47.052,197.118,47.443,194.918,47.443z M194.918,41.094c2.233,0,4-0.958,5.3-2.875
		c1.3-1.916,1.95-4.525,1.95-7.825c0-3.267-0.65-5.816-1.95-7.649c-1.3-1.833-3.067-2.75-5.3-2.75c-2.2,0-3.958,0.917-5.275,2.75
		c-1.317,1.833-1.975,4.383-1.975,7.649c0,1.634,0.175,3.108,0.525,4.425c0.35,1.317,0.833,2.442,1.45,3.375
		c0.617,0.934,1.375,1.65,2.275,2.15C192.818,40.844,193.818,41.094,194.918,41.094z"/>
	<path fill="#7CC244" d="M216.668,14.244h7.35v18.25c0,3.199,0.483,5.434,1.45,6.699c0.966,1.268,2.366,1.9,4.2,1.9
		c1.833,0,3.258-0.633,4.275-1.9c1.017-1.266,1.525-3.5,1.525-6.699v-18.25h7.1v17.5c0,5.467-1.092,9.449-3.275,11.949
		c-2.184,2.5-5.392,3.75-9.625,3.75c-4.233,0-7.458-1.25-9.675-3.75c-2.217-2.5-3.325-6.482-3.325-11.949V14.244z"/>
	<path fill="#7CC244" d="M268.618,46.844l-6.25-11.75h-4v11.75h-7.4v-32.6h11.75c1.733,0,3.358,0.167,4.875,0.5
		c1.517,0.333,2.85,0.892,4,1.675c1.15,0.783,2.058,1.825,2.725,3.125c0.667,1.3,1,2.917,1,4.85c0,2.4-0.534,4.375-1.6,5.925
		c-1.067,1.551-2.467,2.709-4.2,3.476l7.35,13.05H268.618z M258.368,29.244h3.75c1.933,0,3.408-0.408,4.425-1.226
		c1.017-0.816,1.525-2.024,1.525-3.625c0-1.6-0.508-2.716-1.525-3.35c-1.017-0.633-2.492-0.95-4.425-0.95h-3.75V29.244z"/>
	<path fill="#7CC244" d="M294.117,14.244h11.9c1.766,0,3.425,0.175,4.975,0.524c1.55,0.351,2.9,0.934,4.05,1.75
		c1.15,0.817,2.058,1.9,2.725,3.25c0.666,1.351,1,3.009,1,4.976c0,1.899-0.342,3.55-1.025,4.949c-0.684,1.4-1.608,2.551-2.775,3.45
		c-1.167,0.9-2.517,1.567-4.05,2c-1.534,0.434-3.167,0.65-4.9,0.65h-4.5v11.05h-7.4V14.244z M305.567,29.943c4,0,6-1.732,6-5.199
		c0-1.7-0.509-2.9-1.525-3.601c-1.017-0.7-2.509-1.05-4.475-1.05h-4.05v9.85H305.567z"/>
	<path fill="#7CC244" d="M325.367,14.244h7.401v32.6h-7.401V14.244z"/>
	<path fill="#7CC244" d="M341.366,14.244h7.55l8.5,16.199l3.25,7.2h0.2c-0.167-1.732-0.367-3.666-0.6-5.8
		c-0.233-2.133-0.351-4.166-0.351-6.1v-11.5h7v32.6h-7.55l-8.5-16.25l-3.2-7.1h-0.199c0.166,1.8,0.366,3.733,0.6,5.8
		c0.232,2.067,0.35,4.067,0.35,6v11.55h-7.05V14.244z"/>
	<path fill="#7CC244" d="M374.065,52.644c1.833-0.667,3.233-1.533,4.2-2.6c0.967-1.067,1.45-2.233,1.45-3.5h-0.4
		c-1.167,0-2.2-0.358-3.1-1.075c-0.9-0.717-1.351-1.741-1.351-3.075c0-1.267,0.45-2.282,1.351-3.05
		c0.899-0.767,1.982-1.15,3.25-1.15c1.666,0,2.933,0.609,3.8,1.825c0.866,1.218,1.3,2.925,1.3,5.125c0,2.767-0.767,5.142-2.3,7.125
		s-3.768,3.408-6.7,4.275L374.065,52.644z"/>
	<path fill="#7CC244" d="M420.615,46.844l-6.25-11.75h-4v11.75h-7.4v-32.6h11.75c1.732,0,3.357,0.167,4.875,0.5
		c1.516,0.333,2.85,0.892,4,1.675s2.058,1.825,2.725,3.125c0.666,1.3,1,2.917,1,4.85c0,2.4-0.533,4.375-1.6,5.925
		c-1.067,1.551-2.467,2.709-4.2,3.476l7.351,13.05H420.615z M410.365,29.244h3.75c1.932,0,3.407-0.408,4.424-1.226
		c1.018-0.816,1.525-2.024,1.525-3.625c0-1.6-0.508-2.716-1.525-3.35c-1.017-0.633-2.492-0.95-4.424-0.95h-3.75V29.244z"/>
	<path fill="#7CC244" d="M449.564,39.094h-10l-2,7.75h-7.5l10.25-32.6h8.801l10.25,32.6h-7.801L449.564,39.094z M448.064,33.344
		l-0.8-3c-0.468-1.633-0.909-3.366-1.325-5.2c-0.417-1.833-0.858-3.6-1.324-5.3h-0.201c-0.367,1.733-0.767,3.509-1.199,5.325
		c-0.434,1.817-0.884,3.542-1.35,5.175l-0.801,3H448.064z"/>
	<path fill="#7CC244" d="M463.764,14.244h7.4v32.6h-7.4V14.244z"/>
	<path fill="#7CC244" d="M481.914,37.693c1.166,1,2.449,1.817,3.85,2.45c1.4,0.634,2.783,0.95,4.15,0.95
		c1.533,0,2.675-0.283,3.425-0.85s1.125-1.333,1.125-2.301c0-0.5-0.108-0.933-0.325-1.3c-0.217-0.366-0.533-0.691-0.949-0.975
		c-0.418-0.283-0.918-0.55-1.5-0.8c-0.584-0.25-1.226-0.525-1.926-0.825l-4.199-1.8c-0.867-0.333-1.693-0.767-2.476-1.301
		c-0.784-0.532-1.483-1.157-2.101-1.875c-0.617-0.716-1.107-1.55-1.475-2.5c-0.367-0.949-0.55-2.024-0.55-3.225
		c0-1.333,0.292-2.592,0.875-3.775c0.583-1.183,1.383-2.216,2.399-3.1c1.018-0.883,2.233-1.575,3.65-2.075
		c1.416-0.5,2.975-0.75,4.676-0.75c1.899,0,3.774,0.367,5.625,1.101c1.85,0.733,3.475,1.8,4.875,3.199l-3.701,4.65
		c-1.066-0.833-2.142-1.475-3.225-1.925c-1.084-0.45-2.275-0.675-3.574-0.675c-1.268,0-2.275,0.258-3.025,0.774
		c-0.75,0.518-1.125,1.242-1.125,2.175c0,0.5,0.125,0.926,0.375,1.275s0.6,0.667,1.05,0.95s0.983,0.55,1.601,0.8
		c0.615,0.25,1.274,0.525,1.975,0.825l4.15,1.7c2,0.8,3.574,1.899,4.725,3.3c1.15,1.399,1.725,3.25,1.725,5.55
		c0,1.367-0.275,2.658-0.824,3.875c-0.551,1.217-1.351,2.283-2.4,3.2c-1.051,0.917-2.334,1.649-3.85,2.2
		c-1.518,0.55-3.242,0.824-5.176,0.824c-2.133,0-4.258-0.392-6.375-1.175c-2.117-0.782-4.025-1.958-5.725-3.524L481.914,37.693z"/>
	<path fill="#7CC244" d="M508.463,14.244h20.45v6.199h-13.05v6.551h11.1v6.149h-11.1v7.5h13.55v6.2h-20.95V14.244z"/>
	<path fill="#7CC244" d="M553.762,35.244l-9.799-21h7.85l2.949,7.5c0.434,1.233,0.867,2.425,1.301,3.574
		c0.433,1.15,0.883,2.359,1.35,3.625h0.2c0.466-1.266,0.925-2.475,1.375-3.625c0.45-1.149,0.907-2.341,1.375-3.574l2.899-7.5h7.701
		l-9.851,21v11.6h-7.351V35.244z"/>
	<path fill="#7CC244" d="M587.712,47.443c-2.2,0-4.208-0.392-6.024-1.175c-1.817-0.782-3.375-1.907-4.676-3.375
		c-1.3-1.466-2.309-3.25-3.024-5.35c-0.718-2.101-1.075-4.483-1.075-7.15c0-2.666,0.357-5.041,1.075-7.125
		c0.716-2.083,1.725-3.833,3.024-5.25c1.301-1.416,2.858-2.5,4.676-3.25c1.816-0.75,3.824-1.125,6.024-1.125
		s4.208,0.375,6.025,1.125c1.816,0.75,3.375,1.843,4.675,3.275c1.3,1.434,2.308,3.192,3.025,5.274
		c0.716,2.084,1.074,4.442,1.074,7.075c0,2.667-0.358,5.05-1.074,7.15c-0.718,2.1-1.726,3.884-3.025,5.35
		c-1.3,1.468-2.858,2.593-4.675,3.375C591.92,47.052,589.912,47.443,587.712,47.443z M587.712,41.094c2.233,0,4-0.958,5.3-2.875
		c1.301-1.916,1.95-4.525,1.95-7.825c0-3.267-0.649-5.816-1.95-7.649c-1.3-1.833-3.066-2.75-5.3-2.75c-2.2,0-3.958,0.917-5.274,2.75
		c-1.317,1.833-1.976,4.383-1.976,7.649c0,1.634,0.175,3.108,0.525,4.425c0.35,1.317,0.833,2.442,1.45,3.375
		c0.616,0.934,1.375,1.65,2.274,2.15C585.612,40.844,586.612,41.094,587.712,41.094z"/>
	<path fill="#7CC244" d="M609.462,14.244h7.351v18.25c0,3.199,0.482,5.434,1.449,6.699c0.967,1.268,2.367,1.9,4.2,1.9
		s3.258-0.633,4.274-1.9c1.018-1.266,1.525-3.5,1.525-6.699v-18.25h7.1v17.5c0,5.467-1.092,9.449-3.274,11.949
		c-2.184,2.5-5.392,3.75-9.625,3.75s-7.458-1.25-9.675-3.75s-3.325-6.482-3.325-11.949V14.244z"/>
	<path fill="#7CC244" d="M661.412,46.844l-6.25-11.75h-4v11.75h-7.4v-32.6h11.75c1.732,0,3.357,0.167,4.875,0.5
		c1.516,0.333,2.85,0.892,4,1.675s2.058,1.825,2.725,3.125c0.666,1.3,1,2.917,1,4.85c0,2.4-0.533,4.375-1.6,5.925
		c-1.067,1.551-2.467,2.709-4.2,3.476l7.351,13.05H661.412z M651.162,29.244h3.75c1.932,0,3.407-0.408,4.424-1.226
		c1.018-0.816,1.525-2.024,1.525-3.625c0-1.6-0.508-2.716-1.525-3.35c-1.017-0.633-2.492-0.95-4.424-0.95h-3.75V29.244z"/>
	<path fill="#7CC244" d="M686.91,14.244h7.4v12.55h11.25v-12.55h7.35v32.6h-7.35v-13.6h-11.25v13.6h-7.4V14.244z"/>
	<path fill="#7CC244" d="M736.86,39.094h-10l-2,7.75h-7.5l10.25-32.6h8.8l10.25,32.6h-7.8L736.86,39.094z M735.36,33.344l-0.8-3
		c-0.467-1.633-0.908-3.366-1.325-5.2c-0.417-1.833-0.858-3.6-1.325-5.3h-0.199c-0.367,1.733-0.768,3.509-1.201,5.325
		c-0.434,1.817-0.883,3.542-1.35,5.175l-0.8,3H735.36z"/>
	<path fill="#7CC244" d="M751.061,14.244h7.551l8.5,16.199l3.25,7.2h0.199c-0.167-1.732-0.367-3.666-0.6-5.8
		c-0.234-2.133-0.35-4.166-0.35-6.1v-11.5h7v32.6h-7.551l-8.5-16.25l-3.199-7.1h-0.201c0.167,1.8,0.367,3.733,0.601,5.8
		c0.233,2.067,0.351,4.067,0.351,6v11.55h-7.051V14.244z"/>
	<path fill="#7CC244" d="M785.26,14.244h9.199c2.5,0,4.758,0.316,6.775,0.949c2.016,0.634,3.742,1.609,5.176,2.926
		c1.432,1.316,2.531,2.992,3.299,5.024c0.768,2.034,1.15,4.45,1.15,7.25s-0.383,5.233-1.15,7.3c-0.768,2.067-1.85,3.775-3.25,5.125
		c-1.4,1.351-3.074,2.359-5.025,3.025c-1.949,0.667-4.125,1-6.523,1h-9.65V14.244z M794.059,40.894c1.367,0,2.617-0.183,3.75-0.55
		c1.133-0.366,2.109-0.958,2.926-1.775c0.816-0.816,1.449-1.891,1.9-3.225c0.449-1.333,0.674-2.982,0.674-4.95
		c0-1.933-0.225-3.558-0.674-4.875c-0.451-1.316-1.084-2.366-1.9-3.149s-1.793-1.342-2.926-1.676c-1.133-0.332-2.383-0.5-3.75-0.5
		h-1.398v20.7H794.059z"/>
	<path fill="#7CC244" d="M249.618,107.443c-1.367-0.267-2.75-0.683-4.15-1.25c-1.4-0.566-2.8-1.25-4.2-2.05
		c-1.4,1.034-2.942,1.843-4.625,2.425c-1.684,0.583-3.559,0.875-5.625,0.875c-1.767,0-3.325-0.25-4.675-0.75
		c-1.35-0.5-2.483-1.175-3.4-2.024c-0.917-0.851-1.608-1.833-2.075-2.95c-0.467-1.116-0.7-2.308-0.7-3.575
		c0-1.133,0.158-2.157,0.475-3.075c0.316-0.916,0.75-1.741,1.3-2.475c0.55-0.732,1.183-1.4,1.9-2s1.475-1.15,2.275-1.65
		c-0.634-1.166-1.125-2.324-1.475-3.475s-0.525-2.241-0.525-3.275c0-1.166,0.208-2.266,0.625-3.3
		c0.416-1.032,1.008-1.941,1.775-2.725c0.766-0.783,1.691-1.4,2.775-1.851c1.083-0.449,2.308-0.675,3.675-0.675
		c2.467,0,4.417,0.667,5.85,2c1.433,1.334,2.15,3.134,2.15,5.4c0,1.067-0.192,2.042-0.575,2.925c-0.384,0.884-0.9,1.7-1.55,2.45
		c-0.65,0.75-1.383,1.442-2.2,2.075c-0.817,0.633-1.642,1.233-2.475,1.8c0.933,1.067,1.958,2.108,3.075,3.125
		c1.116,1.017,2.275,1.958,3.475,2.825c0.833-1.066,1.566-2.25,2.2-3.551c0.633-1.3,1.15-2.716,1.55-4.25h6.7
		c-0.6,2-1.342,3.909-2.225,5.726c-0.883,1.817-1.958,3.575-3.225,5.274c1.033,0.534,2.025,0.976,2.975,1.325
		c0.95,0.351,1.841,0.593,2.675,0.726L249.618,107.443z M227.118,97.693c0,1.234,0.441,2.234,1.325,3
		c0.883,0.768,2.058,1.15,3.525,1.15c1.333,0,2.717-0.433,4.15-1.3c-1.268-1.033-2.475-2.116-3.625-3.25
		c-1.15-1.133-2.209-2.3-3.175-3.5c-0.667,0.567-1.2,1.167-1.6,1.8C227.317,96.228,227.118,96.928,227.118,97.693z M230.167,82.144
		c0,0.601,0.091,1.233,0.275,1.9c0.183,0.667,0.441,1.333,0.775,2c1.167-0.7,2.15-1.433,2.95-2.2c0.8-0.767,1.2-1.7,1.2-2.8
		c0-0.767-0.184-1.383-0.55-1.851c-0.367-0.466-0.934-0.699-1.7-0.699c-0.834,0-1.534,0.324-2.1,0.975
		C230.45,80.119,230.167,81.011,230.167,82.144z"/>
	<path fill="#7CC244" d="M266.917,90.744c0-2.7,0.425-5.108,1.275-7.226c0.85-2.116,2-3.907,3.45-5.375
		c1.45-1.466,3.15-2.583,5.1-3.35c1.95-0.767,4.025-1.15,6.225-1.15c2.3,0,4.292,0.434,5.975,1.3
		c1.683,0.867,3.075,1.851,4.175,2.95l-4.05,4.55c-0.833-0.766-1.692-1.366-2.575-1.8c-0.884-0.433-2.025-0.649-3.425-0.649
		c-1.267,0-2.425,0.242-3.475,0.725c-1.05,0.483-1.95,1.175-2.7,2.075c-0.75,0.899-1.342,2-1.775,3.3
		c-0.434,1.3-0.65,2.768-0.65,4.4c0,3.367,0.758,5.975,2.275,7.824c1.516,1.851,3.825,2.775,6.925,2.775
		c0.667,0,1.308-0.083,1.925-0.25c0.617-0.166,1.125-0.416,1.525-0.75v-5.6h-5.4v-6h11.95v15c-0.6,0.5-1.292,0.992-2.075,1.475
		c-0.783,0.483-1.642,0.908-2.575,1.275c-0.934,0.367-1.934,0.657-3,0.875c-1.067,0.216-2.167,0.324-3.3,0.324
		c-2.2,0-4.258-0.358-6.175-1.074c-1.917-0.717-3.592-1.775-5.025-3.176c-1.434-1.399-2.559-3.141-3.375-5.225
		C267.324,95.886,266.917,93.478,266.917,90.744z"/>
	<path fill="#7CC244" d="M301.266,74.244h20.45v6.199h-13.05v6.551h11.1v6.149h-11.1v7.5h13.55v6.2h-20.95V74.244z"/>
	<path fill="#7CC244" d="M335.966,80.443h-9v-6.199h25.3v6.199h-8.95v26.4h-7.35V80.443z"/>
	<path fill="#7CC244" d="M369.715,74.244h20.6v6.199h-13.199v7.551h11.25v6.199h-11.25v12.65h-7.4V74.244z"/>
	<path fill="#7CC244" d="M396.864,74.244h20.45v6.199h-13.05v6.551h11.1v6.149h-11.1v7.5h13.55v6.2h-20.95V74.244z"/>
	<path fill="#7CC244" d="M440.514,99.094h-10l-2,7.75h-7.5l10.25-32.6h8.801l10.25,32.6h-7.801L440.514,99.094z M439.014,93.344
		l-0.799-3c-0.468-1.633-0.909-3.366-1.326-5.2c-0.416-1.833-0.857-3.6-1.324-5.3h-0.2c-0.367,1.733-0.767,3.509-1.2,5.325
		c-0.434,1.817-0.883,3.542-1.35,5.175l-0.801,3H439.014z"/>
	<path fill="#7CC244" d="M459.115,80.443h-9v-6.199h25.299v6.199h-8.949v26.4h-7.35V80.443z"/>
	<path fill="#7CC244" d="M481.314,74.244h7.35v18.25c0,3.199,0.482,5.434,1.45,6.699c0.966,1.268,2.366,1.9,4.2,1.9
		c1.832,0,3.258-0.633,4.274-1.9c1.017-1.266,1.525-3.5,1.525-6.699v-18.25h7.1v17.5c0,5.467-1.092,9.449-3.274,11.949
		c-2.184,2.5-5.393,3.75-9.625,3.75c-4.234,0-7.459-1.25-9.676-3.75s-3.324-6.482-3.324-11.949V74.244z"/>
	<path fill="#7CC244" d="M533.264,106.844l-6.25-11.75h-4v11.75h-7.4v-32.6h11.75c1.732,0,3.357,0.167,4.875,0.5
		c1.517,0.333,2.85,0.892,4,1.675s2.059,1.825,2.725,3.125c0.667,1.3,1,2.917,1,4.85c0,2.4-0.533,4.375-1.6,5.925
		c-1.066,1.551-2.467,2.709-4.199,3.476l7.35,13.05H533.264z M523.014,89.244h3.75c1.933,0,3.408-0.408,4.425-1.226
		c1.017-0.816,1.524-2.024,1.524-3.625c0-1.6-0.508-2.716-1.524-3.35c-1.017-0.633-2.492-0.95-4.425-0.95h-3.75V89.244z"/>
	<path fill="#7CC244" d="M547.363,74.244h20.449v6.199h-13.049v6.551h11.1v6.149h-11.1v7.5h13.549v6.2h-20.949V74.244z"/>
	<path fill="#7CC244" d="M575.662,74.244h9.201c2.5,0,4.758,0.316,6.774,0.949c2.017,0.634,3.741,1.609,5.175,2.926
		s2.533,2.992,3.301,5.024c0.766,2.034,1.149,4.45,1.149,7.25s-0.384,5.233-1.149,7.3c-0.768,2.067-1.851,3.775-3.25,5.125
		c-1.4,1.351-3.076,2.359-5.025,3.025c-1.95,0.667-4.125,1-6.525,1h-9.65V74.244z M584.463,100.894c1.366,0,2.616-0.183,3.75-0.55
		c1.133-0.366,2.107-0.958,2.925-1.775c0.816-0.816,1.45-1.891,1.899-3.225c0.451-1.333,0.676-2.982,0.676-4.95
		c0-1.933-0.225-3.558-0.676-4.875c-0.449-1.316-1.083-2.366-1.899-3.149c-0.817-0.783-1.792-1.342-2.925-1.676
		c-1.134-0.332-2.384-0.5-3.75-0.5h-1.4v20.7H584.463z"/>
</g>
</svg>
