<?xml version="1.0" encoding="utf-8"?>
<!-- Generator: Adobe Illustrator 16.0.3, SVG Export Plug-In . SVG Version: 6.00 Build 0)  -->
<!DOCTYPE svg PUBLIC "-//W3C//DTD SVG 1.1//EN" "http://www.w3.org/Graphics/SVG/1.1/DTD/svg11.dtd">
<svg version="1.1" id="Layer_1" xmlns="http://www.w3.org/2000/svg" xmlns:xlink="http://www.w3.org/1999/xlink" x="0px" y="0px"
	 width="1592.92px" height="80.996px" viewBox="0 0 1592.92 80.996" enable-background="new 0 0 1592.92 80.996"
	 xml:space="preserve">
<g>
	<path fill="#7CC244" d="M11.897,19.463h11.96c3.25,0,6.185,0.412,8.808,1.235c2.621,0.823,4.864,2.091,6.728,3.802
		c1.863,1.713,3.292,3.89,4.29,6.533c0.996,2.644,1.495,5.784,1.495,9.425c0,3.64-0.499,6.804-1.495,9.49
		c-0.998,2.687-2.405,4.907-4.225,6.662s-3.998,3.066-6.533,3.933c-2.535,0.867-5.362,1.3-8.482,1.3H11.897V19.463z M23.337,54.107
		c1.776,0,3.401-0.237,4.875-0.715c1.473-0.477,2.74-1.245,3.803-2.308c1.061-1.061,1.885-2.459,2.47-4.192
		c0.585-1.732,0.877-3.878,0.877-6.435c0-2.513-0.292-4.625-0.877-6.338c-0.585-1.711-1.409-3.076-2.47-4.095
		c-1.063-1.018-2.33-1.744-3.803-2.178c-1.474-0.433-3.099-0.649-4.875-0.649h-1.82v26.909H23.337z"/>
	<path fill="#7CC244" d="M77.676,61.843l-8.125-15.275h-5.2v15.275h-9.62v-42.38h15.275c2.253,0,4.365,0.217,6.338,0.649
		c1.971,0.435,3.705,1.16,5.2,2.178c1.495,1.019,2.675,2.373,3.542,4.063c0.866,1.69,1.3,3.793,1.3,6.306
		c0,3.119-0.694,5.688-2.08,7.702c-1.388,2.015-3.208,3.521-5.46,4.518l9.555,16.965H77.676z M64.352,38.963h4.875
		c2.513,0,4.43-0.53,5.752-1.593c1.321-1.062,1.982-2.633,1.982-4.712c0-2.08-0.661-3.532-1.982-4.355
		c-1.322-0.822-3.24-1.235-5.752-1.235h-4.875V38.963z"/>
	<path fill="#7CC244" d="M113.556,62.623c-2.86,0-5.471-0.51-7.833-1.527c-2.362-1.019-4.388-2.48-6.078-4.388
		c-1.69-1.906-3.001-4.226-3.933-6.955c-0.932-2.73-1.397-5.828-1.397-9.295s0.465-6.554,1.397-9.263
		c0.932-2.708,2.243-4.982,3.933-6.825c1.69-1.841,3.715-3.25,6.078-4.225c2.361-0.976,4.973-1.463,7.833-1.463
		s5.47,0.487,7.833,1.463c2.361,0.975,4.387,2.395,6.078,4.257c1.69,1.864,3,4.15,3.932,6.858c0.932,2.708,1.397,5.774,1.397,9.197
		c0,3.467-0.466,6.564-1.397,9.295c-0.932,2.729-2.242,5.049-3.932,6.955c-1.69,1.907-3.716,3.369-6.078,4.388
		C119.026,62.113,116.416,62.623,113.556,62.623z M113.556,54.368c2.903,0,5.2-1.245,6.89-3.738
		c1.69-2.491,2.535-5.882,2.535-10.172c0-4.246-0.845-7.562-2.535-9.945c-1.69-2.383-3.987-3.575-6.89-3.575
		c-2.86,0-5.146,1.192-6.857,3.575c-1.712,2.384-2.567,5.699-2.567,9.945c0,2.123,0.227,4.041,0.682,5.752
		c0.455,1.713,1.083,3.175,1.885,4.388c0.801,1.214,1.788,2.146,2.958,2.795C110.826,54.043,112.126,54.368,113.556,54.368z"/>
	<path fill="#7CC244" d="M142.351,19.463h15.47c2.296,0,4.452,0.228,6.467,0.683s3.77,1.214,5.265,2.274
		c1.495,1.063,2.675,2.471,3.542,4.226c0.866,1.755,1.3,3.911,1.3,6.467c0,2.471-0.445,4.615-1.333,6.436
		c-0.889,1.82-2.091,3.314-3.607,4.485c-1.517,1.17-3.272,2.037-5.265,2.6c-1.994,0.563-4.117,0.845-6.37,0.845h-5.85v14.365h-9.62
		V19.463z M157.236,39.873c5.2,0,7.8-2.253,7.8-6.761c0-2.21-0.661-3.77-1.982-4.68c-1.322-0.91-3.261-1.365-5.817-1.365h-5.265
		v12.806H157.236z"/>
	<path fill="#7CC244" d="M205.726,46.763l-12.74-27.3h10.205l3.835,9.75c0.563,1.604,1.126,3.152,1.69,4.647
		c0.563,1.495,1.147,3.066,1.755,4.713h0.26c0.606-1.646,1.203-3.218,1.788-4.713s1.18-3.044,1.787-4.647l3.77-9.75h10.01
		l-12.805,27.3v15.08h-9.555V46.763z"/>
	<path fill="#7CC244" d="M250.185,62.623c-2.86,0-5.471-0.51-7.833-1.527c-2.362-1.019-4.388-2.48-6.078-4.388
		c-1.69-1.906-3.001-4.226-3.933-6.955c-0.932-2.73-1.397-5.828-1.397-9.295s0.465-6.554,1.397-9.263
		c0.932-2.708,2.243-4.982,3.933-6.825c1.69-1.841,3.715-3.25,6.078-4.225c2.361-0.976,4.973-1.463,7.833-1.463
		s5.47,0.487,7.833,1.463c2.361,0.975,4.387,2.395,6.078,4.257c1.69,1.864,3,4.15,3.932,6.858c0.932,2.708,1.397,5.774,1.397,9.197
		c0,3.467-0.466,6.564-1.397,9.295c-0.932,2.729-2.242,5.049-3.932,6.955c-1.69,1.907-3.716,3.369-6.078,4.388
		C255.655,62.113,253.045,62.623,250.185,62.623z M250.185,54.368c2.903,0,5.2-1.245,6.89-3.738
		c1.69-2.491,2.535-5.882,2.535-10.172c0-4.246-0.845-7.562-2.535-9.945c-1.69-2.383-3.987-3.575-6.89-3.575
		c-2.86,0-5.146,1.192-6.857,3.575c-1.712,2.384-2.567,5.699-2.567,9.945c0,2.123,0.227,4.041,0.682,5.752
		c0.455,1.713,1.083,3.175,1.885,4.388c0.801,1.214,1.788,2.146,2.958,2.795C247.455,54.043,248.755,54.368,250.185,54.368z"/>
	<path fill="#7CC244" d="M278.785,19.463h9.555v23.725c0,4.16,0.628,7.063,1.885,8.71c1.256,1.647,3.076,2.471,5.46,2.471
		c2.383,0,4.235-0.823,5.558-2.471c1.321-1.646,1.982-4.55,1.982-8.71V19.463h9.23v22.75c0,7.107-1.42,12.285-4.257,15.535
		c-2.839,3.25-7.01,4.875-12.513,4.875c-5.504,0-9.696-1.625-12.578-4.875c-2.882-3.25-4.322-8.428-4.322-15.535V19.463z"/>
	<path fill="#7CC244" d="M346.645,61.843l-8.125-15.275h-5.2v15.275h-9.62v-42.38h15.275c2.253,0,4.365,0.217,6.338,0.649
		c1.971,0.435,3.705,1.16,5.2,2.178c1.495,1.019,2.675,2.373,3.542,4.063c0.866,1.69,1.3,3.793,1.3,6.306
		c0,3.119-0.694,5.688-2.08,7.702c-1.388,2.015-3.208,3.521-5.46,4.518l9.555,16.965H346.645z M333.32,38.963h4.875
		c2.513,0,4.43-0.53,5.752-1.593c1.321-1.062,1.982-2.633,1.982-4.712c0-2.08-0.661-3.532-1.982-4.355
		c-1.322-0.822-3.24-1.235-5.752-1.235h-4.875V38.963z"/>
	<path fill="#7CC244" d="M380.443,19.463h15.47c2.296,0,4.452,0.228,6.468,0.683c2.015,0.455,3.77,1.214,5.265,2.274
		c1.495,1.063,2.675,2.471,3.542,4.226s1.301,3.911,1.301,6.467c0,2.471-0.445,4.615-1.333,6.436
		c-0.889,1.82-2.091,3.314-3.607,4.485c-1.518,1.17-3.272,2.037-5.265,2.6c-1.994,0.563-4.117,0.845-6.37,0.845h-5.851v14.365h-9.62
		V19.463z M395.329,39.873c5.2,0,7.8-2.253,7.8-6.761c0-2.21-0.661-3.77-1.982-4.68c-1.322-0.91-3.262-1.365-5.817-1.365h-5.266
		v12.806H395.329z"/>
	<path fill="#7CC244" d="M421.393,19.463h9.619v42.38h-9.619V19.463z"/>
	<path fill="#7CC244" d="M442.518,19.463h9.814l11.05,21.06l4.226,9.36h0.26c-0.218-2.253-0.478-4.767-0.78-7.54
		c-0.304-2.772-0.455-5.416-0.455-7.93v-14.95h9.101v42.38h-9.815l-11.05-21.125l-4.16-9.23h-0.26
		c0.216,2.341,0.477,4.854,0.78,7.54c0.303,2.688,0.455,5.288,0.455,7.801v15.015h-9.165V19.463z"/>
	<path fill="#7CC244" d="M485.352,69.383c2.383-0.867,4.202-1.994,5.46-3.38c1.256-1.388,1.885-2.904,1.885-4.55h-0.52
		c-1.518,0-2.86-0.466-4.03-1.397s-1.755-2.265-1.755-3.998c0-1.646,0.585-2.968,1.755-3.965c1.17-0.996,2.577-1.495,4.225-1.495
		c2.167,0,3.813,0.791,4.94,2.373c1.126,1.582,1.689,3.802,1.689,6.662c0,3.597-0.997,6.684-2.989,9.263
		c-1.994,2.577-4.897,4.43-8.71,5.558L485.352,69.383z"/>
	<path fill="#7CC244" d="M546.515,61.843l-8.125-15.275h-5.2v15.275h-9.619v-42.38h15.274c2.253,0,4.365,0.217,6.338,0.649
		c1.971,0.435,3.705,1.16,5.2,2.178c1.494,1.019,2.675,2.373,3.542,4.063c0.866,1.69,1.3,3.793,1.3,6.306
		c0,3.119-0.693,5.688-2.08,7.702s-3.207,3.521-5.46,4.518l9.556,16.965H546.515z M533.19,38.963h4.875
		c2.513,0,4.431-0.53,5.753-1.593c1.321-1.062,1.982-2.633,1.982-4.712c0-2.08-0.661-3.532-1.982-4.355
		c-1.322-0.822-3.24-1.235-5.753-1.235h-4.875V38.963z"/>
	<path fill="#7CC244" d="M584.474,51.768h-13l-2.6,10.075h-9.75l13.325-42.38h11.439l13.325,42.38h-10.14L584.474,51.768z
		 M582.525,44.293l-1.04-3.9c-0.607-2.122-1.182-4.376-1.723-6.76c-0.542-2.383-1.116-4.68-1.723-6.89h-0.26
		c-0.478,2.253-0.997,4.561-1.561,6.922c-0.563,2.362-1.148,4.605-1.755,6.728l-1.04,3.9H582.525z"/>
	<path fill="#7CC244" d="M603.26,19.463h9.619v42.38h-9.619V19.463z"/>
	<path fill="#7CC244" d="M627.179,49.948c1.516,1.3,3.185,2.362,5.005,3.185c1.819,0.823,3.617,1.235,5.395,1.235
		c1.993,0,3.478-0.368,4.453-1.105c0.975-0.736,1.462-1.732,1.462-2.99c0-0.649-0.141-1.212-0.422-1.689
		c-0.283-0.477-0.694-0.899-1.235-1.268c-0.542-0.368-1.192-0.715-1.95-1.04c-0.759-0.325-1.593-0.683-2.502-1.072l-5.46-2.341
		c-1.128-0.433-2.2-0.996-3.218-1.689c-1.019-0.692-1.929-1.505-2.73-2.438c-0.802-0.932-1.44-2.015-1.917-3.25
		c-0.478-1.235-0.715-2.633-0.715-4.192c0-1.732,0.379-3.369,1.137-4.907s1.798-2.882,3.12-4.03
		c1.321-1.147,2.903-2.048,4.745-2.697c1.842-0.65,3.867-0.976,6.078-0.976c2.47,0,4.907,0.478,7.313,1.43
		c2.404,0.954,4.517,2.341,6.337,4.16l-4.81,6.045c-1.388-1.082-2.785-1.917-4.192-2.502c-1.409-0.585-2.958-0.878-4.647-0.878
		c-1.647,0-2.958,0.337-3.933,1.008c-0.976,0.672-1.463,1.615-1.463,2.827c0,0.65,0.162,1.203,0.487,1.658s0.78,0.867,1.365,1.234
		c0.585,0.369,1.277,0.715,2.08,1.04c0.801,0.325,1.657,0.683,2.567,1.072l5.396,2.21c2.6,1.04,4.647,2.471,6.142,4.29
		c1.495,1.82,2.243,4.226,2.243,7.216c0,1.777-0.357,3.456-1.072,5.037c-0.716,1.582-1.756,2.969-3.12,4.16
		c-1.365,1.192-3.034,2.145-5.005,2.859c-1.973,0.716-4.215,1.073-6.728,1.073c-2.774,0-5.536-0.51-8.288-1.527
		c-2.752-1.019-5.232-2.546-7.442-4.583L627.179,49.948z"/>
	<path fill="#7CC244" d="M662.018,19.463h26.585v8.06h-16.966v8.516h14.431v7.995h-14.431v9.75h17.615v8.06h-27.234V19.463z"/>
	<path fill="#7CC244" d="M721.558,46.763l-12.74-27.3h10.205l3.834,9.75c0.564,1.604,1.127,3.152,1.691,4.647
		c0.563,1.495,1.146,3.066,1.754,4.713h0.26c0.607-1.646,1.203-3.218,1.789-4.713c0.584-1.495,1.18-3.044,1.787-4.647l3.77-9.75
		h10.01l-12.805,27.3v15.08h-9.555V46.763z"/>
	<path fill="#7CC244" d="M766.017,62.623c-2.859,0-5.471-0.51-7.832-1.527c-2.363-1.019-4.387-2.48-6.078-4.388
		c-1.689-1.906-3-4.226-3.932-6.955c-0.932-2.73-1.398-5.828-1.398-9.295s0.467-6.554,1.398-9.263
		c0.932-2.708,2.242-4.982,3.932-6.825c1.691-1.841,3.715-3.25,6.078-4.225c2.361-0.976,4.973-1.463,7.832-1.463
		c2.861,0,5.471,0.487,7.832,1.463c2.361,0.975,4.389,2.395,6.078,4.257c1.689,1.864,3,4.15,3.934,6.858
		c0.93,2.708,1.396,5.774,1.396,9.197c0,3.467-0.467,6.564-1.396,9.295c-0.934,2.729-2.244,5.049-3.934,6.955
		c-1.689,1.907-3.717,3.369-6.078,4.388C771.487,62.113,768.878,62.623,766.017,62.623z M766.017,54.368
		c2.902,0,5.201-1.245,6.891-3.738c1.689-2.491,2.535-5.882,2.535-10.172c0-4.246-0.846-7.562-2.535-9.945
		c-1.689-2.383-3.988-3.575-6.891-3.575c-2.859,0-5.146,1.192-6.857,3.575c-1.713,2.384-2.566,5.699-2.566,9.945
		c0,2.123,0.227,4.041,0.682,5.752c0.455,1.713,1.082,3.175,1.885,4.388c0.801,1.214,1.787,2.146,2.957,2.795
		C763.286,54.043,764.587,54.368,766.017,54.368z"/>
	<path fill="#7CC244" d="M794.616,19.463h9.555v23.725c0,4.16,0.629,7.063,1.885,8.71c1.258,1.647,3.078,2.471,5.461,2.471
		s4.234-0.823,5.557-2.471c1.322-1.646,1.982-4.55,1.982-8.71V19.463h9.23v22.75c0,7.107-1.42,12.285-4.258,15.535
		s-7.01,4.875-12.512,4.875c-5.504,0-9.695-1.625-12.578-4.875c-2.881-3.25-4.322-8.428-4.322-15.535V19.463z"/>
	<path fill="#7CC244" d="M862.476,61.843l-8.125-15.275h-5.199v15.275h-9.619v-42.38h15.273c2.254,0,4.365,0.217,6.338,0.649
		c1.971,0.435,3.705,1.16,5.201,2.178c1.494,1.019,2.674,2.373,3.541,4.063c0.867,1.69,1.301,3.793,1.301,6.306
		c0,3.119-0.693,5.688-2.08,7.702s-3.207,3.521-5.461,4.518l9.557,16.965H862.476z M849.151,38.963h4.875
		c2.512,0,4.43-0.53,5.752-1.593c1.322-1.062,1.982-2.633,1.982-4.712c0-2.08-0.66-3.532-1.982-4.355
		c-1.322-0.822-3.24-1.235-5.752-1.235h-4.875V38.963z"/>
	<path fill="#7CC244" d="M896.276,19.463h9.619v16.314h14.625V19.463h9.555v42.38h-9.555v-17.68h-14.625v17.68h-9.619V19.463z"/>
	<path fill="#7CC244" d="M961.534,51.768h-13l-2.6,10.075h-9.75l13.326-42.38h11.439l13.324,42.38h-10.139L961.534,51.768z
		 M959.585,44.293l-1.039-3.9c-0.607-2.122-1.182-4.376-1.723-6.76c-0.543-2.383-1.117-4.68-1.723-6.89h-0.26
		c-0.479,2.253-0.998,4.561-1.561,6.922c-0.564,2.362-1.148,4.605-1.756,6.728l-1.039,3.9H959.585z"/>
	<path fill="#7CC244" d="M980.321,19.463h9.814l11.049,21.06l4.227,9.36h0.26c-0.219-2.253-0.479-4.767-0.781-7.54
		c-0.303-2.772-0.455-5.416-0.455-7.93v-14.95h9.102v42.38h-9.816l-11.049-21.125l-4.16-9.23h-0.26
		c0.215,2.341,0.477,4.854,0.779,7.54c0.303,2.688,0.455,5.288,0.455,7.801v15.015h-9.164V19.463z"/>
	<path fill="#7CC244" d="M1025.104,19.463h11.961c3.25,0,6.184,0.412,8.807,1.235c2.621,0.823,4.863,2.091,6.727,3.802
		c1.863,1.713,3.293,3.89,4.291,6.533c0.996,2.644,1.494,5.784,1.494,9.425c0,3.64-0.498,6.804-1.494,9.49
		c-0.998,2.687-2.404,4.907-4.225,6.662s-3.998,3.066-6.533,3.933c-2.535,0.867-5.361,1.3-8.482,1.3h-12.545V19.463z
		 M1036.544,54.107c1.777,0,3.402-0.237,4.875-0.715c1.473-0.477,2.74-1.245,3.803-2.308c1.063-1.061,1.885-2.459,2.471-4.192
		c0.584-1.732,0.877-3.878,0.877-6.435c0-2.513-0.293-4.625-0.877-6.338c-0.586-1.711-1.408-3.076-2.471-4.095
		c-1.063-1.018-2.33-1.744-3.803-2.178c-1.473-0.433-3.098-0.649-4.875-0.649h-1.82v26.909H1036.544z"/>
	<path fill="#7CC244" d="M1118.054,62.623c-1.777-0.348-3.576-0.888-5.396-1.625c-1.818-0.736-3.639-1.625-5.459-2.665
		c-1.82,1.344-3.824,2.395-6.012,3.152c-2.189,0.758-4.627,1.138-7.313,1.138c-2.299,0-4.324-0.325-6.078-0.976
		c-1.756-0.649-3.229-1.527-4.42-2.632c-1.193-1.105-2.092-2.383-2.697-3.835c-0.607-1.452-0.91-3.001-0.91-4.647
		c0-1.473,0.205-2.806,0.617-3.998c0.412-1.191,0.975-2.264,1.689-3.218c0.715-0.952,1.537-1.819,2.471-2.6
		c0.932-0.78,1.918-1.495,2.957-2.145c-0.824-1.517-1.463-3.023-1.918-4.518c-0.455-1.495-0.682-2.914-0.682-4.258
		c0-1.517,0.27-2.946,0.813-4.29c0.541-1.343,1.311-2.523,2.307-3.543c0.996-1.018,2.199-1.819,3.607-2.404s3-0.878,4.777-0.878
		c3.207,0,5.742,0.867,7.605,2.601s2.795,4.073,2.795,7.02c0,1.388-0.25,2.655-0.746,3.803c-0.5,1.148-1.172,2.21-2.016,3.185
		c-0.846,0.976-1.799,1.875-2.859,2.697c-1.063,0.824-2.137,1.604-3.219,2.341c1.213,1.387,2.545,2.741,3.998,4.063
		c1.451,1.322,2.957,2.546,4.518,3.672c1.082-1.386,2.035-2.925,2.859-4.614c0.822-1.69,1.496-3.532,2.016-5.525h8.709
		c-0.779,2.6-1.744,5.081-2.893,7.442c-1.148,2.362-2.545,4.647-4.191,6.857c1.342,0.693,2.633,1.268,3.867,1.723
		s2.395,0.77,3.477,0.942L1118.054,62.623z M1088.804,49.948c0,1.604,0.572,2.903,1.723,3.899c1.146,0.997,2.674,1.495,4.582,1.495
		c1.732,0,3.531-0.563,5.395-1.69c-1.646-1.342-3.217-2.751-4.713-4.225c-1.494-1.473-2.871-2.99-4.127-4.55
		c-0.867,0.737-1.561,1.518-2.08,2.34C1089.063,48.041,1088.804,48.951,1088.804,49.948z M1092.769,29.732
		c0,0.78,0.119,1.604,0.357,2.471c0.236,0.867,0.574,1.733,1.008,2.6c1.516-0.91,2.795-1.862,3.834-2.86
		c1.041-0.996,1.561-2.21,1.561-3.64c0-0.996-0.238-1.798-0.715-2.405c-0.479-0.606-1.215-0.91-2.211-0.91
		c-1.084,0-1.992,0.423-2.729,1.268C1093.136,27.101,1092.769,28.26,1092.769,29.732z"/>
	<path fill="#7CC244" d="M1141.192,40.913c0-3.511,0.553-6.641,1.656-9.393c1.105-2.752,2.602-5.08,4.486-6.987
		s4.094-3.358,6.629-4.355c2.535-0.996,5.232-1.495,8.094-1.495c2.99,0,5.578,0.563,7.768,1.69c2.188,1.127,3.996,2.404,5.428,3.835
		l-5.266,5.915c-1.084-0.997-2.199-1.776-3.348-2.34s-2.633-0.846-4.453-0.846c-1.646,0-3.152,0.315-4.518,0.942
		c-1.365,0.629-2.535,1.528-3.51,2.698s-1.744,2.6-2.307,4.29c-0.564,1.689-0.846,3.597-0.846,5.72
		c0,4.377,0.986,7.768,2.957,10.173c1.973,2.404,4.973,3.607,9.004,3.607c0.865,0,1.699-0.108,2.502-0.325
		c0.801-0.217,1.463-0.542,1.982-0.976v-7.279h-7.02v-7.801h15.535v19.5c-0.781,0.65-1.68,1.29-2.697,1.918
		c-1.02,0.629-2.137,1.182-3.348,1.657c-1.215,0.478-2.514,0.855-3.9,1.138c-1.389,0.281-2.818,0.423-4.291,0.423
		c-2.859,0-5.535-0.467-8.027-1.397c-2.492-0.932-4.67-2.308-6.531-4.128c-1.865-1.82-3.326-4.084-4.389-6.792
		S1141.192,44.467,1141.192,40.913z"/>
	<path fill="#7CC244" d="M1186.171,19.463h26.586v8.06h-16.967v8.516h14.432v7.995h-14.432v9.75h17.615v8.06h-27.234V19.463z"/>
	<path fill="#7CC244" d="M1231.604,27.522h-11.699v-8.06h32.891v8.06h-11.635v34.32h-9.557V27.522z"/>
	<path fill="#7CC244" d="M1276.13,19.463h26.779v8.06h-17.16v9.815h14.625v8.06h-14.625v16.445h-9.619V19.463z"/>
	<path fill="#7CC244" d="M1311.749,19.463h26.586v8.06h-16.967v8.516h14.432v7.995h-14.432v9.75h17.615v8.06h-27.234V19.463z"/>
	<path fill="#7CC244" d="M1368.817,51.768h-13l-2.6,10.075h-9.75l13.326-42.38h11.439l13.324,42.38h-10.139L1368.817,51.768z
		 M1366.868,44.293l-1.039-3.9c-0.607-2.122-1.182-4.376-1.723-6.76c-0.543-2.383-1.117-4.68-1.723-6.89h-0.26
		c-0.479,2.253-0.998,4.561-1.561,6.922c-0.564,2.362-1.148,4.605-1.756,6.728l-1.039,3.9H1366.868z"/>
	<path fill="#7CC244" d="M1393.323,27.522h-11.699v-8.06h32.891v8.06h-11.635v34.32h-9.557V27.522z"/>
	<path fill="#7CC244" d="M1422.509,19.463h9.555v23.725c0,4.16,0.627,7.063,1.885,8.71c1.256,1.647,3.076,2.471,5.459,2.471
		s4.236-0.823,5.559-2.471c1.32-1.646,1.982-4.55,1.982-8.71V19.463h9.23v22.75c0,7.107-1.42,12.285-4.258,15.535
		c-2.84,3.25-7.01,4.875-12.514,4.875c-5.502,0-9.695-1.625-12.576-4.875c-2.883-3.25-4.322-8.428-4.322-15.535V19.463z"/>
	<path fill="#7CC244" d="M1490.368,61.843l-8.125-15.275h-5.201v15.275h-9.619v-42.38h15.275c2.252,0,4.365,0.217,6.338,0.649
		c1.971,0.435,3.705,1.16,5.199,2.178c1.494,1.019,2.676,2.373,3.543,4.063c0.865,1.69,1.299,3.793,1.299,6.306
		c0,3.119-0.693,5.688-2.08,7.702s-3.207,3.521-5.459,4.518l9.555,16.965H1490.368z M1477.042,38.963h4.875
		c2.514,0,4.432-0.53,5.754-1.593c1.32-1.062,1.982-2.633,1.982-4.712c0-2.08-0.662-3.532-1.982-4.355
		c-1.322-0.822-3.24-1.235-5.754-1.235h-4.875V38.963z"/>
	<path fill="#7CC244" d="M1509.022,19.463h26.586v8.06h-16.967v8.516h14.432v7.995h-14.432v9.75h17.615v8.06h-27.234V19.463z"/>
	<path fill="#7CC244" d="M1546.138,19.463h11.959c3.25,0,6.186,0.412,8.807,1.235c2.623,0.823,4.865,2.091,6.729,3.802
		c1.863,1.713,3.293,3.89,4.289,6.533c0.998,2.644,1.496,5.784,1.496,9.425c0,3.64-0.498,6.804-1.496,9.49
		c-0.996,2.687-2.404,4.907-4.225,6.662s-3.996,3.066-6.531,3.933c-2.535,0.867-5.363,1.3-8.482,1.3h-12.545V19.463z
		 M1557.577,54.107c1.775,0,3.4-0.237,4.875-0.715c1.473-0.477,2.74-1.245,3.803-2.308c1.061-1.061,1.885-2.459,2.469-4.192
		c0.586-1.732,0.879-3.878,0.879-6.435c0-2.513-0.293-4.625-0.879-6.338c-0.584-1.711-1.408-3.076-2.469-4.095
		c-1.063-1.018-2.33-1.744-3.803-2.178c-1.475-0.433-3.1-0.649-4.875-0.649h-1.82v26.909H1557.577z"/>
</g>
</svg>
