<?xml version="1.0" encoding="utf-8"?>
<!-- Generator: Adobe Illustrator 16.0.3, SVG Export Plug-In . SVG Version: 6.00 Build 0)  -->
<!DOCTYPE svg PUBLIC "-//W3C//DTD SVG 1.1//EN" "http://www.w3.org/Graphics/SVG/1.1/DTD/svg11.dtd">
<svg version="1.1" id="Layer_1" xmlns="http://www.w3.org/2000/svg" xmlns:xlink="http://www.w3.org/1999/xlink" x="0px" y="0px"
	 width="1134px" height="241.501px" viewBox="0 0 1134 241.501" enable-background="new 0 0 1134 241.501" xml:space="preserve">
<g>
	<path fill="#7CC244" d="M214.102,104.102h-11.544v-7.953h32.452v7.953h-11.48v33.863h-9.428V104.102z"/>
	<path fill="#7CC244" d="M244.695,96.148h9.491v16.098h14.431V96.148h9.428v41.816h-9.428V120.52h-14.431v17.445h-9.491V96.148z"/>
	<path fill="#7CC244" d="M291,96.148h26.23v7.953h-16.739v8.401h14.238v7.888h-14.238v9.621h17.381v7.953H291V96.148z"/>
	<path fill="#7CC244" d="M352.954,123.085l-12.571-26.937h10.069l3.784,9.62c0.556,1.583,1.111,3.11,1.668,4.585
		c0.555,1.476,1.132,3.025,1.731,4.65h0.256c0.599-1.625,1.187-3.175,1.765-4.65c0.577-1.475,1.164-3.002,1.764-4.585l3.72-9.62
		h9.877l-12.635,26.937v14.88h-9.428V123.085z"/>
	<path fill="#7CC244" d="M398.425,138.734c-2.822,0-5.398-0.504-7.729-1.508c-2.331-1.004-4.329-2.447-5.997-4.329
		c-1.667-1.881-2.961-4.169-3.88-6.862c-0.92-2.693-1.379-5.75-1.379-9.172c0-3.42,0.459-6.466,1.379-9.139
		c0.919-2.672,2.213-4.916,3.88-6.734c1.668-1.816,3.666-3.207,5.997-4.168c2.33-0.963,4.906-1.443,7.729-1.443
		c2.821,0,5.397,0.48,7.728,1.443c2.33,0.961,4.33,2.362,5.997,4.2c1.668,1.839,2.96,4.095,3.88,6.767
		c0.919,2.672,1.379,5.697,1.379,9.074c0,3.422-0.46,6.479-1.379,9.172c-0.92,2.693-2.212,4.981-3.88,6.862
		c-1.667,1.882-3.667,3.325-5.997,4.329S401.247,138.734,398.425,138.734z M398.425,130.589c2.864,0,5.131-1.229,6.798-3.688
		c1.668-2.457,2.502-5.804,2.502-10.037c0-4.189-0.834-7.46-2.502-9.813c-1.667-2.351-3.934-3.527-6.798-3.527
		c-2.822,0-5.078,1.177-6.767,3.527c-1.689,2.353-2.533,5.623-2.533,9.813c0,2.096,0.225,3.988,0.674,5.677
		c0.448,1.689,1.067,3.132,1.859,4.329c0.791,1.197,1.764,2.116,2.918,2.758C395.731,130.268,397.014,130.589,398.425,130.589z"/>
	<path fill="#7CC244" d="M426.452,117.313c0-3.463,0.545-6.551,1.636-9.268c1.09-2.715,2.565-5.012,4.425-6.895
		c1.86-1.881,4.041-3.313,6.542-4.297c2.501-0.982,5.163-1.475,7.985-1.475c2.95,0,5.504,0.556,7.664,1.667
		c2.158,1.112,3.944,2.373,5.354,3.784l-5.194,5.836c-1.069-0.982-2.171-1.752-3.303-2.309c-1.134-0.555-2.598-0.834-4.394-0.834
		c-1.625,0-3.11,0.311-4.457,0.93c-1.348,0.621-2.502,1.508-3.464,2.662s-1.722,2.565-2.276,4.232
		c-0.557,1.668-0.834,3.551-0.834,5.645c0,4.318,0.972,7.664,2.918,10.037c1.945,2.373,4.906,3.56,8.883,3.56
		c0.854,0,1.678-0.106,2.469-0.321c0.791-0.213,1.443-0.533,1.957-0.961v-7.184h-6.927v-7.696h15.328v19.241
		c-0.77,0.641-1.657,1.271-2.662,1.891c-1.005,0.621-2.106,1.166-3.303,1.637c-1.197,0.471-2.48,0.844-3.848,1.121
		c-1.369,0.278-2.78,0.418-4.233,0.418c-2.821,0-5.462-0.461-7.921-1.379c-2.459-0.92-4.607-2.277-6.445-4.072
		c-1.839-1.797-3.282-4.03-4.329-6.703C426.975,123.908,426.452,120.819,426.452,117.313z"/>
	<path fill="#7CC244" d="M491.613,128.023h-12.827l-2.565,9.941h-9.62l13.147-41.816h11.287l13.148,41.816h-10.005L491.613,128.023z
		 M489.688,120.648l-1.025-3.849c-0.6-2.095-1.166-4.318-1.7-6.67c-0.535-2.351-1.102-4.618-1.699-6.798h-0.257
		c-0.471,2.223-0.984,4.5-1.539,6.83c-0.557,2.33-1.134,4.543-1.731,6.638l-1.026,3.849H489.688z"/>
	<path fill="#7CC244" d="M528.297,96.148h10.005l6.991,18.791l2.501,7.313h0.257l2.501-7.313l6.799-18.791h10.005v41.816h-8.851
		v-15.328c0-1.027,0.042-2.159,0.128-3.4c0.085-1.239,0.192-2.49,0.32-3.752c0.129-1.26,0.257-2.5,0.385-3.719
		c0.129-1.219,0.257-2.342,0.385-3.367h-0.256l-3.399,9.684l-6.478,16.227h-3.784l-6.413-16.227l-3.335-9.684h-0.257
		c0.128,1.025,0.257,2.148,0.385,3.367s0.257,2.459,0.385,3.719c0.128,1.262,0.234,2.513,0.32,3.752
		c0.086,1.241,0.129,2.373,0.129,3.4v15.328h-8.723V96.148z"/>
	<path fill="#7CC244" d="M600,128.023h-12.826l-2.566,9.941h-9.619l13.146-41.816h11.288l13.147,41.816h-10.004L600,128.023z
		 M598.076,120.648l-1.025-3.849c-0.6-2.095-1.166-4.318-1.7-6.67c-0.535-2.351-1.102-4.618-1.7-6.798h-0.256
		c-0.471,2.223-0.984,4.5-1.539,6.83c-0.557,2.33-1.134,4.543-1.732,6.638l-1.025,3.849H598.076z"/>
	<path fill="#7CC244" d="M620.139,96.148h15.265c2.266,0,4.394,0.225,6.382,0.674c1.988,0.448,3.719,1.197,5.194,2.244
		c1.476,1.049,2.64,2.438,3.495,4.169s1.283,3.858,1.283,6.382c0,2.437-0.439,4.553-1.314,6.349
		c-0.877,1.796-2.064,3.271-3.561,4.425c-1.496,1.155-3.229,2.011-5.194,2.566c-1.968,0.556-4.063,0.834-6.285,0.834h-5.772v14.174
		h-9.492V96.148z M634.826,116.287c5.131,0,7.695-2.223,7.695-6.67c0-2.182-0.652-3.721-1.955-4.618
		c-1.305-0.897-3.219-1.347-5.74-1.347h-5.195v12.635H634.826z"/>
	<path fill="#7CC244" d="M678.693,96.148h15.264c2.266,0,4.393,0.225,6.381,0.674c1.988,0.448,3.721,1.197,5.195,2.244
		c1.477,1.049,2.641,2.438,3.496,4.169s1.283,3.858,1.283,6.382c0,2.437-0.439,4.553-1.316,6.349
		c-0.875,1.796-2.063,3.271-3.559,4.425c-1.498,1.155-3.229,2.011-5.195,2.566s-4.063,0.834-6.285,0.834h-5.771v14.174h-9.492
		V96.148z M693.381,116.287c5.131,0,7.695-2.223,7.695-6.67c0-2.182-0.652-3.721-1.955-4.618c-1.307-0.897-3.219-1.347-5.74-1.347
		h-5.195v12.635H693.381z"/>
	<path fill="#7CC244" d="M743.342,137.965l-8.018-15.072h-5.131v15.072h-9.492V96.148h15.072c2.223,0,4.307,0.215,6.254,0.641
		c1.945,0.428,3.654,1.145,5.131,2.148c1.475,1.006,2.639,2.342,3.494,4.01c0.855,1.667,1.283,3.741,1.283,6.221
		c0,3.078-0.684,5.611-2.053,7.6s-3.164,3.475-5.387,4.457l9.428,16.74H743.342z M730.193,115.389h4.811
		c2.479,0,4.371-0.523,5.676-1.571s1.957-2.597,1.957-4.649s-0.652-3.484-1.957-4.297s-3.197-1.219-5.676-1.219h-4.811V115.389z"/>
	<path fill="#7CC244" d="M780.348,138.734c-2.822,0-5.398-0.504-7.729-1.508c-2.332-1.004-4.33-2.447-5.996-4.329
		c-1.668-1.881-2.963-4.169-3.881-6.862c-0.92-2.693-1.379-5.75-1.379-9.172c0-3.42,0.459-6.466,1.379-9.139
		c0.918-2.672,2.213-4.916,3.881-6.734c1.666-1.816,3.664-3.207,5.996-4.168c2.33-0.963,4.906-1.443,7.729-1.443
		s5.396,0.48,7.729,1.443c2.33,0.961,4.328,2.362,5.996,4.2c1.668,1.839,2.961,4.095,3.881,6.767
		c0.918,2.672,1.379,5.697,1.379,9.074c0,3.422-0.461,6.479-1.379,9.172c-0.92,2.693-2.213,4.981-3.881,6.862
		c-1.668,1.882-3.666,3.325-5.996,4.329C785.744,138.23,783.17,138.734,780.348,138.734z M780.348,130.589
		c2.863,0,5.131-1.229,6.797-3.688c1.668-2.457,2.502-5.804,2.502-10.037c0-4.189-0.834-7.46-2.502-9.813
		c-1.666-2.351-3.934-3.527-6.797-3.527c-2.822,0-5.078,1.177-6.768,3.527c-1.689,2.353-2.533,5.623-2.533,9.813
		c0,2.096,0.225,3.988,0.674,5.677c0.449,1.689,1.068,3.132,1.859,4.329s1.764,2.116,2.92,2.758
		C777.654,130.268,778.936,130.589,780.348,130.589z"/>
	<path fill="#7CC244" d="M809.4,126.42c0.813,1.411,1.721,2.459,2.727,3.143c1.004,0.685,2.041,1.026,3.109,1.026
		c1.711,0,3.004-0.522,3.881-1.571c0.875-1.047,1.314-2.961,1.314-5.74V96.148h9.492v27.898c0,2.01-0.268,3.912-0.803,5.708
		s-1.346,3.357-2.436,4.683c-1.092,1.325-2.48,2.373-4.17,3.143s-3.688,1.154-5.996,1.154c-3.207,0-5.9-0.621-8.082-1.86
		c-2.18-1.239-3.998-3.143-5.451-5.708L809.4,126.42z"/>
	<path fill="#7CC244" d="M842.621,96.148h26.232v7.953h-16.74v8.401h14.238v7.888h-14.238v9.621h17.381v7.953h-26.873V96.148z"/>
	<path fill="#7CC244" d="M878.857,117.313c0-3.463,0.535-6.551,1.604-9.268c1.068-2.715,2.512-5.012,4.33-6.895
		c1.816-1.881,3.934-3.313,6.35-4.297c2.414-0.982,4.971-1.475,7.664-1.475c2.607,0,4.971,0.545,7.086,1.635
		c2.117,1.091,3.881,2.363,5.291,3.816l-5.193,5.836c-1.07-0.982-2.139-1.752-3.207-2.309c-1.07-0.555-2.352-0.834-3.85-0.834
		c-1.453,0-2.811,0.311-4.072,0.93c-1.262,0.621-2.363,1.508-3.303,2.662c-0.941,1.154-1.678,2.565-2.213,4.232
		c-0.535,1.668-0.801,3.551-0.801,5.645c0,4.318,0.918,7.664,2.758,10.037c1.838,2.373,4.297,3.56,7.375,3.56
		c1.754,0,3.26-0.342,4.521-1.026c1.262-0.684,2.406-1.581,3.432-2.693l5.195,5.708c-1.754,2.052-3.752,3.591-5.998,4.618
		c-2.244,1.025-4.672,1.539-7.279,1.539c-2.693,0-5.236-0.461-7.631-1.379c-2.395-0.92-4.49-2.277-6.285-4.072
		c-1.797-1.797-3.207-4.03-4.232-6.703C879.371,123.908,878.857,120.819,878.857,117.313z"/>
	<path fill="#7CC244" d="M928.691,104.102h-11.545v-7.953h32.451v7.953h-11.479v33.863h-9.428V104.102z"/>
</g>
<g>
	<g>
		<g>
			<path fill="#73679D" d="M559.193,31.832c0,18.971-26.669,47.055-26.669,47.055s-26.668-28.083-26.668-47.055
				c-0.002-18.968,11.939-28.787,26.668-28.787C547.253,3.045,559.193,12.862,559.193,31.832z"/>
			<circle fill="#FFFFFF" stroke="#8A81B3" stroke-width="2.5162" stroke-miterlimit="10" cx="532.523" cy="30.084" r="20.454"/>
			<path opacity="0.23" fill="#FFFFFF" d="M532.524,3.045v75.842c0,0,26.669-28.083,26.669-47.055
				C559.193,12.862,547.253,3.045,532.524,3.045z"/>
		</g>
		<path fill="#73679D" d="M545.858,26.735l-13.856,4.739l-13.183-4.683l13.067-4.685L545.858,26.735z M539.1,30.575l-7.135,2.564
			l-6.723-2.567v2.71c0,0-0.731,5.079,6.084,4.74c0,0,7.775,0.678,7.773-3.716V30.575z"/>
	</g>
	<g>
		<g>
			<path fill="#FDBA12" d="M646.3,31.834c0.001,18.969-26.671,47.056-26.671,47.056s-26.666-28.086-26.666-47.058
				c0-18.968,11.94-28.787,26.67-28.787C634.359,3.045,646.3,12.862,646.3,31.834z"/>
			<circle fill="#FFFFFF" stroke="#F9CD68" stroke-width="2.5162" stroke-miterlimit="10" cx="619.63" cy="30.084" r="20.452"/>
			<path opacity="0.23" fill="#FFFFFF" d="M619.633,3.045l-0.004,75.845c0,0,26.672-28.086,26.671-47.056
				C646.3,12.862,634.359,3.045,619.633,3.045z"/>
		</g>
		<g>
			<path fill="#FDBA12" d="M627.702,23.606h-2.38l0.003-0.149c-0.003-3.136-2.556-5.691-5.692-5.689
				c-3.143,0-5.691,2.553-5.688,5.689v0.149h-2.384l-1.394,15.512h18.927L627.702,23.606z M619.633,18.466
				c2.074,0.002,3.859,1.276,4.609,3.083c-0.99-1.492-2.688-2.479-4.609-2.479c-1.923,0-3.621,0.986-4.613,2.48
				C615.771,19.744,617.556,18.468,619.633,18.466L619.633,18.466z M614.992,23.608c0.464-2.139,2.368-3.744,4.641-3.742
				c2.274-0.002,4.174,1.603,4.643,3.742H614.992z"/>
		</g>
	</g>
	<g>
		<g>
			<path fill="#16B4E9" d="M602.746,31.832c0,18.971-26.671,47.058-26.671,47.058S549.41,50.803,549.41,31.832
				c0-18.97,11.938-28.787,26.666-28.787C590.806,3.045,602.746,12.862,602.746,31.832z"/>
			<circle fill="#FFFFFF" stroke="#85D3E8" stroke-width="2.5162" stroke-miterlimit="10" cx="576.076" cy="30.084" r="20.453"/>
			<path opacity="0.23" fill="#FFFFFF" d="M576.075,3.045V78.89c0,0,26.671-28.086,26.671-47.058
				C602.746,12.862,590.806,3.045,576.075,3.045z"/>
		</g>
		<path fill="#16B4E9" d="M582.633,35.134c-0.176,4.089-4.521,6.172-4.521,6.172c-1.995,0.959-4.253,0-4.253,0
			c-4.601-2.175-4.17-6.259-4.17-6.259V29.83h12.943V35.134z M578.984,37.219h-5.648c0,0-0.523,2.168,2.566,2.87
			C575.902,40.089,579.067,39.915,578.984,37.219z M573.164,32.005c-0.863,0-1.563,0.619-1.563,1.389
			c0,0.768,0.699,1.393,1.563,1.393c0.862,0,1.561-0.625,1.561-1.393C574.725,32.624,574.026,32.005,573.164,32.005z
			 M578.984,32.005c-0.861,0-1.564,0.619-1.564,1.389c0,0.768,0.703,1.393,1.564,1.393c0.863,0,1.562-0.625,1.562-1.393
			C580.546,32.624,579.848,32.005,578.984,32.005z M586.889,36.353v-7.739c0,0,0.176-4.26-3.214-7.477c0,0-3.66-2.609-7.519-2.697
			c0,0-4.21,0.088-7.511,3.046c0,0-3.473,2.954-3.384,7.387l-0.003,7.479c0,0-0.086,1.651,1.306,1.825c0,0,1.389-0.087,1.564-1.651
			l0.083-6.697c0,0-0.366-1.826,1.469-1.913l12.952-0.087c0,0,1.652,0.261,1.652,1.999v6.696c0,0-0.089,1.565,1.132,1.653
			C585.417,38.178,586.889,38.261,586.889,36.353z"/>
		<rect x="576.075" y="17.456" opacity="0.23" fill="#FFFFFF" width="11.38" height="24.947"/>
		<rect x="576.837" y="22.719" opacity="0.23" fill="#FFFFFF" width="13.962" height="16.864"/>
		<rect x="576.075" y="17.241" opacity="0.23" fill="#FFFFFF" width="10.101" height="23.726"/>
	</g>
</g>
<g>
	<g>
		<g>
			<line fill="#70A842" x1="578.8" y1="156.275" x2="578.8" y2="195.214"/>
		</g>
		<g>
			<rect x="578.05" y="156.275" fill="#70A842" width="1.5" height="38.938"/>
		</g>
	</g>
	<g>
		<path fill="#70A842" d="M51.754,163.32h2.58l2.07,10.71c0.2,1.08,0.395,2.14,0.585,3.18c0.19,1.04,0.385,2.1,0.585,3.18h0.12
			c0.22-1.08,0.445-2.145,0.675-3.194c0.23-1.051,0.465-2.105,0.705-3.165l2.73-10.71h2.28l2.73,10.71
			c0.22,1.04,0.45,2.09,0.69,3.149c0.24,1.061,0.48,2.13,0.72,3.21h0.12c0.2-1.08,0.39-2.145,0.57-3.194
			c0.18-1.051,0.36-2.105,0.54-3.165l2.07-10.71h2.43L69.874,183h-3.03l-2.97-11.85c-0.161-0.76-0.32-1.505-0.48-2.235
			c-0.161-0.729-0.311-1.475-0.45-2.235h-0.12c-0.16,0.761-0.325,1.506-0.495,2.235c-0.17,0.73-0.335,1.476-0.495,2.235L58.894,183
			h-2.97L51.754,163.32z"/>
		<path fill="#70A842" d="M75.963,175.74c0-1.2,0.185-2.275,0.555-3.226c0.37-0.949,0.86-1.755,1.47-2.415
			c0.61-0.659,1.305-1.164,2.085-1.515c0.78-0.35,1.59-0.525,2.43-0.525c0.92,0,1.745,0.161,2.475,0.48
			c0.73,0.32,1.34,0.78,1.83,1.38c0.49,0.6,0.865,1.32,1.125,2.16c0.26,0.84,0.39,1.78,0.39,2.82c0,0.54-0.03,0.989-0.09,1.35h-9.84
			c0.1,1.58,0.585,2.83,1.455,3.75c0.87,0.92,2.005,1.38,3.405,1.38c0.7,0,1.345-0.104,1.935-0.314
			c0.59-0.21,1.155-0.485,1.695-0.825l0.87,1.62c-0.64,0.4-1.35,0.75-2.13,1.05c-0.78,0.3-1.67,0.45-2.67,0.45
			c-0.98,0-1.896-0.176-2.745-0.525c-0.85-0.35-1.59-0.85-2.22-1.5c-0.63-0.649-1.125-1.444-1.485-2.385
			S75.963,176.94,75.963,175.74z M86.164,174.63c0-1.5-0.315-2.645-0.945-3.435c-0.63-0.79-1.515-1.186-2.655-1.186
			c-0.521,0-1.015,0.105-1.485,0.315c-0.47,0.21-0.896,0.51-1.275,0.899c-0.38,0.391-0.695,0.87-0.945,1.44
			s-0.415,1.226-0.495,1.965H86.164z"/>
		<path fill="#70A842" d="M96.243,168.42h2.52l2.16,8.43c0.16,0.701,0.31,1.381,0.45,2.04c0.14,0.66,0.28,1.331,0.42,2.011h0.12
			c0.16-0.68,0.319-1.355,0.48-2.025c0.16-0.67,0.33-1.345,0.51-2.025l2.25-8.43h2.4l2.28,8.43c0.18,0.701,0.355,1.381,0.525,2.04
			c0.17,0.66,0.335,1.331,0.495,2.011h0.12c0.16-0.68,0.31-1.351,0.45-2.011c0.14-0.659,0.29-1.339,0.45-2.04l2.13-8.43h2.34
			l-3.9,14.58h-3l-2.1-7.83c-0.18-0.7-0.345-1.39-0.495-2.07c-0.15-0.68-0.315-1.39-0.495-2.13h-0.12
			c-0.16,0.74-0.32,1.455-0.48,2.146c-0.16,0.689-0.34,1.385-0.54,2.085l-2.04,7.8h-2.88L96.243,168.42z"/>
		<path fill="#70A842" d="M118.503,179.22c0-1.6,0.715-2.824,2.145-3.675c1.43-0.85,3.705-1.444,6.825-1.785
			c0-0.46-0.045-0.909-0.135-1.35c-0.09-0.439-0.25-0.83-0.48-1.17c-0.23-0.34-0.536-0.615-0.915-0.825
			c-0.38-0.21-0.87-0.315-1.47-0.315c-0.86,0-1.655,0.161-2.385,0.48c-0.73,0.32-1.385,0.68-1.965,1.08l-0.99-1.71
			c0.68-0.439,1.51-0.865,2.49-1.275c0.98-0.409,2.06-0.615,3.24-0.615c1.78,0,3.07,0.546,3.87,1.636
			c0.799,1.09,1.2,2.545,1.2,4.364V183h-2.04l-0.21-1.74h-0.06c-0.7,0.58-1.455,1.075-2.265,1.485
			c-0.81,0.409-1.665,0.615-2.565,0.615c-1.24,0-2.265-0.36-3.075-1.08C118.908,181.56,118.503,180.54,118.503,179.22z
			 M120.933,179.04c0,0.84,0.245,1.44,0.735,1.8c0.49,0.36,1.095,0.54,1.815,0.54c0.7,0,1.365-0.165,1.995-0.495
			c0.63-0.33,1.295-0.814,1.995-1.455v-4.05c-1.22,0.16-2.25,0.351-3.09,0.57c-0.84,0.22-1.515,0.479-2.025,0.78
			c-0.51,0.3-0.875,0.645-1.095,1.034C121.042,178.155,120.933,178.58,120.933,179.04z"/>
		<path fill="#70A842" d="M134.583,168.42h2.04l0.21,2.1h0.09c0.7-0.699,1.435-1.284,2.205-1.755c0.77-0.47,1.665-0.705,2.685-0.705
			c1.54,0,2.665,0.48,3.375,1.44s1.065,2.38,1.065,4.26V183h-2.46v-8.91c0-1.38-0.22-2.375-0.66-2.984
			c-0.44-0.61-1.14-0.915-2.1-0.915c-0.76,0-1.43,0.189-2.01,0.569c-0.58,0.381-1.24,0.94-1.98,1.681V183h-2.46V168.42z"/>
		<path fill="#70A842" d="M151.413,170.43h-2.16v-1.859l2.28-0.15l0.3-4.08h2.07v4.08h3.93v2.01h-3.93v8.101
			c0,0.899,0.165,1.595,0.495,2.085c0.33,0.49,0.915,0.734,1.755,0.734c0.26,0,0.54-0.039,0.84-0.119s0.57-0.17,0.81-0.271
			l0.48,1.86c-0.4,0.14-0.835,0.265-1.305,0.375c-0.47,0.109-0.935,0.165-1.395,0.165c-0.78,0-1.435-0.12-1.965-0.36
			c-0.53-0.24-0.96-0.57-1.29-0.99s-0.565-0.93-0.705-1.529c-0.14-0.601-0.21-1.261-0.21-1.98V170.43z"/>
		<path fill="#70A842" d="M167.612,170.43h-2.16v-1.859l2.28-0.15l0.3-4.08h2.07v4.08h3.93v2.01h-3.93v8.101
			c0,0.899,0.165,1.595,0.495,2.085c0.33,0.49,0.915,0.734,1.755,0.734c0.26,0,0.54-0.039,0.84-0.119s0.57-0.17,0.81-0.271
			l0.48,1.86c-0.4,0.14-0.835,0.265-1.305,0.375c-0.47,0.109-0.935,0.165-1.395,0.165c-0.78,0-1.435-0.12-1.965-0.36
			c-0.53-0.24-0.96-0.57-1.29-0.99s-0.565-0.93-0.705-1.529c-0.14-0.601-0.21-1.261-0.21-1.98V170.43z"/>
		<path fill="#70A842" d="M175.952,175.74c0-1.22,0.185-2.305,0.555-3.255c0.37-0.95,0.865-1.755,1.485-2.415
			c0.62-0.66,1.335-1.16,2.145-1.5s1.665-0.511,2.565-0.511s1.755,0.171,2.565,0.511s1.525,0.84,2.145,1.5
			c0.62,0.66,1.115,1.465,1.485,2.415c0.37,0.95,0.555,2.035,0.555,3.255c0,1.2-0.185,2.275-0.555,3.225
			c-0.371,0.95-0.866,1.75-1.485,2.4c-0.62,0.65-1.335,1.145-2.145,1.484s-1.665,0.511-2.565,0.511s-1.755-0.171-2.565-0.511
			s-1.525-0.834-2.145-1.484c-0.62-0.65-1.115-1.45-1.485-2.4C176.137,178.016,175.952,176.94,175.952,175.74z M178.502,175.74
			c0,0.84,0.1,1.6,0.3,2.279c0.2,0.681,0.485,1.266,0.855,1.756s0.815,0.869,1.335,1.14c0.52,0.27,1.09,0.405,1.71,0.405
			c0.62,0,1.19-0.136,1.71-0.405c0.52-0.271,0.965-0.649,1.335-1.14s0.655-1.075,0.855-1.756c0.2-0.68,0.3-1.439,0.3-2.279
			s-0.101-1.605-0.3-2.295c-0.2-0.69-0.485-1.285-0.855-1.785s-0.815-0.885-1.335-1.155c-0.52-0.27-1.09-0.405-1.71-0.405
			c-0.62,0-1.19,0.136-1.71,0.405c-0.52,0.271-0.965,0.655-1.335,1.155s-0.655,1.095-0.855,1.785
			C178.602,174.135,178.502,174.9,178.502,175.74z"/>
		<path fill="#70A842" d="M199.352,168.42h2.04l0.21,2.1h0.09c0.64-0.699,1.335-1.284,2.085-1.755
			c0.75-0.47,1.565-0.705,2.445-0.705c1.12,0,1.995,0.245,2.625,0.735s1.095,1.175,1.395,2.055c0.76-0.84,1.525-1.515,2.295-2.024
			c0.77-0.51,1.605-0.766,2.505-0.766c1.5,0,2.615,0.48,3.345,1.44c0.729,0.96,1.095,2.38,1.095,4.26V183h-2.46v-8.91
			c0-1.38-0.22-2.375-0.66-2.984c-0.44-0.61-1.121-0.915-2.04-0.915c-1.1,0-2.32,0.75-3.66,2.25V183h-2.46v-8.91
			c0-1.38-0.22-2.375-0.66-2.984c-0.44-0.61-1.13-0.915-2.07-0.915c-1.1,0-2.32,0.75-3.66,2.25V183h-2.46V168.42z"/>
		<path fill="#70A842" d="M223.502,179.22c0-1.6,0.715-2.824,2.145-3.675c1.43-0.85,3.705-1.444,6.825-1.785
			c0-0.46-0.045-0.909-0.135-1.35c-0.09-0.439-0.25-0.83-0.48-1.17c-0.23-0.34-0.536-0.615-0.915-0.825
			c-0.38-0.21-0.87-0.315-1.47-0.315c-0.86,0-1.655,0.161-2.385,0.48c-0.73,0.32-1.385,0.68-1.965,1.08l-0.99-1.71
			c0.68-0.439,1.51-0.865,2.49-1.275c0.98-0.409,2.06-0.615,3.24-0.615c1.78,0,3.07,0.546,3.87,1.636
			c0.799,1.09,1.2,2.545,1.2,4.364V183h-2.04l-0.21-1.74h-0.06c-0.7,0.58-1.455,1.075-2.265,1.485
			c-0.81,0.409-1.665,0.615-2.565,0.615c-1.24,0-2.265-0.36-3.075-1.08C223.907,181.56,223.502,180.54,223.502,179.22z
			 M225.932,179.04c0,0.84,0.245,1.44,0.735,1.8c0.49,0.36,1.095,0.54,1.815,0.54c0.7,0,1.365-0.165,1.995-0.495
			c0.63-0.33,1.295-0.814,1.995-1.455v-4.05c-1.22,0.16-2.25,0.351-3.09,0.57c-0.84,0.22-1.515,0.479-2.025,0.78
			c-0.51,0.3-0.875,0.645-1.095,1.034C226.042,178.155,225.932,178.58,225.932,179.04z"/>
		<path fill="#70A842" d="M242.042,184.23v4.92h-2.46v-20.73h2.04l0.21,1.68h0.09c0.66-0.56,1.385-1.039,2.175-1.439
			c0.79-0.4,1.615-0.601,2.475-0.601c0.939,0,1.77,0.176,2.49,0.525c0.72,0.351,1.32,0.851,1.8,1.5
			c0.48,0.65,0.844,1.431,1.095,2.34c0.25,0.91,0.375,1.936,0.375,3.075c0,1.24-0.17,2.345-0.51,3.315
			c-0.34,0.97-0.8,1.795-1.38,2.475s-1.25,1.195-2.01,1.545c-0.76,0.35-1.56,0.525-2.4,0.525c-0.68,0-1.355-0.15-2.025-0.45
			s-1.345-0.71-2.025-1.23L242.042,184.23z M242.042,179.76c0.66,0.561,1.3,0.955,1.92,1.186c0.62,0.229,1.17,0.345,1.65,0.345
			c0.6,0,1.155-0.135,1.665-0.405c0.51-0.27,0.95-0.649,1.32-1.14c0.37-0.49,0.66-1.095,0.87-1.815
			c0.21-0.72,0.315-1.529,0.315-2.43c0-0.8-0.07-1.53-0.21-2.19c-0.14-0.659-0.365-1.225-0.675-1.694s-0.71-0.835-1.2-1.096
			c-0.491-0.259-1.076-0.39-1.755-0.39c-0.62,0-1.245,0.17-1.875,0.51c-0.63,0.341-1.305,0.83-2.025,1.471V179.76z"/>
		<path fill="#70A842" d="M261.211,175.74c0-1.2,0.185-2.275,0.555-3.226c0.37-0.949,0.86-1.755,1.47-2.415
			c0.61-0.659,1.305-1.164,2.085-1.515c0.78-0.35,1.59-0.525,2.43-0.525c0.92,0,1.745,0.161,2.475,0.48
			c0.73,0.32,1.34,0.78,1.83,1.38c0.49,0.6,0.865,1.32,1.125,2.16c0.26,0.84,0.39,1.78,0.39,2.82c0,0.54-0.03,0.989-0.09,1.35h-9.84
			c0.1,1.58,0.585,2.83,1.455,3.75c0.87,0.92,2.005,1.38,3.405,1.38c0.7,0,1.345-0.104,1.935-0.314
			c0.59-0.21,1.155-0.485,1.695-0.825l0.87,1.62c-0.64,0.4-1.35,0.75-2.13,1.05c-0.78,0.3-1.67,0.45-2.67,0.45
			c-0.98,0-1.896-0.176-2.745-0.525c-0.85-0.35-1.59-0.85-2.22-1.5c-0.63-0.649-1.125-1.444-1.485-2.385
			S261.211,176.94,261.211,175.74z M271.412,174.63c0-1.5-0.315-2.645-0.945-3.435c-0.63-0.79-1.515-1.186-2.655-1.186
			c-0.521,0-1.015,0.105-1.485,0.315c-0.47,0.21-0.896,0.51-1.275,0.899c-0.38,0.391-0.695,0.87-0.945,1.44
			s-0.415,1.226-0.495,1.965H271.412z"/>
		<path fill="#70A842" d="M275.221,168.42h2.55l2.76,8.28c0.22,0.72,0.445,1.439,0.675,2.16c0.229,0.72,0.455,1.43,0.675,2.13h0.12
			c0.22-0.7,0.439-1.41,0.66-2.13c0.22-0.721,0.44-1.44,0.66-2.16l2.76-8.28h2.43l-5.16,14.58h-2.88L275.221,168.42z"/>
		<path fill="#70A842" d="M290.13,175.74c0-1.2,0.185-2.275,0.555-3.226c0.37-0.949,0.86-1.755,1.47-2.415
			c0.61-0.659,1.305-1.164,2.085-1.515c0.78-0.35,1.59-0.525,2.43-0.525c0.92,0,1.745,0.161,2.475,0.48
			c0.73,0.32,1.34,0.78,1.83,1.38c0.49,0.6,0.865,1.32,1.125,2.16c0.26,0.84,0.39,1.78,0.39,2.82c0,0.54-0.03,0.989-0.09,1.35h-9.84
			c0.1,1.58,0.585,2.83,1.455,3.75c0.87,0.92,2.005,1.38,3.405,1.38c0.7,0,1.345-0.104,1.935-0.314
			c0.59-0.21,1.155-0.485,1.695-0.825l0.87,1.62c-0.64,0.4-1.35,0.75-2.13,1.05c-0.78,0.3-1.67,0.45-2.67,0.45
			c-0.98,0-1.896-0.176-2.745-0.525c-0.85-0.35-1.59-0.85-2.22-1.5c-0.63-0.649-1.125-1.444-1.485-2.385
			S290.13,176.94,290.13,175.74z M300.331,174.63c0-1.5-0.315-2.645-0.945-3.435c-0.63-0.79-1.515-1.186-2.655-1.186
			c-0.521,0-1.015,0.105-1.485,0.315c-0.47,0.21-0.896,0.51-1.275,0.899c-0.38,0.391-0.695,0.87-0.945,1.44
			s-0.415,1.226-0.495,1.965H300.331z"/>
		<path fill="#70A842" d="M306.09,168.42h2.04l0.21,2.64h0.09c0.5-0.919,1.105-1.649,1.815-2.189
			c0.709-0.54,1.485-0.811,2.325-0.811c0.58,0,1.1,0.101,1.56,0.301l-0.48,2.159c-0.24-0.079-0.46-0.14-0.66-0.18
			c-0.2-0.04-0.45-0.06-0.75-0.06c-0.62,0-1.265,0.25-1.935,0.75s-1.255,1.37-1.755,2.609V183h-2.46V168.42z"/>
		<path fill="#70A842" d="M316.62,187.155c0.2,0.05,0.39,0.075,0.57,0.075c0.84,0,1.525-0.296,2.055-0.886s0.945-1.335,1.245-2.234
			l0.33-1.08l-5.85-14.61h2.55l2.97,8.07c0.22,0.64,0.455,1.315,0.705,2.024c0.25,0.711,0.485,1.405,0.705,2.085h0.12
			c0.22-0.659,0.43-1.35,0.63-2.069c0.2-0.721,0.4-1.4,0.6-2.04l2.61-8.07h2.4l-5.49,15.78c-0.26,0.72-0.55,1.39-0.87,2.01
			c-0.32,0.62-0.7,1.155-1.14,1.605c-0.44,0.449-0.94,0.805-1.5,1.064c-0.56,0.26-1.21,0.39-1.95,0.39
			c-0.34,0-0.65-0.024-0.93-0.074c-0.28-0.051-0.54-0.125-0.78-0.226l0.48-1.95C316.24,187.06,316.42,187.104,316.62,187.155z"/>
		<path fill="#70A842" d="M336.689,187.155c0.2,0.05,0.39,0.075,0.57,0.075c0.84,0,1.525-0.296,2.055-0.886s0.945-1.335,1.245-2.234
			l0.33-1.08l-5.85-14.61h2.55l2.97,8.07c0.22,0.64,0.455,1.315,0.705,2.024c0.25,0.711,0.485,1.405,0.705,2.085h0.12
			c0.22-0.659,0.43-1.35,0.63-2.069c0.2-0.721,0.4-1.4,0.6-2.04l2.61-8.07h2.4l-5.49,15.78c-0.26,0.72-0.55,1.39-0.87,2.01
			c-0.32,0.62-0.7,1.155-1.14,1.605c-0.44,0.449-0.94,0.805-1.5,1.064c-0.56,0.26-1.21,0.39-1.95,0.39
			c-0.34,0-0.65-0.024-0.93-0.074c-0.28-0.051-0.54-0.125-0.78-0.226l0.48-1.95C336.309,187.06,336.489,187.104,336.689,187.155z"/>
		<path fill="#70A842" d="M349.949,175.74c0-1.22,0.185-2.305,0.555-3.255c0.37-0.95,0.865-1.755,1.485-2.415
			c0.62-0.66,1.335-1.16,2.145-1.5s1.665-0.511,2.565-0.511s1.755,0.171,2.565,0.511s1.525,0.84,2.145,1.5
			c0.62,0.66,1.115,1.465,1.485,2.415c0.37,0.95,0.555,2.035,0.555,3.255c0,1.2-0.185,2.275-0.555,3.225
			c-0.371,0.95-0.866,1.75-1.485,2.4c-0.62,0.65-1.335,1.145-2.145,1.484s-1.665,0.511-2.565,0.511s-1.755-0.171-2.565-0.511
			s-1.525-0.834-2.145-1.484c-0.62-0.65-1.115-1.45-1.485-2.4C350.134,178.016,349.949,176.94,349.949,175.74z M352.5,175.74
			c0,0.84,0.1,1.6,0.3,2.279c0.2,0.681,0.485,1.266,0.855,1.756s0.815,0.869,1.335,1.14c0.52,0.27,1.09,0.405,1.71,0.405
			c0.62,0,1.19-0.136,1.71-0.405c0.52-0.271,0.965-0.649,1.335-1.14s0.655-1.075,0.855-1.756c0.2-0.68,0.3-1.439,0.3-2.279
			s-0.101-1.605-0.3-2.295c-0.2-0.69-0.485-1.285-0.855-1.785s-0.815-0.885-1.335-1.155c-0.52-0.27-1.09-0.405-1.71-0.405
			c-0.62,0-1.19,0.136-1.71,0.405c-0.52,0.271-0.965,0.655-1.335,1.155s-0.655,1.095-0.855,1.785
			C352.599,174.135,352.5,174.9,352.5,175.74z"/>
		<path fill="#70A842" d="M366.179,185.79c0-0.62,0.19-1.21,0.57-1.771c0.38-0.56,0.9-1.069,1.56-1.529v-0.12
			c-0.36-0.22-0.665-0.525-0.915-0.915c-0.25-0.39-0.375-0.875-0.375-1.455c0-0.62,0.17-1.16,0.51-1.62
			c0.34-0.46,0.7-0.819,1.08-1.08v-0.12c-0.48-0.399-0.915-0.935-1.305-1.604s-0.585-1.445-0.585-2.325c0-0.8,0.145-1.52,0.435-2.16
			c0.29-0.64,0.685-1.185,1.185-1.635s1.085-0.795,1.755-1.035c0.67-0.24,1.375-0.36,2.115-0.36c0.4,0,0.775,0.035,1.125,0.105
			c0.35,0.07,0.665,0.155,0.945,0.255h5.07v1.89h-3c0.34,0.341,0.625,0.771,0.855,1.29c0.229,0.521,0.345,1.091,0.345,1.71
			c0,0.78-0.14,1.485-0.42,2.115s-0.66,1.16-1.14,1.59c-0.48,0.431-1.045,0.766-1.695,1.005c-0.65,0.24-1.345,0.36-2.085,0.36
			c-0.36,0-0.73-0.045-1.11-0.135c-0.38-0.09-0.74-0.215-1.08-0.375c-0.26,0.22-0.48,0.465-0.66,0.735
			c-0.18,0.27-0.27,0.604-0.27,1.005c0,0.46,0.18,0.84,0.54,1.14c0.36,0.3,1.04,0.45,2.04,0.45h2.82c1.7,0,2.975,0.275,3.825,0.825
			s1.275,1.435,1.275,2.654c0,0.68-0.17,1.325-0.51,1.936c-0.34,0.609-0.83,1.145-1.47,1.604s-1.415,0.825-2.325,1.096
			c-0.91,0.27-1.935,0.404-3.075,0.404c-0.9,0-1.72-0.085-2.46-0.255c-0.74-0.17-1.375-0.425-1.905-0.765
			c-0.53-0.341-0.94-0.75-1.23-1.23C366.324,186.99,366.179,186.43,366.179,185.79z M368.339,185.46c0,0.78,0.375,1.399,1.125,1.86
			c0.75,0.46,1.785,0.689,3.105,0.689c0.7,0,1.335-0.085,1.905-0.255s1.055-0.39,1.455-0.66c0.4-0.27,0.709-0.585,0.93-0.944
			c0.22-0.36,0.33-0.73,0.33-1.11c0-0.681-0.25-1.15-0.75-1.41s-1.23-0.39-2.19-0.39h-2.52c-0.28,0-0.585-0.016-0.915-0.045
			c-0.33-0.03-0.655-0.096-0.975-0.195c-0.52,0.38-0.9,0.78-1.14,1.2C368.459,184.62,368.339,185.04,368.339,185.46z
			 M372.209,176.73c0.42,0,0.815-0.08,1.185-0.24s0.7-0.391,0.99-0.69c0.29-0.3,0.515-0.664,0.675-1.095
			c0.16-0.43,0.24-0.915,0.24-1.455c0-1.08-0.3-1.915-0.9-2.505c-0.6-0.59-1.33-0.885-2.19-0.885s-1.59,0.295-2.19,0.885
			s-0.9,1.425-0.9,2.505c0,0.54,0.08,1.025,0.24,1.455c0.16,0.431,0.385,0.795,0.675,1.095c0.29,0.3,0.62,0.53,0.99,0.69
			S371.789,176.73,372.209,176.73z"/>
		<path fill="#70A842" d="M383.669,165.42c-0.48,0-0.885-0.15-1.215-0.45s-0.495-0.68-0.495-1.14c0-0.48,0.165-0.865,0.495-1.155
			c0.33-0.289,0.735-0.435,1.215-0.435s0.885,0.146,1.215,0.435c0.33,0.29,0.495,0.675,0.495,1.155c0,0.46-0.165,0.84-0.495,1.14
			S384.149,165.42,383.669,165.42z M382.409,168.42h2.46V183h-2.46V168.42z"/>
		<path fill="#70A842" d="M394.769,175.74c0-1.22,0.185-2.305,0.555-3.255c0.37-0.95,0.865-1.755,1.485-2.415
			c0.62-0.66,1.335-1.16,2.145-1.5s1.665-0.511,2.565-0.511s1.755,0.171,2.565,0.511s1.525,0.84,2.145,1.5
			c0.62,0.66,1.115,1.465,1.485,2.415c0.37,0.95,0.555,2.035,0.555,3.255c0,1.2-0.185,2.275-0.555,3.225
			c-0.371,0.95-0.866,1.75-1.485,2.4c-0.62,0.65-1.335,1.145-2.145,1.484s-1.665,0.511-2.565,0.511s-1.755-0.171-2.565-0.511
			s-1.525-0.834-2.145-1.484c-0.62-0.65-1.115-1.45-1.485-2.4C394.953,178.016,394.769,176.94,394.769,175.74z M397.319,175.74
			c0,0.84,0.1,1.6,0.3,2.279c0.2,0.681,0.485,1.266,0.855,1.756s0.815,0.869,1.335,1.14c0.52,0.27,1.09,0.405,1.71,0.405
			c0.62,0,1.19-0.136,1.71-0.405c0.52-0.271,0.965-0.649,1.335-1.14s0.655-1.075,0.855-1.756c0.2-0.68,0.3-1.439,0.3-2.279
			s-0.101-1.605-0.3-2.295c-0.2-0.69-0.485-1.285-0.855-1.785s-0.815-0.885-1.335-1.155c-0.52-0.27-1.09-0.405-1.71-0.405
			c-0.62,0-1.19,0.136-1.71,0.405c-0.52,0.271-0.965,0.655-1.335,1.155s-0.655,1.095-0.855,1.785
			C397.418,174.135,397.319,174.9,397.319,175.74z"/>
		<path fill="#70A842" d="M412.108,168.42h2.04l0.21,2.1h0.09c0.7-0.699,1.435-1.284,2.205-1.755c0.77-0.47,1.665-0.705,2.685-0.705
			c1.54,0,2.665,0.48,3.375,1.44s1.065,2.38,1.065,4.26V183h-2.46v-8.91c0-1.38-0.22-2.375-0.66-2.984
			c-0.44-0.61-1.14-0.915-2.1-0.915c-0.76,0-1.43,0.189-2.01,0.569c-0.58,0.381-1.24,0.94-1.98,1.681V183h-2.46V168.42z"/>
		<path fill="#70A842" d="M434.998,170.43h-2.16v-1.859l2.28-0.15l0.3-4.08h2.07v4.08h3.93v2.01h-3.93v8.101
			c0,0.899,0.165,1.595,0.495,2.085c0.33,0.49,0.915,0.734,1.755,0.734c0.26,0,0.54-0.039,0.84-0.119s0.57-0.17,0.81-0.271
			l0.48,1.86c-0.4,0.14-0.835,0.265-1.305,0.375c-0.47,0.109-0.935,0.165-1.395,0.165c-0.78,0-1.435-0.12-1.965-0.36
			c-0.53-0.24-0.96-0.57-1.29-0.99s-0.565-0.93-0.705-1.529c-0.14-0.601-0.21-1.261-0.21-1.98V170.43z"/>
		<path fill="#70A842" d="M444.718,161.64h2.46v5.82l-0.09,3c0.7-0.66,1.43-1.225,2.19-1.695c0.76-0.47,1.65-0.705,2.67-0.705
			c1.54,0,2.665,0.48,3.375,1.44s1.065,2.38,1.065,4.26V183h-2.46v-8.91c0-1.38-0.22-2.375-0.66-2.984
			c-0.44-0.61-1.14-0.915-2.1-0.915c-0.76,0-1.43,0.189-2.01,0.569c-0.58,0.381-1.24,0.94-1.98,1.681V183h-2.46V161.64z"/>
		<path fill="#70A842" d="M459.958,175.74c0-1.2,0.185-2.275,0.555-3.226c0.37-0.949,0.86-1.755,1.47-2.415
			c0.61-0.659,1.305-1.164,2.085-1.515c0.78-0.35,1.59-0.525,2.43-0.525c0.92,0,1.745,0.161,2.475,0.48
			c0.73,0.32,1.34,0.78,1.83,1.38c0.49,0.6,0.865,1.32,1.125,2.16c0.26,0.84,0.39,1.78,0.39,2.82c0,0.54-0.03,0.989-0.09,1.35h-9.84
			c0.1,1.58,0.585,2.83,1.455,3.75c0.87,0.92,2.005,1.38,3.405,1.38c0.7,0,1.345-0.104,1.935-0.314
			c0.59-0.21,1.155-0.485,1.695-0.825l0.87,1.62c-0.64,0.4-1.35,0.75-2.13,1.05c-0.78,0.3-1.67,0.45-2.67,0.45
			c-0.98,0-1.896-0.176-2.745-0.525c-0.85-0.35-1.59-0.85-2.22-1.5c-0.63-0.649-1.125-1.444-1.485-2.385
			S459.958,176.94,459.958,175.74z M470.158,174.63c0-1.5-0.315-2.645-0.945-3.435c-0.63-0.79-1.515-1.186-2.655-1.186
			c-0.521,0-1.015,0.105-1.485,0.315c-0.47,0.21-0.896,0.51-1.275,0.899c-0.38,0.391-0.695,0.87-0.945,1.44
			s-0.415,1.226-0.495,1.965H470.158z"/>
		<path fill="#70A842" d="M484.437,184.23v4.92h-2.46v-20.73h2.04l0.21,1.68h0.09c0.66-0.56,1.385-1.039,2.175-1.439
			c0.79-0.4,1.615-0.601,2.475-0.601c0.939,0,1.77,0.176,2.49,0.525c0.72,0.351,1.32,0.851,1.8,1.5
			c0.48,0.65,0.844,1.431,1.095,2.34c0.25,0.91,0.375,1.936,0.375,3.075c0,1.24-0.17,2.345-0.51,3.315
			c-0.34,0.97-0.8,1.795-1.38,2.475s-1.25,1.195-2.01,1.545c-0.76,0.35-1.56,0.525-2.4,0.525c-0.68,0-1.355-0.15-2.025-0.45
			s-1.345-0.71-2.025-1.23L484.437,184.23z M484.437,179.76c0.66,0.561,1.3,0.955,1.92,1.186c0.62,0.229,1.17,0.345,1.65,0.345
			c0.6,0,1.155-0.135,1.665-0.405c0.51-0.27,0.95-0.649,1.32-1.14c0.37-0.49,0.66-1.095,0.87-1.815
			c0.21-0.72,0.315-1.529,0.315-2.43c0-0.8-0.07-1.53-0.21-2.19c-0.14-0.659-0.365-1.225-0.675-1.694s-0.71-0.835-1.2-1.096
			c-0.491-0.259-1.076-0.39-1.755-0.39c-0.62,0-1.245,0.17-1.875,0.51c-0.63,0.341-1.305,0.83-2.025,1.471V179.76z"/>
		<path fill="#70A842" d="M498.627,161.64h2.46v18.601c0,0.4,0.07,0.68,0.21,0.84c0.14,0.16,0.3,0.24,0.48,0.24
			c0.08,0,0.155,0,0.225,0c0.07,0,0.175-0.02,0.315-0.061l0.33,1.86c-0.16,0.079-0.35,0.14-0.57,0.18
			c-0.221,0.04-0.5,0.061-0.84,0.061c-0.94,0-1.61-0.28-2.01-0.841c-0.4-0.56-0.6-1.38-0.6-2.46V161.64z"/>
		<path fill="#70A842" d="M505.557,179.22c0-1.6,0.715-2.824,2.145-3.675c1.43-0.85,3.705-1.444,6.825-1.785
			c0-0.46-0.045-0.909-0.135-1.35c-0.09-0.439-0.25-0.83-0.48-1.17c-0.23-0.34-0.536-0.615-0.915-0.825
			c-0.38-0.21-0.87-0.315-1.47-0.315c-0.86,0-1.655,0.161-2.385,0.48c-0.73,0.32-1.385,0.68-1.965,1.08l-0.99-1.71
			c0.68-0.439,1.51-0.865,2.49-1.275c0.98-0.409,2.06-0.615,3.24-0.615c1.78,0,3.07,0.546,3.87,1.636
			c0.799,1.09,1.2,2.545,1.2,4.364V183h-2.04l-0.21-1.74h-0.06c-0.7,0.58-1.455,1.075-2.265,1.485
			c-0.81,0.409-1.665,0.615-2.565,0.615c-1.24,0-2.265-0.36-3.075-1.08C505.961,181.56,505.557,180.54,505.557,179.22z
			 M507.986,179.04c0,0.84,0.245,1.44,0.735,1.8c0.49,0.36,1.095,0.54,1.815,0.54c0.7,0,1.365-0.165,1.995-0.495
			c0.63-0.33,1.295-0.814,1.995-1.455v-4.05c-1.22,0.16-2.25,0.351-3.09,0.57c-0.84,0.22-1.515,0.479-2.025,0.78
			c-0.51,0.3-0.875,0.645-1.095,1.034C508.096,178.155,507.986,178.58,507.986,179.04z"/>
		<path fill="#70A842" d="M521.636,168.42h2.04l0.21,2.1h0.09c0.7-0.699,1.435-1.284,2.205-1.755c0.77-0.47,1.665-0.705,2.685-0.705
			c1.54,0,2.665,0.48,3.375,1.44s1.065,2.38,1.065,4.26V183h-2.46v-8.91c0-1.38-0.22-2.375-0.66-2.984
			c-0.44-0.61-1.14-0.915-2.1-0.915c-0.76,0-1.43,0.189-2.01,0.569c-0.58,0.381-1.24,0.94-1.98,1.681V183h-2.46V168.42z"/>
		<path fill="#70A842" d="M536.966,175.74c0-1.2,0.185-2.275,0.555-3.226c0.37-0.949,0.86-1.755,1.47-2.415
			c0.61-0.659,1.305-1.164,2.085-1.515c0.78-0.35,1.59-0.525,2.43-0.525c0.92,0,1.745,0.161,2.475,0.48
			c0.73,0.32,1.34,0.78,1.83,1.38s0.865,1.32,1.125,2.16s0.391,1.78,0.391,2.82c0,0.54-0.03,0.989-0.09,1.35h-9.84
			c0.1,1.58,0.585,2.83,1.455,3.75c0.87,0.92,2.005,1.38,3.405,1.38c0.7,0,1.345-0.104,1.936-0.314
			c0.589-0.21,1.154-0.485,1.694-0.825l0.87,1.62c-0.641,0.4-1.35,0.75-2.13,1.05s-1.67,0.45-2.67,0.45
			c-0.98,0-1.896-0.176-2.745-0.525c-0.85-0.35-1.59-0.85-2.22-1.5c-0.63-0.649-1.125-1.444-1.485-2.385
			S536.966,176.94,536.966,175.74z M547.167,174.63c0-1.5-0.315-2.645-0.945-3.435s-1.515-1.186-2.655-1.186
			c-0.521,0-1.015,0.105-1.485,0.315c-0.47,0.21-0.896,0.51-1.275,0.899c-0.38,0.391-0.695,0.87-0.945,1.44
			s-0.415,1.226-0.495,1.965H547.167z"/>
		<path fill="#70A842" d="M552.926,170.43h-2.16v-1.859l2.28-0.15l0.3-4.08h2.07v4.08h3.93v2.01h-3.93v8.101
			c0,0.899,0.165,1.595,0.495,2.085s0.915,0.734,1.755,0.734c0.26,0,0.54-0.039,0.84-0.119s0.57-0.17,0.81-0.271l0.48,1.86
			c-0.4,0.14-0.835,0.265-1.305,0.375c-0.471,0.109-0.936,0.165-1.396,0.165c-0.78,0-1.436-0.12-1.965-0.36
			c-0.53-0.24-0.96-0.57-1.29-0.99s-0.565-0.93-0.705-1.529c-0.14-0.601-0.21-1.261-0.21-1.98V170.43z"/>
	</g>
	<g>
		<path fill="#70A842" d="M609.58,165.42h-5.971v-2.1h14.43v2.1h-5.97V183h-2.489V165.42z"/>
		<path fill="#70A842" d="M618.189,175.74c0-1.22,0.184-2.305,0.555-3.255c0.369-0.95,0.865-1.755,1.484-2.415
			c0.62-0.66,1.336-1.16,2.146-1.5s1.665-0.511,2.565-0.511c0.899,0,1.754,0.171,2.564,0.511s1.525,0.84,2.145,1.5
			c0.62,0.66,1.115,1.465,1.486,2.415c0.369,0.95,0.555,2.035,0.555,3.255c0,1.2-0.186,2.275-0.555,3.225
			c-0.371,0.95-0.866,1.75-1.486,2.4c-0.619,0.65-1.334,1.145-2.145,1.484s-1.665,0.511-2.564,0.511c-0.9,0-1.756-0.171-2.565-0.511
			s-1.525-0.834-2.146-1.484c-0.619-0.65-1.115-1.45-1.484-2.4C618.373,178.016,618.189,176.94,618.189,175.74z M620.739,175.74
			c0,0.84,0.1,1.6,0.3,2.279c0.199,0.681,0.484,1.266,0.855,1.756c0.369,0.49,0.814,0.869,1.334,1.14
			c0.521,0.27,1.09,0.405,1.711,0.405c0.619,0,1.189-0.136,1.709-0.405c0.521-0.271,0.965-0.649,1.336-1.14
			c0.369-0.49,0.654-1.075,0.854-1.756c0.2-0.68,0.3-1.439,0.3-2.279s-0.1-1.605-0.3-2.295c-0.2-0.69-0.485-1.285-0.854-1.785
			c-0.371-0.5-0.815-0.885-1.336-1.155c-0.52-0.27-1.09-0.405-1.709-0.405c-0.621,0-1.19,0.136-1.711,0.405
			c-0.52,0.271-0.965,0.655-1.334,1.155c-0.371,0.5-0.656,1.095-0.855,1.785C620.839,174.135,620.739,174.9,620.739,175.74z"/>
		<path fill="#70A842" d="M642.009,170.43h-2.159v-1.859l2.279-0.15l0.3-4.08h2.07v4.08h3.93v2.01h-3.93v8.101
			c0,0.899,0.165,1.595,0.495,2.085s0.914,0.734,1.755,0.734c0.26,0,0.54-0.039,0.84-0.119s0.569-0.17,0.81-0.271l0.48,1.86
			c-0.4,0.14-0.836,0.265-1.305,0.375c-0.471,0.109-0.936,0.165-1.396,0.165c-0.78,0-1.435-0.12-1.965-0.36s-0.96-0.57-1.29-0.99
			s-0.565-0.93-0.705-1.529c-0.141-0.601-0.21-1.261-0.21-1.98V170.43z"/>
		<path fill="#70A842" d="M650.349,175.74c0-1.2,0.185-2.275,0.556-3.226c0.369-0.949,0.859-1.755,1.469-2.415
			c0.61-0.659,1.306-1.164,2.086-1.515c0.779-0.35,1.59-0.525,2.43-0.525c0.92,0,1.744,0.161,2.475,0.48
			c0.73,0.32,1.34,0.78,1.83,1.38s0.865,1.32,1.125,2.16s0.391,1.78,0.391,2.82c0,0.54-0.03,0.989-0.09,1.35h-9.84
			c0.1,1.58,0.584,2.83,1.455,3.75c0.869,0.92,2.004,1.38,3.404,1.38c0.699,0,1.345-0.104,1.936-0.314
			c0.59-0.21,1.154-0.485,1.694-0.825l0.87,1.62c-0.641,0.4-1.35,0.75-2.13,1.05s-1.671,0.45-2.67,0.45
			c-0.98,0-1.896-0.176-2.745-0.525s-1.59-0.85-2.221-1.5c-0.629-0.649-1.125-1.444-1.484-2.385S650.349,176.94,650.349,175.74z
			 M660.549,174.63c0-1.5-0.314-2.645-0.945-3.435c-0.63-0.79-1.515-1.186-2.654-1.186c-0.521,0-1.016,0.105-1.485,0.315
			s-0.896,0.51-1.274,0.899c-0.381,0.391-0.695,0.87-0.945,1.44s-0.416,1.226-0.496,1.965H660.549z"/>
		<path fill="#70A842" d="M666.309,161.64h2.46v18.601c0,0.4,0.069,0.68,0.21,0.84c0.14,0.16,0.301,0.24,0.48,0.24
			c0.079,0,0.154,0,0.225,0s0.175-0.02,0.314-0.061l0.33,1.86c-0.16,0.079-0.35,0.14-0.569,0.18
			c-0.221,0.04-0.501,0.061-0.841,0.061c-0.939,0-1.609-0.28-2.01-0.841c-0.4-0.56-0.6-1.38-0.6-2.46V161.64z"/>
		<path fill="#70A842" d="M673.958,161.64h2.46v18.601c0,0.4,0.07,0.68,0.21,0.84s0.3,0.24,0.479,0.24c0.08,0,0.155,0,0.226,0
			c0.069,0,0.175-0.02,0.315-0.061l0.33,1.86c-0.16,0.079-0.351,0.14-0.57,0.18c-0.221,0.04-0.5,0.061-0.84,0.061
			c-0.94,0-1.61-0.28-2.01-0.841c-0.4-0.56-0.601-1.38-0.601-2.46V161.64z"/>
		<path fill="#70A842" d="M688.088,170.43h-2.16v-1.859l2.28-0.15l0.3-4.08h2.07v4.08h3.93v2.01h-3.93v8.101
			c0,0.899,0.165,1.595,0.495,2.085c0.329,0.49,0.915,0.734,1.755,0.734c0.26,0,0.54-0.039,0.84-0.119s0.57-0.17,0.811-0.271
			l0.479,1.86c-0.4,0.14-0.835,0.265-1.306,0.375c-0.47,0.109-0.935,0.165-1.395,0.165c-0.779,0-1.436-0.12-1.965-0.36
			c-0.53-0.24-0.96-0.57-1.29-0.99s-0.565-0.93-0.705-1.529c-0.14-0.601-0.21-1.261-0.21-1.98V170.43z"/>
		<path fill="#70A842" d="M697.808,161.64h2.46v5.82l-0.09,3c0.699-0.66,1.43-1.225,2.189-1.695c0.76-0.47,1.65-0.705,2.67-0.705
			c1.541,0,2.666,0.48,3.375,1.44c0.711,0.96,1.065,2.38,1.065,4.26V183h-2.46v-8.91c0-1.38-0.221-2.375-0.66-2.984
			c-0.439-0.61-1.14-0.915-2.1-0.915c-0.76,0-1.43,0.189-2.01,0.569c-0.58,0.381-1.24,0.94-1.98,1.681V183h-2.46V161.64z"/>
		<path fill="#70A842" d="M713.047,175.74c0-1.2,0.186-2.275,0.556-3.226c0.37-0.949,0.86-1.755,1.47-2.415
			c0.609-0.659,1.305-1.164,2.086-1.515c0.779-0.35,1.59-0.525,2.43-0.525c0.92,0,1.744,0.161,2.475,0.48
			c0.73,0.32,1.34,0.78,1.83,1.38s0.865,1.32,1.125,2.16s0.391,1.78,0.391,2.82c0,0.54-0.031,0.989-0.09,1.35h-9.842
			c0.102,1.58,0.586,2.83,1.455,3.75c0.871,0.92,2.006,1.38,3.406,1.38c0.699,0,1.344-0.104,1.936-0.314
			c0.588-0.21,1.154-0.485,1.693-0.825l0.871,1.62c-0.641,0.4-1.35,0.75-2.131,1.05c-0.779,0.3-1.67,0.45-2.67,0.45
			c-0.98,0-1.895-0.176-2.744-0.525c-0.852-0.35-1.59-0.85-2.221-1.5c-0.629-0.649-1.125-1.444-1.484-2.385
			C713.228,178.01,713.047,176.94,713.047,175.74z M723.248,174.63c0-1.5-0.316-2.645-0.945-3.435
			c-0.631-0.79-1.516-1.186-2.654-1.186c-0.521,0-1.016,0.105-1.486,0.315s-0.895,0.51-1.275,0.899
			c-0.379,0.391-0.695,0.87-0.943,1.44c-0.252,0.57-0.416,1.226-0.496,1.965H723.248z"/>
		<path fill="#70A842" d="M733.327,168.42h2.521l2.16,8.43c0.159,0.701,0.31,1.381,0.449,2.04c0.14,0.66,0.28,1.331,0.42,2.011h0.12
			c0.16-0.68,0.32-1.355,0.48-2.025s0.33-1.345,0.51-2.025l2.25-8.43h2.4l2.279,8.43c0.181,0.701,0.355,1.381,0.525,2.04
			c0.17,0.66,0.335,1.331,0.495,2.011h0.12c0.159-0.68,0.31-1.351,0.45-2.011c0.14-0.659,0.289-1.339,0.449-2.04l2.131-8.43h2.34
			l-3.9,14.58h-3l-2.1-7.83c-0.181-0.7-0.346-1.39-0.495-2.07c-0.15-0.68-0.315-1.39-0.495-2.13h-0.12
			c-0.16,0.74-0.32,1.455-0.479,2.146c-0.161,0.689-0.341,1.385-0.54,2.085l-2.04,7.8h-2.881L733.327,168.42z"/>
		<path fill="#70A842" d="M755.406,175.74c0-1.22,0.185-2.305,0.555-3.255s0.865-1.755,1.485-2.415s1.335-1.16,2.146-1.5
			c0.81-0.34,1.665-0.511,2.564-0.511c0.9,0,1.755,0.171,2.565,0.511c0.81,0.34,1.524,0.84,2.145,1.5s1.115,1.465,1.485,2.415
			s0.555,2.035,0.555,3.255c0,1.2-0.185,2.275-0.555,3.225c-0.37,0.95-0.865,1.75-1.485,2.4s-1.335,1.145-2.145,1.484
			c-0.811,0.34-1.665,0.511-2.565,0.511c-0.899,0-1.755-0.171-2.564-0.511c-0.811-0.34-1.525-0.834-2.146-1.484
			s-1.115-1.45-1.485-2.4C755.591,178.016,755.406,176.94,755.406,175.74z M757.956,175.74c0,0.84,0.101,1.6,0.301,2.279
			c0.199,0.681,0.484,1.266,0.854,1.756s0.814,0.869,1.335,1.14c0.52,0.27,1.09,0.405,1.71,0.405s1.189-0.136,1.71-0.405
			c0.52-0.271,0.965-0.649,1.335-1.14s0.655-1.075,0.855-1.756c0.199-0.68,0.3-1.439,0.3-2.279s-0.101-1.605-0.3-2.295
			c-0.2-0.69-0.485-1.285-0.855-1.785s-0.815-0.885-1.335-1.155c-0.521-0.27-1.09-0.405-1.71-0.405s-1.19,0.136-1.71,0.405
			c-0.521,0.271-0.965,0.655-1.335,1.155s-0.655,1.095-0.854,1.785C758.057,174.135,757.956,174.9,757.956,175.74z"/>
		<path fill="#70A842" d="M772.746,168.42h2.04l0.21,2.64h0.09c0.5-0.919,1.105-1.649,1.815-2.189
			c0.709-0.54,1.484-0.811,2.325-0.811c0.579,0,1.1,0.101,1.56,0.301l-0.48,2.159c-0.239-0.079-0.46-0.14-0.659-0.18
			c-0.2-0.04-0.45-0.06-0.75-0.06c-0.62,0-1.266,0.25-1.936,0.75s-1.255,1.37-1.755,2.609V183h-2.46V168.42z"/>
		<path fill="#70A842" d="M783.156,161.64h2.46v18.601c0,0.4,0.07,0.68,0.21,0.84s0.3,0.24,0.48,0.24c0.079,0,0.154,0,0.225,0
			s0.175-0.02,0.315-0.061l0.33,1.86c-0.161,0.079-0.351,0.14-0.57,0.18c-0.221,0.04-0.5,0.061-0.84,0.061
			c-0.94,0-1.61-0.28-2.011-0.841c-0.399-0.56-0.6-1.38-0.6-2.46V161.64z"/>
		<path fill="#70A842" d="M789.756,175.74c0-1.18,0.175-2.245,0.524-3.195c0.351-0.949,0.815-1.755,1.396-2.415s1.25-1.17,2.01-1.53
			c0.76-0.359,1.561-0.54,2.4-0.54s1.569,0.15,2.189,0.45s1.25,0.71,1.891,1.23l-0.12-2.49v-5.61h2.49V183h-2.04l-0.21-1.71h-0.091
			c-0.58,0.561-1.244,1.045-1.994,1.455c-0.75,0.409-1.556,0.615-2.415,0.615c-1.841,0-3.306-0.66-4.396-1.98
			S789.756,178.181,789.756,175.74z M792.306,175.71c0,1.76,0.35,3.13,1.05,4.11c0.7,0.979,1.69,1.47,2.971,1.47
			c0.68,0,1.319-0.165,1.92-0.495c0.6-0.33,1.199-0.835,1.8-1.515v-7.62c-0.62-0.56-1.215-0.955-1.785-1.186
			c-0.57-0.229-1.155-0.345-1.755-0.345c-0.58,0-1.125,0.135-1.635,0.405c-0.511,0.27-0.956,0.65-1.335,1.14
			c-0.381,0.49-0.681,1.075-0.9,1.755C792.415,174.11,792.306,174.87,792.306,175.71z"/>
		<path fill="#70A842" d="M811.775,168.42h2.521l2.16,8.43c0.159,0.701,0.31,1.381,0.449,2.04c0.14,0.66,0.28,1.331,0.42,2.011h0.12
			c0.16-0.68,0.32-1.355,0.48-2.025s0.33-1.345,0.51-2.025l2.25-8.43h2.4l2.279,8.43c0.181,0.701,0.355,1.381,0.525,2.04
			c0.17,0.66,0.335,1.331,0.495,2.011h0.12c0.159-0.68,0.31-1.351,0.45-2.011c0.14-0.659,0.289-1.339,0.449-2.04l2.131-8.43h2.34
			l-3.9,14.58h-3l-2.1-7.83c-0.181-0.7-0.346-1.39-0.495-2.07c-0.15-0.68-0.315-1.39-0.495-2.13h-0.12
			c-0.16,0.74-0.32,1.455-0.479,2.146c-0.161,0.689-0.341,1.385-0.54,2.085l-2.04,7.8h-2.881L811.775,168.42z"/>
		<path fill="#70A842" d="M833.854,175.74c0-1.2,0.185-2.275,0.555-3.226c0.37-0.949,0.86-1.755,1.471-2.415
			c0.609-0.659,1.305-1.164,2.085-1.515c0.779-0.35,1.59-0.525,2.43-0.525c0.92,0,1.745,0.161,2.475,0.48
			c0.73,0.32,1.34,0.78,1.83,1.38s0.865,1.32,1.125,2.16s0.391,1.78,0.391,2.82c0,0.54-0.03,0.989-0.09,1.35h-9.841
			c0.101,1.58,0.585,2.83,1.455,3.75s2.005,1.38,3.405,1.38c0.7,0,1.345-0.104,1.936-0.314c0.589-0.21,1.154-0.485,1.694-0.825
			l0.87,1.62c-0.641,0.4-1.35,0.75-2.13,1.05s-1.67,0.45-2.67,0.45c-0.98,0-1.896-0.176-2.745-0.525c-0.851-0.35-1.59-0.85-2.22-1.5
			c-0.63-0.649-1.125-1.444-1.485-2.385S833.854,176.94,833.854,175.74z M844.055,174.63c0-1.5-0.315-2.645-0.945-3.435
			s-1.515-1.186-2.654-1.186c-0.521,0-1.016,0.105-1.485,0.315c-0.471,0.21-0.896,0.51-1.275,0.899
			c-0.38,0.391-0.695,0.87-0.944,1.44c-0.251,0.57-0.416,1.226-0.495,1.965H844.055z"/>
		<path fill="#70A842" d="M848.944,168.93c0.76-0.499,1.325-1.029,1.695-1.59c0.37-0.56,0.555-1.279,0.555-2.16
			c-0.06,0.021-0.14,0.03-0.239,0.03c-0.42,0-0.791-0.13-1.11-0.39c-0.32-0.26-0.48-0.63-0.48-1.11c0-0.52,0.15-0.93,0.45-1.229
			c0.3-0.301,0.68-0.45,1.141-0.45c0.579,0,1.039,0.235,1.38,0.705c0.34,0.47,0.51,1.145,0.51,2.024c0,1.2-0.275,2.235-0.825,3.105
			s-1.345,1.604-2.385,2.205L848.944,168.93z"/>
		<path fill="#70A842" d="M856.984,168.42h2.04l0.21,2.64h0.09c0.5-0.919,1.105-1.649,1.815-2.189
			c0.709-0.54,1.484-0.811,2.325-0.811c0.579,0,1.1,0.101,1.56,0.301l-0.48,2.159c-0.239-0.079-0.46-0.14-0.659-0.18
			c-0.2-0.04-0.45-0.06-0.75-0.06c-0.62,0-1.266,0.25-1.936,0.75s-1.255,1.37-1.755,2.609V183h-2.46V168.42z"/>
		<path fill="#70A842" d="M866.015,175.74c0-1.2,0.185-2.275,0.555-3.226c0.37-0.949,0.86-1.755,1.471-2.415
			c0.609-0.659,1.305-1.164,2.085-1.515c0.779-0.35,1.59-0.525,2.43-0.525c0.92,0,1.745,0.161,2.475,0.48
			c0.73,0.32,1.34,0.78,1.83,1.38s0.865,1.32,1.125,2.16s0.391,1.78,0.391,2.82c0,0.54-0.03,0.989-0.09,1.35h-9.841
			c0.101,1.58,0.585,2.83,1.455,3.75s2.005,1.38,3.405,1.38c0.7,0,1.345-0.104,1.936-0.314c0.589-0.21,1.154-0.485,1.694-0.825
			l0.87,1.62c-0.641,0.4-1.35,0.75-2.13,1.05s-1.67,0.45-2.67,0.45c-0.98,0-1.896-0.176-2.745-0.525c-0.851-0.35-1.59-0.85-2.22-1.5
			c-0.63-0.649-1.125-1.444-1.485-2.385S866.015,176.94,866.015,175.74z M876.215,174.63c0-1.5-0.315-2.645-0.945-3.435
			s-1.515-1.186-2.654-1.186c-0.521,0-1.016,0.105-1.485,0.315c-0.471,0.21-0.896,0.51-1.275,0.899
			c-0.38,0.391-0.695,0.87-0.944,1.44c-0.251,0.57-0.416,1.226-0.495,1.965H876.215z"/>
		<path fill="#70A842" d="M889.024,176.88h-2.4v-1.71h2.61l0.54-4.439h-2.55v-1.74h2.76l0.689-5.49h1.591l-0.69,5.49h3.99l0.72-5.49
			h1.59l-0.72,5.49h2.43v1.74h-2.609l-0.54,4.439h2.55v1.71h-2.76l-0.75,6.12h-1.591l0.721-6.12h-3.96l-0.75,6.12h-1.62
			L889.024,176.88z M894.814,175.17l0.54-4.439h-3.96l-0.54,4.439H894.814z"/>
		<path fill="#70A842" d="M903.094,163.32h6.06c1.08,0,2.07,0.1,2.97,0.3c0.9,0.2,1.665,0.524,2.295,0.975
			c0.631,0.45,1.12,1.046,1.471,1.785c0.35,0.74,0.524,1.65,0.524,2.73c0,1.04-0.175,1.939-0.524,2.699
			c-0.351,0.761-0.846,1.391-1.485,1.891c-0.641,0.5-1.405,0.875-2.295,1.125c-0.891,0.25-1.875,0.375-2.955,0.375h-3.54v7.8h-2.52
			V163.32z M908.823,173.16c1.74,0,3.025-0.325,3.855-0.976c0.829-0.649,1.245-1.675,1.245-3.074c0-1.42-0.426-2.405-1.275-2.955
			c-0.851-0.55-2.125-0.825-3.825-0.825h-3.21v7.83H908.823z"/>
		<path fill="#70A842" d="M918.273,175.74c0-1.22,0.185-2.305,0.555-3.255s0.865-1.755,1.485-2.415s1.335-1.16,2.146-1.5
			c0.81-0.34,1.665-0.511,2.564-0.511c0.9,0,1.755,0.171,2.565,0.511c0.81,0.34,1.524,0.84,2.145,1.5s1.115,1.465,1.485,2.415
			s0.555,2.035,0.555,3.255c0,1.2-0.185,2.275-0.555,3.225c-0.37,0.95-0.865,1.75-1.485,2.4s-1.335,1.145-2.145,1.484
			c-0.811,0.34-1.665,0.511-2.565,0.511c-0.899,0-1.755-0.171-2.564-0.511c-0.811-0.34-1.525-0.834-2.146-1.484
			s-1.115-1.45-1.485-2.4C918.458,178.016,918.273,176.94,918.273,175.74z M920.823,175.74c0,0.84,0.101,1.6,0.301,2.279
			c0.199,0.681,0.484,1.266,0.854,1.756s0.814,0.869,1.335,1.14c0.52,0.27,1.09,0.405,1.71,0.405s1.189-0.136,1.71-0.405
			c0.52-0.271,0.965-0.649,1.335-1.14s0.655-1.075,0.855-1.756c0.199-0.68,0.3-1.439,0.3-2.279s-0.101-1.605-0.3-2.295
			c-0.2-0.69-0.485-1.285-0.855-1.785s-0.815-0.885-1.335-1.155c-0.521-0.27-1.09-0.405-1.71-0.405s-1.19,0.136-1.71,0.405
			c-0.521,0.271-0.965,0.655-1.335,1.155s-0.655,1.095-0.854,1.785C920.924,174.135,920.823,174.9,920.823,175.74z"/>
		<path fill="#70A842" d="M933.754,168.42h2.521l2.16,8.43c0.159,0.701,0.31,1.381,0.449,2.04c0.14,0.66,0.28,1.331,0.42,2.011h0.12
			c0.16-0.68,0.32-1.355,0.48-2.025s0.33-1.345,0.51-2.025l2.25-8.43h2.4l2.279,8.43c0.181,0.701,0.355,1.381,0.525,2.04
			c0.17,0.66,0.335,1.331,0.495,2.011h0.12c0.159-0.68,0.31-1.351,0.45-2.011c0.14-0.659,0.289-1.339,0.449-2.04l2.131-8.43h2.34
			l-3.9,14.58h-3l-2.1-7.83c-0.181-0.7-0.346-1.39-0.495-2.07c-0.15-0.68-0.315-1.39-0.495-2.13h-0.12
			c-0.16,0.74-0.32,1.455-0.479,2.146c-0.161,0.689-0.341,1.385-0.54,2.085l-2.04,7.8h-2.881L933.754,168.42z"/>
		<path fill="#70A842" d="M955.833,175.74c0-1.2,0.185-2.275,0.555-3.226c0.37-0.949,0.86-1.755,1.471-2.415
			c0.609-0.659,1.305-1.164,2.085-1.515c0.779-0.35,1.59-0.525,2.43-0.525c0.92,0,1.745,0.161,2.475,0.48
			c0.73,0.32,1.34,0.78,1.83,1.38s0.865,1.32,1.125,2.16s0.391,1.78,0.391,2.82c0,0.54-0.03,0.989-0.09,1.35h-9.841
			c0.101,1.58,0.585,2.83,1.455,3.75s2.005,1.38,3.405,1.38c0.7,0,1.345-0.104,1.936-0.314c0.589-0.21,1.154-0.485,1.694-0.825
			l0.87,1.62c-0.641,0.4-1.35,0.75-2.13,1.05s-1.67,0.45-2.67,0.45c-0.98,0-1.896-0.176-2.745-0.525c-0.851-0.35-1.59-0.85-2.22-1.5
			c-0.63-0.649-1.125-1.444-1.485-2.385S955.833,176.94,955.833,175.74z M966.033,174.63c0-1.5-0.315-2.645-0.945-3.435
			s-1.515-1.186-2.654-1.186c-0.521,0-1.016,0.105-1.485,0.315c-0.471,0.21-0.896,0.51-1.275,0.899
			c-0.38,0.391-0.695,0.87-0.944,1.44c-0.251,0.57-0.416,1.226-0.495,1.965H966.033z"/>
		<path fill="#70A842" d="M971.793,168.42h2.04l0.21,2.64h0.09c0.5-0.919,1.105-1.649,1.815-2.189
			c0.709-0.54,1.484-0.811,2.325-0.811c0.579,0,1.1,0.101,1.56,0.301l-0.48,2.159c-0.239-0.079-0.46-0.14-0.659-0.18
			c-0.2-0.04-0.45-0.06-0.75-0.06c-0.62,0-1.266,0.25-1.936,0.75s-1.255,1.37-1.755,2.609V183h-2.46V168.42z"/>
		<path fill="#70A842" d="M980.822,175.74c0-1.2,0.185-2.275,0.555-3.226c0.37-0.949,0.86-1.755,1.471-2.415
			c0.609-0.659,1.305-1.164,2.085-1.515c0.779-0.35,1.59-0.525,2.43-0.525c0.92,0,1.745,0.161,2.475,0.48
			c0.73,0.32,1.34,0.78,1.83,1.38s0.865,1.32,1.125,2.16s0.391,1.78,0.391,2.82c0,0.54-0.03,0.989-0.09,1.35h-9.841
			c0.101,1.58,0.585,2.83,1.455,3.75s2.005,1.38,3.405,1.38c0.7,0,1.345-0.104,1.936-0.314c0.589-0.21,1.154-0.485,1.694-0.825
			l0.87,1.62c-0.641,0.4-1.35,0.75-2.13,1.05s-1.67,0.45-2.67,0.45c-0.98,0-1.896-0.176-2.745-0.525c-0.851-0.35-1.59-0.85-2.22-1.5
			c-0.63-0.649-1.125-1.444-1.485-2.385S980.822,176.94,980.822,175.74z M991.022,174.63c0-1.5-0.315-2.645-0.945-3.435
			s-1.515-1.186-2.654-1.186c-0.521,0-1.016,0.105-1.485,0.315c-0.471,0.21-0.896,0.51-1.275,0.899
			c-0.38,0.391-0.695,0.87-0.944,1.44c-0.251,0.57-0.416,1.226-0.495,1.965H991.022z"/>
		<path fill="#70A842" d="M995.732,175.74c0-1.18,0.175-2.245,0.524-3.195c0.351-0.949,0.815-1.755,1.396-2.415s1.25-1.17,2.01-1.53
			c0.76-0.359,1.561-0.54,2.4-0.54s1.569,0.15,2.189,0.45s1.25,0.71,1.891,1.23l-0.12-2.49v-5.61h2.49V183h-2.04l-0.21-1.71h-0.091
			c-0.58,0.561-1.244,1.045-1.994,1.455c-0.75,0.409-1.556,0.615-2.415,0.615c-1.841,0-3.306-0.66-4.396-1.98
			S995.732,178.181,995.732,175.74z M998.282,175.71c0,1.76,0.35,3.13,1.05,4.11c0.7,0.979,1.69,1.47,2.971,1.47
			c0.68,0,1.319-0.165,1.92-0.495c0.6-0.33,1.199-0.835,1.8-1.515v-7.62c-0.62-0.56-1.215-0.955-1.785-1.186
			c-0.57-0.229-1.155-0.345-1.755-0.345c-0.58,0-1.125,0.135-1.635,0.405c-0.511,0.27-0.956,0.65-1.335,1.14
			c-0.381,0.49-0.681,1.075-0.9,1.755C998.392,174.11,998.282,174.87,998.282,175.71z"/>
		<path fill="#70A842" d="M1013.583,163.32h5.85c1,0,1.915,0.09,2.745,0.27s1.545,0.461,2.145,0.84
			c0.601,0.381,1.065,0.875,1.396,1.485s0.495,1.346,0.495,2.205c0,0.98-0.28,1.865-0.84,2.655c-0.561,0.79-1.431,1.335-2.61,1.635
			v0.12c1.44,0.22,2.56,0.72,3.36,1.5c0.799,0.779,1.199,1.85,1.199,3.21c0,0.96-0.18,1.8-0.54,2.52
			c-0.359,0.721-0.869,1.32-1.529,1.8c-0.66,0.48-1.445,0.841-2.355,1.08c-0.91,0.24-1.915,0.36-3.015,0.36h-6.3V163.32z
			 M1019.013,171.72c1.68,0,2.89-0.289,3.63-0.87c0.74-0.579,1.11-1.42,1.11-2.52c0-1.08-0.391-1.854-1.17-2.325
			c-0.78-0.47-1.931-0.705-3.45-0.705h-3.03v6.42H1019.013z M1019.522,181.02c1.7,0,3.016-0.314,3.945-0.944
			s1.395-1.615,1.395-2.955c0-1.22-0.455-2.115-1.364-2.686c-0.911-0.569-2.235-0.854-3.976-0.854h-3.42v7.439H1019.522z"/>
		<path fill="#70A842" d="M1030.052,187.155c0.2,0.05,0.391,0.075,0.57,0.075c0.84,0,1.524-0.296,2.055-0.886
			s0.945-1.335,1.245-2.234l0.33-1.08l-5.85-14.61h2.55l2.97,8.07c0.22,0.64,0.455,1.315,0.705,2.024
			c0.25,0.711,0.484,1.405,0.705,2.085h0.12c0.22-0.659,0.43-1.35,0.63-2.069c0.199-0.721,0.399-1.4,0.6-2.04l2.61-8.07h2.4
			l-5.49,15.78c-0.261,0.72-0.551,1.39-0.87,2.01c-0.32,0.62-0.7,1.155-1.14,1.605c-0.44,0.449-0.94,0.805-1.5,1.064
			c-0.561,0.26-1.211,0.39-1.95,0.39c-0.341,0-0.65-0.024-0.931-0.074c-0.28-0.051-0.539-0.125-0.779-0.226l0.479-1.95
			C1029.672,187.06,1029.852,187.104,1030.052,187.155z"/>
		<path fill="#70A842" d="M1047.663,175.38l-5.94-12.06h2.7l2.52,5.55c0.32,0.72,0.635,1.43,0.945,2.13
			c0.31,0.7,0.635,1.42,0.975,2.16h0.12c0.34-0.74,0.676-1.46,1.005-2.16c0.33-0.7,0.646-1.41,0.945-2.13l2.55-5.55h2.58
			l-5.91,12.06V183h-2.489V175.38z"/>
		<path fill="#70A842" d="M1056.122,175.74c0-1.22,0.185-2.305,0.555-3.255s0.865-1.755,1.485-2.415s1.335-1.16,2.146-1.5
			c0.81-0.34,1.665-0.511,2.564-0.511c0.9,0,1.755,0.171,2.565,0.511c0.81,0.34,1.524,0.84,2.145,1.5s1.115,1.465,1.485,2.415
			s0.555,2.035,0.555,3.255c0,1.2-0.185,2.275-0.555,3.225c-0.37,0.95-0.865,1.75-1.485,2.4s-1.335,1.145-2.145,1.484
			c-0.811,0.34-1.665,0.511-2.565,0.511c-0.899,0-1.755-0.171-2.564-0.511c-0.811-0.34-1.525-0.834-2.146-1.484
			s-1.115-1.45-1.485-2.4C1056.307,178.016,1056.122,176.94,1056.122,175.74z M1058.672,175.74c0,0.84,0.101,1.6,0.301,2.279
			c0.199,0.681,0.484,1.266,0.854,1.756s0.814,0.869,1.335,1.14c0.52,0.27,1.09,0.405,1.71,0.405s1.189-0.136,1.71-0.405
			c0.52-0.271,0.965-0.649,1.335-1.14s0.655-1.075,0.855-1.756c0.199-0.68,0.3-1.439,0.3-2.279s-0.101-1.605-0.3-2.295
			c-0.2-0.69-0.485-1.285-0.855-1.785s-0.815-0.885-1.335-1.155c-0.521-0.27-1.09-0.405-1.71-0.405s-1.19,0.136-1.71,0.405
			c-0.521,0.271-0.965,0.655-1.335,1.155s-0.655,1.095-0.854,1.785C1058.772,174.135,1058.672,174.9,1058.672,175.74z"/>
		<path fill="#70A842" d="M1072.352,185.79c0-0.62,0.19-1.21,0.57-1.771c0.38-0.56,0.9-1.069,1.561-1.529v-0.12
			c-0.36-0.22-0.666-0.525-0.915-0.915c-0.251-0.39-0.375-0.875-0.375-1.455c0-0.62,0.169-1.16,0.51-1.62
			c0.34-0.46,0.699-0.819,1.08-1.08v-0.12c-0.48-0.399-0.915-0.935-1.306-1.604c-0.39-0.67-0.585-1.445-0.585-2.325
			c0-0.8,0.146-1.52,0.436-2.16c0.289-0.64,0.685-1.185,1.185-1.635s1.085-0.795,1.755-1.035s1.375-0.36,2.115-0.36
			c0.4,0,0.775,0.035,1.125,0.105s0.665,0.155,0.945,0.255h5.069v1.89h-3c0.34,0.341,0.625,0.771,0.855,1.29
			c0.229,0.521,0.345,1.091,0.345,1.71c0,0.78-0.14,1.485-0.42,2.115s-0.66,1.16-1.14,1.59c-0.48,0.431-1.046,0.766-1.695,1.005
			c-0.65,0.24-1.345,0.36-2.085,0.36c-0.36,0-0.73-0.045-1.11-0.135s-0.739-0.215-1.079-0.375c-0.261,0.22-0.48,0.465-0.66,0.735
			c-0.181,0.27-0.271,0.604-0.271,1.005c0,0.46,0.181,0.84,0.54,1.14c0.36,0.3,1.04,0.45,2.04,0.45h2.82
			c1.699,0,2.975,0.275,3.825,0.825c0.85,0.55,1.274,1.435,1.274,2.654c0,0.68-0.17,1.325-0.51,1.936
			c-0.34,0.609-0.83,1.145-1.47,1.604c-0.641,0.46-1.415,0.825-2.325,1.096c-0.91,0.27-1.936,0.404-3.075,0.404
			c-0.899,0-1.72-0.085-2.46-0.255s-1.375-0.425-1.905-0.765c-0.53-0.341-0.94-0.75-1.229-1.23
			C1072.497,186.99,1072.352,186.43,1072.352,185.79z M1074.512,185.46c0,0.78,0.375,1.399,1.125,1.86
			c0.75,0.46,1.785,0.689,3.105,0.689c0.699,0,1.335-0.085,1.904-0.255c0.57-0.17,1.055-0.39,1.455-0.66
			c0.4-0.27,0.71-0.585,0.931-0.944c0.22-0.36,0.33-0.73,0.33-1.11c0-0.681-0.251-1.15-0.75-1.41c-0.501-0.26-1.23-0.39-2.19-0.39
			h-2.52c-0.28,0-0.585-0.016-0.915-0.045c-0.33-0.03-0.655-0.096-0.976-0.195c-0.521,0.38-0.899,0.78-1.14,1.2
			S1074.512,185.04,1074.512,185.46z M1078.382,176.73c0.42,0,0.814-0.08,1.186-0.24c0.369-0.16,0.699-0.391,0.989-0.69
			s0.515-0.664,0.676-1.095c0.159-0.43,0.239-0.915,0.239-1.455c0-1.08-0.3-1.915-0.899-2.505c-0.601-0.59-1.331-0.885-2.19-0.885
			c-0.86,0-1.59,0.295-2.189,0.885c-0.601,0.59-0.9,1.425-0.9,2.505c0,0.54,0.08,1.025,0.24,1.455
			c0.159,0.431,0.385,0.795,0.675,1.095s0.619,0.53,0.99,0.69C1077.566,176.65,1077.962,176.73,1078.382,176.73z"/>
		<path fill="#70A842" d="M1087.383,179.22c0-1.6,0.715-2.824,2.145-3.675c1.43-0.85,3.705-1.444,6.825-1.785
			c0-0.46-0.045-0.909-0.135-1.35c-0.09-0.439-0.251-0.83-0.48-1.17s-0.535-0.615-0.915-0.825s-0.87-0.315-1.47-0.315
			c-0.86,0-1.655,0.161-2.385,0.48c-0.73,0.32-1.386,0.68-1.965,1.08l-0.99-1.71c0.68-0.439,1.51-0.865,2.49-1.275
			c0.979-0.409,2.06-0.615,3.239-0.615c1.78,0,3.07,0.546,3.87,1.636s1.2,2.545,1.2,4.364V183h-2.04l-0.21-1.74h-0.06
			c-0.7,0.58-1.455,1.075-2.266,1.485c-0.81,0.409-1.665,0.615-2.564,0.615c-1.24,0-2.266-0.36-3.075-1.08
			C1087.787,181.56,1087.383,180.54,1087.383,179.22z M1089.813,179.04c0,0.84,0.245,1.44,0.735,1.8
			c0.489,0.36,1.095,0.54,1.814,0.54c0.7,0,1.365-0.165,1.995-0.495s1.295-0.814,1.995-1.455v-4.05c-1.22,0.16-2.25,0.351-3.09,0.57
			s-1.515,0.479-2.025,0.78c-0.51,0.3-0.875,0.645-1.095,1.034C1089.922,178.155,1089.813,178.58,1089.813,179.04z"/>
	</g>
</g>
<g>
	<path fill="#70A842" d="M382.641,207.32h4.92c3.04,0,5.35,0.84,6.93,2.52s2.37,4.091,2.37,7.23c0,1.56-0.2,2.955-0.6,4.185
		c-0.4,1.23-0.99,2.271-1.771,3.12c-0.78,0.851-1.74,1.5-2.88,1.95s-2.45,0.675-3.93,0.675h-5.04V207.32z M387.38,224.96
		c2.32,0,4.051-0.69,5.19-2.07s1.71-3.319,1.71-5.819s-0.57-4.41-1.71-5.73s-2.87-1.979-5.19-1.979h-2.22v15.6H387.38z"/>
	<path fill="#70A842" d="M400.851,212.42h2.04l0.21,2.64h0.09c0.5-0.919,1.105-1.649,1.815-2.189
		c0.709-0.54,1.484-0.811,2.325-0.811c0.579,0,1.1,0.101,1.56,0.301l-0.48,2.159c-0.239-0.079-0.46-0.14-0.659-0.18
		c-0.2-0.04-0.45-0.06-0.75-0.06c-0.62,0-1.266,0.25-1.936,0.75s-1.255,1.37-1.755,2.609V227h-2.46V212.42z"/>
	<path fill="#70A842" d="M409.88,219.74c0-1.22,0.185-2.305,0.555-3.255s0.865-1.755,1.485-2.415s1.335-1.16,2.146-1.5
		c0.81-0.34,1.665-0.511,2.564-0.511c0.9,0,1.755,0.171,2.565,0.511c0.81,0.34,1.524,0.84,2.145,1.5s1.115,1.465,1.485,2.415
		s0.555,2.035,0.555,3.255c0,1.2-0.185,2.275-0.555,3.225c-0.37,0.95-0.865,1.75-1.485,2.4s-1.335,1.145-2.145,1.484
		c-0.811,0.34-1.665,0.511-2.565,0.511c-0.899,0-1.755-0.171-2.564-0.511c-0.811-0.34-1.525-0.834-2.146-1.484
		s-1.115-1.45-1.485-2.4C410.065,222.016,409.88,220.94,409.88,219.74z M412.43,219.74c0,0.84,0.101,1.6,0.301,2.279
		c0.199,0.681,0.484,1.266,0.854,1.756s0.814,0.869,1.335,1.14c0.52,0.27,1.09,0.405,1.71,0.405s1.189-0.136,1.71-0.405
		c0.52-0.271,0.965-0.649,1.335-1.14s0.655-1.075,0.855-1.756c0.199-0.68,0.3-1.439,0.3-2.279s-0.101-1.605-0.3-2.295
		c-0.2-0.69-0.485-1.285-0.855-1.785s-0.815-0.885-1.335-1.155c-0.521-0.27-1.09-0.405-1.71-0.405s-1.19,0.136-1.71,0.405
		c-0.521,0.271-0.965,0.655-1.335,1.155s-0.655,1.095-0.854,1.785C412.531,218.135,412.43,218.9,412.43,219.74z"/>
	<path fill="#70A842" d="M429.68,228.23v4.92h-2.46v-20.73h2.04l0.21,1.68h0.09c0.66-0.56,1.385-1.039,2.175-1.439
		s1.615-0.601,2.476-0.601c0.939,0,1.77,0.176,2.49,0.525c0.72,0.351,1.319,0.851,1.8,1.5c0.479,0.65,0.845,1.431,1.095,2.34
		c0.25,0.91,0.375,1.936,0.375,3.075c0,1.24-0.17,2.345-0.51,3.315c-0.341,0.97-0.801,1.795-1.38,2.475
		c-0.581,0.68-1.25,1.195-2.011,1.545c-0.76,0.35-1.56,0.525-2.399,0.525c-0.681,0-1.355-0.15-2.025-0.45s-1.345-0.71-2.024-1.23
		L429.68,228.23z M429.68,223.76c0.66,0.561,1.3,0.955,1.92,1.186c0.62,0.229,1.17,0.345,1.65,0.345c0.6,0,1.154-0.135,1.665-0.405
		c0.51-0.27,0.949-0.649,1.319-1.14s0.66-1.095,0.87-1.815c0.21-0.72,0.315-1.529,0.315-2.43c0-0.8-0.07-1.53-0.21-2.19
		c-0.141-0.659-0.365-1.225-0.675-1.694c-0.311-0.47-0.711-0.835-1.2-1.096c-0.49-0.259-1.075-0.39-1.755-0.39
		c-0.62,0-1.245,0.17-1.875,0.51c-0.63,0.341-1.306,0.83-2.025,1.471V223.76z"/>
	<path fill="#70A842" d="M449.21,223.22c0-1.6,0.715-2.824,2.145-3.675c1.43-0.85,3.705-1.444,6.825-1.785
		c0-0.46-0.045-0.909-0.135-1.35c-0.09-0.439-0.251-0.83-0.48-1.17s-0.535-0.615-0.915-0.825s-0.87-0.315-1.47-0.315
		c-0.86,0-1.655,0.161-2.385,0.48c-0.73,0.32-1.386,0.68-1.965,1.08l-0.99-1.71c0.68-0.439,1.51-0.865,2.49-1.275
		c0.979-0.409,2.06-0.615,3.239-0.615c1.78,0,3.07,0.546,3.87,1.636s1.2,2.545,1.2,4.364V227h-2.04l-0.21-1.74h-0.06
		c-0.7,0.58-1.455,1.075-2.266,1.485c-0.81,0.409-1.665,0.615-2.564,0.615c-1.24,0-2.266-0.36-3.075-1.08
		C449.615,225.56,449.21,224.54,449.21,223.22z M451.64,223.04c0,0.84,0.245,1.44,0.735,1.8c0.489,0.36,1.095,0.54,1.814,0.54
		c0.7,0,1.365-0.165,1.995-0.495s1.295-0.814,1.995-1.455v-4.05c-1.22,0.16-2.25,0.351-3.09,0.57s-1.515,0.479-2.025,0.78
		c-0.51,0.3-0.875,0.645-1.095,1.034C451.75,222.155,451.64,222.58,451.64,223.04z"/>
	<path fill="#70A842" d="M473.809,228.23v4.92h-2.46v-20.73h2.04l0.21,1.68h0.09c0.66-0.56,1.385-1.039,2.175-1.439
		s1.615-0.601,2.476-0.601c0.939,0,1.77,0.176,2.49,0.525c0.72,0.351,1.319,0.851,1.8,1.5c0.479,0.65,0.845,1.431,1.095,2.34
		c0.25,0.91,0.375,1.936,0.375,3.075c0,1.24-0.17,2.345-0.51,3.315c-0.341,0.97-0.801,1.795-1.38,2.475
		c-0.581,0.68-1.25,1.195-2.011,1.545c-0.76,0.35-1.56,0.525-2.399,0.525c-0.681,0-1.355-0.15-2.025-0.45s-1.345-0.71-2.024-1.23
		L473.809,228.23z M473.809,223.76c0.66,0.561,1.3,0.955,1.92,1.186c0.62,0.229,1.17,0.345,1.65,0.345
		c0.6,0,1.154-0.135,1.665-0.405c0.51-0.27,0.949-0.649,1.319-1.14s0.66-1.095,0.87-1.815c0.21-0.72,0.315-1.529,0.315-2.43
		c0-0.8-0.07-1.53-0.21-2.19c-0.141-0.659-0.365-1.225-0.675-1.694c-0.311-0.47-0.711-0.835-1.2-1.096
		c-0.49-0.259-1.075-0.39-1.755-0.39c-0.62,0-1.245,0.17-1.875,0.51c-0.63,0.341-1.306,0.83-2.025,1.471V223.76z"/>
	<path fill="#70A842" d="M489.259,209.42c-0.479,0-0.885-0.15-1.215-0.45s-0.495-0.68-0.495-1.14c0-0.48,0.165-0.865,0.495-1.155
		c0.33-0.289,0.735-0.435,1.215-0.435c0.48,0,0.886,0.146,1.215,0.435c0.33,0.29,0.495,0.675,0.495,1.155
		c0,0.46-0.165,0.84-0.495,1.14C490.145,209.27,489.74,209.42,489.259,209.42z M488,212.42h2.46V227H488V212.42z"/>
	<path fill="#70A842" d="M495.379,212.42h2.04l0.21,2.1h0.09c0.7-0.699,1.435-1.284,2.205-1.755c0.77-0.47,1.665-0.705,2.686-0.705
		c1.539,0,2.664,0.48,3.375,1.44c0.709,0.96,1.064,2.38,1.064,4.26V227h-2.46v-8.91c0-1.38-0.221-2.375-0.66-2.984
		c-0.439-0.61-1.14-0.915-2.1-0.915c-0.761,0-1.431,0.189-2.01,0.569c-0.581,0.381-1.24,0.94-1.98,1.681V227h-2.46V212.42z"/>
	<path fill="#70A842" d="M517.129,223.22c0-1.6,0.715-2.824,2.145-3.675c1.43-0.85,3.705-1.444,6.825-1.785
		c0-0.46-0.045-0.909-0.135-1.35c-0.09-0.439-0.251-0.83-0.48-1.17s-0.535-0.615-0.915-0.825s-0.87-0.315-1.47-0.315
		c-0.86,0-1.655,0.161-2.385,0.48c-0.73,0.32-1.386,0.68-1.965,1.08l-0.99-1.71c0.68-0.439,1.51-0.865,2.49-1.275
		c0.979-0.409,2.06-0.615,3.239-0.615c1.78,0,3.07,0.546,3.87,1.636s1.2,2.545,1.2,4.364V227h-2.04l-0.21-1.74h-0.06
		c-0.7,0.58-1.455,1.075-2.266,1.485c-0.81,0.409-1.665,0.615-2.564,0.615c-1.24,0-2.266-0.36-3.075-1.08
		C517.534,225.56,517.129,224.54,517.129,223.22z M519.559,223.04c0,0.84,0.245,1.44,0.735,1.8c0.489,0.36,1.095,0.54,1.814,0.54
		c0.7,0,1.365-0.165,1.995-0.495s1.295-0.814,1.995-1.455v-4.05c-1.22,0.16-2.25,0.351-3.09,0.57s-1.515,0.479-2.025,0.78
		c-0.51,0.3-0.875,0.645-1.095,1.034C519.668,222.155,519.559,222.58,519.559,223.04z"/>
	<path fill="#70A842" d="M533.208,212.42h2.04l0.21,2.1h0.09c0.7-0.699,1.435-1.284,2.205-1.755c0.77-0.47,1.665-0.705,2.686-0.705
		c1.539,0,2.664,0.48,3.375,1.44c0.709,0.96,1.064,2.38,1.064,4.26V227h-2.46v-8.91c0-1.38-0.221-2.375-0.66-2.984
		c-0.439-0.61-1.14-0.915-2.1-0.915c-0.761,0-1.431,0.189-2.01,0.569c-0.581,0.381-1.24,0.94-1.98,1.681V227h-2.46V212.42z"/>
	<path fill="#70A842" d="M548.569,219.74c0-1.18,0.175-2.245,0.524-3.195c0.351-0.949,0.815-1.755,1.396-2.415s1.25-1.17,2.01-1.53
		c0.76-0.359,1.561-0.54,2.4-0.54s1.569,0.15,2.189,0.45s1.25,0.71,1.891,1.23l-0.12-2.49v-5.61h2.49V227h-2.04l-0.21-1.71h-0.091
		c-0.58,0.561-1.244,1.045-1.994,1.455c-0.75,0.409-1.556,0.615-2.415,0.615c-1.841,0-3.306-0.66-4.396-1.98
		S548.569,222.181,548.569,219.74z M551.119,219.71c0,1.76,0.35,3.13,1.05,4.11c0.7,0.979,1.69,1.47,2.971,1.47
		c0.68,0,1.319-0.165,1.92-0.495c0.6-0.33,1.199-0.835,1.8-1.515v-7.62c-0.62-0.56-1.215-0.955-1.785-1.186
		c-0.57-0.229-1.155-0.345-1.755-0.345c-0.58,0-1.125,0.135-1.635,0.405c-0.511,0.27-0.956,0.65-1.335,1.14
		c-0.381,0.49-0.681,1.075-0.9,1.755C551.228,218.11,551.119,218.87,551.119,219.71z"/>
	<path fill="#70A842" d="M572.328,212.42h2.039l0.211,2.64h0.09c0.5-0.919,1.105-1.649,1.814-2.189s1.484-0.811,2.326-0.811
		c0.578,0,1.1,0.101,1.559,0.301l-0.48,2.159c-0.238-0.079-0.459-0.14-0.658-0.18c-0.201-0.04-0.451-0.06-0.75-0.06
		c-0.621,0-1.266,0.25-1.936,0.75s-1.256,1.37-1.756,2.609V227h-2.459V212.42z"/>
	<path fill="#70A842" d="M581.268,223.22c0-1.6,0.715-2.824,2.145-3.675c1.43-0.85,3.705-1.444,6.826-1.785
		c0-0.46-0.045-0.909-0.135-1.35c-0.09-0.439-0.252-0.83-0.48-1.17c-0.23-0.34-0.535-0.615-0.916-0.825
		c-0.379-0.21-0.869-0.315-1.469-0.315c-0.861,0-1.656,0.161-2.385,0.48c-0.73,0.32-1.387,0.68-1.965,1.08l-0.99-1.71
		c0.68-0.439,1.51-0.865,2.49-1.275c0.979-0.409,2.059-0.615,3.238-0.615c1.781,0,3.07,0.546,3.871,1.636
		c0.799,1.09,1.199,2.545,1.199,4.364V227h-2.039l-0.211-1.74h-0.059c-0.701,0.58-1.455,1.075-2.266,1.485
		c-0.811,0.409-1.666,0.615-2.564,0.615c-1.24,0-2.266-0.36-3.076-1.08C581.672,225.56,581.268,224.54,581.268,223.22z
		 M583.697,223.04c0,0.84,0.246,1.44,0.736,1.8c0.488,0.36,1.094,0.54,1.814,0.54c0.699,0,1.365-0.165,1.994-0.495
		c0.631-0.33,1.295-0.814,1.996-1.455v-4.05c-1.221,0.16-2.25,0.351-3.09,0.57s-1.516,0.479-2.025,0.78
		c-0.51,0.3-0.875,0.645-1.096,1.034C583.807,222.155,583.697,222.58,583.697,223.04z"/>
	<path fill="#70A842" d="M598.607,209.42c-0.48,0-0.885-0.15-1.215-0.45s-0.496-0.68-0.496-1.14c0-0.48,0.166-0.865,0.496-1.155
		c0.33-0.289,0.734-0.435,1.215-0.435s0.885,0.146,1.215,0.435c0.33,0.29,0.494,0.675,0.494,1.155c0,0.46-0.164,0.84-0.494,1.14
		S599.088,209.42,598.607,209.42z M597.348,212.42h2.459V227h-2.459V212.42z"/>
	<path fill="#70A842" d="M604.338,223.7c0.639,0.521,1.293,0.94,1.965,1.26c0.67,0.32,1.443,0.48,2.324,0.48
		c0.961,0,1.68-0.221,2.16-0.66c0.48-0.44,0.721-0.979,0.721-1.62c0-0.38-0.102-0.71-0.301-0.99
		c-0.199-0.279-0.455-0.525-0.766-0.735s-0.664-0.395-1.064-0.555s-0.801-0.319-1.199-0.479c-0.521-0.181-1.041-0.385-1.561-0.615
		c-0.52-0.229-0.986-0.51-1.395-0.84c-0.41-0.33-0.746-0.715-1.006-1.155c-0.26-0.439-0.391-0.97-0.391-1.59
		c0-0.58,0.115-1.125,0.346-1.635c0.23-0.511,0.561-0.95,0.99-1.32s0.955-0.66,1.574-0.87c0.621-0.21,1.32-0.315,2.102-0.315
		c0.918,0,1.764,0.161,2.535,0.48c0.77,0.32,1.434,0.71,1.994,1.17l-1.17,1.56c-0.5-0.379-1.02-0.689-1.561-0.93
		c-0.539-0.24-1.129-0.359-1.77-0.359c-0.92,0-1.596,0.21-2.025,0.63s-0.645,0.91-0.645,1.47c0,0.34,0.09,0.63,0.27,0.87
		s0.42,0.46,0.721,0.66c0.299,0.2,0.645,0.375,1.035,0.524c0.389,0.15,0.795,0.306,1.215,0.465c0.52,0.2,1.045,0.41,1.574,0.631
		c0.529,0.22,1.006,0.494,1.426,0.824s0.764,0.735,1.035,1.215c0.27,0.48,0.404,1.061,0.404,1.74c0,0.601-0.115,1.16-0.346,1.681
		c-0.229,0.52-0.568,0.979-1.02,1.38c-0.449,0.4-1.01,0.715-1.68,0.944c-0.67,0.23-1.436,0.346-2.295,0.346
		c-1.041,0-2.029-0.19-2.971-0.57c-0.939-0.38-1.76-0.859-2.459-1.44L604.338,223.7z"/>
	<path fill="#70A842" d="M616.217,219.74c0-1.2,0.186-2.275,0.555-3.226c0.371-0.949,0.861-1.755,1.471-2.415
		c0.609-0.659,1.305-1.164,2.086-1.515c0.779-0.35,1.59-0.525,2.43-0.525c0.92,0,1.744,0.161,2.475,0.48
		c0.73,0.32,1.34,0.78,1.83,1.38s0.865,1.32,1.125,2.16s0.391,1.78,0.391,2.82c0,0.54-0.031,0.989-0.09,1.35h-9.842
		c0.102,1.58,0.586,2.83,1.455,3.75c0.871,0.92,2.006,1.38,3.406,1.38c0.699,0,1.344-0.104,1.936-0.314
		c0.588-0.21,1.154-0.485,1.693-0.825l0.871,1.62c-0.641,0.4-1.35,0.75-2.131,1.05c-0.779,0.3-1.67,0.45-2.67,0.45
		c-0.98,0-1.895-0.176-2.744-0.525c-0.852-0.35-1.59-0.85-2.221-1.5c-0.629-0.649-1.125-1.444-1.484-2.385
		C616.396,222.01,616.217,220.94,616.217,219.74z M626.418,218.63c0-1.5-0.316-2.645-0.945-3.435
		c-0.631-0.79-1.516-1.186-2.654-1.186c-0.521,0-1.016,0.105-1.486,0.315s-0.895,0.51-1.275,0.899
		c-0.379,0.391-0.695,0.87-0.943,1.44c-0.252,0.57-0.416,1.226-0.496,1.965H626.418z"/>
	<path fill="#70A842" d="M637.787,231.155c0.199,0.05,0.391,0.075,0.57,0.075c0.84,0,1.523-0.296,2.055-0.886
		c0.529-0.59,0.945-1.335,1.244-2.234l0.33-1.08l-5.85-14.61h2.551l2.969,8.07c0.221,0.64,0.455,1.315,0.705,2.024
		c0.25,0.711,0.484,1.405,0.705,2.085h0.121c0.219-0.659,0.43-1.35,0.629-2.069c0.199-0.721,0.4-1.4,0.6-2.04l2.611-8.07h2.4
		l-5.49,15.78c-0.262,0.72-0.551,1.39-0.871,2.01s-0.699,1.155-1.139,1.605c-0.441,0.449-0.941,0.805-1.5,1.064
		c-0.561,0.26-1.211,0.39-1.951,0.39c-0.34,0-0.65-0.024-0.93-0.074c-0.281-0.051-0.539-0.125-0.779-0.226l0.479-1.95
		C637.406,231.06,637.586,231.104,637.787,231.155z"/>
	<path fill="#70A842" d="M651.047,219.74c0-1.22,0.184-2.305,0.555-3.255c0.369-0.95,0.865-1.755,1.484-2.415
		c0.621-0.66,1.336-1.16,2.146-1.5c0.809-0.34,1.664-0.511,2.564-0.511s1.754,0.171,2.564,0.511s1.525,0.84,2.145,1.5
		c0.621,0.66,1.115,1.465,1.486,2.415c0.369,0.95,0.555,2.035,0.555,3.255c0,1.2-0.186,2.275-0.555,3.225
		c-0.371,0.95-0.865,1.75-1.486,2.4c-0.619,0.65-1.334,1.145-2.145,1.484s-1.664,0.511-2.564,0.511s-1.756-0.171-2.564-0.511
		c-0.811-0.34-1.525-0.834-2.146-1.484c-0.619-0.65-1.115-1.45-1.484-2.4C651.23,222.016,651.047,220.94,651.047,219.74z
		 M653.596,219.74c0,0.84,0.102,1.6,0.301,2.279c0.199,0.681,0.484,1.266,0.855,1.756c0.369,0.49,0.814,0.869,1.334,1.14
		c0.52,0.27,1.09,0.405,1.711,0.405c0.619,0,1.189-0.136,1.709-0.405c0.52-0.271,0.965-0.649,1.336-1.14
		c0.369-0.49,0.654-1.075,0.855-1.756c0.199-0.68,0.299-1.439,0.299-2.279s-0.1-1.605-0.299-2.295
		c-0.201-0.69-0.486-1.285-0.855-1.785c-0.371-0.5-0.816-0.885-1.336-1.155c-0.52-0.27-1.09-0.405-1.709-0.405
		c-0.621,0-1.191,0.136-1.711,0.405c-0.52,0.271-0.965,0.655-1.334,1.155c-0.371,0.5-0.656,1.095-0.855,1.785
		C653.697,218.135,653.596,218.9,653.596,219.74z"/>
	<path fill="#70A842" d="M668.176,212.42h2.49v8.91c0,1.38,0.215,2.375,0.645,2.985s1.125,0.915,2.086,0.915
		c0.76,0,1.43-0.195,2.01-0.586c0.58-0.39,1.219-1.015,1.92-1.875v-10.35h2.461V227h-2.041l-0.209-2.28h-0.092
		c-0.68,0.801-1.395,1.44-2.145,1.92c-0.75,0.48-1.635,0.721-2.654,0.721c-1.561,0-2.695-0.48-3.404-1.44
		c-0.711-0.96-1.066-2.38-1.066-4.26V212.42z"/>
	<path fill="#70A842" d="M684.705,212.42h2.041l0.209,2.64h0.09c0.5-0.919,1.105-1.649,1.816-2.189
		c0.709-0.54,1.484-0.811,2.324-0.811c0.58,0,1.1,0.101,1.561,0.301l-0.48,2.159c-0.24-0.079-0.461-0.14-0.66-0.18
		s-0.449-0.06-0.75-0.06c-0.619,0-1.266,0.25-1.936,0.75s-1.254,1.37-1.754,2.609V227h-2.461V212.42z"/>
	<path fill="#70A842" d="M701.176,205.64h2.459v5.82l-0.09,3c0.701-0.66,1.43-1.225,2.189-1.695c0.762-0.47,1.65-0.705,2.672-0.705
		c1.539,0,2.664,0.48,3.375,1.44c0.709,0.96,1.064,2.38,1.064,4.26V227h-2.461v-8.91c0-1.38-0.221-2.375-0.66-2.984
		c-0.439-0.61-1.139-0.915-2.1-0.915c-0.76,0-1.43,0.189-2.01,0.569c-0.58,0.381-1.24,0.94-1.98,1.681V227h-2.459V205.64z"/>
	<path fill="#70A842" d="M716.775,223.22c0-1.6,0.715-2.824,2.145-3.675c1.43-0.85,3.705-1.444,6.824-1.785
		c0-0.46-0.045-0.909-0.135-1.35c-0.09-0.439-0.25-0.83-0.48-1.17c-0.229-0.34-0.535-0.615-0.914-0.825
		c-0.381-0.21-0.871-0.315-1.471-0.315c-0.859,0-1.654,0.161-2.385,0.48c-0.73,0.32-1.385,0.68-1.965,1.08l-0.99-1.71
		c0.68-0.439,1.51-0.865,2.49-1.275c0.98-0.409,2.061-0.615,3.24-0.615c1.779,0,3.07,0.546,3.869,1.636
		c0.801,1.09,1.201,2.545,1.201,4.364V227h-2.041l-0.209-1.74h-0.061c-0.699,0.58-1.455,1.075-2.266,1.485
		c-0.809,0.409-1.664,0.615-2.564,0.615c-1.24,0-2.266-0.36-3.074-1.08C717.18,225.56,716.775,224.54,716.775,223.22z
		 M719.205,223.04c0,0.84,0.244,1.44,0.734,1.8c0.49,0.36,1.096,0.54,1.814,0.54c0.701,0,1.365-0.165,1.996-0.495
		c0.629-0.33,1.295-0.814,1.994-1.455v-4.05c-1.219,0.16-2.25,0.351-3.09,0.57s-1.514,0.479-2.025,0.78
		c-0.51,0.3-0.875,0.645-1.094,1.034C719.314,222.155,719.205,222.58,719.205,223.04z"/>
	<path fill="#70A842" d="M732.855,212.42h2.039l0.211,2.1h0.09c0.699-0.699,1.434-1.284,2.205-1.755
		c0.77-0.47,1.664-0.705,2.686-0.705c1.539,0,2.664,0.48,3.375,1.44c0.709,0.96,1.064,2.38,1.064,4.26V227h-2.461v-8.91
		c0-1.38-0.221-2.375-0.66-2.984c-0.439-0.61-1.139-0.915-2.1-0.915c-0.76,0-1.43,0.189-2.01,0.569
		c-0.58,0.381-1.24,0.94-1.98,1.681V227h-2.459V212.42z"/>
	<path fill="#70A842" d="M748.215,219.74c0-1.18,0.176-2.245,0.525-3.195c0.35-0.949,0.814-1.755,1.395-2.415s1.25-1.17,2.01-1.53
		c0.76-0.359,1.561-0.54,2.4-0.54s1.57,0.15,2.189,0.45c0.621,0.3,1.25,0.71,1.891,1.23l-0.119-2.49v-5.61h2.49V227h-2.041
		l-0.209-1.71h-0.092c-0.58,0.561-1.244,1.045-1.994,1.455c-0.75,0.409-1.555,0.615-2.414,0.615c-1.842,0-3.307-0.66-4.396-1.98
		S748.215,222.181,748.215,219.74z M750.766,219.71c0,1.76,0.35,3.13,1.049,4.11c0.701,0.979,1.691,1.47,2.971,1.47
		c0.68,0,1.32-0.165,1.92-0.495s1.199-0.835,1.801-1.515v-7.62c-0.621-0.56-1.215-0.955-1.785-1.186
		c-0.57-0.229-1.156-0.345-1.756-0.345c-0.58,0-1.125,0.135-1.635,0.405c-0.51,0.27-0.955,0.65-1.334,1.14
		c-0.381,0.49-0.682,1.075-0.9,1.755C750.875,218.11,750.766,218.87,750.766,219.71z"/>
	<path fill="#70A842" d="M766.004,225.5c0-0.58,0.176-1.045,0.525-1.395c0.35-0.351,0.775-0.525,1.275-0.525
		c0.48,0,0.895,0.175,1.244,0.525c0.35,0.35,0.525,0.814,0.525,1.395c0,0.54-0.176,0.985-0.525,1.335s-0.764,0.525-1.244,0.525
		c-0.5,0-0.926-0.176-1.275-0.525S766.004,226.04,766.004,225.5z M766.605,209.72l-0.061-2.819h2.49l-0.061,2.819l-0.33,11.34
		h-1.709L766.605,209.72z"/>
</g>
</svg>
