<?xml version="1.0" encoding="utf-8"?>
<!-- Generator: Adobe Illustrator 16.0.3, SVG Export Plug-In . SVG Version: 6.00 Build 0)  -->
<!DOCTYPE svg PUBLIC "-//W3C//DTD SVG 1.1//EN" "http://www.w3.org/Graphics/SVG/1.1/DTD/svg11.dtd">
<svg version="1.1" id="Layer_1" xmlns="http://www.w3.org/2000/svg" xmlns:xlink="http://www.w3.org/1999/xlink" x="0px" y="0px"
	 width="756px" height="331px" viewBox="0 0 756 331" enable-background="new 0 0 756 331" xml:space="preserve">
<g>
	<path fill="#7CC244" d="M17.491,104.102H5.947v-7.953h32.452v7.953h-11.48v33.863h-9.428V104.102z"/>
	<path fill="#7CC244" d="M48.084,96.148h9.491v16.098h14.431V96.148h9.428v41.816h-9.428V120.52H57.575v17.445h-9.491V96.148z"/>
	<path fill="#7CC244" d="M94.39,96.148h26.23v7.953h-16.739v8.401h14.238v7.888h-14.238v9.621h17.381v7.953H94.39V96.148z"/>
	<path fill="#7CC244" d="M156.343,123.085l-12.571-26.937h10.069l3.784,9.62c0.556,1.583,1.111,3.11,1.668,4.585
		c0.555,1.476,1.132,3.025,1.731,4.65h0.256c0.599-1.625,1.187-3.175,1.765-4.65c0.577-1.475,1.164-3.002,1.764-4.585l3.72-9.62
		h9.877l-12.635,26.937v14.88h-9.428V123.085z"/>
	<path fill="#7CC244" d="M201.815,138.734c-2.822,0-5.398-0.504-7.729-1.508s-4.329-2.447-5.997-4.329
		c-1.667-1.881-2.961-4.169-3.88-6.862c-0.92-2.693-1.379-5.75-1.379-9.172c0-3.42,0.459-6.466,1.379-9.139
		c0.919-2.672,2.213-4.916,3.88-6.734c1.668-1.816,3.666-3.207,5.997-4.168c2.33-0.963,4.906-1.443,7.729-1.443
		c2.821,0,5.397,0.48,7.728,1.443c2.33,0.961,4.33,2.362,5.997,4.2c1.668,1.839,2.96,4.095,3.88,6.767
		c0.919,2.672,1.379,5.697,1.379,9.074c0,3.422-0.46,6.479-1.379,9.172c-0.92,2.693-2.212,4.981-3.88,6.862
		c-1.667,1.882-3.667,3.325-5.997,4.329C207.213,138.23,204.636,138.734,201.815,138.734z M201.815,130.589
		c2.864,0,5.131-1.229,6.798-3.688c1.668-2.457,2.502-5.804,2.502-10.037c0-4.189-0.834-7.46-2.502-9.813
		c-1.667-2.351-3.934-3.527-6.798-3.527c-2.822,0-5.078,1.177-6.767,3.527c-1.689,2.353-2.533,5.623-2.533,9.813
		c0,2.096,0.225,3.988,0.674,5.677c0.448,1.689,1.067,3.132,1.859,4.329c0.791,1.197,1.764,2.116,2.918,2.758
		C199.12,130.268,200.404,130.589,201.815,130.589z"/>
	<path fill="#7CC244" d="M229.841,117.313c0-3.463,0.545-6.551,1.636-9.268c1.09-2.715,2.565-5.012,4.425-6.895
		c1.86-1.881,4.041-3.313,6.542-4.297c2.501-0.982,5.163-1.475,7.985-1.475c2.95,0,5.504,0.556,7.664,1.667
		c2.158,1.112,3.944,2.373,5.354,3.784l-5.194,5.836c-1.069-0.982-2.171-1.752-3.303-2.309c-1.134-0.555-2.598-0.834-4.394-0.834
		c-1.625,0-3.11,0.311-4.457,0.93c-1.348,0.621-2.502,1.508-3.464,2.662c-0.962,1.154-1.722,2.565-2.276,4.232
		c-0.557,1.668-0.834,3.551-0.834,5.645c0,4.318,0.972,7.664,2.918,10.037c1.945,2.373,4.906,3.56,8.883,3.56
		c0.854,0,1.678-0.106,2.469-0.321c0.791-0.213,1.443-0.533,1.957-0.961v-7.184h-6.927v-7.696h15.328v19.241
		c-0.77,0.641-1.657,1.271-2.662,1.891c-1.005,0.621-2.106,1.166-3.303,1.637c-1.197,0.471-2.48,0.844-3.848,1.121
		c-1.369,0.278-2.78,0.418-4.233,0.418c-2.821,0-5.462-0.461-7.921-1.379c-2.459-0.92-4.607-2.277-6.445-4.072
		c-1.839-1.797-3.282-4.03-4.329-6.703C230.364,123.908,229.841,120.819,229.841,117.313z"/>
	<path fill="#7CC244" d="M295.002,128.023h-12.827l-2.565,9.941h-9.62l13.147-41.816h11.287l13.148,41.816h-10.005L295.002,128.023z
		 M293.077,120.648l-1.025-3.849c-0.6-2.095-1.166-4.318-1.7-6.67c-0.535-2.351-1.102-4.618-1.699-6.798h-0.257
		c-0.471,2.223-0.984,4.5-1.539,6.83c-0.557,2.33-1.134,4.543-1.731,6.638l-1.026,3.849H293.077z"/>
	<path fill="#7CC244" d="M331.687,96.148h10.005l6.991,18.791l2.501,7.313h0.257l2.501-7.313l6.799-18.791h10.005v41.816h-8.851
		v-15.328c0-1.027,0.042-2.159,0.128-3.4c0.085-1.239,0.191-2.49,0.32-3.752c0.129-1.26,0.257-2.5,0.385-3.719
		c0.129-1.219,0.257-2.342,0.385-3.367h-0.256l-3.4,9.684l-6.478,16.227h-3.784l-6.413-16.227l-3.335-9.684h-0.257
		c0.128,1.025,0.257,2.148,0.385,3.367c0.128,1.219,0.257,2.459,0.385,3.719c0.129,1.262,0.234,2.513,0.32,3.752
		c0.086,1.241,0.129,2.373,0.129,3.4v15.328h-8.722V96.148z"/>
	<path fill="#7CC244" d="M403.389,128.023h-12.826l-2.566,9.941h-9.619l13.146-41.816h11.289l13.146,41.816h-10.004L403.389,128.023
		z M401.465,120.648l-1.023-3.849c-0.602-2.095-1.166-4.318-1.701-6.67c-0.535-2.351-1.102-4.618-1.699-6.798h-0.256
		c-0.471,2.223-0.984,4.5-1.539,6.83c-0.557,2.33-1.135,4.543-1.732,6.638l-1.025,3.849H401.465z"/>
	<path fill="#7CC244" d="M423.527,96.148h15.266c2.266,0,4.395,0.225,6.381,0.674c1.988,0.448,3.721,1.197,5.195,2.244
		c1.477,1.049,2.639,2.438,3.494,4.169s1.283,3.858,1.283,6.382c0,2.437-0.439,4.553-1.314,6.349
		c-0.877,1.796-2.063,3.271-3.561,4.425c-1.496,1.155-3.229,2.011-5.193,2.566c-1.969,0.556-4.063,0.834-6.285,0.834h-5.771v14.174
		h-9.492V96.148H423.527z M438.215,116.287c5.133,0,7.695-2.223,7.695-6.67c0-2.182-0.652-3.721-1.955-4.618
		c-1.305-0.897-3.219-1.347-5.74-1.347h-5.193v12.635H438.215z"/>
	<path fill="#7CC244" d="M482.082,96.148h15.266c2.266,0,4.393,0.225,6.381,0.674c1.986,0.448,3.721,1.197,5.193,2.244
		c1.479,1.049,2.643,2.438,3.496,4.169c0.855,1.731,1.283,3.858,1.283,6.382c0,2.437-0.438,4.553-1.314,6.349
		c-0.875,1.796-2.064,3.271-3.561,4.425c-1.498,1.155-3.229,2.011-5.195,2.566c-1.965,0.555-4.063,0.834-6.283,0.834h-5.771v14.174
		h-9.492V96.148H482.082z M496.77,116.287c5.131,0,7.695-2.223,7.695-6.67c0-2.182-0.652-3.721-1.955-4.618
		c-1.307-0.897-3.219-1.347-5.74-1.347h-5.195v12.635H496.77z"/>
	<path fill="#7CC244" d="M546.73,137.965l-8.018-15.072h-5.131v15.072h-9.492V96.148h15.072c2.223,0,4.307,0.215,6.254,0.641
		c1.945,0.428,3.654,1.145,5.131,2.148c1.475,1.006,2.639,2.342,3.494,4.01c0.855,1.667,1.283,3.741,1.283,6.221
		c0,3.078-0.684,5.611-2.053,7.6c-1.369,1.989-3.164,3.475-5.387,4.457l9.428,16.74H546.73L546.73,137.965z M533.582,115.389h4.813
		c2.479,0,4.371-0.523,5.676-1.571c1.305-1.048,1.957-2.597,1.957-4.649c0-2.052-0.652-3.484-1.957-4.297s-3.197-1.219-5.676-1.219
		h-4.813V115.389z"/>
	<path fill="#7CC244" d="M583.736,138.734c-2.822,0-5.398-0.504-7.729-1.508c-2.332-1.004-4.33-2.447-5.996-4.329
		c-1.668-1.881-2.963-4.169-3.881-6.862c-0.92-2.693-1.379-5.75-1.379-9.172c0-3.42,0.459-6.466,1.379-9.139
		c0.918-2.672,2.213-4.916,3.881-6.734c1.666-1.816,3.664-3.207,5.996-4.168c2.33-0.963,4.906-1.443,7.729-1.443
		c2.824,0,5.396,0.48,7.729,1.443c2.33,0.961,4.328,2.362,5.996,4.2c1.668,1.839,2.961,4.095,3.881,6.767s1.381,5.697,1.381,9.074
		c0,3.422-0.461,6.479-1.381,9.172c-0.92,2.693-2.213,4.981-3.881,6.862c-1.668,1.882-3.666,3.325-5.996,4.329
		C589.133,138.23,586.559,138.734,583.736,138.734z M583.736,130.589c2.863,0,5.131-1.229,6.797-3.688
		c1.668-2.457,2.502-5.804,2.502-10.037c0-4.189-0.834-7.46-2.502-9.813c-1.666-2.351-3.934-3.527-6.797-3.527
		c-2.822,0-5.078,1.177-6.768,3.527c-1.689,2.353-2.533,5.623-2.533,9.813c0,2.096,0.225,3.988,0.674,5.677s1.068,3.132,1.859,4.329
		c0.791,1.197,1.764,2.116,2.92,2.758C581.043,130.268,582.324,130.589,583.736,130.589z"/>
	<path fill="#7CC244" d="M612.789,126.42c0.814,1.411,1.723,2.459,2.729,3.143c1.004,0.685,2.041,1.026,3.107,1.026
		c1.711,0,3.004-0.522,3.881-1.571c0.875-1.047,1.314-2.961,1.314-5.74v-27.13h9.492v27.898c0,2.01-0.268,3.912-0.803,5.708
		s-1.346,3.357-2.436,4.683c-1.092,1.325-2.48,2.373-4.17,3.143c-1.691,0.77-3.688,1.154-5.996,1.154c-3.207,0-5.9-0.621-8.082-1.86
		c-2.18-1.239-3.998-3.143-5.451-5.708L612.789,126.42z"/>
	<path fill="#7CC244" d="M646.01,96.148h26.232v7.953h-16.74v8.401h14.238v7.888h-14.238v9.621h17.381v7.953H646.01V96.148z"/>
	<path fill="#7CC244" d="M682.246,117.313c0-3.463,0.535-6.551,1.605-9.268c1.066-2.715,2.512-5.012,4.33-6.895
		c1.814-1.881,3.934-3.313,6.35-4.297c2.414-0.982,4.971-1.475,7.664-1.475c2.607,0,4.971,0.545,7.086,1.635
		c2.117,1.091,3.881,2.363,5.291,3.816l-5.193,5.836c-1.07-0.982-2.139-1.752-3.207-2.309c-1.07-0.555-2.352-0.834-3.85-0.834
		c-1.453,0-2.811,0.311-4.072,0.93c-1.262,0.621-2.363,1.508-3.303,2.662c-0.941,1.154-1.678,2.565-2.213,4.232
		c-0.535,1.668-0.801,3.551-0.801,5.645c0,4.318,0.918,7.664,2.758,10.037c1.838,2.373,4.297,3.56,7.375,3.56
		c1.754,0,3.26-0.342,4.52-1.026c1.264-0.684,2.406-1.581,3.434-2.693l5.193,5.708c-1.754,2.052-3.752,3.591-5.996,4.618
		c-2.244,1.025-4.674,1.539-7.279,1.539c-2.693,0-5.236-0.461-7.631-1.379c-2.396-0.92-4.49-2.277-6.285-4.072
		c-1.797-1.797-3.207-4.03-4.232-6.703C682.76,123.908,682.246,120.819,682.246,117.313z"/>
	<path fill="#7CC244" d="M732.08,104.102h-11.545v-7.953h32.451v7.953h-11.479v33.863h-9.428V104.102L732.08,104.102z"/>
</g>
<g>
	<g>
		<g>
			<path fill="#73679D" d="M361.596,31.832c0,18.971-26.669,47.055-26.669,47.055s-26.668-28.083-26.668-47.055
				c-0.002-18.968,11.939-28.787,26.668-28.787C349.656,3.045,361.596,12.862,361.596,31.832z"/>
			<circle fill="#FFFFFF" stroke="#8A81B3" stroke-width="2.5162" stroke-miterlimit="10" cx="334.926" cy="30.084" r="20.454"/>
			<path opacity="0.23" fill="#FFFFFF" enable-background="new    " d="M334.926,3.045v75.842c0,0,26.669-28.083,26.669-47.055
				C361.596,12.862,349.656,3.045,334.926,3.045z"/>
		</g>
		<path fill="#73679D" d="M348.261,26.735l-13.855,4.739l-13.184-4.683l13.067-4.685L348.261,26.735z M341.502,30.575l-7.135,2.564
			l-6.724-2.567v2.71c0,0-0.73,5.079,6.085,4.74c0,0,7.774,0.678,7.772-3.716L341.502,30.575L341.502,30.575z"/>
	</g>
	<g>
		<g>
			<path fill="#FDBA12" d="M448.702,31.834c0.001,18.969-26.671,47.056-26.671,47.056s-26.666-28.086-26.666-47.058
				c0-18.968,11.939-28.787,26.67-28.787C436.762,3.045,448.702,12.862,448.702,31.834z"/>
			<circle fill="#FFFFFF" stroke="#F9CD68" stroke-width="2.5162" stroke-miterlimit="10" cx="422.033" cy="30.084" r="20.452"/>
			<path opacity="0.23" fill="#FFFFFF" enable-background="new    " d="M422.035,3.045l-0.004,75.845
				c0,0,26.672-28.086,26.671-47.056C448.702,12.862,436.762,3.045,422.035,3.045z"/>
		</g>
		<g>
			<path fill="#FDBA12" d="M430.104,23.606h-2.38l0.003-0.149c-0.003-3.136-2.556-5.691-5.691-5.689
				c-3.144,0-5.691,2.553-5.688,5.689v0.149h-2.384l-1.394,15.512h18.927L430.104,23.606z M422.035,18.466
				c2.074,0.002,3.859,1.276,4.609,3.083c-0.99-1.492-2.688-2.479-4.609-2.479c-1.923,0-3.621,0.986-4.613,2.48
				C418.173,19.744,419.958,18.468,422.035,18.466L422.035,18.466z M417.395,23.608c0.465-2.139,2.368-3.744,4.642-3.742
				c2.273-0.002,4.174,1.603,4.643,3.742H417.395z"/>
		</g>
	</g>
	<g>
		<g>
			<path fill="#16B4E9" d="M405.148,31.832c0,18.971-26.672,47.058-26.672,47.058s-26.666-28.086-26.666-47.058
				c0-18.97,11.938-28.787,26.666-28.787C393.208,3.045,405.148,12.862,405.148,31.832z"/>
			<circle fill="#FFFFFF" stroke="#85D3E8" stroke-width="2.5162" stroke-miterlimit="10" cx="378.478" cy="30.084" r="20.453"/>
			<path opacity="0.23" fill="#FFFFFF" enable-background="new    " d="M378.478,3.045V78.89c0,0,26.672-28.086,26.672-47.058
				C405.148,12.862,393.208,3.045,378.478,3.045z"/>
		</g>
		<path fill="#16B4E9" d="M385.035,35.134c-0.176,4.089-4.521,6.172-4.521,6.172c-1.995,0.959-4.253,0-4.253,0
			c-4.601-2.175-4.17-6.259-4.17-6.259V29.83h12.943L385.035,35.134L385.035,35.134z M381.387,37.219h-5.647
			c0,0-0.523,2.168,2.565,2.87C378.305,40.089,381.47,39.915,381.387,37.219z M375.566,32.005c-0.863,0-1.563,0.619-1.563,1.389
			c0,0.768,0.699,1.393,1.563,1.393c0.861,0,1.561-0.625,1.561-1.393C377.127,32.624,376.429,32.005,375.566,32.005z
			 M381.387,32.005c-0.86,0-1.563,0.619-1.563,1.389c0,0.768,0.703,1.393,1.563,1.393c0.863,0,1.563-0.625,1.563-1.393
			C382.948,32.624,382.25,32.005,381.387,32.005z M389.291,36.353v-7.739c0,0,0.176-4.26-3.214-7.477c0,0-3.66-2.609-7.52-2.697
			c0,0-4.21,0.088-7.511,3.046c0,0-3.473,2.954-3.384,7.387l-0.003,7.479c0,0-0.086,1.651,1.306,1.825c0,0,1.39-0.087,1.564-1.651
			l0.083-6.697c0,0-0.366-1.826,1.469-1.913l12.952-0.087c0,0,1.651,0.261,1.651,1.999v6.696c0,0-0.089,1.565,1.133,1.653
			C387.819,38.178,389.291,38.261,389.291,36.353z"/>
		<rect x="378.478" y="17.456" opacity="0.23" fill="#FFFFFF" enable-background="new    " width="11.381" height="24.947"/>
		<rect x="379.239" y="22.719" opacity="0.23" fill="#FFFFFF" enable-background="new    " width="13.962" height="16.864"/>
		<rect x="378.478" y="17.241" opacity="0.23" fill="#FFFFFF" enable-background="new    " width="10.102" height="23.726"/>
	</g>
</g>
<g>
	<g>
		<path fill="#71A742" d="M77.54,173.646h3.067l2.46,12.729c0.237,1.283,0.469,2.543,0.695,3.779
			c0.226,1.236,0.457,2.496,0.695,3.779H84.6c0.261-1.283,0.529-2.549,0.802-3.797c0.273-1.249,0.553-2.503,0.838-3.762
			l3.245-12.729h2.711l3.245,12.729c0.261,1.236,0.535,2.484,0.82,3.743c0.285,1.261,0.571,2.532,0.855,3.815h0.143
			c0.238-1.283,0.464-2.549,0.678-3.797c0.214-1.249,0.428-2.503,0.642-3.762l2.461-12.729h2.888l-4.849,23.391h-3.602l-3.53-14.084
			c-0.191-0.903-0.38-1.789-0.57-2.656c-0.191-0.868-0.369-1.753-0.535-2.658h-0.143c-0.19,0.905-0.386,1.79-0.588,2.658
			c-0.202,0.867-0.398,1.753-0.588,2.656l-3.494,14.084h-3.53L77.54,173.646z"/>
		<path fill="#71A742" d="M106.315,188.407c0-1.426,0.22-2.704,0.66-3.834c0.439-1.128,1.022-2.086,1.747-2.87
			c0.725-0.784,1.551-1.384,2.479-1.801c0.927-0.415,1.89-0.624,2.888-0.624c1.093,0,2.073,0.191,2.942,0.57
			c0.867,0.382,1.592,0.928,2.175,1.642c0.582,0.712,1.028,1.568,1.337,2.566c0.309,0.999,0.463,2.116,0.463,3.352
			c0,0.643-0.036,1.177-0.107,1.604h-11.695c0.118,1.878,0.695,3.364,1.729,4.458c1.034,1.093,2.383,1.64,4.047,1.64
			c0.832,0,1.598-0.124,2.3-0.374c0.701-0.249,1.373-0.576,2.014-0.98l1.034,1.926c-0.761,0.476-1.604,0.891-2.532,1.248
			c-0.927,0.356-1.985,0.535-3.173,0.535c-1.165,0-2.253-0.21-3.263-0.625c-1.01-0.416-1.89-1.01-2.639-1.783
			c-0.749-0.771-1.337-1.716-1.765-2.834S106.315,189.833,106.315,188.407z M118.439,187.087c0-1.782-0.375-3.143-1.124-4.081
			c-0.749-0.939-1.8-1.409-3.156-1.409c-0.618,0-1.207,0.125-1.765,0.375c-0.559,0.249-1.064,0.605-1.515,1.068
			c-0.452,0.465-0.827,1.035-1.124,1.712c-0.297,0.679-0.494,1.457-0.589,2.335H118.439z"/>
		<path fill="#71A742" d="M130.419,179.707h2.995l2.567,10.019c0.19,0.834,0.369,1.642,0.535,2.425
			c0.166,0.785,0.333,1.582,0.5,2.391h0.143c0.19-0.809,0.379-1.612,0.57-2.408c0.19-0.795,0.393-1.598,0.606-2.407l2.674-10.019
			h2.853l2.71,10.019c0.214,0.834,0.422,1.642,0.624,2.425c0.202,0.785,0.398,1.582,0.588,2.391h0.143
			c0.189-0.809,0.368-1.605,0.535-2.391c0.166-0.783,0.344-1.591,0.535-2.425l2.531-10.019h2.781l-4.635,17.329h-3.566l-2.496-9.307
			c-0.214-0.832-0.41-1.651-0.588-2.461c-0.179-0.808-0.375-1.652-0.588-2.531h-0.143c-0.191,0.879-0.381,1.729-0.57,2.55
			c-0.191,0.819-0.405,1.646-0.642,2.479l-2.425,9.271h-3.423L130.419,179.707z"/>
		<path fill="#71A742" d="M156.877,192.543c0-1.901,0.849-3.356,2.549-4.367c1.699-1.011,4.403-1.717,8.112-2.123
			c0-0.547-0.053-1.079-0.16-1.603c-0.107-0.522-0.298-0.987-0.57-1.392c-0.274-0.403-0.637-0.731-1.088-0.98
			c-0.452-0.25-1.034-0.375-1.748-0.375c-1.022,0-1.967,0.191-2.834,0.57c-0.869,0.382-1.647,0.808-2.336,1.284l-1.177-2.032
			c0.808-0.522,1.795-1.028,2.959-1.516c1.165-0.486,2.449-0.731,3.852-0.731c2.116,0,3.649,0.648,4.6,1.944
			c0.95,1.295,1.426,3.025,1.426,5.188v10.626h-2.425l-0.25-2.068h-0.071c-0.833,0.689-1.73,1.278-2.692,1.766
			c-0.963,0.486-1.979,0.731-3.049,0.731c-1.474,0-2.692-0.429-3.655-1.284C157.358,195.324,156.877,194.112,156.877,192.543z
			 M159.765,192.33c0,0.997,0.291,1.711,0.874,2.139c0.583,0.428,1.301,0.642,2.158,0.642c0.832,0,1.622-0.195,2.371-0.589
			c0.75-0.392,1.54-0.968,2.372-1.729v-4.813c-1.45,0.189-2.674,0.416-3.672,0.678c-0.999,0.261-1.801,0.569-2.407,0.928
			c-0.607,0.355-1.041,0.766-1.302,1.229C159.896,191.277,159.765,191.783,159.765,192.33z"/>
		<path fill="#71A742" d="M175.99,179.707h2.425l0.249,2.495h0.107c0.832-0.831,1.706-1.526,2.621-2.086
			c0.915-0.558,1.979-0.838,3.191-0.838c1.831,0,3.168,0.57,4.012,1.712s1.266,2.828,1.266,5.063v10.983h-2.923v-10.59
			c0-1.641-0.262-2.823-0.785-3.548s-1.354-1.087-2.496-1.087c-0.903,0-1.7,0.226-2.389,0.676c-0.689,0.453-1.474,1.118-2.354,1.998
			v12.551h-2.923V179.707z"/>
		<path fill="#71A742" d="M195.994,182.096h-2.567v-2.21l2.71-0.179l0.356-4.85h2.46v4.85h4.67v2.389h-4.67v9.627
			c0,1.069,0.196,1.896,0.588,2.479c0.392,0.583,1.087,0.874,2.086,0.874c0.309,0,0.641-0.047,0.998-0.143
			c0.357-0.095,0.678-0.201,0.963-0.321l0.57,2.211c-0.476,0.166-0.993,0.315-1.551,0.446c-0.559,0.13-1.111,0.196-1.658,0.196
			c-0.927,0-1.706-0.144-2.335-0.429s-1.141-0.678-1.533-1.177c-0.393-0.499-0.672-1.104-0.838-1.818
			c-0.167-0.714-0.25-1.498-0.25-2.354V182.096z"/>
		<path fill="#71A742" d="M215.249,182.096h-2.567v-2.21l2.709-0.179l0.356-4.85h2.46v4.85h4.671v2.389h-4.671v9.627
			c0,1.069,0.197,1.896,0.589,2.479c0.392,0.583,1.087,0.874,2.086,0.874c0.309,0,0.642-0.047,0.999-0.143
			c0.356-0.095,0.677-0.201,0.962-0.321l0.571,2.211c-0.476,0.166-0.993,0.315-1.551,0.446c-0.559,0.13-1.112,0.196-1.658,0.196
			c-0.927,0-1.706-0.144-2.335-0.429c-0.63-0.285-1.141-0.678-1.533-1.177s-0.672-1.104-0.838-1.818s-0.249-1.498-0.249-2.354
			V182.096z"/>
		<path fill="#71A742" d="M225.161,188.407c0-1.449,0.219-2.738,0.66-3.869c0.439-1.129,1.027-2.085,1.765-2.87
			c0.736-0.785,1.587-1.379,2.55-1.782c0.963-0.404,1.979-0.607,3.048-0.607c1.07,0,2.086,0.203,3.049,0.607
			c0.963,0.403,1.812,0.997,2.55,1.782c0.736,0.785,1.325,1.741,1.765,2.87c0.439,1.131,0.659,2.42,0.659,3.869
			c0,1.426-0.22,2.705-0.659,3.833c-0.44,1.129-1.029,2.08-1.765,2.853c-0.738,0.773-1.587,1.36-2.55,1.765
			s-1.979,0.607-3.049,0.607c-1.069,0-2.085-0.203-3.048-0.607s-1.813-0.991-2.55-1.765c-0.737-0.772-1.326-1.724-1.765-2.853
			C225.38,191.112,225.161,189.833,225.161,188.407z M228.192,188.407c0,0.999,0.118,1.901,0.356,2.709
			c0.237,0.81,0.576,1.504,1.017,2.088c0.439,0.582,0.968,1.032,1.586,1.354c0.619,0.321,1.296,0.482,2.033,0.482
			s1.415-0.161,2.032-0.482c0.619-0.321,1.147-0.771,1.587-1.354c0.44-0.584,0.779-1.278,1.017-2.088
			c0.237-0.808,0.356-1.71,0.356-2.709s-0.119-1.907-0.356-2.728c-0.238-0.82-0.576-1.528-1.017-2.122
			c-0.44-0.594-0.968-1.051-1.587-1.372c-0.618-0.321-1.295-0.482-2.032-0.482s-1.414,0.161-2.033,0.482
			c-0.618,0.321-1.146,0.778-1.586,1.372c-0.44,0.594-0.779,1.302-1.017,2.122C228.31,186.5,228.192,187.408,228.192,188.407z"/>
		<path fill="#71A742" d="M252.974,179.707h2.425l0.25,2.495h0.107c0.761-0.831,1.586-1.526,2.478-2.086
			c0.892-0.558,1.86-0.838,2.907-0.838c1.33,0,2.371,0.291,3.12,0.874c0.748,0.582,1.301,1.396,1.658,2.442
			c0.903-0.998,1.813-1.801,2.728-2.406c0.915-0.606,1.908-0.91,2.978-0.91c1.783,0,3.108,0.57,3.976,1.712
			c0.867,1.142,1.301,2.828,1.301,5.063v10.983h-2.923v-10.59c0-1.641-0.262-2.823-0.784-3.548
			c-0.523-0.725-1.332-1.087-2.425-1.087c-1.308,0-2.758,0.891-4.35,2.674v12.551h-2.924v-10.59c0-1.641-0.262-2.823-0.785-3.548
			s-1.343-1.087-2.46-1.087c-1.308,0-2.758,0.891-4.351,2.674v12.551h-2.924V179.707z"/>
		<path fill="#71A742" d="M281.678,192.543c0-1.901,0.849-3.356,2.549-4.367c1.699-1.011,4.403-1.717,8.112-2.123
			c0-0.547-0.054-1.079-0.16-1.603c-0.107-0.522-0.298-0.987-0.57-1.392c-0.274-0.403-0.637-0.731-1.088-0.98
			c-0.452-0.25-1.034-0.375-1.748-0.375c-1.022,0-1.967,0.191-2.834,0.57c-0.869,0.382-1.647,0.808-2.336,1.284l-1.177-2.032
			c0.808-0.522,1.795-1.028,2.959-1.516c1.165-0.486,2.449-0.731,3.852-0.731c2.116,0,3.649,0.648,4.6,1.944
			c0.95,1.295,1.426,3.025,1.426,5.188v10.626h-2.424l-0.25-2.068h-0.071c-0.833,0.689-1.73,1.278-2.692,1.766
			c-0.963,0.486-1.979,0.731-3.049,0.731c-1.474,0-2.692-0.429-3.655-1.284C282.159,195.324,281.678,194.112,281.678,192.543z
			 M284.566,192.33c0,0.997,0.291,1.711,0.874,2.139c0.583,0.428,1.301,0.642,2.158,0.642c0.832,0,1.622-0.195,2.371-0.589
			c0.75-0.392,1.54-0.968,2.372-1.729v-4.813c-1.45,0.189-2.674,0.416-3.672,0.678c-0.999,0.261-1.801,0.569-2.407,0.928
			c-0.607,0.355-1.041,0.766-1.302,1.229C284.696,191.277,284.566,191.783,284.566,192.33z"/>
		<path fill="#71A742" d="M303.714,198.499v5.848h-2.923v-24.64h2.424l0.25,1.996h0.107c0.785-0.665,1.646-1.235,2.585-1.711
			c0.938-0.477,1.919-0.714,2.942-0.714c1.116,0,2.104,0.209,2.959,0.624c0.856,0.417,1.569,1.012,2.14,1.783
			c0.57,0.773,1.003,1.7,1.301,2.781c0.297,1.082,0.446,2.301,0.446,3.655c0,1.475-0.203,2.787-0.606,3.94
			c-0.404,1.152-0.951,2.134-1.641,2.941c-0.689,0.809-1.486,1.42-2.389,1.836c-0.903,0.415-1.854,0.625-2.853,0.625
			c-0.809,0-1.611-0.179-2.407-0.535c-0.796-0.357-1.599-0.844-2.407-1.463L303.714,198.499z M303.714,193.186
			c0.785,0.665,1.545,1.135,2.282,1.409c0.736,0.272,1.39,0.409,1.961,0.409c0.713,0,1.373-0.16,1.979-0.482
			c0.606-0.32,1.129-0.771,1.569-1.354c0.439-0.582,0.784-1.301,1.034-2.157c0.25-0.855,0.374-1.817,0.374-2.888
			c0-0.95-0.083-1.819-0.249-2.604c-0.167-0.782-0.435-1.454-0.803-2.013c-0.369-0.56-0.844-0.993-1.426-1.303
			c-0.583-0.308-1.279-0.464-2.086-0.464c-0.737,0-1.479,0.202-2.229,0.607c-0.748,0.404-1.55,0.985-2.407,1.747V193.186z"/>
		<path fill="#71A742" d="M326.499,188.407c0-1.426,0.22-2.704,0.66-3.834c0.439-1.128,1.022-2.086,1.747-2.87
			s1.551-1.384,2.479-1.801c0.927-0.415,1.89-0.624,2.888-0.624c1.094,0,2.074,0.191,2.942,0.57
			c0.867,0.382,1.592,0.928,2.175,1.642c0.582,0.712,1.028,1.568,1.337,2.566c0.309,0.999,0.463,2.116,0.463,3.352
			c0,0.643-0.036,1.177-0.107,1.604h-11.695c0.118,1.878,0.695,3.364,1.729,4.458c1.034,1.093,2.383,1.64,4.047,1.64
			c0.832,0,1.599-0.124,2.3-0.374c0.702-0.249,1.373-0.576,2.014-0.98l1.035,1.926c-0.761,0.476-1.605,0.891-2.532,1.248
			c-0.928,0.356-1.985,0.535-3.173,0.535c-1.166,0-2.253-0.21-3.263-0.625c-1.01-0.416-1.889-1.01-2.639-1.783
			c-0.749-0.771-1.337-1.716-1.765-2.834S326.499,189.833,326.499,188.407z M338.623,187.087c0-1.782-0.375-3.143-1.124-4.081
			c-0.749-0.939-1.801-1.409-3.156-1.409c-0.618,0-1.207,0.125-1.765,0.375c-0.559,0.249-1.064,0.605-1.516,1.068
			c-0.452,0.465-0.826,1.035-1.123,1.712c-0.298,0.679-0.494,1.457-0.589,2.335H338.623z"/>
		<path fill="#71A742" d="M343.15,179.707h3.031l3.28,9.841c0.261,0.856,0.529,1.712,0.802,2.568
			c0.273,0.855,0.541,1.699,0.802,2.531h0.143c0.261-0.832,0.522-1.676,0.783-2.531c0.263-0.856,0.524-1.712,0.785-2.568
			l3.281-9.841h2.889l-6.133,17.329h-3.424L343.15,179.707z"/>
		<path fill="#71A742" d="M360.872,188.407c0-1.426,0.22-2.704,0.66-3.834c0.439-1.128,1.022-2.086,1.747-2.87
			s1.552-1.384,2.479-1.801c0.927-0.415,1.89-0.624,2.888-0.624c1.093,0,2.073,0.191,2.942,0.57
			c0.868,0.382,1.592,0.928,2.175,1.642c0.583,0.712,1.028,1.568,1.337,2.566c0.309,0.999,0.464,2.116,0.464,3.352
			c0,0.643-0.035,1.177-0.107,1.604h-11.695c0.118,1.878,0.695,3.364,1.729,4.458c1.035,1.093,2.384,1.64,4.047,1.64
			c0.831,0,1.599-0.124,2.302-0.374c0.7-0.249,1.372-0.576,2.013-0.98l1.035,1.926c-0.762,0.476-1.604,0.891-2.531,1.248
			c-0.928,0.356-1.987,0.535-3.174,0.535c-1.165,0-2.253-0.21-3.262-0.625c-1.011-0.416-1.89-1.01-2.64-1.783
			c-0.749-0.771-1.336-1.716-1.764-2.834S360.872,189.833,360.872,188.407z M372.996,187.087c0-1.782-0.374-3.143-1.123-4.081
			c-0.749-0.939-1.801-1.409-3.156-1.409c-0.618,0-1.207,0.125-1.766,0.375c-0.558,0.249-1.063,0.605-1.515,1.068
			c-0.452,0.465-0.827,1.035-1.124,1.712c-0.297,0.679-0.493,1.457-0.589,2.335H372.996z"/>
		<path fill="#71A742" d="M379.842,179.707h2.424l0.25,3.137h0.107c0.596-1.092,1.314-1.961,2.156-2.602
			c0.846-0.642,1.768-0.964,2.766-0.964c0.689,0,1.307,0.12,1.854,0.357l-0.568,2.566c-0.287-0.094-0.549-0.165-0.785-0.214
			c-0.24-0.048-0.537-0.07-0.893-0.07c-0.738,0-1.504,0.297-2.301,0.891c-0.797,0.596-1.492,1.63-2.086,3.103v11.125h-2.924V179.707
			z"/>
		<path fill="#71A742" d="M392.357,201.976c0.236,0.059,0.463,0.089,0.678,0.089c0.998,0,1.813-0.352,2.443-1.053
			c0.629-0.701,1.123-1.587,1.477-2.656l0.393-1.283l-6.953-17.365h3.033l3.527,9.591c0.264,0.761,0.541,1.564,0.84,2.407
			c0.297,0.845,0.578,1.671,0.838,2.479h0.143c0.26-0.783,0.512-1.604,0.748-2.461c0.24-0.855,0.477-1.664,0.715-2.425l3.102-9.591
			h2.854l-6.525,18.755c-0.309,0.856-0.654,1.653-1.035,2.39c-0.381,0.737-0.832,1.373-1.354,1.908
			c-0.525,0.534-1.119,0.957-1.783,1.266c-0.666,0.309-1.439,0.463-2.318,0.463c-0.404,0-0.773-0.029-1.107-0.088
			c-0.33-0.061-0.639-0.148-0.926-0.269l0.572-2.317C391.904,201.861,392.121,201.915,392.357,201.976z"/>
		<path fill="#71A742" d="M416.211,201.976c0.238,0.059,0.465,0.089,0.678,0.089c0.998,0,1.813-0.352,2.441-1.053
			c0.631-0.701,1.125-1.587,1.482-2.656l0.391-1.283l-6.951-17.365h3.029l3.531,9.591c0.26,0.761,0.539,1.564,0.838,2.407
			c0.297,0.845,0.574,1.671,0.838,2.479h0.141c0.264-0.783,0.51-1.604,0.75-2.461c0.236-0.855,0.477-1.664,0.713-2.425l3.102-9.591
			h2.854l-6.525,18.755c-0.309,0.856-0.652,1.653-1.033,2.39c-0.381,0.737-0.834,1.373-1.357,1.908
			c-0.521,0.534-1.115,0.957-1.783,1.266c-0.664,0.309-1.438,0.463-2.316,0.463c-0.404,0-0.771-0.029-1.104-0.088
			c-0.334-0.061-0.645-0.148-0.93-0.269l0.57-2.317C415.76,201.861,415.973,201.915,416.211,201.976z"/>
		<path fill="#71A742" d="M431.973,188.407c0-1.449,0.219-2.738,0.66-3.869c0.439-1.129,1.029-2.085,1.764-2.87
			c0.736-0.785,1.588-1.379,2.549-1.782c0.965-0.404,1.98-0.607,3.051-0.607c1.068,0,2.084,0.203,3.049,0.607
			c0.963,0.403,1.813,0.997,2.549,1.782c0.734,0.785,1.324,1.741,1.766,2.87c0.439,1.131,0.66,2.42,0.66,3.869
			c0,1.426-0.221,2.705-0.66,3.833c-0.441,1.129-1.031,2.08-1.766,2.853c-0.736,0.773-1.586,1.36-2.549,1.765
			c-0.965,0.404-1.98,0.607-3.049,0.607c-1.07,0-2.086-0.203-3.051-0.607c-0.961-0.404-1.813-0.991-2.549-1.765
			c-0.734-0.772-1.324-1.724-1.764-2.853C432.191,191.112,431.973,189.833,431.973,188.407z M435.002,188.407
			c0,0.999,0.119,1.901,0.357,2.709c0.238,0.81,0.576,1.504,1.018,2.088c0.439,0.582,0.967,1.032,1.586,1.354
			c0.617,0.321,1.295,0.482,2.033,0.482c0.736,0,1.414-0.161,2.031-0.482s1.146-0.771,1.588-1.354
			c0.439-0.584,0.777-1.278,1.014-2.088c0.24-0.808,0.359-1.71,0.359-2.709s-0.119-1.907-0.359-2.728
			c-0.236-0.82-0.574-1.528-1.014-2.122c-0.441-0.594-0.971-1.051-1.588-1.372s-1.295-0.482-2.031-0.482
			c-0.738,0-1.416,0.161-2.033,0.482c-0.619,0.321-1.146,0.778-1.586,1.372c-0.441,0.594-0.779,1.302-1.018,2.122
			S435.002,187.408,435.002,188.407z"/>
		<path fill="#71A742" d="M451.262,200.352c0-0.736,0.229-1.438,0.678-2.104c0.453-0.665,1.07-1.271,1.855-1.817v-0.144
			c-0.428-0.261-0.791-0.623-1.088-1.087c-0.299-0.464-0.447-1.04-0.447-1.729c0-0.737,0.203-1.379,0.609-1.926
			c0.402-0.547,0.83-0.975,1.281-1.284v-0.143c-0.57-0.475-1.086-1.11-1.551-1.907c-0.461-0.796-0.695-1.718-0.695-2.764
			c0-0.95,0.172-1.806,0.52-2.567c0.342-0.76,0.811-1.408,1.406-1.943c0.594-0.535,1.291-0.944,2.088-1.229
			c0.795-0.286,1.633-0.429,2.512-0.429c0.475,0,0.92,0.042,1.338,0.125c0.416,0.084,0.789,0.186,1.125,0.304h6.023v2.245h-3.566
			c0.404,0.405,0.744,0.917,1.018,1.534c0.273,0.618,0.41,1.296,0.41,2.031c0,0.929-0.168,1.767-0.498,2.515
			c-0.334,0.749-0.785,1.379-1.357,1.89c-0.57,0.512-1.24,0.91-2.014,1.194c-0.773,0.285-1.6,0.429-2.479,0.429
			c-0.428,0-0.867-0.054-1.32-0.16c-0.449-0.107-0.879-0.256-1.283-0.445c-0.309,0.261-0.568,0.552-0.785,0.873
			c-0.213,0.32-0.32,0.719-0.32,1.194c0,0.547,0.213,0.999,0.643,1.354c0.428,0.357,1.234,0.535,2.424,0.535h3.352
			c2.021,0,3.537,0.328,4.547,0.98c1.012,0.654,1.516,1.706,1.516,3.156c0,0.807-0.201,1.575-0.605,2.301
			c-0.404,0.724-0.986,1.359-1.748,1.906c-0.76,0.547-1.682,0.98-2.764,1.303c-1.082,0.32-2.301,0.48-3.654,0.48
			c-1.07,0-2.043-0.101-2.924-0.304c-0.881-0.202-1.635-0.504-2.264-0.908c-0.631-0.405-1.119-0.892-1.463-1.462
			C451.434,201.779,451.262,201.112,451.262,200.352z M453.83,199.96c0,0.927,0.445,1.663,1.338,2.211
			c0.891,0.547,2.121,0.819,3.689,0.819c0.832,0,1.588-0.101,2.264-0.302c0.678-0.202,1.254-0.464,1.73-0.785
			c0.477-0.32,0.844-0.695,1.105-1.123c0.262-0.429,0.391-0.867,0.391-1.319c0-0.809-0.297-1.367-0.891-1.676
			s-1.461-0.464-2.604-0.464h-2.994c-0.334,0-0.695-0.018-1.088-0.053c-0.393-0.036-0.779-0.113-1.158-0.232
			c-0.617,0.452-1.07,0.928-1.354,1.426C453.975,198.962,453.83,199.461,453.83,199.96z M458.43,189.585
			c0.5,0,0.969-0.096,1.408-0.287c0.441-0.189,0.832-0.463,1.176-0.82c0.348-0.355,0.613-0.789,0.805-1.301
			c0.189-0.511,0.285-1.087,0.285-1.729c0-1.284-0.357-2.276-1.07-2.977c-0.713-0.701-1.582-1.053-2.604-1.053
			s-1.889,0.352-2.604,1.053c-0.713,0.7-1.068,1.692-1.068,2.977c0,0.643,0.094,1.219,0.283,1.729
			c0.189,0.512,0.461,0.945,0.803,1.301c0.344,0.357,0.736,0.631,1.178,0.82C457.461,189.489,457.932,189.585,458.43,189.585z"/>
		<path fill="#71A742" d="M472.051,176.141c-0.57,0-1.053-0.179-1.443-0.535c-0.393-0.356-0.59-0.808-0.59-1.354
			c0-0.571,0.197-1.029,0.59-1.374c0.391-0.343,0.873-0.517,1.443-0.517s1.051,0.174,1.445,0.517
			c0.391,0.345,0.588,0.803,0.588,1.374c0,0.546-0.197,0.997-0.588,1.354C473.102,175.962,472.621,176.141,472.051,176.141z
			 M470.553,179.707h2.924v17.329h-2.924V179.707z"/>
		<path fill="#71A742" d="M485.244,188.407c0-1.449,0.221-2.738,0.66-3.869c0.439-1.129,1.027-2.085,1.766-2.87
			c0.734-0.785,1.586-1.379,2.549-1.782c0.963-0.404,1.977-0.607,3.047-0.607s2.088,0.203,3.049,0.607
			c0.965,0.403,1.813,0.997,2.551,1.782c0.736,0.785,1.324,1.741,1.766,2.87c0.439,1.131,0.658,2.42,0.658,3.869
			c0,1.426-0.219,2.705-0.658,3.833c-0.441,1.129-1.029,2.08-1.766,2.853c-0.738,0.773-1.586,1.36-2.551,1.765
			c-0.961,0.404-1.979,0.607-3.049,0.607s-2.084-0.203-3.047-0.607s-1.814-0.991-2.549-1.765c-0.738-0.772-1.326-1.724-1.766-2.853
			C485.465,191.112,485.244,189.833,485.244,188.407z M488.275,188.407c0,0.999,0.117,1.901,0.355,2.709
			c0.238,0.81,0.578,1.504,1.018,2.088c0.439,0.582,0.967,1.032,1.588,1.354c0.617,0.321,1.295,0.482,2.029,0.482
			c0.736,0,1.416-0.161,2.035-0.482c0.617-0.321,1.146-0.771,1.584-1.354c0.441-0.584,0.781-1.278,1.018-2.088
			c0.236-0.808,0.357-1.71,0.357-2.709s-0.121-1.907-0.357-2.728s-0.576-1.528-1.018-2.122c-0.438-0.594-0.967-1.051-1.584-1.372
			c-0.619-0.321-1.299-0.482-2.035-0.482c-0.734,0-1.412,0.161-2.029,0.482c-0.621,0.321-1.148,0.778-1.588,1.372
			s-0.779,1.302-1.018,2.122S488.275,187.408,488.275,188.407z"/>
		<path fill="#71A742" d="M505.854,179.707h2.426l0.248,2.495h0.107c0.834-0.831,1.707-1.526,2.621-2.086
			c0.914-0.558,1.98-0.838,3.191-0.838c1.83,0,3.166,0.57,4.012,1.712c0.842,1.142,1.266,2.828,1.266,5.063v10.983h-2.922v-10.59
			c0-1.641-0.264-2.823-0.785-3.548c-0.525-0.725-1.355-1.087-2.496-1.087c-0.906,0-1.701,0.226-2.391,0.676
			c-0.689,0.453-1.475,1.118-2.352,1.998v12.551h-2.926V179.707z"/>
		<path fill="#71A742" d="M533.061,182.096h-2.566v-2.21l2.709-0.179l0.357-4.85h2.461v4.85h4.67v2.389h-4.67v9.627
			c0,1.069,0.195,1.896,0.588,2.479c0.391,0.583,1.086,0.874,2.086,0.874c0.309,0,0.641-0.047,0.998-0.143
			c0.355-0.095,0.676-0.201,0.961-0.321l0.572,2.211c-0.477,0.166-0.994,0.315-1.551,0.446c-0.561,0.13-1.113,0.196-1.658,0.196
			c-0.928,0-1.707-0.144-2.336-0.429c-0.631-0.285-1.141-0.678-1.535-1.177c-0.391-0.499-0.67-1.104-0.836-1.818
			c-0.168-0.714-0.25-1.498-0.25-2.354V182.096z"/>
		<path fill="#71A742" d="M544.613,171.647h2.926v6.918l-0.107,3.566c0.83-0.785,1.699-1.456,2.602-2.016
			c0.902-0.558,1.961-0.838,3.174-0.838c1.828,0,3.166,0.57,4.012,1.712c0.842,1.142,1.266,2.828,1.266,5.063v10.983h-2.924v-10.59
			c0-1.641-0.262-2.823-0.785-3.548s-1.355-1.087-2.494-1.087c-0.906,0-1.701,0.226-2.393,0.676
			c-0.688,0.453-1.473,1.118-2.35,1.998v12.551h-2.926V171.647z"/>
		<path fill="#71A742" d="M562.727,188.407c0-1.426,0.219-2.704,0.66-3.834c0.438-1.128,1.021-2.086,1.748-2.87
			c0.725-0.784,1.551-1.384,2.477-1.801c0.928-0.415,1.891-0.624,2.889-0.624c1.094,0,2.074,0.191,2.943,0.57
			c0.865,0.382,1.592,0.928,2.174,1.642c0.582,0.712,1.027,1.568,1.338,2.566c0.309,0.999,0.463,2.116,0.463,3.352
			c0,0.643-0.035,1.177-0.107,1.604h-11.695c0.119,1.878,0.697,3.364,1.729,4.458c1.033,1.093,2.385,1.64,4.047,1.64
			c0.834,0,1.6-0.124,2.301-0.374c0.701-0.249,1.371-0.576,2.016-0.98l1.033,1.926c-0.76,0.476-1.605,0.891-2.531,1.248
			c-0.928,0.356-1.984,0.535-3.174,0.535c-1.166,0-2.254-0.21-3.264-0.625c-1.01-0.416-1.889-1.01-2.637-1.783
			c-0.75-0.771-1.338-1.716-1.768-2.834C562.941,191.104,562.727,189.833,562.727,188.407z M574.85,187.087
			c0-1.782-0.373-3.143-1.123-4.081c-0.748-0.939-1.799-1.409-3.154-1.409c-0.617,0-1.207,0.125-1.766,0.375
			c-0.559,0.249-1.064,0.605-1.516,1.068c-0.453,0.465-0.826,1.035-1.123,1.712c-0.297,0.679-0.492,1.457-0.588,2.335H574.85z"/>
		<path fill="#71A742" d="M591.822,198.499v5.848H588.9v-24.64h2.424l0.25,1.996h0.105c0.785-0.665,1.646-1.235,2.586-1.711
			c0.939-0.477,1.918-0.714,2.943-0.714c1.115,0,2.102,0.209,2.959,0.624c0.855,0.417,1.566,1.012,2.137,1.783
			c0.572,0.773,1.006,1.7,1.305,2.781c0.297,1.082,0.445,2.301,0.445,3.655c0,1.475-0.203,2.787-0.605,3.94
			c-0.406,1.152-0.953,2.134-1.643,2.941c-0.689,0.809-1.486,1.42-2.389,1.836c-0.904,0.415-1.855,0.625-2.854,0.625
			c-0.807,0-1.609-0.179-2.406-0.535c-0.797-0.357-1.598-0.844-2.406-1.463L591.822,198.499z M591.822,193.186
			c0.783,0.665,1.545,1.135,2.281,1.409c0.738,0.272,1.391,0.409,1.963,0.409c0.713,0,1.373-0.16,1.979-0.482
			c0.607-0.32,1.129-0.771,1.57-1.354c0.439-0.582,0.783-1.301,1.033-2.157c0.25-0.855,0.375-1.817,0.375-2.888
			c0-0.95-0.086-1.819-0.25-2.604c-0.168-0.782-0.434-1.454-0.803-2.013c-0.369-0.56-0.844-0.993-1.426-1.303
			c-0.582-0.308-1.279-0.464-2.086-0.464c-0.736,0-1.479,0.202-2.229,0.607c-0.748,0.404-1.551,0.985-2.408,1.747V193.186z"/>
		<path fill="#71A742" d="M608.689,171.647h2.924v22.108c0,0.477,0.082,0.808,0.25,0.999c0.164,0.189,0.355,0.285,0.568,0.285
			c0.096,0,0.186,0,0.27,0c0.082,0,0.207-0.023,0.373-0.072l0.393,2.212c-0.189,0.094-0.416,0.165-0.678,0.213
			s-0.594,0.072-0.998,0.072c-1.117,0-1.912-0.333-2.389-1c-0.477-0.664-0.713-1.64-0.713-2.924V171.647z"/>
		<path fill="#71A742" d="M616.928,192.543c0-1.901,0.848-3.356,2.549-4.367c1.699-1.011,4.402-1.717,8.109-2.123
			c0-0.547-0.053-1.079-0.16-1.603c-0.105-0.522-0.297-0.987-0.57-1.392c-0.273-0.403-0.637-0.731-1.088-0.98
			c-0.451-0.25-1.035-0.375-1.746-0.375c-1.021,0-1.967,0.191-2.836,0.57c-0.867,0.382-1.645,0.808-2.334,1.284l-1.178-2.032
			c0.809-0.522,1.795-1.028,2.959-1.516c1.166-0.486,2.449-0.731,3.854-0.731c2.113,0,3.648,0.648,4.598,1.944
			c0.951,1.295,1.428,3.025,1.428,5.188v10.626h-2.426l-0.248-2.068h-0.072c-0.834,0.689-1.73,1.278-2.693,1.766
			c-0.961,0.486-1.977,0.731-3.049,0.731c-1.473,0-2.691-0.429-3.654-1.284C617.406,195.324,616.928,194.112,616.928,192.543z
			 M619.814,192.33c0,0.997,0.291,1.711,0.873,2.139s1.301,0.642,2.156,0.642c0.834,0,1.623-0.195,2.373-0.589
			c0.748-0.392,1.539-0.968,2.369-1.729v-4.813c-1.449,0.189-2.674,0.416-3.672,0.678c-0.998,0.261-1.801,0.569-2.408,0.928
			c-0.605,0.355-1.039,0.766-1.299,1.229C619.945,191.277,619.814,191.783,619.814,192.33z"/>
		<path fill="#71A742" d="M636.037,179.707h2.426l0.248,2.495h0.107c0.834-0.831,1.705-1.526,2.621-2.086
			c0.916-0.558,1.98-0.838,3.191-0.838c1.832,0,3.17,0.57,4.012,1.712c0.846,1.142,1.266,2.828,1.266,5.063v10.983h-2.924v-10.59
			c0-1.641-0.262-2.823-0.785-3.548c-0.521-0.725-1.355-1.087-2.494-1.087c-0.904,0-1.699,0.226-2.389,0.676
			c-0.691,0.453-1.475,1.118-2.355,1.998v12.551h-2.924V179.707z"/>
		<path fill="#71A742" d="M654.258,188.407c0-1.426,0.221-2.704,0.662-3.834c0.439-1.128,1.021-2.086,1.744-2.87
			c0.725-0.784,1.553-1.384,2.48-1.801c0.926-0.415,1.889-0.624,2.889-0.624c1.094,0,2.072,0.191,2.941,0.57
			c0.867,0.382,1.592,0.928,2.174,1.642c0.582,0.712,1.029,1.568,1.338,2.566c0.309,0.999,0.463,2.116,0.463,3.352
			c0,0.643-0.035,1.177-0.105,1.604h-11.695c0.117,1.878,0.693,3.364,1.73,4.458c1.031,1.093,2.381,1.64,4.045,1.64
			c0.832,0,1.598-0.124,2.301-0.374c0.699-0.249,1.373-0.576,2.012-0.98l1.037,1.926c-0.762,0.476-1.605,0.891-2.533,1.248
			c-0.926,0.356-1.984,0.535-3.174,0.535c-1.166,0-2.252-0.21-3.262-0.625c-1.01-0.416-1.891-1.01-2.641-1.783
			c-0.746-0.771-1.336-1.716-1.764-2.834C654.475,191.104,654.258,189.833,654.258,188.407z M666.383,187.087
			c0-1.782-0.375-3.143-1.123-4.081c-0.75-0.939-1.803-1.409-3.156-1.409c-0.619,0-1.207,0.125-1.766,0.375
			c-0.557,0.249-1.063,0.605-1.514,1.068c-0.453,0.465-0.826,1.035-1.123,1.712c-0.299,0.679-0.494,1.457-0.59,2.335H666.383z"/>
		<path fill="#71A742" d="M673.229,182.096h-2.566v-2.21l2.709-0.179l0.357-4.85h2.461v4.85h4.67v2.389h-4.67v9.627
			c0,1.069,0.193,1.896,0.586,2.479c0.393,0.583,1.09,0.874,2.088,0.874c0.309,0,0.641-0.047,0.998-0.143
			c0.355-0.095,0.678-0.201,0.961-0.321l0.57,2.211c-0.475,0.166-0.99,0.315-1.551,0.446c-0.559,0.13-1.111,0.196-1.656,0.196
			c-0.93,0-1.707-0.144-2.336-0.429c-0.631-0.285-1.143-0.678-1.533-1.177c-0.395-0.499-0.672-1.104-0.84-1.818
			c-0.164-0.714-0.248-1.498-0.248-2.354V182.096z"/>
	</g>
	<g>
		<path fill="#71A742" d="M92.267,233.761H85.17v-2.495h17.151v2.495h-7.096v20.895h-2.959V233.761z"/>
		<path fill="#71A742" d="M102.5,246.027c0-1.45,0.218-2.739,0.659-3.868c0.439-1.13,1.028-2.087,1.765-2.87
			c0.737-0.785,1.588-1.381,2.55-1.784c0.962-0.404,1.979-0.606,3.049-0.606c1.069,0,2.085,0.202,3.048,0.606
			c0.963,0.403,1.813,0.999,2.549,1.784c0.737,0.783,1.326,1.74,1.767,2.87c0.438,1.129,0.659,2.418,0.659,3.868
			c0,1.427-0.221,2.704-0.659,3.832c-0.441,1.13-1.03,2.081-1.767,2.854c-0.736,0.773-1.586,1.36-2.549,1.765
			c-0.963,0.403-1.979,0.606-3.048,0.606c-1.07,0-2.086-0.203-3.049-0.606c-0.962-0.404-1.813-0.991-2.55-1.765
			c-0.736-0.772-1.326-1.724-1.765-2.854C102.718,248.731,102.5,247.454,102.5,246.027z M105.53,246.027
			c0,0.998,0.119,1.901,0.356,2.709c0.237,0.81,0.576,1.505,1.017,2.087c0.439,0.583,0.968,1.034,1.585,1.354
			c0.619,0.32,1.295,0.481,2.033,0.481c0.736,0,1.414-0.161,2.032-0.481c0.619-0.32,1.147-0.771,1.588-1.354
			c0.438-0.582,0.778-1.277,1.016-2.087c0.238-0.808,0.356-1.711,0.356-2.709s-0.118-1.908-0.356-2.728
			c-0.238-0.82-0.577-1.527-1.016-2.121c-0.441-0.596-0.969-1.053-1.588-1.374c-0.618-0.32-1.295-0.481-2.032-0.481
			c-0.738,0-1.415,0.161-2.033,0.481c-0.617,0.321-1.146,0.778-1.585,1.374c-0.441,0.594-0.78,1.301-1.017,2.121
			C105.649,244.119,105.53,245.029,105.53,246.027z"/>
		<path fill="#71A742" d="M130.812,239.715h-2.566v-2.21l2.709-0.179l0.356-4.85h2.461v4.85h4.67v2.389h-4.67v9.629
			c0,1.069,0.196,1.895,0.588,2.479c0.393,0.582,1.087,0.872,2.086,0.872c0.309,0,0.642-0.046,0.998-0.142
			c0.356-0.096,0.677-0.202,0.962-0.322l0.571,2.213c-0.476,0.165-0.994,0.313-1.551,0.445c-0.559,0.129-1.112,0.195-1.659,0.195
			c-0.928,0-1.705-0.142-2.335-0.429c-0.63-0.285-1.141-0.677-1.533-1.176c-0.392-0.5-0.672-1.105-0.838-1.818
			c-0.167-0.713-0.25-1.498-0.25-2.354V239.715z"/>
		<path fill="#71A742" d="M140.724,246.027c0-1.427,0.22-2.704,0.661-3.834c0.439-1.128,1.022-2.085,1.746-2.87
			c0.725-0.783,1.551-1.384,2.479-1.801c0.926-0.415,1.89-0.624,2.888-0.624c1.093,0,2.073,0.19,2.941,0.571
			c0.868,0.38,1.592,0.927,2.175,1.64c0.583,0.712,1.028,1.569,1.337,2.567c0.309,0.998,0.464,2.116,0.464,3.353
			c0,0.642-0.036,1.176-0.107,1.604h-11.695c0.118,1.878,0.694,3.363,1.729,4.456c1.033,1.094,2.382,1.641,4.046,1.641
			c0.831,0,1.598-0.125,2.301-0.373c0.701-0.25,1.372-0.577,2.014-0.981l1.034,1.925c-0.761,0.477-1.604,0.893-2.532,1.248
			c-0.927,0.356-1.986,0.535-3.173,0.535c-1.166,0-2.253-0.208-3.263-0.624c-1.01-0.415-1.89-1.01-2.64-1.782
			c-0.748-0.772-1.337-1.717-1.765-2.835C140.939,248.725,140.724,247.454,140.724,246.027z M152.848,244.708
			c0-1.783-0.374-3.144-1.124-4.083c-0.749-0.938-1.8-1.409-3.155-1.409c-0.62,0-1.207,0.125-1.765,0.375s-1.064,0.605-1.515,1.069
			c-0.453,0.465-0.826,1.034-1.124,1.712c-0.297,0.678-0.495,1.456-0.59,2.336H152.848z"/>
		<path fill="#71A742" d="M159.694,229.268h2.924v22.108c0,0.476,0.083,0.808,0.25,0.998c0.166,0.19,0.357,0.285,0.571,0.285
			c0.094,0,0.183,0,0.267,0s0.208-0.022,0.374-0.071l0.392,2.211c-0.19,0.094-0.416,0.167-0.677,0.214
			c-0.262,0.048-0.595,0.071-0.999,0.071c-1.117,0-1.913-0.332-2.389-0.999c-0.476-0.665-0.712-1.641-0.712-2.924V229.268z"/>
		<path fill="#71A742" d="M168.786,229.268h2.924v22.108c0,0.476,0.083,0.808,0.25,0.998c0.166,0.19,0.356,0.285,0.57,0.285
			c0.095,0,0.185,0,0.268,0c0.082,0,0.208-0.022,0.375-0.071l0.393,2.211c-0.191,0.094-0.417,0.167-0.679,0.214
			c-0.262,0.048-0.594,0.071-0.998,0.071c-1.117,0-1.914-0.332-2.389-0.999c-0.476-0.665-0.714-1.641-0.714-2.924V229.268z"/>
		<path fill="#71A742" d="M185.581,239.715h-2.568v-2.21l2.71-0.179l0.356-4.85h2.461v4.85h4.67v2.389h-4.67v9.629
			c0,1.069,0.196,1.895,0.588,2.479c0.391,0.582,1.087,0.872,2.085,0.872c0.309,0,0.642-0.046,0.999-0.142
			c0.356-0.096,0.678-0.202,0.963-0.322l0.57,2.213c-0.476,0.165-0.992,0.313-1.552,0.445c-0.558,0.129-1.11,0.195-1.657,0.195
			c-0.926,0-1.707-0.142-2.335-0.429c-0.63-0.285-1.141-0.677-1.533-1.176c-0.393-0.5-0.673-1.105-0.839-1.818
			c-0.166-0.713-0.249-1.498-0.249-2.354V239.715z"/>
		<path fill="#71A742" d="M197.133,229.268h2.924v6.918l-0.107,3.565c0.831-0.785,1.7-1.456,2.603-2.015s1.961-0.838,3.173-0.838
			c1.832,0,3.168,0.571,4.011,1.712c0.845,1.141,1.267,2.828,1.267,5.063v10.981h-2.924v-10.59c0-1.64-0.262-2.823-0.785-3.547
			c-0.522-0.726-1.355-1.088-2.496-1.088c-0.903,0-1.7,0.226-2.389,0.678c-0.689,0.451-1.474,1.117-2.354,1.997v12.55h-2.924
			V229.268z"/>
		<path fill="#71A742" d="M215.246,246.027c0-1.427,0.221-2.704,0.661-3.834c0.44-1.128,1.023-2.085,1.747-2.87
			c0.724-0.783,1.551-1.384,2.479-1.801c0.926-0.415,1.89-0.624,2.888-0.624c1.093,0,2.073,0.19,2.941,0.571
			c0.868,0.38,1.593,0.927,2.175,1.64c0.583,0.712,1.028,1.569,1.337,2.567s0.464,2.116,0.464,3.353
			c0,0.642-0.037,1.176-0.106,1.604h-11.698c0.121,1.878,0.696,3.363,1.729,4.456c1.035,1.094,2.384,1.641,4.049,1.641
			c0.831,0,1.597-0.125,2.3-0.373c0.699-0.25,1.372-0.577,2.013-0.981l1.035,1.925c-0.761,0.477-1.604,0.893-2.533,1.248
			c-0.926,0.356-1.984,0.535-3.173,0.535c-1.166,0-2.252-0.208-3.262-0.624c-1.012-0.415-1.89-1.01-2.64-1.782
			c-0.748-0.772-1.337-1.717-1.765-2.835C215.461,248.725,215.246,247.454,215.246,246.027z M227.371,244.708
			c0-1.783-0.376-3.144-1.123-4.083c-0.75-0.938-1.801-1.409-3.155-1.409c-0.62,0-1.207,0.125-1.767,0.375
			c-0.56,0.25-1.063,0.605-1.516,1.069c-0.451,0.465-0.827,1.034-1.122,1.712c-0.299,0.678-0.494,1.456-0.59,2.336H227.371z"/>
		<path fill="#71A742" d="M239.352,237.326h2.996l2.567,10.02c0.189,0.834,0.368,1.642,0.534,2.425
			c0.166,0.784,0.333,1.582,0.499,2.39h0.143c0.19-0.808,0.381-1.61,0.571-2.406c0.19-0.797,0.392-1.6,0.606-2.408l2.674-10.02
			h2.854l2.709,10.02c0.214,0.834,0.422,1.642,0.624,2.425c0.202,0.784,0.398,1.582,0.589,2.39h0.143
			c0.189-0.808,0.368-1.605,0.535-2.39c0.166-0.783,0.343-1.591,0.534-2.425l2.533-10.02h2.781l-4.636,17.329h-3.566l-2.495-9.306
			c-0.215-0.832-0.411-1.651-0.589-2.461c-0.179-0.808-0.375-1.651-0.588-2.532h-0.143c-0.19,0.881-0.381,1.729-0.57,2.551
			c-0.192,0.819-0.405,1.646-0.642,2.478l-2.425,9.271h-3.424L239.352,237.326z"/>
		<path fill="#71A742" d="M265.594,246.027c0-1.45,0.22-2.739,0.659-3.868c0.44-1.13,1.029-2.087,1.766-2.87
			c0.737-0.785,1.587-1.381,2.55-1.784c0.962-0.404,1.979-0.606,3.048-0.606c1.07,0,2.086,0.202,3.05,0.606
			c0.962,0.403,1.812,0.999,2.548,1.784c0.737,0.783,1.326,1.74,1.766,2.87c0.439,1.129,0.659,2.418,0.659,3.868
			c0,1.427-0.219,2.704-0.659,3.832c-0.44,1.13-1.029,2.081-1.766,2.854c-0.737,0.773-1.586,1.36-2.548,1.765
			c-0.964,0.403-1.979,0.606-3.05,0.606c-1.069,0-2.086-0.203-3.048-0.606c-0.963-0.404-1.813-0.991-2.55-1.765
			c-0.737-0.772-1.326-1.724-1.766-2.854C265.814,248.731,265.594,247.454,265.594,246.027z M268.625,246.027
			c0,0.998,0.12,1.901,0.358,2.709c0.236,0.81,0.576,1.505,1.015,2.087c0.44,0.583,0.968,1.034,1.587,1.354
			c0.617,0.32,1.295,0.481,2.032,0.481c0.737,0,1.414-0.161,2.033-0.481c0.617-0.32,1.146-0.771,1.587-1.354
			c0.439-0.582,0.778-1.277,1.016-2.087c0.237-0.808,0.357-1.711,0.357-2.709s-0.12-1.908-0.357-2.728
			c-0.238-0.82-0.577-1.527-1.016-2.121c-0.44-0.596-0.97-1.053-1.587-1.374c-0.619-0.32-1.296-0.481-2.033-0.481
			c-0.737,0-1.415,0.161-2.032,0.481c-0.619,0.321-1.147,0.778-1.587,1.374c-0.439,0.594-0.779,1.301-1.015,2.121
			C268.745,244.119,268.625,245.029,268.625,246.027z"/>
		<path fill="#71A742" d="M286.204,237.326h2.425l0.25,3.138h0.107c0.594-1.092,1.314-1.96,2.158-2.603
			c0.843-0.642,1.765-0.963,2.764-0.963c0.688,0,1.307,0.119,1.854,0.357l-0.571,2.565c-0.285-0.094-0.547-0.165-0.784-0.213
			c-0.238-0.047-0.535-0.071-0.892-0.071c-0.737,0-1.504,0.298-2.3,0.893c-0.796,0.594-1.492,1.628-2.085,3.101v11.125h-2.924
			V237.326z"/>
		<path fill="#71A742" d="M298.578,229.268h2.924v22.108c0,0.476,0.083,0.808,0.25,0.998c0.167,0.19,0.356,0.285,0.571,0.285
			c0.094,0,0.184,0,0.267,0c0.083,0,0.208-0.022,0.375-0.071l0.393,2.211c-0.191,0.094-0.417,0.167-0.678,0.214
			c-0.262,0.048-0.594,0.071-0.998,0.071c-1.117,0-1.914-0.332-2.39-0.999c-0.475-0.665-0.713-1.641-0.713-2.924V229.268z"/>
		<path fill="#71A742" d="M306.422,246.027c0-1.402,0.208-2.669,0.623-3.798c0.417-1.128,0.97-2.086,1.659-2.87
			c0.689-0.785,1.486-1.391,2.389-1.819c0.903-0.428,1.854-0.642,2.853-0.642c0.998,0,1.865,0.178,2.603,0.535
			c0.737,0.356,1.485,0.844,2.247,1.462l-0.143-2.96v-6.668h2.96v25.388h-2.425l-0.25-2.031h-0.108
			c-0.689,0.665-1.479,1.241-2.371,1.729c-0.891,0.486-1.848,0.73-2.87,0.73c-2.188,0-3.929-0.784-5.225-2.354
			C307.07,251.161,306.422,248.928,306.422,246.027z M309.453,245.991c0,2.092,0.416,3.72,1.248,4.885
			c0.832,1.165,2.009,1.748,3.531,1.748c0.808,0,1.568-0.196,2.282-0.589c0.713-0.392,1.425-0.992,2.14-1.801v-9.056
			c-0.737-0.666-1.444-1.136-2.122-1.41c-0.678-0.272-1.373-0.409-2.086-0.409c-0.689,0-1.337,0.16-1.943,0.481
			c-0.607,0.32-1.137,0.772-1.587,1.354c-0.453,0.582-0.809,1.277-1.07,2.085C309.583,244.09,309.453,244.993,309.453,245.991z"/>
		<path fill="#71A742" d="M332.594,237.326h2.996l2.567,10.02c0.19,0.834,0.368,1.642,0.534,2.425c0.166,0.784,0.333,1.582,0.5,2.39
			h0.143c0.19-0.808,0.381-1.61,0.571-2.406c0.191-0.797,0.393-1.6,0.606-2.408l2.674-10.02h2.854l2.709,10.02
			c0.214,0.834,0.422,1.642,0.624,2.425c0.202,0.784,0.398,1.582,0.589,2.39h0.143c0.189-0.808,0.368-1.605,0.535-2.39
			c0.166-0.783,0.343-1.591,0.534-2.425l2.533-10.02h2.781l-4.636,17.329h-3.566l-2.496-9.306c-0.215-0.832-0.411-1.651-0.589-2.461
			c-0.178-0.808-0.374-1.651-0.588-2.532h-0.143c-0.19,0.881-0.381,1.729-0.57,2.551c-0.191,0.819-0.405,1.646-0.642,2.478
			l-2.425,9.271h-3.424L332.594,237.326z"/>
		<path fill="#71A742" d="M358.837,246.027c0-1.427,0.219-2.704,0.66-3.834c0.439-1.128,1.021-2.085,1.748-2.87
			c0.725-0.783,1.55-1.384,2.478-1.801c0.926-0.415,1.89-0.624,2.887-0.624c1.094,0,2.075,0.19,2.942,0.571
			c0.868,0.38,1.592,0.927,2.175,1.64c0.583,0.712,1.028,1.569,1.337,2.567s0.464,2.116,0.464,3.353
			c0,0.642-0.036,1.176-0.106,1.604h-11.697c0.12,1.878,0.695,3.363,1.729,4.456c1.035,1.094,2.384,1.641,4.048,1.641
			c0.832,0,1.598-0.125,2.3-0.373c0.699-0.25,1.372-0.577,2.014-0.981l1.034,1.925c-0.762,0.477-1.604,0.893-2.532,1.248
			c-0.927,0.356-1.984,0.535-3.174,0.535c-1.165,0-2.252-0.208-3.262-0.624c-1.011-0.415-1.89-1.01-2.638-1.782
			c-0.749-0.772-1.337-1.717-1.766-2.835S358.837,247.454,358.837,246.027z M370.961,244.708c0-1.783-0.375-3.144-1.124-4.083
			c-0.749-0.938-1.8-1.409-3.155-1.409c-0.619,0-1.207,0.125-1.765,0.375c-0.56,0.25-1.065,0.605-1.516,1.069
			c-0.452,0.465-0.827,1.034-1.123,1.712c-0.298,0.678-0.495,1.456-0.589,2.336H370.961z"/>
		<path fill="#71A742" d="M376.773,237.932c0.903-0.593,1.575-1.223,2.014-1.89c0.441-0.664,0.658-1.52,0.658-2.566
			c-0.068,0.023-0.164,0.035-0.281,0.035c-0.5,0-0.941-0.153-1.32-0.463c-0.381-0.309-0.572-0.748-0.572-1.319
			c0-0.618,0.179-1.105,0.535-1.462c0.355-0.356,0.809-0.535,1.357-0.535c0.686,0,1.234,0.28,1.639,0.839
			c0.404,0.558,0.605,1.359,0.605,2.405c0,1.427-0.328,2.657-0.979,3.691c-0.656,1.034-1.602,1.907-2.836,2.622L376.773,237.932z"/>
		<path fill="#71A742" d="M386.33,237.326h2.422l0.25,3.138h0.107c0.594-1.092,1.314-1.96,2.156-2.603
			c0.844-0.642,1.766-0.963,2.766-0.963c0.688,0,1.307,0.119,1.852,0.357l-0.57,2.565c-0.283-0.094-0.545-0.165-0.783-0.213
			c-0.238-0.047-0.535-0.071-0.891-0.071c-0.738,0-1.504,0.298-2.301,0.893c-0.797,0.594-1.492,1.628-2.086,3.101v11.125h-2.922
			V237.326z"/>
		<path fill="#71A742" d="M397.061,246.027c0-1.427,0.221-2.704,0.66-3.834c0.439-1.128,1.021-2.085,1.748-2.87
			c0.725-0.783,1.549-1.384,2.479-1.801c0.926-0.415,1.891-0.624,2.889-0.624c1.094,0,2.072,0.19,2.941,0.571
			c0.867,0.38,1.592,0.927,2.174,1.64c0.582,0.712,1.029,1.569,1.338,2.567s0.463,2.116,0.463,3.353
			c0,0.642-0.035,1.176-0.105,1.604h-11.699c0.121,1.878,0.697,3.363,1.73,4.456c1.035,1.094,2.385,1.641,4.049,1.641
			c0.832,0,1.598-0.125,2.301-0.373c0.697-0.25,1.371-0.577,2.014-0.981l1.035,1.925c-0.762,0.477-1.605,0.893-2.533,1.248
			c-0.926,0.356-1.984,0.535-3.174,0.535c-1.166,0-2.252-0.208-3.262-0.624c-1.012-0.415-1.889-1.01-2.639-1.782
			c-0.748-0.772-1.338-1.717-1.766-2.835C397.273,248.725,397.061,247.454,397.061,246.027z M409.186,244.708
			c0-1.783-0.375-3.144-1.123-4.083c-0.75-0.938-1.801-1.409-3.156-1.409c-0.619,0-1.207,0.125-1.766,0.375
			s-1.064,0.605-1.516,1.069c-0.451,0.465-0.826,1.034-1.121,1.712c-0.301,0.678-0.494,1.456-0.59,2.336H409.186z"/>
		<path fill="#71A742" d="M424.41,247.381h-2.854v-2.031h3.104l0.641-5.277h-3.029v-2.067h3.279l0.82-6.525h1.889l-0.818,6.525
			h4.742l0.855-6.525h1.889l-0.854,6.525h2.889v2.067h-3.104l-0.643,5.277h3.033v2.031h-3.281l-0.891,7.274h-1.893l0.857-7.274
			h-4.707l-0.891,7.274h-1.926L424.41,247.381z M431.293,245.35l0.641-5.277h-4.705l-0.645,5.277H431.293z"/>
		<path fill="#71A742" d="M441.133,231.266h7.203c1.281,0,2.459,0.117,3.529,0.355s1.979,0.624,2.729,1.159s1.33,1.243,1.748,2.121
			c0.414,0.881,0.623,1.962,0.623,3.245c0,1.237-0.209,2.306-0.623,3.209c-0.418,0.904-1.006,1.652-1.768,2.248
			c-0.76,0.594-1.668,1.039-2.727,1.336s-2.23,0.445-3.512,0.445h-4.207v9.271h-2.996V231.266z M447.941,242.961
			c2.07,0,3.598-0.387,4.584-1.16c0.986-0.771,1.48-1.991,1.48-3.654c0-1.688-0.506-2.858-1.516-3.512
			c-1.012-0.654-2.525-0.98-4.549-0.98h-3.813v9.307H447.941z"/>
		<path fill="#71A742" d="M459.176,246.027c0-1.45,0.219-2.739,0.66-3.868c0.438-1.13,1.027-2.087,1.764-2.87
			c0.738-0.785,1.588-1.381,2.551-1.784c0.961-0.404,1.979-0.606,3.049-0.606s2.084,0.202,3.047,0.606
			c0.965,0.403,1.814,0.999,2.549,1.784c0.738,0.783,1.326,1.74,1.768,2.87c0.439,1.129,0.658,2.418,0.658,3.868
			c0,1.427-0.219,2.704-0.658,3.832c-0.441,1.13-1.029,2.081-1.768,2.854c-0.734,0.773-1.584,1.36-2.549,1.765
			c-0.963,0.403-1.977,0.606-3.047,0.606s-2.088-0.203-3.049-0.606c-0.963-0.404-1.813-0.991-2.551-1.765
			c-0.736-0.772-1.326-1.724-1.764-2.854C459.395,248.731,459.176,247.454,459.176,246.027z M462.205,246.027
			c0,0.998,0.121,1.901,0.357,2.709c0.236,0.81,0.576,1.505,1.018,2.087c0.438,0.583,0.969,1.034,1.586,1.354
			s1.295,0.481,2.033,0.481c0.736,0,1.414-0.161,2.031-0.481s1.146-0.771,1.588-1.354c0.438-0.582,0.777-1.277,1.018-2.087
			c0.236-0.808,0.354-1.711,0.354-2.709s-0.117-1.908-0.354-2.728c-0.24-0.82-0.58-1.527-1.018-2.121
			c-0.441-0.596-0.971-1.053-1.588-1.374c-0.617-0.32-1.295-0.481-2.031-0.481c-0.738,0-1.416,0.161-2.033,0.481
			c-0.617,0.321-1.148,0.778-1.586,1.374c-0.441,0.594-0.781,1.301-1.018,2.121C462.326,244.119,462.205,245.029,462.205,246.027z"
			/>
		<path fill="#71A742" d="M477.576,237.326h2.994l2.568,10.02c0.189,0.834,0.369,1.642,0.533,2.425
			c0.168,0.784,0.334,1.582,0.498,2.39h0.145c0.191-0.808,0.383-1.61,0.572-2.406c0.189-0.797,0.393-1.6,0.605-2.408l2.674-10.02
			h2.854l2.709,10.02c0.215,0.834,0.422,1.642,0.625,2.425c0.201,0.784,0.396,1.582,0.586,2.39h0.145
			c0.189-0.808,0.367-1.605,0.535-2.39c0.166-0.783,0.342-1.591,0.533-2.425l2.533-10.02h2.781l-4.637,17.329h-3.566l-2.494-9.306
			c-0.215-0.832-0.412-1.651-0.588-2.461c-0.178-0.808-0.377-1.651-0.59-2.532h-0.143c-0.189,0.881-0.379,1.729-0.57,2.551
			c-0.191,0.819-0.404,1.646-0.641,2.478l-2.426,9.271h-3.424L477.576,237.326z"/>
		<path fill="#71A742" d="M503.818,246.027c0-1.427,0.221-2.704,0.658-3.834c0.441-1.128,1.023-2.085,1.748-2.87
			c0.725-0.783,1.551-1.384,2.479-1.801c0.928-0.415,1.891-0.624,2.889-0.624c1.094,0,2.074,0.19,2.941,0.571
			c0.869,0.38,1.592,0.927,2.176,1.64c0.582,0.712,1.029,1.569,1.338,2.567s0.463,2.116,0.463,3.353
			c0,0.642-0.037,1.176-0.107,1.604h-11.697c0.121,1.878,0.697,3.363,1.73,4.456c1.035,1.094,2.383,1.641,4.047,1.641
			c0.832,0,1.6-0.125,2.303-0.373c0.697-0.25,1.371-0.577,2.012-0.981l1.035,1.925c-0.762,0.477-1.604,0.893-2.531,1.248
			c-0.928,0.356-1.986,0.535-3.174,0.535c-1.166,0-2.252-0.208-3.262-0.624c-1.012-0.415-1.891-1.01-2.641-1.782
			c-0.746-0.772-1.336-1.717-1.764-2.835C504.031,248.725,503.818,247.454,503.818,246.027z M515.943,244.708
			c0-1.783-0.377-3.144-1.123-4.083c-0.75-0.938-1.803-1.409-3.156-1.409c-0.619,0-1.207,0.125-1.768,0.375
			c-0.559,0.25-1.063,0.605-1.516,1.069c-0.449,0.465-0.826,1.034-1.119,1.712c-0.301,0.678-0.496,1.456-0.59,2.336H515.943z"/>
		<path fill="#71A742" d="M522.789,237.326h2.424l0.25,3.138h0.107c0.594-1.092,1.313-1.96,2.156-2.603
			c0.842-0.642,1.764-0.963,2.764-0.963c0.689,0,1.309,0.119,1.854,0.357l-0.57,2.565c-0.283-0.094-0.547-0.165-0.783-0.213
			c-0.238-0.047-0.535-0.071-0.891-0.071c-0.738,0-1.504,0.298-2.301,0.893c-0.797,0.594-1.492,1.628-2.088,3.101v11.125h-2.922
			V237.326z"/>
		<path fill="#71A742" d="M533.521,246.027c0-1.427,0.217-2.704,0.658-3.834c0.439-1.128,1.021-2.085,1.748-2.87
			c0.725-0.783,1.551-1.384,2.477-1.801c0.928-0.415,1.891-0.624,2.889-0.624c1.094,0,2.074,0.19,2.941,0.571
			c0.869,0.38,1.592,0.927,2.176,1.64c0.582,0.712,1.027,1.569,1.336,2.567s0.465,2.116,0.465,3.353
			c0,0.642-0.035,1.176-0.107,1.604h-11.695c0.119,1.878,0.695,3.363,1.73,4.456c1.033,1.094,2.381,1.641,4.045,1.641
			c0.834,0,1.602-0.125,2.301-0.373c0.701-0.25,1.373-0.577,2.016-0.981l1.033,1.925c-0.762,0.477-1.604,0.893-2.529,1.248
			c-0.93,0.356-1.986,0.535-3.174,0.535c-1.166,0-2.256-0.208-3.266-0.624c-1.008-0.415-1.889-1.01-2.637-1.782
			c-0.75-0.772-1.338-1.717-1.766-2.835S533.521,247.454,533.521,246.027z M545.643,244.708c0-1.783-0.373-3.144-1.121-4.083
			c-0.748-0.938-1.801-1.409-3.156-1.409c-0.617,0-1.207,0.125-1.766,0.375s-1.064,0.605-1.516,1.069
			c-0.453,0.465-0.824,1.034-1.123,1.712c-0.297,0.678-0.494,1.456-0.588,2.336H545.643z"/>
		<path fill="#71A742" d="M551.242,246.027c0-1.402,0.207-2.669,0.623-3.798c0.418-1.128,0.971-2.086,1.66-2.87
			c0.689-0.785,1.484-1.391,2.389-1.819c0.902-0.428,1.854-0.642,2.854-0.642c0.998,0,1.863,0.178,2.602,0.535
			c0.736,0.356,1.486,0.844,2.248,1.462l-0.145-2.96v-6.668h2.959v25.388h-2.424l-0.25-2.031h-0.107
			c-0.689,0.665-1.479,1.241-2.369,1.729c-0.893,0.486-1.852,0.73-2.871,0.73c-2.188,0-3.93-0.784-5.225-2.354
			S551.242,248.928,551.242,246.027z M554.271,245.991c0,2.092,0.416,3.72,1.25,4.885c0.832,1.165,2.008,1.748,3.531,1.748
			c0.807,0,1.566-0.196,2.281-0.589c0.713-0.392,1.426-0.992,2.139-1.801v-9.056c-0.736-0.666-1.445-1.136-2.121-1.41
			c-0.68-0.272-1.373-0.409-2.086-0.409c-0.689,0-1.338,0.16-1.943,0.481c-0.607,0.32-1.137,0.772-1.586,1.354
			c-0.453,0.582-0.809,1.277-1.07,2.085C554.402,244.09,554.271,244.993,554.271,245.991z"/>
		<path fill="#71A742" d="M572.459,231.266h6.953c1.188,0,2.277,0.106,3.264,0.32s1.836,0.547,2.549,0.998
			c0.713,0.452,1.266,1.04,1.658,1.766c0.391,0.725,0.588,1.599,0.588,2.62c0,1.165-0.334,2.218-0.996,3.156
			c-0.668,0.939-1.703,1.587-3.105,1.943v0.143c1.713,0.261,3.043,0.856,3.996,1.783c0.949,0.926,1.426,2.198,1.426,3.815
			c0,1.141-0.215,2.139-0.643,2.994c-0.428,0.856-1.035,1.569-1.818,2.14c-0.785,0.57-1.719,0.999-2.801,1.284
			s-2.275,0.427-3.582,0.427h-7.488V231.266z M578.912,241.249c1.996,0,3.436-0.344,4.316-1.034
			c0.879-0.689,1.318-1.688,1.318-2.995c0-1.284-0.465-2.204-1.391-2.764c-0.926-0.559-2.293-0.839-4.1-0.839h-3.604v7.632H578.912z
			 M579.52,252.303c2.02,0,3.584-0.374,4.689-1.123c1.104-0.749,1.656-1.92,1.656-3.512c0-1.45-0.541-2.515-1.621-3.192
			c-1.084-0.677-2.658-1.016-4.725-1.016h-4.066v8.843H579.52z"/>
		<path fill="#71A742" d="M592.033,259.595c0.238,0.061,0.465,0.09,0.678,0.09c0.998,0,1.814-0.353,2.441-1.053
			c0.633-0.701,1.125-1.587,1.482-2.656l0.393-1.283l-6.953-17.366h3.029l3.531,9.593c0.26,0.761,0.541,1.563,0.838,2.406
			c0.297,0.845,0.576,1.67,0.838,2.479h0.143c0.262-0.784,0.51-1.604,0.75-2.46c0.236-0.856,0.473-1.664,0.711-2.425l3.102-9.593
			h2.854l-6.525,18.757c-0.309,0.855-0.654,1.651-1.033,2.389c-0.381,0.736-0.834,1.373-1.355,1.908
			c-0.521,0.533-1.117,0.956-1.783,1.265s-1.439,0.464-2.316,0.464c-0.406,0-0.773-0.028-1.107-0.089
			c-0.332-0.06-0.641-0.148-0.926-0.268l0.57-2.318C591.584,259.481,591.797,259.535,592.033,259.595z"/>
		<path fill="#71A742" d="M612.967,245.599l-7.061-14.333h3.209l2.994,6.596c0.381,0.855,0.754,1.7,1.123,2.532
			s0.756,1.688,1.158,2.567h0.145c0.404-0.88,0.803-1.735,1.193-2.567c0.393-0.832,0.768-1.677,1.123-2.532l3.031-6.596h3.068
			l-7.025,14.333v9.057h-2.959V245.599z"/>
		<path fill="#71A742" d="M623.02,246.027c0-1.45,0.221-2.739,0.66-3.868c0.441-1.13,1.027-2.087,1.766-2.87
			c0.736-0.785,1.586-1.381,2.551-1.784c0.963-0.404,1.979-0.606,3.047-0.606c1.07,0,2.088,0.202,3.051,0.606
			c0.961,0.403,1.811,0.999,2.549,1.784c0.736,0.783,1.326,1.74,1.764,2.87c0.441,1.129,0.66,2.418,0.66,3.868
			c0,1.427-0.219,2.704-0.66,3.832c-0.438,1.13-1.027,2.081-1.764,2.854c-0.738,0.773-1.588,1.36-2.549,1.765
			c-0.963,0.403-1.98,0.606-3.051,0.606c-1.068,0-2.084-0.203-3.047-0.606c-0.965-0.404-1.814-0.991-2.551-1.765
			c-0.738-0.772-1.324-1.724-1.766-2.854C623.24,248.731,623.02,247.454,623.02,246.027z M626.053,246.027
			c0,0.998,0.117,1.901,0.357,2.709c0.236,0.81,0.574,1.505,1.014,2.087c0.441,0.583,0.969,1.034,1.588,1.354
			s1.295,0.481,2.031,0.481c0.738,0,1.414-0.161,2.033-0.481s1.146-0.771,1.586-1.354c0.441-0.582,0.779-1.277,1.018-2.087
			c0.236-0.808,0.357-1.711,0.357-2.709s-0.121-1.908-0.357-2.728c-0.238-0.82-0.576-1.527-1.018-2.121
			c-0.439-0.596-0.967-1.053-1.586-1.374c-0.619-0.32-1.295-0.481-2.033-0.481c-0.736,0-1.412,0.161-2.031,0.481
			c-0.619,0.321-1.146,0.778-1.588,1.374c-0.439,0.594-0.777,1.301-1.014,2.121C626.17,244.119,626.053,245.029,626.053,246.027z"/>
		<path fill="#71A742" d="M642.313,257.973c0-0.737,0.225-1.438,0.678-2.104c0.449-0.665,1.07-1.271,1.854-1.818v-0.142
			c-0.43-0.262-0.791-0.625-1.088-1.089c-0.297-0.462-0.445-1.039-0.445-1.729c0-0.736,0.201-1.379,0.605-1.925
			c0.404-0.547,0.83-0.974,1.283-1.284v-0.143c-0.57-0.475-1.086-1.111-1.551-1.907c-0.465-0.797-0.695-1.718-0.695-2.763
			c0-0.951,0.174-1.807,0.518-2.568c0.342-0.761,0.814-1.408,1.408-1.943s1.289-0.945,2.084-1.23
			c0.797-0.285,1.635-0.428,2.516-0.428c0.477,0,0.922,0.041,1.336,0.125c0.416,0.084,0.793,0.185,1.125,0.303h6.025v2.247h-3.566
			c0.404,0.404,0.744,0.915,1.018,1.532c0.271,0.619,0.408,1.297,0.408,2.033c0,0.927-0.164,1.766-0.498,2.514
			c-0.332,0.748-0.785,1.379-1.354,1.891c-0.57,0.512-1.244,0.908-2.016,1.193c-0.773,0.286-1.6,0.429-2.479,0.429
			c-0.428,0-0.869-0.054-1.318-0.16c-0.453-0.106-0.881-0.255-1.285-0.446c-0.309,0.262-0.57,0.553-0.783,0.875
			c-0.215,0.32-0.322,0.718-0.322,1.194c0,0.547,0.215,0.997,0.643,1.354c0.428,0.355,1.236,0.535,2.426,0.535h3.352
			c2.02,0,3.535,0.326,4.545,0.98c1.01,0.653,1.518,1.705,1.518,3.154c0,0.809-0.203,1.575-0.607,2.301
			c-0.404,0.725-0.986,1.36-1.748,1.906c-0.762,0.547-1.68,0.982-2.762,1.304c-1.082,0.32-2.301,0.48-3.656,0.48
			c-1.068,0-2.043-0.102-2.924-0.304c-0.879-0.201-1.633-0.505-2.266-0.908c-0.629-0.405-1.117-0.892-1.459-1.463
			C642.484,259.398,642.313,258.733,642.313,257.973z M644.879,257.58c0,0.928,0.445,1.663,1.338,2.212
			c0.891,0.547,2.121,0.819,3.691,0.819c0.83,0,1.584-0.102,2.264-0.304c0.678-0.202,1.254-0.463,1.729-0.784
			c0.477-0.32,0.844-0.695,1.104-1.123c0.264-0.428,0.395-0.868,0.395-1.32c0-0.809-0.297-1.367-0.893-1.676
			c-0.594-0.309-1.463-0.462-2.602-0.462h-2.994c-0.334,0-0.697-0.02-1.09-0.054c-0.393-0.036-0.777-0.114-1.158-0.233
			c-0.619,0.452-1.07,0.929-1.355,1.428S644.879,257.08,644.879,257.58z M649.479,247.204c0.498,0,0.967-0.095,1.408-0.285
			c0.439-0.19,0.832-0.465,1.178-0.82c0.344-0.357,0.611-0.79,0.803-1.302c0.188-0.51,0.283-1.088,0.283-1.729
			c0-1.284-0.355-2.276-1.068-2.979c-0.715-0.701-1.582-1.051-2.604-1.051s-1.891,0.35-2.604,1.051
			c-0.711,0.702-1.07,1.694-1.07,2.979c0,0.641,0.096,1.219,0.287,1.729c0.189,0.512,0.457,0.944,0.803,1.302
			c0.344,0.355,0.736,0.63,1.176,0.82S648.979,247.204,649.479,247.204z"/>
		<path fill="#71A742" d="M660.178,250.163c0-1.901,0.85-3.356,2.549-4.368c1.699-1.01,4.404-1.717,8.111-2.121
			c0-0.547-0.053-1.081-0.16-1.604c-0.107-0.522-0.297-0.987-0.57-1.391c-0.273-0.404-0.637-0.731-1.086-0.98
			c-0.453-0.25-1.037-0.375-1.75-0.375c-1.021,0-1.967,0.19-2.834,0.571c-0.867,0.38-1.646,0.808-2.336,1.284l-1.178-2.033
			c0.811-0.522,1.795-1.028,2.961-1.516s2.449-0.731,3.852-0.731c2.115,0,3.648,0.649,4.6,1.943
			c0.951,1.296,1.426,3.025,1.426,5.188v10.626h-2.426l-0.248-2.067h-0.07c-0.832,0.689-1.73,1.277-2.693,1.766
			c-0.961,0.486-1.979,0.73-3.049,0.73c-1.475,0-2.693-0.429-3.654-1.283C660.658,252.944,660.178,251.732,660.178,250.163z
			 M663.064,249.949c0,0.999,0.291,1.712,0.873,2.14c0.584,0.429,1.303,0.642,2.158,0.642c0.832,0,1.621-0.196,2.371-0.588
			c0.748-0.393,1.539-0.968,2.371-1.729v-4.814c-1.449,0.191-2.674,0.418-3.672,0.678c-0.998,0.262-1.799,0.57-2.408,0.928
			c-0.605,0.356-1.039,0.766-1.301,1.229C663.195,248.898,663.064,249.402,663.064,249.949z"/>
	</g>
	<g>
		<path fill="#71A742" d="M149.515,289.152h5.848c3.613,0,6.358,0.998,8.236,2.995c1.878,1.996,2.817,4.861,2.817,8.594
			c0,1.853-0.238,3.512-0.713,4.973c-0.476,1.463-1.177,2.7-2.104,3.709c-0.927,1.011-2.069,1.783-3.423,2.318
			c-1.354,0.535-2.912,0.802-4.67,0.802h-5.991V289.152z M155.148,310.118c2.758,0,4.814-0.82,6.169-2.461
			c1.355-1.64,2.033-3.944,2.033-6.916s-0.678-5.242-2.033-6.812c-1.354-1.57-3.411-2.353-6.169-2.353h-2.638v18.541H155.148z"/>
		<path fill="#71A742" d="M171.159,295.213h2.425l0.25,3.139h0.107c0.594-1.093,1.313-1.962,2.158-2.604
			c0.843-0.642,1.764-0.964,2.763-0.964c0.688,0,1.307,0.12,1.854,0.358l-0.571,2.566c-0.284-0.094-0.547-0.166-0.783-0.214
			c-0.238-0.048-0.535-0.071-0.892-0.071c-0.737,0-1.504,0.298-2.301,0.893c-0.796,0.594-1.491,1.629-2.085,3.101v11.126h-2.924
			V295.213z"/>
		<path fill="#71A742" d="M181.891,303.914c0-1.449,0.22-2.739,0.66-3.869c0.439-1.129,1.028-2.086,1.765-2.87
			c0.737-0.785,1.587-1.379,2.55-1.782c0.962-0.404,1.979-0.608,3.048-0.608c1.07,0,2.085,0.204,3.049,0.608
			c0.962,0.403,1.812,0.997,2.549,1.782c0.737,0.784,1.326,1.741,1.766,2.87c0.44,1.13,0.659,2.42,0.659,3.869
			c0,1.427-0.219,2.705-0.659,3.833c-0.44,1.129-1.028,2.08-1.766,2.854c-0.737,0.773-1.586,1.359-2.549,1.765
			c-0.964,0.403-1.979,0.606-3.049,0.606c-1.069,0-2.086-0.203-3.048-0.606c-0.963-0.405-1.813-0.991-2.55-1.765
			c-0.737-0.773-1.326-1.725-1.765-2.854C182.11,306.619,181.891,305.341,181.891,303.914z M184.922,303.914
			c0,0.998,0.12,1.901,0.357,2.709c0.237,0.809,0.576,1.504,1.016,2.088c0.439,0.582,0.968,1.032,1.587,1.354
			c0.617,0.32,1.295,0.481,2.032,0.481c0.737,0,1.414-0.161,2.032-0.481c0.618-0.322,1.147-0.772,1.587-1.354
			c0.44-0.584,0.779-1.279,1.017-2.088c0.237-0.808,0.356-1.711,0.356-2.709s-0.12-1.908-0.356-2.728
			c-0.238-0.82-0.577-1.527-1.017-2.122c-0.44-0.594-0.969-1.052-1.587-1.373c-0.619-0.32-1.295-0.482-2.032-0.482
			c-0.737,0-1.415,0.162-2.032,0.482c-0.619,0.321-1.147,0.779-1.587,1.373c-0.44,0.595-0.779,1.302-1.016,2.122
			C185.042,302.006,184.922,302.916,184.922,303.914z"/>
		<path fill="#71A742" d="M205.425,314.006v5.847h-2.924v-24.64h2.425l0.25,1.996h0.107c0.785-0.664,1.646-1.234,2.585-1.71
			c0.939-0.477,1.919-0.715,2.942-0.715c1.117,0,2.103,0.21,2.96,0.625c0.855,0.417,1.568,1.011,2.139,1.783
			c0.57,0.773,1.004,1.7,1.301,2.781c0.297,1.081,0.446,2.3,0.446,3.654c0,1.476-0.202,2.788-0.605,3.941
			c-0.405,1.153-0.952,2.134-1.64,2.941c-0.69,0.808-1.486,1.421-2.39,1.836c-0.903,0.416-1.854,0.625-2.852,0.625
			c-0.809,0-1.611-0.18-2.407-0.535c-0.796-0.356-1.599-0.844-2.406-1.463L205.425,314.006z M205.425,308.691
			c0.785,0.666,1.545,1.136,2.282,1.41c0.737,0.272,1.391,0.409,1.961,0.409c0.713,0,1.372-0.16,1.979-0.482
			c0.606-0.32,1.128-0.771,1.568-1.354c0.44-0.582,0.784-1.301,1.034-2.157c0.25-0.855,0.375-1.818,0.375-2.889
			c0-0.949-0.084-1.818-0.25-2.603c-0.167-0.783-0.434-1.455-0.802-2.014c-0.37-0.559-0.845-0.993-1.426-1.303
			c-0.583-0.308-1.278-0.463-2.086-0.463c-0.737,0-1.48,0.201-2.228,0.605c-0.749,0.405-1.552,0.986-2.408,1.748V308.691z"/>
		<path fill="#71A742" d="M228.638,308.051c0-1.901,0.85-3.357,2.549-4.369c1.699-1.01,4.403-1.717,8.112-2.121
			c0-0.548-0.054-1.08-0.16-1.604c-0.107-0.522-0.299-0.986-0.571-1.391s-0.636-0.731-1.088-0.981
			c-0.451-0.249-1.034-0.375-1.746-0.375c-1.023,0-1.968,0.192-2.834,0.572c-0.869,0.38-1.647,0.808-2.336,1.283l-1.177-2.032
			c0.808-0.522,1.795-1.029,2.96-1.516c1.165-0.486,2.448-0.732,3.851-0.732c2.116,0,3.649,0.649,4.6,1.945
			c0.951,1.295,1.427,3.024,1.427,5.188v10.626h-2.425l-0.25-2.068h-0.071c-0.832,0.689-1.729,1.278-2.692,1.766
			c-0.962,0.485-1.979,0.731-3.048,0.731c-1.474,0-2.693-0.429-3.655-1.284C229.119,310.831,228.638,309.619,228.638,308.051z
			 M231.526,307.837c0,0.998,0.292,1.711,0.875,2.139c0.582,0.428,1.301,0.642,2.157,0.642c0.832,0,1.623-0.196,2.371-0.589
			c0.749-0.392,1.54-0.968,2.372-1.729v-4.813c-1.45,0.189-2.674,0.416-3.672,0.677c-0.999,0.262-1.801,0.57-2.408,0.929
			c-0.606,0.355-1.04,0.766-1.301,1.229C231.656,306.784,231.526,307.29,231.526,307.837z"/>
		<path fill="#71A742" d="M257.876,314.006v5.847h-2.924v-24.64h2.425l0.25,1.996h0.106c0.785-0.664,1.646-1.234,2.585-1.71
			c0.939-0.477,1.92-0.715,2.942-0.715c1.117,0,2.104,0.21,2.96,0.625c0.856,0.417,1.568,1.011,2.14,1.783
			c0.57,0.773,1.004,1.7,1.301,2.781s0.445,2.3,0.445,3.654c0,1.476-0.202,2.788-0.605,3.941c-0.406,1.153-0.952,2.134-1.64,2.941
			c-0.691,0.808-1.486,1.421-2.39,1.836c-0.903,0.416-1.854,0.625-2.852,0.625c-0.81,0-1.611-0.18-2.408-0.535
			c-0.796-0.356-1.598-0.844-2.406-1.463L257.876,314.006z M257.876,308.691c0.785,0.666,1.545,1.136,2.282,1.41
			c0.737,0.272,1.391,0.409,1.962,0.409c0.713,0,1.372-0.16,1.979-0.482c0.605-0.32,1.128-0.771,1.568-1.354
			c0.439-0.582,0.785-1.301,1.034-2.157c0.25-0.855,0.375-1.818,0.375-2.889c0-0.949-0.083-1.818-0.25-2.603
			c-0.167-0.783-0.434-1.455-0.802-2.014c-0.369-0.559-0.845-0.993-1.427-1.303c-0.583-0.308-1.278-0.463-2.085-0.463
			c-0.737,0-1.48,0.201-2.229,0.605c-0.749,0.405-1.552,0.986-2.407,1.748V308.691z"/>
		<path fill="#71A742" d="M276.24,291.647c-0.57,0-1.052-0.179-1.444-0.535c-0.392-0.356-0.588-0.808-0.588-1.354
			c0-0.57,0.196-1.029,0.588-1.373c0.393-0.344,0.874-0.517,1.444-0.517c0.571,0,1.052,0.173,1.443,0.517
			c0.393,0.344,0.589,0.803,0.589,1.373c0,0.547-0.196,0.998-0.589,1.354C277.292,291.469,276.811,291.647,276.24,291.647z
			 M274.742,295.213h2.924v17.33h-2.924V295.213z"/>
		<path fill="#71A742" d="M283.515,295.213h2.425l0.249,2.496h0.107c0.832-0.831,1.705-1.526,2.621-2.086
			c0.915-0.559,1.979-0.839,3.192-0.839c1.83,0,3.167,0.572,4.011,1.713c0.843,1.141,1.265,2.828,1.265,5.063v10.982h-2.923v-10.591
			c0-1.64-0.262-2.822-0.785-3.547s-1.355-1.087-2.496-1.087c-0.904,0-1.7,0.225-2.388,0.676c-0.691,0.453-1.474,1.118-2.354,1.998
			v12.551h-2.923V295.213z"/>
		<path fill="#71A742" d="M309.366,308.051c0-1.901,0.849-3.357,2.549-4.369c1.7-1.01,4.404-1.717,8.112-2.121
			c0-0.548-0.053-1.08-0.16-1.604c-0.107-0.522-0.298-0.986-0.571-1.391s-0.636-0.731-1.087-0.981
			c-0.452-0.249-1.035-0.375-1.747-0.375c-1.023,0-1.968,0.192-2.834,0.572c-0.869,0.38-1.647,0.808-2.336,1.283l-1.177-2.032
			c0.808-0.522,1.794-1.029,2.96-1.516c1.164-0.486,2.448-0.732,3.85-0.732c2.116,0,3.649,0.649,4.6,1.945
			c0.95,1.295,1.427,3.024,1.427,5.188v10.626h-2.425l-0.25-2.068h-0.07c-0.833,0.689-1.729,1.278-2.693,1.766
			c-0.962,0.485-1.979,0.731-3.048,0.731c-1.474,0-2.693-0.429-3.655-1.284C309.847,310.831,309.366,309.619,309.366,308.051z
			 M312.254,307.837c0,0.998,0.292,1.711,0.874,2.139c0.582,0.428,1.301,0.642,2.157,0.642c0.832,0,1.623-0.196,2.372-0.589
			c0.749-0.392,1.539-0.968,2.371-1.729v-4.813c-1.45,0.189-2.674,0.416-3.672,0.677c-0.998,0.262-1.8,0.57-2.407,0.929
			c-0.606,0.355-1.041,0.766-1.302,1.229C312.384,306.784,312.254,307.29,312.254,307.837z"/>
		<path fill="#71A742" d="M328.478,295.213h2.425l0.25,2.496h0.106c0.833-0.831,1.706-1.526,2.622-2.086
			c0.914-0.559,1.979-0.839,3.191-0.839c1.83,0,3.167,0.572,4.012,1.713c0.843,1.141,1.266,2.828,1.266,5.063v10.982h-2.924v-10.591
			c0-1.64-0.262-2.822-0.785-3.547s-1.354-1.087-2.495-1.087c-0.904,0-1.701,0.225-2.389,0.676c-0.69,0.453-1.474,1.118-2.354,1.998
			v12.551h-2.924V295.213z"/>
		<path fill="#71A742" d="M346.735,303.914c0-1.402,0.208-2.668,0.624-3.798c0.417-1.128,0.969-2.086,1.658-2.87
			s1.486-1.392,2.389-1.819s1.854-0.643,2.853-0.643s1.865,0.18,2.603,0.535c0.736,0.357,1.485,0.845,2.247,1.464l-0.144-2.96
			v-6.669h2.96v25.389H359.5l-0.25-2.032h-0.107c-0.69,0.666-1.479,1.242-2.37,1.729c-0.892,0.485-1.85,0.731-2.87,0.731
			c-2.189,0-3.93-0.785-5.225-2.354S346.735,306.814,346.735,303.914z M349.765,303.878c0,2.092,0.416,3.721,1.248,4.886
			s2.009,1.747,3.531,1.747c0.808,0,1.568-0.197,2.282-0.589c0.713-0.392,1.426-0.992,2.139-1.8v-9.058
			c-0.736-0.665-1.443-1.135-2.121-1.408c-0.679-0.273-1.374-0.41-2.086-0.41c-0.69,0-1.337,0.16-1.943,0.481
			c-0.606,0.32-1.136,0.773-1.587,1.354c-0.452,0.583-0.809,1.278-1.07,2.086C349.895,301.977,349.765,302.88,349.765,303.878z"/>
		<path fill="#71A742" d="M374.975,295.213h2.423l0.25,3.139h0.107c0.594-1.093,1.314-1.962,2.156-2.604s1.764-0.964,2.764-0.964
			c0.689,0,1.309,0.12,1.854,0.358l-0.57,2.566c-0.283-0.094-0.547-0.166-0.783-0.214c-0.238-0.048-0.535-0.071-0.891-0.071
			c-0.738,0-1.504,0.298-2.301,0.893c-0.797,0.594-1.492,1.629-2.086,3.101v11.126h-2.924V295.213z"/>
		<path fill="#71A742" d="M385.6,308.051c0-1.901,0.85-3.357,2.549-4.369c1.699-1.01,4.404-1.717,8.113-2.121
			c0-0.548-0.053-1.08-0.16-1.604c-0.107-0.522-0.299-0.986-0.57-1.391c-0.275-0.404-0.637-0.731-1.09-0.981
			c-0.449-0.249-1.033-0.375-1.746-0.375c-1.023,0-1.969,0.192-2.834,0.572c-0.867,0.38-1.646,0.808-2.336,1.283l-1.176-2.032
			c0.809-0.522,1.793-1.029,2.959-1.516c1.164-0.486,2.447-0.732,3.85-0.732c2.117,0,3.648,0.649,4.602,1.945
			c0.949,1.295,1.424,3.024,1.424,5.188v10.626h-2.424l-0.25-2.068h-0.068c-0.834,0.689-1.73,1.278-2.693,1.766
			c-0.963,0.485-1.98,0.731-3.049,0.731c-1.475,0-2.693-0.429-3.656-1.284C386.08,310.831,385.6,309.619,385.6,308.051z
			 M388.488,307.837c0,0.998,0.291,1.711,0.873,2.139s1.301,0.642,2.158,0.642c0.83,0,1.621-0.196,2.369-0.589
			c0.75-0.392,1.539-0.968,2.373-1.729v-4.813c-1.451,0.189-2.674,0.416-3.672,0.677c-0.998,0.262-1.801,0.57-2.408,0.929
			c-0.605,0.355-1.039,0.766-1.303,1.229C388.617,306.784,388.488,307.29,388.488,307.837z"/>
		<path fill="#71A742" d="M406.209,291.647c-0.57,0-1.051-0.179-1.443-0.535s-0.59-0.808-0.59-1.354c0-0.57,0.197-1.029,0.59-1.373
			s0.873-0.517,1.443-0.517s1.053,0.173,1.443,0.517c0.395,0.344,0.588,0.803,0.588,1.373c0,0.547-0.193,0.998-0.588,1.354
			C407.262,291.469,406.779,291.647,406.209,291.647z M404.713,295.213h2.922v17.33h-2.922V295.213z"/>
		<path fill="#71A742" d="M413.021,308.621c0.758,0.618,1.537,1.118,2.334,1.497c0.797,0.381,1.715,0.57,2.762,0.57
			c1.145,0,1.998-0.262,2.568-0.783c0.572-0.523,0.857-1.165,0.857-1.927c0-0.451-0.121-0.844-0.357-1.177
			c-0.236-0.331-0.541-0.624-0.91-0.874s-0.789-0.469-1.266-0.659c-0.475-0.189-0.951-0.379-1.424-0.57
			c-0.621-0.215-1.238-0.457-1.855-0.73c-0.619-0.273-1.172-0.605-1.658-0.999c-0.488-0.392-0.887-0.849-1.195-1.372
			c-0.309-0.522-0.465-1.153-0.465-1.89c0-0.69,0.137-1.338,0.41-1.943c0.275-0.607,0.668-1.13,1.178-1.569
			c0.512-0.439,1.135-0.785,1.871-1.035c0.738-0.249,1.57-0.375,2.498-0.375c1.092,0,2.098,0.192,3.014,0.572
			c0.914,0.38,1.703,0.844,2.369,1.391l-1.391,1.854c-0.594-0.45-1.211-0.819-1.854-1.105c-0.641-0.286-1.342-0.427-2.104-0.427
			c-1.094,0-1.896,0.25-2.408,0.749c-0.51,0.499-0.766,1.081-0.766,1.746c0,0.404,0.107,0.749,0.32,1.034
			c0.215,0.286,0.5,0.547,0.857,0.785c0.354,0.238,0.766,0.445,1.23,0.623c0.461,0.179,0.943,0.364,1.443,0.553
			c0.617,0.237,1.242,0.487,1.871,0.75c0.629,0.261,1.195,0.587,1.695,0.979c0.498,0.393,0.906,0.874,1.229,1.443
			c0.32,0.571,0.482,1.262,0.482,2.069c0,0.713-0.139,1.379-0.412,1.997c-0.271,0.617-0.676,1.164-1.211,1.64
			c-0.535,0.477-1.199,0.851-1.996,1.123c-0.797,0.274-1.707,0.411-2.729,0.411c-1.238,0-2.412-0.227-3.531-0.679
			c-1.115-0.45-2.092-1.021-2.922-1.712L413.021,308.621z"/>
		<path fill="#71A742" d="M427.141,303.914c0-1.427,0.219-2.704,0.658-3.833c0.441-1.13,1.023-2.087,1.748-2.872
			c0.725-0.782,1.551-1.383,2.48-1.8c0.926-0.415,1.889-0.625,2.887-0.625c1.094,0,2.074,0.192,2.941,0.572s1.592,0.927,2.176,1.641
			c0.582,0.712,1.029,1.568,1.338,2.566c0.309,0.999,0.463,2.116,0.463,3.353c0,0.642-0.037,1.176-0.107,1.604h-11.697
			c0.121,1.877,0.697,3.363,1.729,4.457c1.037,1.093,2.385,1.64,4.051,1.64c0.83,0,1.596-0.124,2.299-0.374
			c0.699-0.249,1.373-0.576,2.014-0.98l1.035,1.926c-0.762,0.476-1.604,0.892-2.533,1.248c-0.926,0.355-1.984,0.535-3.172,0.535
			c-1.166,0-2.252-0.209-3.264-0.625c-1.012-0.415-1.889-1.01-2.639-1.783c-0.746-0.771-1.336-1.716-1.764-2.834
			C427.354,306.611,427.141,305.341,427.141,303.914z M439.266,302.594c0-1.782-0.377-3.143-1.125-4.081
			c-0.75-0.939-1.801-1.41-3.154-1.41c-0.619,0-1.207,0.126-1.766,0.375c-0.561,0.25-1.064,0.606-1.518,1.069
			c-0.449,0.465-0.826,1.034-1.121,1.712c-0.299,0.679-0.494,1.457-0.59,2.335H439.266z"/>
		<path fill="#71A742" d="M452.777,317.481c0.238,0.06,0.465,0.09,0.678,0.09c0.998,0,1.811-0.352,2.443-1.054
			c0.629-0.7,1.123-1.586,1.479-2.655l0.393-1.284l-6.953-17.365h3.031l3.529,9.593c0.262,0.76,0.541,1.563,0.838,2.406
			c0.297,0.845,0.576,1.671,0.838,2.479h0.145c0.26-0.784,0.512-1.604,0.746-2.46c0.238-0.857,0.477-1.665,0.713-2.425l3.105-9.593
			h2.852l-6.525,18.757c-0.311,0.855-0.654,1.652-1.035,2.389c-0.381,0.737-0.83,1.373-1.354,1.908
			c-0.525,0.534-1.119,0.956-1.781,1.265c-0.668,0.309-1.441,0.464-2.32,0.464c-0.404,0-0.773-0.029-1.105-0.089
			c-0.334-0.06-0.641-0.148-0.926-0.268l0.568-2.318C452.326,317.368,452.539,317.422,452.777,317.481z"/>
		<path fill="#71A742" d="M468.539,303.914c0-1.449,0.217-2.739,0.658-3.869c0.439-1.129,1.029-2.086,1.764-2.87
			c0.74-0.785,1.59-1.379,2.553-1.782c0.961-0.404,1.979-0.608,3.047-0.608c1.07,0,2.086,0.204,3.049,0.608
			c0.963,0.403,1.813,0.997,2.549,1.782c0.738,0.784,1.326,1.741,1.768,2.87c0.438,1.13,0.658,2.42,0.658,3.869
			c0,1.427-0.221,2.705-0.658,3.833c-0.441,1.129-1.029,2.08-1.768,2.854c-0.736,0.773-1.586,1.359-2.549,1.765
			c-0.963,0.403-1.979,0.606-3.049,0.606c-1.068,0-2.086-0.203-3.047-0.606c-0.963-0.405-1.813-0.991-2.553-1.765
			c-0.734-0.773-1.324-1.725-1.764-2.854C468.756,306.619,468.539,305.341,468.539,303.914z M471.568,303.914
			c0,0.998,0.121,1.901,0.357,2.709c0.236,0.809,0.574,1.504,1.016,2.088c0.439,0.582,0.969,1.032,1.586,1.354
			c0.619,0.32,1.295,0.481,2.033,0.481c0.736,0,1.414-0.161,2.031-0.481c0.619-0.322,1.148-0.772,1.59-1.354
			c0.438-0.584,0.777-1.279,1.016-2.088c0.236-0.808,0.355-1.711,0.355-2.709s-0.119-1.908-0.355-2.728
			c-0.238-0.82-0.578-1.527-1.016-2.122c-0.441-0.594-0.971-1.052-1.59-1.373c-0.617-0.32-1.295-0.482-2.031-0.482
			c-0.738,0-1.414,0.162-2.033,0.482c-0.617,0.321-1.146,0.779-1.586,1.373c-0.441,0.595-0.779,1.302-1.016,2.122
			C471.689,302.006,471.568,302.916,471.568,303.914z"/>
		<path fill="#71A742" d="M488.898,295.213h2.959v10.591c0,1.64,0.256,2.823,0.766,3.549c0.512,0.726,1.338,1.088,2.48,1.088
			c0.902,0,1.699-0.233,2.387-0.697c0.691-0.463,1.451-1.206,2.283-2.228v-12.303h2.926v17.33h-2.426l-0.248-2.71h-0.111
			c-0.807,0.952-1.656,1.712-2.547,2.282c-0.893,0.57-1.943,0.856-3.156,0.856c-1.855,0-3.203-0.571-4.045-1.712
			c-0.846-1.142-1.268-2.829-1.268-5.063V295.213z"/>
		<path fill="#71A742" d="M508.543,295.213h2.426l0.25,3.139h0.107c0.594-1.093,1.313-1.962,2.158-2.604
			c0.842-0.642,1.764-0.964,2.762-0.964c0.691,0,1.309,0.12,1.855,0.358l-0.57,2.566c-0.285-0.094-0.549-0.166-0.785-0.214
			s-0.533-0.071-0.891-0.071c-0.736,0-1.506,0.298-2.303,0.893c-0.795,0.594-1.49,1.629-2.084,3.101v11.126h-2.926V295.213z"/>
		<path fill="#71A742" d="M528.121,287.154h2.924v6.918l-0.107,3.565c0.834-0.784,1.699-1.455,2.602-2.015
			c0.904-0.559,1.961-0.839,3.176-0.839c1.83,0,3.166,0.572,4.012,1.713c0.842,1.141,1.266,2.828,1.266,5.063v10.982h-2.926v-10.591
			c0-1.64-0.262-2.822-0.783-3.547c-0.523-0.725-1.354-1.087-2.496-1.087c-0.904,0-1.699,0.225-2.391,0.676
			c-0.688,0.453-1.473,1.118-2.352,1.998v12.551h-2.924V287.154z"/>
		<path fill="#71A742" d="M546.662,308.051c0-1.901,0.85-3.357,2.551-4.369c1.697-1.01,4.402-1.717,8.109-2.121
			c0-0.548-0.053-1.08-0.16-1.604c-0.105-0.522-0.297-0.986-0.57-1.391c-0.271-0.404-0.637-0.731-1.088-0.981
			c-0.451-0.249-1.033-0.375-1.746-0.375c-1.021,0-1.967,0.192-2.836,0.572c-0.867,0.38-1.646,0.808-2.334,1.283l-1.178-2.032
			c0.807-0.522,1.795-1.029,2.959-1.516c1.166-0.486,2.449-0.732,3.854-0.732c2.113,0,3.648,0.649,4.598,1.945
			c0.951,1.295,1.428,3.024,1.428,5.188v10.626h-2.426l-0.248-2.068h-0.072c-0.832,0.689-1.73,1.278-2.693,1.766
			c-0.961,0.485-1.977,0.731-3.047,0.731c-1.475,0-2.693-0.429-3.654-1.284C547.143,310.831,546.662,309.619,546.662,308.051z
			 M549.551,307.837c0,0.998,0.291,1.711,0.873,2.139s1.301,0.642,2.156,0.642c0.834,0,1.623-0.196,2.373-0.589
			c0.748-0.392,1.539-0.968,2.369-1.729v-4.813c-1.447,0.189-2.674,0.416-3.672,0.677c-0.998,0.262-1.799,0.57-2.408,0.929
			c-0.605,0.355-1.039,0.766-1.299,1.229C549.682,306.784,549.551,307.29,549.551,307.837z"/>
		<path fill="#71A742" d="M565.775,295.213h2.424l0.25,2.496h0.107c0.83-0.831,1.703-1.526,2.621-2.086
			c0.914-0.559,1.979-0.839,3.191-0.839c1.83,0,3.168,0.572,4.012,1.713s1.266,2.828,1.266,5.063v10.982h-2.926v-10.591
			c0-1.64-0.262-2.822-0.785-3.547c-0.521-0.725-1.354-1.087-2.494-1.087c-0.902,0-1.699,0.225-2.389,0.676
			c-0.689,0.453-1.475,1.118-2.355,1.998v12.551h-2.922V295.213z"/>
		<path fill="#71A742" d="M584.031,303.914c0-1.402,0.209-2.668,0.625-3.798c0.416-1.128,0.967-2.086,1.658-2.87
			c0.688-0.784,1.484-1.392,2.387-1.819c0.904-0.428,1.855-0.643,2.854-0.643s1.867,0.18,2.604,0.535
			c0.736,0.357,1.484,0.845,2.246,1.464l-0.141-2.96v-6.669h2.959v25.389h-2.426l-0.248-2.032h-0.109
			c-0.689,0.666-1.479,1.242-2.369,1.729c-0.893,0.485-1.848,0.731-2.871,0.731c-2.188,0-3.93-0.785-5.225-2.354
			S584.031,306.814,584.031,303.914z M587.063,303.878c0,2.092,0.416,3.721,1.248,4.886s2.01,1.747,3.529,1.747
			c0.809,0,1.57-0.197,2.283-0.589s1.426-0.992,2.141-1.8v-9.058c-0.738-0.665-1.443-1.135-2.123-1.408
			c-0.678-0.273-1.373-0.41-2.086-0.41c-0.689,0-1.338,0.16-1.943,0.481c-0.605,0.32-1.137,0.773-1.586,1.354
			c-0.453,0.583-0.811,1.278-1.07,2.086C587.193,301.977,587.063,302.88,587.063,303.878z"/>
		<path fill="#71A742" d="M605.174,310.761c0-0.69,0.211-1.242,0.625-1.658c0.416-0.417,0.922-0.625,1.516-0.625
			c0.572,0,1.064,0.208,1.48,0.625c0.416,0.416,0.623,0.968,0.623,1.658c0,0.642-0.207,1.171-0.623,1.586
			c-0.416,0.416-0.908,0.625-1.48,0.625c-0.594,0-1.1-0.209-1.516-0.625C605.385,311.932,605.174,311.402,605.174,310.761z
			 M605.891,292.004l-0.072-3.351h2.959l-0.07,3.351l-0.393,13.479h-2.031L605.891,292.004z"/>
	</g>
</g>
</svg>
