<?xml version="1.0" encoding="UTF-8" standalone="no"?>
<!-- Generator: Adobe Illustrator 16.0.3, SVG Export Plug-In . SVG Version: 6.00 Build 0)  -->

<svg
   xmlns:dc="http://purl.org/dc/elements/1.1/"
   xmlns:cc="http://creativecommons.org/ns#"
   xmlns:rdf="http://www.w3.org/1999/02/22-rdf-syntax-ns#"
   xmlns:svg="http://www.w3.org/2000/svg"
   xmlns="http://www.w3.org/2000/svg"
   xmlns:sodipodi="http://sodipodi.sourceforge.net/DTD/sodipodi-0.dtd"
   xmlns:inkscape="http://www.inkscape.org/namespaces/inkscape"
   version="1.1"
   id="Layer_1"
   x="0px"
   y="0px"
   width="1382px"
   height="235.488px"
   viewBox="0 0 1382 235.488"
   enable-background="new 0 0 1382 235.488"
   xml:space="preserve"
   inkscape:version="0.91 r13725"
   sodipodi:docname="TheYogaMapHomepage.svg"
   inkscape:export-filename="C:\Duncan Source\YogaClicks\UpdatedPackages\Clicks.Yoga.Portal\Images\Stories\TheYogaMapHomepage.png"
   inkscape:export-xdpi="100"
   inkscape:export-ydpi="100"><metadata
   id="metadata129"><rdf:RDF><cc:Work
       rdf:about=""><dc:format>image/svg+xml</dc:format><dc:type
         rdf:resource="http://purl.org/dc/dcmitype/StillImage" /><dc:title /></cc:Work></rdf:RDF></metadata><defs
   id="defs127" /><sodipodi:namedview
   pagecolor="#ffffff"
   bordercolor="#666666"
   borderopacity="1"
   objecttolerance="10"
   gridtolerance="10"
   guidetolerance="10"
   inkscape:pageopacity="0"
   inkscape:pageshadow="2"
   inkscape:window-width="1920"
   inkscape:window-height="1057"
   id="namedview125"
   showgrid="false"
   inkscape:zoom="0.60579915"
   inkscape:cx="78.355766"
   inkscape:cy="-55.832362"
   inkscape:window-x="-8"
   inkscape:window-y="-8"
   inkscape:window-maximized="1"
   inkscape:current-layer="Layer_1" />
<g
   id="g3"
   transform="translate(-1.203,-26.269497)">
	<path
   d="m 62.023,172.245 -25.689,0 -6.495,43.524 c -0.324,2.003 -1.148,3.49 -2.472,4.46 -1.325,0.969 -2.731,1.453 -4.217,1.453 -1.616,0 -3.087,-0.55 -4.411,-1.647 -1.325,-1.1 -1.987,-2.683 -1.987,-4.75 l 0,-0.582 c 0,-0.257 0.032,-0.516 0.097,-0.775 l 6.107,-41.683 -14.249,0 c -2.069,0 -3.635,-0.662 -4.701,-1.987 -1.066,-1.324 -1.6,-2.763 -1.6,-4.313 0,-1.615 0.517,-3.069 1.551,-4.362 1.033,-1.292 2.617,-1.939 4.75,-1.939 l 15.995,0 3.877,-26.561 -14.443,0 c -2.069,0 -3.635,-0.662 -4.702,-1.987 -1.066,-1.324 -1.599,-2.795 -1.599,-4.411 0,-1.614 0.516,-3.068 1.551,-4.361 1.033,-1.292 2.617,-1.939 4.75,-1.939 l 16.286,0 5.719,-39.259 c 0.323,-2.002 1.178,-3.49 2.569,-4.459 1.389,-0.969 2.86,-1.454 4.411,-1.454 1.68,0 3.182,0.533 4.508,1.6 1.324,1.066 1.987,2.634 1.987,4.702 l 0,0.678 c 0,0.194 -0.033,0.421 -0.097,0.679 l -5.623,37.515 25.688,0 5.72,-39.259 c 0.322,-2.002 1.178,-3.49 2.569,-4.459 1.389,-0.969 2.859,-1.454 4.411,-1.454 1.68,0 3.182,0.533 4.507,1.6 1.324,1.066 1.987,2.634 1.987,4.702 l 0,0.678 c 0,0.194 -0.033,0.421 -0.097,0.679 l -5.622,37.515 12.311,0 c 2.067,0 3.635,0.664 4.702,1.987 1.066,1.325 1.599,2.796 1.599,4.411 0,1.616 -0.518,3.07 -1.551,4.362 -1.035,1.293 -2.617,1.938 -4.75,1.938 l -14.153,0 -3.877,26.561 12.505,0 c 2.067,0 3.65,0.664 4.75,1.987 1.098,1.325 1.648,2.796 1.648,4.411 0,1.551 -0.533,2.973 -1.6,4.265 -1.066,1.294 -2.666,1.939 -4.798,1.939 l -14.445,0 -6.398,43.524 c -0.324,2.003 -1.148,3.49 -2.472,4.46 -1.326,0.969 -2.731,1.453 -4.217,1.453 -1.616,0 -3.087,-0.55 -4.411,-1.647 -1.326,-1.1 -1.987,-2.683 -1.987,-4.75 l 0,-0.582 c 0,-0.257 0.032,-0.516 0.097,-0.775 l 6.011,-41.688 z m -23.847,-12.603 25.688,0 3.877,-26.561 -25.687,0 -3.878,26.561 z"
   id="path5"
   inkscape:connector-curvature="0"
   style="fill:#7cc244" />
</g>
<g
   id="g7"
   transform="translate(-1.203,-26.269497)">
	<path
   d="m 115.165,78.767 21.499,0 c 16.353,0 43.745,2.158 43.745,43.911 l 0,4.98 c 0,45.488 -25.151,49.723 -41.67,49.723 l -2.075,0 0,43.164 -21.499,0 0,-141.778 z m 22.578,82.842 c 15.605,0 20.586,-8.633 20.586,-29.967 l 0,-12.783 c 0,-16.85 -4.316,-24.404 -20.586,-24.404 l -1.079,0 0,67.154 1.079,0 z"
   id="path9"
   inkscape:connector-curvature="0"
   style="fill:#7cc244" />
	<path
   d="m 192.777,174.392 0,-50.221 c 0,-42.749 21.997,-46.65 35.278,-46.65 12.783,0 34.946,3.237 34.946,46.65 l 0,50.221 c 0,42.084 -22.578,47.397 -34.946,47.397 -13.779,0.001 -35.278,-4.815 -35.278,-47.397 z m 47.812,8.383 0,-64.496 c 0,-18.179 -4.067,-23.824 -12.534,-23.824 -8.716,0 -12.783,5.645 -12.783,23.824 l 0,64.496 c 0,17.598 4.067,22.828 12.783,22.828 8.467,0 12.534,-5.23 12.534,-22.828 z"
   id="path11"
   inkscape:connector-curvature="0"
   style="fill:#7cc244" />
	<path
   d="m 274.291,78.767 20.586,0 9.546,85.665 1.079,20.004 2.075,0 1.992,-22.494 15.273,-83.174 17.183,0 14.609,83.174 1.66,22.494 2.158,0 0.996,-20.004 8.716,-85.665 20.669,0 -19.839,141.778 -21.831,0 -11.704,-68.15 -3.652,-29.633 -1.66,0 -3.569,29.633 -12.285,68.15 -21.583,0 -20.419,-141.778 z"
   id="path13"
   inkscape:connector-curvature="0"
   style="fill:#7cc244" />
	<path
   d="m 406.107,78.767 52.543,0 0,16.933 -31.045,0 0,42.417 23.99,0 0,16.934 -23.99,0 0,48.561 31.875,0 0,16.934 -53.373,0 0,-141.779 z"
   id="path15"
   inkscape:connector-curvature="0"
   style="fill:#7cc244" />
	<path
   d="m 475.004,78.767 23.325,0 c 16.021,0 42.998,1.992 42.998,40.508 l 0,3.568 c 0,21.5 -6.392,35.029 -18.345,41.006 l 22.744,56.695 -22.744,0 -18.843,-53.043 -8.052,0 0,53.043 -21.084,0 0,-141.777 z m 24.321,73.213 c 15.107,0 20.42,-6.143 20.42,-25.234 l 0,-11.207 c 0,-14.609 -4.731,-21.083 -20.42,-21.083 l -3.237,0 0,57.525 3.237,0 z"
   id="path17"
   inkscape:connector-curvature="0"
   style="fill:#7cc244" />
	<path
   d="m 561.996,78.767 52.544,0 0,16.933 -31.045,0 0,42.417 23.989,0 0,16.934 -23.989,0 0,48.561 31.875,0 0,16.934 -53.374,0 0,-141.779 z"
   id="path19"
   inkscape:connector-curvature="0"
   style="fill:#7cc244" />
	<path
   d="m 630.893,78.767 22.329,0 c 20.42,0 46.567,1.079 46.567,50.303 l 0,41.172 c 0,49.307 -26.147,50.303 -46.567,50.303 l -22.329,0 0,-141.778 z m 26.977,126.752 c 15.605,0 19.424,-6.889 19.424,-33.535 l 0,-43.994 c 0,-26.645 -3.818,-33.535 -19.424,-33.535 l -5.479,0 0,111.064 5.479,0 z"
   id="path21"
   inkscape:connector-curvature="0"
   style="fill:#7cc244" />
</g>
<g
   id="g23"
   transform="translate(-1.203,-26.269497)">
	<path
   d="m 769.657,72.767 21.748,0 c 19.258,0 44.16,2.407 44.16,32.124 l 0,6.89 c 0,15.108 -9.38,25.567 -18.926,27.891 l 0,0.664 c 14.028,2.572 21.25,13.861 21.25,30.713 l 0,7.221 c 0,30.879 -21.499,36.275 -45.654,36.275 l -22.578,0 0,-141.778 z m 25.235,60.678 c 11.538,0 19.258,-5.229 19.258,-18.51 l 0,-5.811 c 0,-13.198 -5.063,-20.669 -19.258,-20.669 l -4.15,0 0,44.99 4.15,0 z m 1.992,66.158 c 11.455,0 19.175,-5.977 19.175,-19.258 l 0,-11.041 c 0,-13.281 -5.063,-20.668 -19.175,-20.668 l -6.143,0 0,50.967 6.143,0 z"
   id="path25"
   inkscape:connector-curvature="0"
   style="fill:#7cc244" />
	<path
   d="m 871.717,167.312 -28.555,-94.545 21.665,0 17.349,67.817 0.996,0 17.183,-67.817 21.582,0 -28.721,94.545 0,47.232 -21.499,0 0,-47.232 z"
   id="path27"
   inkscape:connector-curvature="0"
   style="fill:#7cc244" />
</g>
<g
   id="g29"
   transform="translate(-1.203,-26.269497)">
	<path
   d="m 1011.743,170.312 -28.555,-94.545 21.665,0 17.349,67.817 0.996,0 17.183,-67.817 21.582,0 -28.721,94.545 0,47.232 -21.499,0 0,-47.232 z"
   id="path31"
   inkscape:connector-curvature="0"
   style="fill:#7cc244" />
	<path
   d="m 1068.896,171.392 0,-50.221 c 0,-42.749 21.997,-46.65 35.278,-46.65 12.783,0 34.946,3.237 34.946,46.65 l 0,50.221 c 0,42.084 -22.578,47.397 -34.946,47.397 -13.779,0.001 -35.278,-4.815 -35.278,-47.397 z m 47.812,8.383 0,-64.496 c 0,-18.179 -4.067,-23.824 -12.534,-23.824 -8.716,0 -12.783,5.645 -12.783,23.824 l 0,64.496 c 0,17.598 4.067,22.828 12.783,22.828 8.467,0 12.534,-5.23 12.534,-22.828 z"
   id="path33"
   inkscape:connector-curvature="0"
   style="fill:#7cc244" />
	<path
   d="m 1154.686,171.392 0,-50.221 c 0,-42.749 22.828,-46.65 36.357,-46.65 22.994,0 31.129,13.613 31.129,30.049 0,6.06 -0.83,10.791 -1.992,16.933 l -17.184,0 0,-6.723 c 0,-15.522 -4.316,-23.325 -12.533,-23.325 -9.049,0 -13.281,5.645 -13.281,23.824 l 0,64.248 c 0,17.598 4.066,22.992 13.115,22.992 9.545,0 13.613,-10.541 13.613,-24.154 l 0,-18.512 -11.041,0 0,-14.111 31.959,0 0,71.803 -14.277,0 -2.324,-13.447 c -5.396,10.541 -12.203,14.774 -21.832,14.774 -10.043,0 -31.709,-4.898 -31.709,-47.48 z"
   id="path35"
   inkscape:connector-curvature="0"
   style="fill:#7cc244" />
	<path
   d="m 1258.572,75.767 24.736,0 26.23,141.778 -21.748,0 -3.901,-25.4 -25.898,0 -3.735,25.4 -21.831,0 26.147,-141.778 z m 22.827,100.19 -9.961,-70.639 -0.913,0 -10.044,70.639 20.918,0 z"
   id="path37"
   inkscape:connector-curvature="0"
   style="fill:#7cc244" />
</g>
<path
   d="m 1344.265,158.4355 c 8.135,0 14.729,7.096 14.729,15.849 0,8.753 -6.595,15.848 -14.729,15.848 -8.134,0 -14.729,-7.095 -14.729,-15.848 0,-8.753 6.595,-15.849 14.729,-15.849 z"
   id="path39"
   inkscape:connector-curvature="0"
   style="clip-rule:evenodd;fill:#7cc244;fill-rule:evenodd" />
<g
   id="g41"
   transform="translate(-1.203,-26.269497)">
	<path
   d="m 1344.354,66.238 c -20.757,0 -37.643,16.474 -37.643,36.713 0,8.156 5.339,21.452 16.316,40.639 7.771,13.569 15.41,24.896 15.734,25.367 l 5.599,8.28 5.592,-8.28 c 0.318,-0.466 7.968,-11.794 15.728,-25.367 10.976,-19.188 16.32,-32.483 16.32,-40.631 -0.01,-20.247 -16.894,-36.721 -37.646,-36.721 l 0,0 z m 0,55.499 c -10.781,0 -19.509,-8.523 -19.509,-19.035 0,-10.512 8.73,-19.028 19.509,-19.028 10.783,0 19.511,8.516 19.511,19.028 0,10.512 -8.728,19.035 -19.511,19.035 l 0,0 z"
   id="path43"
   inkscape:connector-curvature="0"
   style="fill:#7cc244" />
</g>

</svg>