<?xml version="1.0" encoding="UTF-8" standalone="no"?>
<!-- Generator: Adobe Illustrator 16.0.3, SVG Export Plug-In . SVG Version: 6.00 Build 0)  -->

<svg
   xmlns:dc="http://purl.org/dc/elements/1.1/"
   xmlns:cc="http://creativecommons.org/ns#"
   xmlns:rdf="http://www.w3.org/1999/02/22-rdf-syntax-ns#"
   xmlns:svg="http://www.w3.org/2000/svg"
   xmlns="http://www.w3.org/2000/svg"
   xmlns:sodipodi="http://sodipodi.sourceforge.net/DTD/sodipodi-0.dtd"
   xmlns:inkscape="http://www.inkscape.org/namespaces/inkscape"
   version="1.1"
   id="Layer_1"
   x="0px"
   y="0px"
   width="40px"
   height="40px"
   viewBox="0 0 40 40"
   enable-background="new 0 0 40 40"
   xml:space="preserve"
   inkscape:version="0.91 r13725"
   sodipodi:docname="YellowPin.svg"
   inkscape:export-filename="C:\Duncan Source\YogaClicks\UpdatedPackages\Clicks.Yoga.Portal\Images\Stories\YellowPin.png"
   inkscape:export-xdpi="404.68637"
   inkscape:export-ydpi="404.68637"><metadata
   id="metadata15"><rdf:RDF><cc:Work
       rdf:about=""><dc:format>image/svg+xml</dc:format><dc:type
         rdf:resource="http://purl.org/dc/dcmitype/StillImage" /></cc:Work></rdf:RDF></metadata><defs
   id="defs13" /><sodipodi:namedview
   pagecolor="#ffffff"
   bordercolor="#666666"
   borderopacity="1"
   objecttolerance="10"
   gridtolerance="10"
   guidetolerance="10"
   inkscape:pageopacity="0"
   inkscape:pageshadow="2"
   inkscape:window-width="1920"
   inkscape:window-height="1057"
   id="namedview11"
   showgrid="false"
   inkscape:zoom="2.085965"
   inkscape:cx="-203.81913"
   inkscape:cy="-28.973638"
   inkscape:window-x="-8"
   inkscape:window-y="-8"
   inkscape:window-maximized="1"
   inkscape:current-layer="Layer_1" />
<path
   fill="#85ADAD"
   stroke="#FFFFFF"
   stroke-width="2"
   stroke-miterlimit="10"
   d="M5.698,20.551"
   id="path3" />
<path
   fill="#85ADAD"
   stroke="#FFFFFF"
   stroke-width="2"
   stroke-miterlimit="10"
   d="M5.698,20.551"
   id="path5" />
<g
   id="g7"
   style="fill:#fdba12;fill-opacity:1">
	<path
   d="M20.389,0C13.049,0,7.078,5.941,7.078,13.24c0,2.942,1.888,7.736,5.77,14.656c2.748,4.894,5.449,8.979,5.563,9.149   l1.979,2.986l1.978-2.986c0.113-0.168,2.817-4.253,5.561-9.149c3.881-6.92,5.771-11.714,5.771-14.653   C33.698,5.941,27.727,0,20.389,0L20.389,0z M20.389,20.015c-3.813,0-6.899-3.074-6.899-6.864c0-3.792,3.087-6.863,6.899-6.863   c3.812,0,6.898,3.072,6.898,6.863C27.287,16.941,24.201,20.015,20.389,20.015L20.389,20.015z"
   id="path9"
   style="fill:#fdba12;fill-opacity:1" />
</g>
</svg>