<?xml version="1.0" encoding="UTF-8" standalone="no"?>
<!-- Generator: Adobe Illustrator 16.0.3, SVG Export Plug-In . SVG Version: 6.00 Build 0)  -->

<svg
   xmlns:dc="http://purl.org/dc/elements/1.1/"
   xmlns:cc="http://creativecommons.org/ns#"
   xmlns:rdf="http://www.w3.org/1999/02/22-rdf-syntax-ns#"
   xmlns:svg="http://www.w3.org/2000/svg"
   xmlns="http://www.w3.org/2000/svg"
   xmlns:sodipodi="http://sodipodi.sourceforge.net/DTD/sodipodi-0.dtd"
   xmlns:inkscape="http://www.inkscape.org/namespaces/inkscape"
   version="1.1"
   id="Layer_1"
   x="0px"
   y="0px"
   width="348.5px"
   height="98.833px"
   viewBox="0 0 348.5 98.833"
   enable-background="new 0 0 348.5 98.833"
   xml:space="preserve"
   inkscape:version="0.91 r13725"
   sodipodi:docname="logoblack.svg"
   inkscape:export-filename="C:\Duncan Source\YogaClicks\UpdatedPackages\Clicks.Yoga.Portal\Images\global\logoblack.png"
   inkscape:export-xdpi="483.29999"
   inkscape:export-ydpi="483.29999"><metadata
   id="metadata79"><rdf:RDF><cc:Work
       rdf:about=""><dc:format>image/svg+xml</dc:format><dc:type
         rdf:resource="http://purl.org/dc/dcmitype/StillImage" /></cc:Work></rdf:RDF></metadata><defs
   id="defs77" /><sodipodi:namedview
   pagecolor="#ffffff"
   bordercolor="#666666"
   borderopacity="1"
   objecttolerance="10"
   gridtolerance="10"
   guidetolerance="10"
   inkscape:pageopacity="0"
   inkscape:pageshadow="2"
   inkscape:window-width="1920"
   inkscape:window-height="1057"
   id="namedview75"
   showgrid="false"
   inkscape:zoom="2.402337"
   inkscape:cx="22.212563"
   inkscape:cy="-29.816817"
   inkscape:window-x="1912"
   inkscape:window-y="-8"
   inkscape:window-maximized="1"
   inkscape:current-layer="Layer_1" />
<path
   fill-rule="evenodd"
   clip-rule="evenodd"
   fill="#59A098"
   d="M119.474,43.651c0.151-0.613,0.29-1.07,0.375-1.537  c0.127-0.697,0.46-1.01,1.226-1.01c0.896,0,1.7,0,2.55,0c0.737,0,1.028,0.285,1.023,1.029c-0.021,3.152-0.006,6.307-0.01,9.459  c-0.006,4.525,0.131,9.057-0.066,13.572c-0.227,5.188-2.464,9.273-7.408,11.475c-3.199,1.424-6.556,1.369-9.925,0.754  c-2.956-0.539-5.53-1.844-7.72-3.922c-0.57-0.543-0.67-0.994-0.124-1.598c0.66-0.732,1.269-1.51,1.912-2.26  c0.671-0.781,0.993-0.818,1.771-0.143c3.147,2.729,6.789,3.559,10.807,2.711c3.189-0.672,5.518-3.527,5.652-6.74  c0.006-0.129-0.02-0.26-0.046-0.588c-4.086,3.711-8.666,3.756-13.432,2.102c-2.812-0.977-4.952-2.85-6.478-5.424  c-3.125-5.273-2.115-12.916,2.162-17.104C105.748,40.508,114.526,39.024,119.474,43.651z M119.019,54.438  c0-1.537,0.012-3.072-0.013-4.607c-0.004-0.273-0.085-0.609-0.258-0.807c-2.787-3.193-8.239-3.967-11.807-1.695  c-2.674,1.701-4.061,5.094-3.502,8.471c0.434,2.621,1.688,4.662,4.079,5.912c3.455,1.811,8.2,1.049,10.97-1.715  c0.372-0.371,0.559-0.738,0.543-1.281C118.992,57.292,119.019,55.864,119.019,54.438z"
   id="path3"
   style="stroke:none;stroke-opacity:0;fill:#333333;fill-opacity:1" />
<path
   fill-rule="evenodd"
   clip-rule="evenodd"
   fill="#59A098"
   d="M147.266,49.829c0.18-2.047-0.938-3.289-3.247-3.621  c-3.47-0.502-6.76,0.039-9.819,1.811c-1.286,0.744-1.401,0.713-2.249-0.482c-0.46-0.648-0.928-1.289-1.373-1.947  c-0.324-0.479-0.297-0.902,0.219-1.27c4.99-3.543,10.448-4.531,16.293-2.742c3.731,1.141,5.742,3.98,5.833,7.852  c0.063,2.688,0.05,5.375,0.021,8.064c-0.029,2.732,0.256,5.408,1.155,8.006c0.331,0.957,0.215,1.135-0.717,1.441  c-0.936,0.307-1.876,0.598-2.808,0.916c-0.572,0.195-0.926,0.061-1.146-0.537c-0.339-0.924-0.735-1.824-1.113-2.734  c-0.018-0.041-0.082-0.063-0.171-0.127c-0.196,0.156-0.405,0.322-0.612,0.49c-3.69,2.992-7.882,3.705-12.37,2.471  c-3.629-1-5.623-3.654-5.873-7.354c-0.225-3.326,1.604-6.25,4.835-7.809c2.191-1.057,4.56-1.309,6.92-1.617  C143.107,50.372,145.169,50.102,147.266,49.829z M147.326,54.581c-2.269,0.373-4.457,0.701-6.632,1.109  c-1.31,0.244-2.648,0.477-3.878,0.957c-1.455,0.57-2.003,1.73-1.854,3.219c0.129,1.283,0.938,2.289,2.398,2.563  c3.708,0.691,7.005-0.102,9.611-3.004c0.155-0.174,0.334-0.412,0.339-0.625C147.34,57.411,147.326,56.018,147.326,54.581z"
   id="path5"
   style="stroke:none;stroke-opacity:0;fill:#333333;fill-opacity:1" />
<path
   fill-rule="evenodd"
   clip-rule="evenodd"
   fill="#59A098"
   d="M80.923,67.956c-7.865,0.008-14.066-6.133-13.92-13.928  c0.139-7.371,6.314-13.314,14.014-13.271c7.726,0.043,13.855,6.105,13.803,13.652C94.767,62.026,88.652,67.987,80.923,67.956z   M89.113,54.403c0.027-4.859-3.343-8.348-8.09-8.371c-4.882-0.025-8.322,3.395-8.357,8.309c-0.033,4.795,3.391,8.285,8.168,8.326  C85.672,62.708,89.085,59.303,89.113,54.403z"
   id="path7"
   style="stroke:none;stroke-opacity:0;fill:#333333;fill-opacity:1" />
<path
   fill-rule="evenodd"
   clip-rule="evenodd"
   fill="#59A098"
   d="M52.994,59.874c0.503-1.379,1.012-2.756,1.506-4.137  c1.642-4.584,3.292-9.164,4.9-13.758c0.234-0.67,0.591-0.891,1.264-0.875c1.397,0.035,2.797,0.008,4.195,0.012  c0.977,0.004,1.071,0.141,0.697,1.057c-2.42,5.922-4.84,11.844-7.272,17.764c-1.299,3.16-2.566,6.336-3.952,9.457  c-0.948,2.135-2.437,3.84-4.697,4.697c-1.658,0.631-3.361,0.682-5.087,0.285c-0.636-0.146-0.921-0.492-0.903-1.156  c0.029-1.041,0.025-2.084,0.002-3.125c-0.016-0.699,0.299-0.893,0.965-0.852c0.893,0.055,1.811,0.119,2.685-0.021  c1.315-0.213,2.446-1.645,2.454-2.941c0.002-0.254-0.137-0.521-0.248-0.764c-3.573-7.748-7.15-15.496-10.727-23.244  c-0.495-1.074-0.441-1.168,0.727-1.17c1.398,0,2.799,0,4.195,0c0.647-0.02,0.996,0.215,1.246,0.805  c2.439,5.734,4.898,11.463,7.354,17.191c0.12,0.279,0.284,0.539,0.429,0.809C52.815,59.895,52.905,59.885,52.994,59.874z"
   id="path9"
   style="stroke:none;stroke-opacity:0;fill:#333333;fill-opacity:1" />
<path
   fill-rule="evenodd"
   clip-rule="evenodd"
   fill="#59A098"
   d="M238.801,54.774c-1.385,1.143-2.721,2.195-3.99,3.32  c-0.295,0.262-0.51,0.771-0.518,1.17c-0.047,2.33-0.041,4.662-0.014,6.992c0.01,0.744-0.258,1.023-1.008,1.014  c-2.188-0.025-2.018,0.146-2.018-1.984c0.002-10.01,0.002-20.018,0.002-30.025c0-1.236,0.02-1.256,1.236-1.256  c1.9,0,1.779-0.172,1.777,1.771c-0.002,6.088,0,12.174,0,18.262c0,0.291,0,0.582,0,1.082c0.357-0.313,0.576-0.498,0.785-0.691  c4.18-3.838,8.367-7.668,12.525-11.529c0.613-0.568,1.24-0.84,2.063-0.773c0.6,0.049,1.207-0.01,1.809,0.027  c0.186,0.01,0.461,0.139,0.514,0.281c0.059,0.158-0.039,0.438-0.164,0.582c-0.266,0.311-0.59,0.572-0.895,0.848  c-3.141,2.822-6.279,5.645-9.422,8.465c-0.182,0.162-0.379,0.307-0.59,0.479c2.914,3.348,5.758,6.613,8.602,9.879  c0.99,1.137,1.994,2.262,2.955,3.424c0.199,0.24,0.24,0.613,0.354,0.926c-0.277,0.074-0.553,0.217-0.828,0.213  c-3.105-0.033-2.207,0.438-4.262-1.961c-2.871-3.352-5.707-6.732-8.559-10.102C239.051,55.061,238.944,54.938,238.801,54.774z"
   id="path11"
   style="stroke:none;stroke-opacity:1;fill:#333333;fill-opacity:1" />
<path
   fill-rule="evenodd"
   clip-rule="evenodd"
   fill="#59A098"
   d="M265.26,67.67c-4.084-0.041-7.781-1.123-10.969-3.764  c-0.563-0.467-0.639-0.848-0.209-1.443c1.191-1.652,1.156-1.637,2.752-0.439c4.01,3.016,8.457,3.527,13.16,2.098  c1.854-0.563,3.248-1.717,3.408-3.859c0.119-1.605-0.545-2.891-2.016-3.424c-1.758-0.637-3.615-1.016-5.449-1.424  c-2.211-0.49-4.477-0.771-6.656-1.369c-1.904-0.521-3.467-1.656-4.146-3.654c-0.904-2.656,0.066-5.283,2.502-6.836  c2.109-1.346,4.477-1.738,6.91-1.771c3.684-0.053,7.113,0.779,10.064,3.123c0.973,0.771,0.98,0.879,0.178,1.799  c-0.162,0.188-0.33,0.369-0.479,0.564c-0.402,0.533-0.807,0.527-1.316,0.107c-3.461-2.852-7.443-3.371-11.688-2.479  c-0.803,0.168-1.621,0.559-2.281,1.049c-1.82,1.355-1.619,4.061,0.438,4.992c1.322,0.598,2.811,0.855,4.244,1.174  c2.639,0.584,5.344,0.928,7.926,1.691c2.658,0.787,4.541,2.529,4.738,5.543c0.225,3.422-1.527,5.971-5,7.234  c-0.947,0.344-1.934,0.611-2.926,0.783C267.399,67.547,266.323,67.575,265.26,67.67z"
   id="path13"
   style="stroke:none;stroke-opacity:0;fill:#333333;fill-opacity:1" />
<path
   fill-rule="evenodd"
   clip-rule="evenodd"
   fill="#59A098"
   d="M217.491,67.604c-7.031,0.02-11.813-3.369-13.535-8.797  c-1.762-5.551,0.172-11.445,4.83-14.732c5.434-3.834,13.514-2.756,17.701,2.346c0.383,0.465,0.365,0.791-0.105,1.162  c-1.801,1.428-1.455,1.422-2.898-0.047c-3.131-3.184-7.893-3.896-11.816-1.873c-3.727,1.922-5.805,6.229-5.113,10.604  c0.641,4.037,2.801,6.93,6.738,8.111c4.049,1.215,7.689,0.242,10.652-2.885c0.857-0.904,0.904-0.918,1.857-0.115  c1.25,1.053,1.258,1.063,0.139,2.246C223.342,66.372,220.1,67.581,217.491,67.604z"
   id="path15"
   style="stroke:none;stroke-opacity:0;fill:#333333;fill-opacity:1" />
<path
   fill-rule="evenodd"
   clip-rule="evenodd"
   fill="#59A098"
   d="M172.301,67.604c-6.955,0.016-11.725-3.369-13.451-8.803  c-1.76-5.547,0.178-11.447,4.838-14.73c5.436-3.83,13.521-2.748,17.699,2.354c0.385,0.469,0.354,0.793-0.113,1.162  c-1.811,1.436-1.455,1.408-2.898-0.055c-3.141-3.182-7.895-3.893-11.818-1.865c-3.723,1.92-5.797,6.219-5.105,10.605  c0.637,4.039,2.807,6.928,6.742,8.107c4.051,1.213,7.689,0.238,10.65-2.891c0.854-0.9,0.9-0.914,1.859-0.107  c1.244,1.049,1.252,1.057,0.129,2.246C178.235,66.375,174.991,67.579,172.301,67.604z"
   id="path17"
   style="stroke:none;stroke-opacity:0;fill:#333333;fill-opacity:1" />
<path
   fill-rule="evenodd"
   clip-rule="evenodd"
   fill="#59A098"
   d="M189.167,50.553c0,5.182,0.002,10.359,0,15.539  c0,1.096-0.072,1.16-1.174,1.168c-1.994,0.014-1.842,0.088-1.842-1.809c0.002-10.059,0.002-20.115,0.002-30.172  c0-1.275,0.002-1.275,1.289-1.277c1.725,0,1.725,0,1.725,1.754C189.167,40.688,189.167,45.622,189.167,50.553z"
   id="path19"
   style="stroke:none;stroke-opacity:0;fill:#333333;fill-opacity:1" />
<path
   fill-rule="evenodd"
   clip-rule="evenodd"
   fill="#59A098"
   d="M198.725,54.758c0,3.811,0.002,7.619-0.002,11.43  c-0.002,1.004-0.07,1.068-1.084,1.07c-2.156,0.006-1.928,0.158-1.928-1.955c-0.004-7.316-0.002-14.637-0.002-21.953  c0-1.139,0.074-1.199,1.211-1.217c2.182-0.033,1.795,0.154,1.801,1.771C198.735,47.522,198.725,51.139,198.725,54.758z"
   id="path21"
   style="stroke:none;stroke-opacity:0;fill:#333333;fill-opacity:1" />
<path
   fill-rule="evenodd"
   clip-rule="evenodd"
   fill="#59A098"
   d="M197.211,38.481c-1.52-0.01-2.777-1.271-2.762-2.775  c0.014-1.52,1.279-2.785,2.777-2.775c1.508,0.008,2.777,1.293,2.76,2.793C199.969,37.258,198.731,38.489,197.211,38.481z"
   id="path23"
   style="stroke:none;stroke-opacity:0;fill:#333333;fill-opacity:1" />
<g
   id="g25">
	<path
   fill-rule="evenodd"
   clip-rule="evenodd"
   fill="#EC2F84"
   d="M81.893,31.772c-3.178-2.822-3.469-7.682-0.646-10.855   c2.818-3.176,7.682-3.463,10.855-0.645c3.18,2.822,3.465,7.684,0.642,10.857C89.928,34.303,85.065,34.588,81.893,31.772z"
   id="path27" />
	<path
   fill-rule="evenodd"
   clip-rule="evenodd"
   fill="#71669D"
   d="M68.737,22.999c-3.664-1.092-5.748-4.945-4.656-8.609   c1.094-3.662,4.951-5.746,8.613-4.652c3.664,1.092,5.746,4.947,4.648,8.609C76.254,22.006,72.399,24.09,68.737,22.999z"
   id="path29" />
	<path
   fill-rule="evenodd"
   clip-rule="evenodd"
   fill="#1AB5E9"
   d="M52.774,20.583c-3.361,0.496-6.49-1.824-6.984-5.186   c-0.496-3.359,1.828-6.488,5.189-6.986c3.363-0.494,6.488,1.828,6.981,5.193C58.458,16.961,56.133,20.086,52.774,20.583z"
   id="path31" />
	<path
   fill-rule="evenodd"
   clip-rule="evenodd"
   fill="#73B544"
   d="M36.976,25.258c-2.485,1.637-5.821,0.955-7.457-1.529   c-1.636-2.48-0.95-5.82,1.53-7.459c2.484-1.637,5.822-0.951,7.457,1.533C40.141,20.284,39.456,23.622,36.976,25.258z"
   id="path33" />
	<path
   fill-rule="evenodd"
   clip-rule="evenodd"
   fill="#FEBC11"
   d="M24.401,36.411c-1.338,2.172-4.178,2.85-6.348,1.514   c-2.17-1.334-2.846-4.178-1.512-6.35c1.338-2.168,4.179-2.848,6.35-1.508C25.057,31.399,25.734,34.243,24.401,36.411z"
   id="path35" />
	<circle
   fill-rule="evenodd"
   clip-rule="evenodd"
   fill="#EF8122"
   cx="13.791"
   cy="51.705"
   r="3.845"
   id="circle37" />
	<path
   fill-rule="evenodd"
   clip-rule="evenodd"
   fill="#A41C47"
   d="M18.139,69.61c0.537,1.615-0.335,3.355-1.947,3.893   c-1.611,0.535-3.354-0.336-3.89-1.951c-0.536-1.611,0.335-3.354,1.95-3.887C15.862,67.127,17.602,68,18.139,69.61z"
   id="path39" />
</g>
<g
   id="g41"
   style="stroke:none;stroke-opacity:0;fill:#333333;fill-opacity:1">
	<path
   fill="#59A098"
   d="M159.174,74.986h2.766c0.474,0,0.906,0.042,1.298,0.127c0.393,0.085,0.731,0.218,1.014,0.396   c0.284,0.181,0.503,0.415,0.66,0.703c0.156,0.289,0.234,0.636,0.234,1.042c0,0.464-0.133,0.883-0.398,1.255   c-0.264,0.375-0.675,0.632-1.233,0.774v0.056c0.681,0.104,1.209,0.341,1.588,0.71c0.378,0.369,0.568,0.874,0.568,1.518   c0,0.454-0.085,0.851-0.255,1.191c-0.17,0.341-0.411,0.624-0.724,0.851c-0.312,0.228-0.683,0.397-1.114,0.511   c-0.43,0.113-0.904,0.17-1.425,0.17h-2.979V74.986z M161.742,78.958c0.794,0,1.367-0.137,1.716-0.411   c0.35-0.274,0.524-0.671,0.524-1.192c0-0.51-0.184-0.876-0.552-1.098c-0.369-0.223-0.912-0.334-1.631-0.334h-1.433v3.035H161.742z    M161.983,83.354c0.804,0,1.426-0.148,1.865-0.447c0.439-0.297,0.66-0.763,0.66-1.397c0-0.576-0.214-1-0.646-1.269   c-0.43-0.27-1.057-0.404-1.879-0.404h-1.617v3.517H161.983z"
   id="path43"
   style="stroke:none;stroke-opacity:0;fill:#333333;fill-opacity:1" />
	<path
   fill="#59A098"
   d="M166.862,80.858c0-0.567,0.088-1.076,0.263-1.524c0.174-0.449,0.406-0.831,0.694-1.143   c0.289-0.312,0.617-0.551,0.986-0.716c0.369-0.165,0.752-0.248,1.149-0.248c0.435,0,0.825,0.075,1.17,0.227   c0.344,0.152,0.633,0.369,0.865,0.653c0.232,0.284,0.409,0.624,0.532,1.021c0.123,0.396,0.185,0.842,0.185,1.333   c0,0.256-0.014,0.468-0.042,0.638h-4.653c0.047,0.748,0.276,1.339,0.688,1.773c0.412,0.435,0.947,0.652,1.61,0.652   c0.331,0,0.635-0.05,0.915-0.148c0.279-0.099,0.546-0.229,0.801-0.39l0.412,0.766c-0.303,0.189-0.638,0.355-1.006,0.496   c-0.37,0.143-0.79,0.213-1.262,0.213c-0.464,0-0.896-0.083-1.298-0.248c-0.402-0.166-0.752-0.402-1.051-0.709   c-0.298-0.307-0.532-0.683-0.702-1.127C166.947,81.931,166.862,81.425,166.862,80.858z M171.685,80.333   c0-0.709-0.148-1.25-0.447-1.624c-0.297-0.374-0.716-0.561-1.255-0.561c-0.246,0-0.48,0.049-0.701,0.149   c-0.223,0.099-0.424,0.241-0.604,0.426c-0.179,0.184-0.328,0.411-0.446,0.68c-0.119,0.27-0.197,0.579-0.234,0.929H171.685z"
   id="path45"
   style="stroke:none;stroke-opacity:0;fill:#333333;fill-opacity:1" />
	<path
   fill="#59A098"
   d="M177.74,81.397h-1.134v-0.808h1.234l0.255-2.099h-1.206v-0.822h1.306l0.326-2.596h0.752l-0.327,2.596h1.887   l0.341-2.596h0.751l-0.341,2.596h1.15v0.822H181.5l-0.255,2.099h1.205v0.808h-1.305l-0.354,2.894h-0.751l0.339-2.894h-1.872   l-0.354,2.894h-0.767L177.74,81.397z M180.479,80.589l0.255-2.099h-1.872l-0.255,2.099H180.479z"
   id="path47"
   style="stroke:none;stroke-opacity:0;fill:#333333;fill-opacity:1" />
	<path
   fill="#59A098"
   d="M184.393,74.986h2.865c0.51,0,0.979,0.047,1.404,0.142c0.426,0.094,0.788,0.248,1.085,0.461   c0.297,0.212,0.529,0.493,0.695,0.843c0.165,0.35,0.248,0.781,0.248,1.291c0,0.492-0.083,0.917-0.248,1.276   c-0.166,0.36-0.4,0.658-0.703,0.893c-0.302,0.237-0.664,0.414-1.085,0.532c-0.421,0.118-0.887,0.178-1.397,0.178h-1.674v3.688   h-1.191V74.986z M187.102,79.639c0.823,0,1.43-0.154,1.823-0.461c0.393-0.308,0.589-0.792,0.589-1.454   c0-0.672-0.201-1.137-0.603-1.397c-0.402-0.26-1.005-0.39-1.809-0.39h-1.518v3.702H187.102z"
   id="path49"
   style="stroke:none;stroke-opacity:0;fill:#333333;fill-opacity:1" />
	<path
   fill="#59A098"
   d="M191.57,80.858c0-0.577,0.088-1.09,0.263-1.54c0.174-0.449,0.409-0.829,0.702-1.141   c0.292-0.313,0.63-0.548,1.014-0.709c0.383-0.161,0.788-0.241,1.213-0.241s0.83,0.081,1.212,0.241   c0.384,0.161,0.721,0.397,1.015,0.709c0.293,0.312,0.527,0.692,0.702,1.141c0.175,0.449,0.263,0.963,0.263,1.54   c0,0.566-0.088,1.076-0.263,1.525c-0.175,0.449-0.409,0.827-0.702,1.135c-0.293,0.307-0.631,0.542-1.015,0.702   c-0.382,0.161-0.787,0.241-1.212,0.241s-0.83-0.08-1.213-0.241c-0.383-0.16-0.722-0.395-1.014-0.702   c-0.293-0.308-0.528-0.686-0.702-1.135C191.658,81.935,191.57,81.425,191.57,80.858z M192.775,80.858   c0,0.397,0.048,0.756,0.142,1.078c0.095,0.322,0.229,0.598,0.405,0.83c0.175,0.232,0.385,0.412,0.63,0.539   c0.246,0.128,0.516,0.192,0.809,0.192s0.563-0.064,0.809-0.192c0.246-0.127,0.456-0.307,0.632-0.539   c0.174-0.232,0.309-0.508,0.403-0.83c0.095-0.321,0.143-0.68,0.143-1.078s-0.047-0.758-0.143-1.085   c-0.094-0.327-0.229-0.608-0.403-0.844c-0.176-0.236-0.386-0.419-0.632-0.546c-0.246-0.127-0.516-0.192-0.809-0.192   s-0.563,0.064-0.809,0.192c-0.245,0.127-0.456,0.31-0.63,0.546c-0.175,0.236-0.31,0.518-0.405,0.844   C192.823,80.1,192.775,80.461,192.775,80.858z"
   id="path51"
   style="stroke:none;stroke-opacity:0;fill:#333333;fill-opacity:1" />
	<path
   fill="#59A098"
   d="M198.889,77.398h1.191l1.021,3.986c0.075,0.331,0.147,0.651,0.212,0.963   c0.066,0.313,0.133,0.629,0.199,0.951h0.057c0.076-0.321,0.151-0.64,0.226-0.957c0.076-0.317,0.157-0.636,0.242-0.957l1.063-3.986   h1.135l1.078,3.986c0.085,0.331,0.167,0.651,0.249,0.963c0.081,0.313,0.158,0.629,0.234,0.951h0.057   c0.076-0.321,0.146-0.638,0.213-0.951c0.066-0.312,0.137-0.633,0.213-0.963l1.007-3.986h1.107l-1.845,6.893h-1.418l-0.992-3.702   c-0.085-0.331-0.164-0.657-0.234-0.979c-0.071-0.322-0.149-0.657-0.234-1.006h-0.057c-0.077,0.349-0.152,0.688-0.227,1.013   c-0.077,0.326-0.161,0.655-0.255,0.986l-0.965,3.688h-1.361L198.889,77.398z"
   id="path53"
   style="stroke:none;stroke-opacity:0;fill:#333333;fill-opacity:1" />
	<path
   fill="#59A098"
   d="M209.329,80.858c0-0.567,0.087-1.076,0.262-1.524c0.176-0.449,0.407-0.831,0.695-1.143   c0.289-0.312,0.617-0.551,0.986-0.716s0.752-0.248,1.15-0.248c0.434,0,0.824,0.075,1.169,0.227   c0.345,0.152,0.633,0.369,0.865,0.653c0.231,0.284,0.409,0.624,0.532,1.021c0.123,0.396,0.185,0.842,0.185,1.333   c0,0.256-0.014,0.468-0.043,0.638h-4.652c0.047,0.748,0.276,1.339,0.688,1.773c0.412,0.435,0.948,0.652,1.609,0.652   c0.333,0,0.636-0.05,0.916-0.148c0.279-0.099,0.545-0.229,0.801-0.39l0.411,0.766c-0.303,0.189-0.638,0.355-1.007,0.496   c-0.368,0.143-0.789,0.213-1.262,0.213c-0.463,0-0.896-0.083-1.298-0.248c-0.402-0.166-0.751-0.402-1.049-0.709   c-0.297-0.307-0.531-0.683-0.702-1.127C209.414,81.931,209.329,81.425,209.329,80.858z M214.151,80.333   c0-0.709-0.149-1.25-0.446-1.624c-0.298-0.374-0.717-0.561-1.256-0.561c-0.246,0-0.48,0.049-0.701,0.149   c-0.223,0.099-0.425,0.241-0.603,0.426c-0.18,0.184-0.329,0.411-0.448,0.68c-0.118,0.27-0.196,0.579-0.233,0.929H214.151z"
   id="path55"
   style="stroke:none;stroke-opacity:0;fill:#333333;fill-opacity:1" />
	<path
   fill="#59A098"
   d="M216.874,77.398h0.964l0.1,1.247h0.043c0.236-0.435,0.522-0.78,0.858-1.035   c0.335-0.255,0.702-0.383,1.099-0.383c0.274,0,0.521,0.047,0.738,0.142l-0.228,1.021c-0.114-0.038-0.218-0.066-0.312-0.085   c-0.095-0.02-0.213-0.029-0.355-0.029c-0.293,0-0.598,0.118-0.915,0.354c-0.317,0.237-0.594,0.649-0.83,1.234v4.425h-1.163V77.398z   "
   id="path57"
   style="stroke:none;stroke-opacity:0;fill:#333333;fill-opacity:1" />
	<path
   fill="#59A098"
   d="M221.143,80.858c0-0.567,0.088-1.076,0.263-1.524c0.175-0.449,0.406-0.831,0.695-1.143   c0.289-0.312,0.616-0.551,0.986-0.716c0.369-0.165,0.751-0.248,1.149-0.248c0.435,0,0.824,0.075,1.17,0.227   c0.345,0.152,0.634,0.369,0.865,0.653c0.231,0.284,0.409,0.624,0.533,1.021c0.122,0.396,0.184,0.842,0.184,1.333   c0,0.256-0.015,0.468-0.043,0.638h-4.652c0.047,0.748,0.276,1.339,0.687,1.773c0.412,0.435,0.948,0.652,1.61,0.652   c0.331,0,0.636-0.05,0.916-0.148c0.278-0.099,0.545-0.229,0.8-0.39l0.412,0.766c-0.303,0.189-0.639,0.355-1.007,0.496   c-0.369,0.143-0.79,0.213-1.262,0.213c-0.464,0-0.896-0.083-1.298-0.248c-0.402-0.166-0.751-0.402-1.049-0.709   c-0.298-0.307-0.532-0.683-0.702-1.127C221.228,81.931,221.143,81.425,221.143,80.858z M225.965,80.333   c0-0.709-0.149-1.25-0.446-1.624c-0.298-0.374-0.716-0.561-1.255-0.561c-0.246,0-0.481,0.049-0.703,0.149   c-0.222,0.099-0.423,0.241-0.603,0.426c-0.18,0.184-0.329,0.411-0.447,0.68c-0.119,0.27-0.197,0.579-0.234,0.929H225.965z"
   id="path59"
   style="stroke:none;stroke-opacity:0;fill:#333333;fill-opacity:1" />
	<path
   fill="#59A098"
   d="M228.193,80.858c0-0.558,0.082-1.062,0.247-1.511c0.167-0.449,0.386-0.829,0.66-1.141   c0.274-0.313,0.591-0.554,0.95-0.723c0.359-0.17,0.737-0.256,1.135-0.256c0.397,0,0.743,0.071,1.035,0.212   c0.293,0.143,0.591,0.336,0.894,0.582l-0.057-1.176v-2.653h1.177v10.099h-0.964l-0.099-0.808h-0.042   c-0.275,0.265-0.59,0.494-0.944,0.688s-0.736,0.291-1.142,0.291c-0.871,0-1.563-0.312-2.078-0.937   C228.45,82.9,228.193,82.012,228.193,80.858z M229.398,80.844c0,0.833,0.165,1.48,0.496,1.943c0.333,0.464,0.8,0.695,1.405,0.695   c0.321,0,0.625-0.078,0.908-0.234c0.284-0.157,0.568-0.395,0.851-0.716v-3.603c-0.293-0.264-0.575-0.451-0.844-0.56   c-0.27-0.109-0.546-0.163-0.829-0.163c-0.274,0-0.532,0.063-0.773,0.191c-0.241,0.128-0.452,0.307-0.631,0.539   c-0.18,0.231-0.322,0.508-0.426,0.829C229.45,80.087,229.398,80.447,229.398,80.844z"
   id="path61"
   style="stroke:none;stroke-opacity:0;fill:#333333;fill-opacity:1" />
	<path
   fill="#59A098"
   d="M236.632,74.986h2.766c0.473,0,0.906,0.042,1.298,0.127c0.392,0.085,0.73,0.218,1.013,0.396   c0.285,0.181,0.504,0.415,0.66,0.703c0.156,0.289,0.234,0.636,0.234,1.042c0,0.464-0.132,0.883-0.397,1.255   c-0.265,0.375-0.676,0.632-1.234,0.774v0.056c0.681,0.104,1.209,0.341,1.588,0.71c0.378,0.369,0.568,0.874,0.568,1.518   c0,0.454-0.086,0.851-0.255,1.191c-0.17,0.341-0.412,0.624-0.724,0.851c-0.312,0.228-0.684,0.397-1.114,0.511   c-0.43,0.113-0.906,0.17-1.426,0.17h-2.978V74.986z M239.199,78.958c0.794,0,1.367-0.137,1.717-0.411s0.524-0.671,0.524-1.192   c0-0.51-0.184-0.876-0.553-1.098c-0.369-0.223-0.912-0.334-1.63-0.334h-1.434v3.035H239.199z M239.44,83.354   c0.804,0,1.425-0.148,1.865-0.447c0.44-0.297,0.66-0.763,0.66-1.397c0-0.576-0.215-1-0.645-1.269   c-0.431-0.27-1.057-0.404-1.879-0.404h-1.618v3.517H239.44z"
   id="path63"
   style="stroke:none;stroke-opacity:0;fill:#333333;fill-opacity:1" />
	<path
   fill="#59A098"
   d="M244.419,86.255c0.094,0.023,0.184,0.036,0.27,0.036c0.397,0,0.72-0.14,0.971-0.418   c0.25-0.279,0.447-0.63,0.588-1.057l0.156-0.51l-2.765-6.908h1.206l1.403,3.815c0.104,0.303,0.216,0.622,0.334,0.958   c0.119,0.335,0.229,0.665,0.333,0.986h0.057c0.104-0.313,0.203-0.639,0.297-0.979c0.096-0.34,0.189-0.662,0.285-0.964l1.234-3.815   h1.135l-2.596,7.46c-0.123,0.341-0.26,0.657-0.412,0.95c-0.15,0.293-0.331,0.547-0.539,0.759c-0.208,0.213-0.444,0.381-0.708,0.504   c-0.265,0.123-0.573,0.184-0.922,0.184c-0.161,0-0.307-0.012-0.439-0.036c-0.133-0.024-0.255-0.06-0.369-0.106l0.227-0.922   C244.238,86.21,244.324,86.231,244.419,86.255z"
   id="path65"
   style="stroke:none;stroke-opacity:0;fill:#333333;fill-opacity:1" />
	<path
   fill="#59A098"
   d="M252.745,80.688l-2.809-5.702h1.277l1.191,2.624c0.151,0.341,0.3,0.676,0.447,1.008   c0.146,0.331,0.3,0.67,0.461,1.021h0.056c0.161-0.351,0.32-0.69,0.476-1.021c0.156-0.332,0.305-0.667,0.447-1.008l1.205-2.624h1.22   l-2.793,5.702v3.602h-1.177V80.688z"
   id="path67"
   style="stroke:none;stroke-opacity:0;fill:#333333;fill-opacity:1" />
	<path
   fill="#59A098"
   d="M256.744,80.858c0-0.577,0.088-1.09,0.263-1.54c0.174-0.449,0.409-0.829,0.702-1.141   c0.292-0.313,0.63-0.548,1.014-0.709c0.382-0.161,0.788-0.241,1.213-0.241c0.425,0,0.829,0.081,1.212,0.241   c0.384,0.161,0.721,0.397,1.015,0.709c0.293,0.312,0.527,0.692,0.701,1.141c0.175,0.449,0.262,0.963,0.262,1.54   c0,0.566-0.087,1.076-0.262,1.525c-0.174,0.449-0.408,0.827-0.701,1.135c-0.294,0.307-0.631,0.542-1.015,0.702   c-0.383,0.161-0.787,0.241-1.212,0.241c-0.426,0-0.831-0.08-1.213-0.241c-0.383-0.16-0.722-0.395-1.014-0.702   c-0.293-0.308-0.528-0.686-0.702-1.135C256.832,81.935,256.744,81.425,256.744,80.858z M257.95,80.858   c0,0.397,0.047,0.756,0.142,1.078c0.094,0.322,0.229,0.598,0.405,0.83c0.175,0.232,0.385,0.412,0.63,0.539   c0.246,0.128,0.516,0.192,0.809,0.192c0.293,0,0.562-0.064,0.808-0.192c0.246-0.127,0.456-0.307,0.631-0.539   c0.175-0.232,0.31-0.508,0.404-0.83c0.095-0.321,0.142-0.68,0.142-1.078s-0.047-0.758-0.142-1.085   c-0.094-0.327-0.229-0.608-0.404-0.844c-0.175-0.236-0.386-0.419-0.631-0.546c-0.246-0.127-0.515-0.192-0.808-0.192   c-0.293,0-0.563,0.064-0.809,0.192c-0.246,0.127-0.456,0.31-0.63,0.546c-0.176,0.236-0.311,0.518-0.405,0.844   C257.997,80.1,257.95,80.461,257.95,80.858z"
   id="path69"
   style="stroke:none;stroke-opacity:0;fill:#333333;fill-opacity:1" />
	<path
   fill="#59A098"
   d="M264.418,85.61c0-0.293,0.089-0.573,0.27-0.837c0.18-0.265,0.425-0.505,0.737-0.724v-0.056   c-0.17-0.104-0.315-0.249-0.433-0.433c-0.118-0.184-0.177-0.413-0.177-0.688c0-0.292,0.08-0.548,0.241-0.765   c0.161-0.218,0.331-0.388,0.511-0.511v-0.057c-0.227-0.189-0.433-0.442-0.617-0.759c-0.184-0.316-0.277-0.683-0.277-1.099   c0-0.378,0.069-0.719,0.206-1.022c0.137-0.302,0.324-0.56,0.56-0.772c0.237-0.213,0.513-0.376,0.83-0.489   c0.316-0.114,0.649-0.171,1-0.171c0.189,0,0.366,0.017,0.532,0.05s0.314,0.074,0.446,0.121h2.397v0.892h-1.418   c0.161,0.162,0.295,0.365,0.404,0.611c0.108,0.246,0.162,0.515,0.162,0.808c0,0.369-0.066,0.703-0.198,1   c-0.133,0.298-0.313,0.549-0.539,0.752c-0.227,0.204-0.495,0.362-0.801,0.475c-0.308,0.114-0.636,0.171-0.986,0.171   c-0.17,0-0.346-0.022-0.525-0.064c-0.18-0.042-0.35-0.101-0.51-0.177c-0.123,0.104-0.228,0.219-0.313,0.347   c-0.085,0.128-0.128,0.286-0.128,0.476c0,0.217,0.085,0.396,0.255,0.54c0.17,0.142,0.492,0.212,0.964,0.212h1.333   c0.804,0,1.406,0.131,1.809,0.39c0.401,0.26,0.603,0.679,0.603,1.255c0,0.322-0.08,0.626-0.241,0.916   c-0.161,0.288-0.393,0.541-0.696,0.758c-0.303,0.218-0.669,0.391-1.099,0.518c-0.431,0.128-0.915,0.192-1.454,0.192   c-0.426,0-0.814-0.041-1.164-0.121c-0.349-0.08-0.649-0.201-0.9-0.361c-0.25-0.161-0.445-0.354-0.582-0.582   C264.486,86.178,264.418,85.913,264.418,85.61z M265.438,85.453c0,0.37,0.178,0.662,0.533,0.88   c0.354,0.218,0.844,0.326,1.468,0.326c0.331,0,0.631-0.04,0.9-0.12c0.27-0.081,0.498-0.184,0.688-0.312   c0.189-0.128,0.335-0.277,0.44-0.447c0.104-0.169,0.156-0.346,0.156-0.524c0-0.322-0.118-0.544-0.355-0.667   c-0.236-0.123-0.581-0.184-1.035-0.184h-1.191c-0.132,0-0.277-0.007-0.433-0.021s-0.31-0.045-0.461-0.092   c-0.246,0.18-0.425,0.37-0.539,0.567C265.496,85.057,265.438,85.255,265.438,85.453z M267.269,81.327   c0.199,0,0.385-0.038,0.56-0.114c0.175-0.076,0.331-0.184,0.468-0.326c0.137-0.142,0.243-0.315,0.319-0.518   c0.076-0.202,0.113-0.433,0.113-0.687c0-0.512-0.142-0.905-0.425-1.185c-0.284-0.278-0.629-0.418-1.035-0.418   c-0.408,0-0.752,0.14-1.035,0.418c-0.285,0.28-0.426,0.673-0.426,1.185c0,0.254,0.038,0.485,0.114,0.687   c0.075,0.203,0.182,0.376,0.319,0.518c0.137,0.142,0.293,0.25,0.467,0.326C266.883,81.289,267.07,81.327,267.269,81.327z"
   id="path71"
   style="stroke:none;stroke-opacity:0;fill:#333333;fill-opacity:1" />
	<path
   fill="#59A098"
   d="M271.524,82.503c0-0.756,0.338-1.335,1.015-1.736c0.676-0.402,1.751-0.684,3.227-0.844   c0-0.218-0.021-0.431-0.065-0.638c-0.042-0.208-0.118-0.392-0.227-0.554c-0.109-0.16-0.252-0.291-0.433-0.39   c-0.179-0.1-0.411-0.149-0.695-0.149c-0.407,0-0.782,0.076-1.128,0.228c-0.345,0.151-0.654,0.322-0.928,0.51l-0.468-0.809   c0.321-0.208,0.713-0.409,1.177-0.603c0.463-0.194,0.974-0.291,1.532-0.291c0.841,0,1.451,0.258,1.83,0.774   c0.378,0.515,0.566,1.203,0.566,2.063v4.227h-0.964l-0.099-0.822h-0.029c-0.331,0.274-0.688,0.508-1.071,0.702   c-0.382,0.194-0.787,0.291-1.212,0.291c-0.586,0-1.071-0.17-1.454-0.51C271.715,83.609,271.524,83.128,271.524,82.503z    M272.673,82.418c0,0.398,0.116,0.682,0.347,0.851c0.232,0.17,0.519,0.255,0.858,0.255c0.331,0,0.646-0.078,0.943-0.234   c0.297-0.155,0.612-0.385,0.944-0.688v-1.914c-0.578,0.075-1.065,0.166-1.462,0.269c-0.397,0.104-0.716,0.227-0.958,0.369   c-0.24,0.141-0.413,0.304-0.517,0.488C272.725,82,272.673,82.201,272.673,82.418z"
   id="path73"
   style="stroke:none;stroke-opacity:0;fill:#333333;fill-opacity:1" />
</g>
</svg>