<?xml version="1.0" encoding="utf-8"?>
<!-- Generator: Adobe Illustrator 16.0.3, SVG Export Plug-In . SVG Version: 6.00 Build 0)  -->
<!DOCTYPE svg PUBLIC "-//W3C//DTD SVG 1.1//EN" "http://www.w3.org/Graphics/SVG/1.1/DTD/svg11.dtd">
<svg version="1.1" id="Layer_1" xmlns="http://www.w3.org/2000/svg" xmlns:xlink="http://www.w3.org/1999/xlink" x="0px" y="0px"
	 width="348.5px" height="98.833px" viewBox="0 0 348.5 98.833" enable-background="new 0 0 348.5 98.833" xml:space="preserve">
<path fill-rule="evenodd" clip-rule="evenodd" fill="#FFFFFF" d="M119.474,43.651c0.151-0.613,0.29-1.07,0.375-1.537
	c0.127-0.697,0.46-1.01,1.226-1.01c0.896,0,1.7,0,2.55,0c0.737,0,1.028,0.285,1.023,1.029c-0.021,3.152-0.006,6.307-0.01,9.459
	c-0.006,4.525,0.131,9.057-0.066,13.572c-0.227,5.188-2.464,9.273-7.408,11.475c-3.199,1.424-6.556,1.369-9.925,0.754
	c-2.956-0.539-5.53-1.844-7.72-3.922c-0.57-0.543-0.67-0.994-0.124-1.598c0.66-0.732,1.269-1.51,1.912-2.26
	c0.671-0.781,0.993-0.818,1.771-0.143c3.147,2.729,6.789,3.559,10.807,2.711c3.189-0.672,5.518-3.527,5.652-6.74
	c0.006-0.129-0.02-0.26-0.046-0.588c-4.086,3.711-8.666,3.756-13.432,2.102c-2.812-0.977-4.952-2.85-6.478-5.424
	c-3.125-5.273-2.115-12.916,2.162-17.104C105.748,40.508,114.526,39.024,119.474,43.651z M119.019,54.438
	c0-1.537,0.012-3.072-0.013-4.607c-0.004-0.273-0.085-0.609-0.258-0.807c-2.787-3.193-8.239-3.967-11.807-1.695
	c-2.674,1.701-4.061,5.094-3.502,8.471c0.434,2.621,1.688,4.662,4.079,5.912c3.455,1.811,8.2,1.049,10.97-1.715
	c0.372-0.371,0.559-0.738,0.543-1.281C118.992,57.292,119.019,55.864,119.019,54.438z"/>
<path fill-rule="evenodd" clip-rule="evenodd" fill="#FFFFFF" d="M147.266,49.829c0.18-2.047-0.938-3.289-3.247-3.621
	c-3.47-0.502-6.76,0.039-9.819,1.811c-1.286,0.744-1.401,0.713-2.249-0.482c-0.46-0.648-0.928-1.289-1.373-1.947
	c-0.324-0.479-0.297-0.902,0.219-1.27c4.99-3.543,10.448-4.531,16.293-2.742c3.731,1.141,5.742,3.98,5.833,7.852
	c0.063,2.688,0.05,5.375,0.021,8.064c-0.029,2.732,0.256,5.408,1.155,8.006c0.331,0.957,0.215,1.135-0.717,1.441
	c-0.936,0.307-1.876,0.598-2.808,0.916c-0.572,0.195-0.926,0.061-1.146-0.537c-0.339-0.924-0.735-1.824-1.113-2.734
	c-0.018-0.041-0.082-0.063-0.171-0.127c-0.196,0.156-0.405,0.322-0.612,0.49c-3.69,2.992-7.882,3.705-12.37,2.471
	c-3.629-1-5.623-3.654-5.873-7.354c-0.225-3.326,1.604-6.25,4.835-7.809c2.191-1.057,4.56-1.309,6.92-1.617
	C143.107,50.372,145.169,50.102,147.266,49.829z M147.326,54.581c-2.269,0.373-4.457,0.701-6.632,1.109
	c-1.31,0.244-2.648,0.477-3.878,0.957c-1.455,0.57-2.003,1.73-1.854,3.219c0.129,1.283,0.938,2.289,2.398,2.563
	c3.708,0.691,7.005-0.102,9.611-3.004c0.155-0.174,0.334-0.412,0.339-0.625C147.34,57.411,147.326,56.018,147.326,54.581z"/>
<path fill-rule="evenodd" clip-rule="evenodd" fill="#FFFFFF" d="M80.923,67.956c-7.865,0.008-14.066-6.133-13.92-13.928
	c0.139-7.371,6.314-13.314,14.014-13.271c7.726,0.043,13.855,6.105,13.803,13.652C94.767,62.026,88.652,67.987,80.923,67.956z
	 M89.113,54.403c0.027-4.859-3.343-8.348-8.09-8.371c-4.882-0.025-8.322,3.395-8.357,8.309c-0.033,4.795,3.391,8.285,8.168,8.326
	C85.672,62.708,89.085,59.303,89.113,54.403z"/>
<path fill-rule="evenodd" clip-rule="evenodd" fill="#FFFFFF" d="M52.994,59.874c0.503-1.379,1.012-2.756,1.506-4.137
	c1.642-4.584,3.292-9.164,4.9-13.758c0.234-0.67,0.591-0.891,1.264-0.875c1.397,0.035,2.797,0.008,4.195,0.012
	c0.977,0.004,1.071,0.141,0.697,1.057c-2.42,5.922-4.84,11.844-7.272,17.764c-1.299,3.16-2.566,6.336-3.952,9.457
	c-0.948,2.135-2.437,3.84-4.697,4.697c-1.658,0.631-3.361,0.682-5.087,0.285c-0.636-0.146-0.921-0.492-0.903-1.156
	c0.029-1.041,0.025-2.084,0.002-3.125c-0.016-0.699,0.299-0.893,0.965-0.852c0.893,0.055,1.811,0.119,2.685-0.021
	c1.315-0.213,2.446-1.645,2.454-2.941c0.002-0.254-0.137-0.521-0.248-0.764c-3.573-7.748-7.15-15.496-10.727-23.244
	c-0.495-1.074-0.441-1.168,0.727-1.17c1.398,0,2.799,0,4.195,0c0.647-0.02,0.996,0.215,1.246,0.805
	c2.439,5.734,4.898,11.463,7.354,17.191c0.12,0.279,0.284,0.539,0.429,0.809C52.815,59.895,52.905,59.885,52.994,59.874z"/>
<path fill-rule="evenodd" clip-rule="evenodd" fill="#FFFFFF" d="M238.801,54.774c-1.385,1.143-2.721,2.195-3.99,3.32
	c-0.295,0.262-0.51,0.771-0.518,1.17c-0.047,2.33-0.041,4.662-0.014,6.992c0.01,0.744-0.258,1.023-1.008,1.014
	c-2.188-0.025-2.018,0.146-2.018-1.984c0.002-10.01,0.002-20.018,0.002-30.025c0-1.236,0.02-1.256,1.236-1.256
	c1.9,0,1.779-0.172,1.777,1.771c-0.002,6.088,0,12.174,0,18.262c0,0.291,0,0.582,0,1.082c0.357-0.313,0.576-0.498,0.785-0.691
	c4.18-3.838,8.367-7.668,12.525-11.529c0.613-0.568,1.24-0.84,2.063-0.773c0.6,0.049,1.207-0.01,1.809,0.027
	c0.186,0.01,0.461,0.139,0.514,0.281c0.059,0.158-0.039,0.438-0.164,0.582c-0.266,0.311-0.59,0.572-0.895,0.848
	c-3.141,2.822-6.279,5.645-9.422,8.465c-0.182,0.162-0.379,0.307-0.59,0.479c2.914,3.348,5.758,6.613,8.602,9.879
	c0.99,1.137,1.994,2.262,2.955,3.424c0.199,0.24,0.24,0.613,0.354,0.926c-0.277,0.074-0.553,0.217-0.828,0.213
	c-3.105-0.033-2.207,0.438-4.262-1.961c-2.871-3.352-5.707-6.732-8.559-10.102C239.051,55.061,238.944,54.938,238.801,54.774z"/>
<path fill-rule="evenodd" clip-rule="evenodd" fill="#FFFFFF" d="M265.26,67.67c-4.084-0.041-7.781-1.123-10.969-3.764
	c-0.563-0.467-0.639-0.848-0.209-1.443c1.191-1.652,1.156-1.637,2.752-0.439c4.01,3.016,8.457,3.527,13.16,2.098
	c1.854-0.563,3.248-1.717,3.408-3.859c0.119-1.605-0.545-2.891-2.016-3.424c-1.758-0.637-3.615-1.016-5.449-1.424
	c-2.211-0.49-4.477-0.771-6.656-1.369c-1.904-0.521-3.467-1.656-4.146-3.654c-0.904-2.656,0.066-5.283,2.502-6.836
	c2.109-1.346,4.477-1.738,6.91-1.771c3.684-0.053,7.113,0.779,10.064,3.123c0.973,0.771,0.98,0.879,0.178,1.799
	c-0.162,0.188-0.33,0.369-0.479,0.564c-0.402,0.533-0.807,0.527-1.316,0.107c-3.461-2.852-7.443-3.371-11.688-2.479
	c-0.803,0.168-1.621,0.559-2.281,1.049c-1.82,1.355-1.619,4.061,0.438,4.992c1.322,0.598,2.811,0.855,4.244,1.174
	c2.639,0.584,5.344,0.928,7.926,1.691c2.658,0.787,4.541,2.529,4.738,5.543c0.225,3.422-1.527,5.971-5,7.234
	c-0.947,0.344-1.934,0.611-2.926,0.783C267.399,67.547,266.323,67.575,265.26,67.67z"/>
<path fill-rule="evenodd" clip-rule="evenodd" fill="#FFFFFF" d="M217.491,67.604c-7.031,0.02-11.813-3.369-13.535-8.797
	c-1.762-5.551,0.172-11.445,4.83-14.732c5.434-3.834,13.514-2.756,17.701,2.346c0.383,0.465,0.365,0.791-0.105,1.162
	c-1.801,1.428-1.455,1.422-2.898-0.047c-3.131-3.184-7.893-3.896-11.816-1.873c-3.727,1.922-5.805,6.229-5.113,10.604
	c0.641,4.037,2.801,6.93,6.738,8.111c4.049,1.215,7.689,0.242,10.652-2.885c0.857-0.904,0.904-0.918,1.857-0.115
	c1.25,1.053,1.258,1.063,0.139,2.246C223.342,66.372,220.1,67.581,217.491,67.604z"/>
<path fill-rule="evenodd" clip-rule="evenodd" fill="#FFFFFF" d="M172.301,67.604c-6.955,0.016-11.725-3.369-13.451-8.803
	c-1.76-5.547,0.178-11.447,4.838-14.73c5.436-3.83,13.521-2.748,17.699,2.354c0.385,0.469,0.354,0.793-0.113,1.162
	c-1.811,1.436-1.455,1.408-2.898-0.055c-3.141-3.182-7.895-3.893-11.818-1.865c-3.723,1.92-5.797,6.219-5.105,10.605
	c0.637,4.039,2.807,6.928,6.742,8.107c4.051,1.213,7.689,0.238,10.65-2.891c0.854-0.9,0.9-0.914,1.859-0.107
	c1.244,1.049,1.252,1.057,0.129,2.246C178.235,66.375,174.991,67.579,172.301,67.604z"/>
<path fill-rule="evenodd" clip-rule="evenodd" fill="#FFFFFF" d="M189.167,50.553c0,5.182,0.002,10.359,0,15.539
	c0,1.096-0.072,1.16-1.174,1.168c-1.994,0.014-1.842,0.088-1.842-1.809c0.002-10.059,0.002-20.115,0.002-30.172
	c0-1.275,0.002-1.275,1.289-1.277c1.725,0,1.725,0,1.725,1.754C189.167,40.688,189.167,45.622,189.167,50.553z"/>
<path fill-rule="evenodd" clip-rule="evenodd" fill="#FFFFFF" d="M198.725,54.758c0,3.811,0.002,7.619-0.002,11.43
	c-0.002,1.004-0.07,1.068-1.084,1.07c-2.156,0.006-1.928,0.158-1.928-1.955c-0.004-7.316-0.002-14.637-0.002-21.953
	c0-1.139,0.074-1.199,1.211-1.217c2.182-0.033,1.795,0.154,1.801,1.771C198.735,47.522,198.725,51.139,198.725,54.758z"/>
<path fill-rule="evenodd" clip-rule="evenodd" fill="#FFFFFF" d="M197.211,38.481c-1.52-0.01-2.777-1.271-2.762-2.775
	c0.014-1.52,1.279-2.785,2.777-2.775c1.508,0.008,2.777,1.293,2.76,2.793C199.969,37.258,198.731,38.489,197.211,38.481z"/>
<g>
	<path fill-rule="evenodd" clip-rule="evenodd" fill="#EC2F84" d="M81.893,31.772c-3.178-2.822-3.469-7.682-0.646-10.855
		c2.818-3.176,7.682-3.463,10.855-0.645c3.18,2.822,3.465,7.684,0.642,10.857C89.928,34.303,85.065,34.588,81.893,31.772z"/>
	<path fill-rule="evenodd" clip-rule="evenodd" fill="#71669D" d="M68.737,22.999c-3.664-1.092-5.748-4.945-4.656-8.609
		c1.094-3.662,4.951-5.746,8.613-4.652c3.664,1.092,5.746,4.947,4.648,8.609C76.254,22.006,72.399,24.09,68.737,22.999z"/>
	<path fill-rule="evenodd" clip-rule="evenodd" fill="#1AB5E9" d="M52.774,20.583c-3.361,0.496-6.49-1.824-6.984-5.186
		c-0.496-3.359,1.828-6.488,5.189-6.986c3.363-0.494,6.488,1.828,6.981,5.193C58.458,16.961,56.133,20.086,52.774,20.583z"/>
	<path fill-rule="evenodd" clip-rule="evenodd" fill="#41B655" d="M36.976,25.258c-2.485,1.637-5.821,0.955-7.457-1.529
		c-1.636-2.48-0.95-5.82,1.53-7.459c2.484-1.637,5.822-0.951,7.457,1.533C40.141,20.284,39.456,23.622,36.976,25.258z"/>
	<path fill-rule="evenodd" clip-rule="evenodd" fill="#FEBC11" d="M24.401,36.411c-1.338,2.172-4.178,2.85-6.348,1.514
		c-2.17-1.334-2.846-4.178-1.512-6.35c1.338-2.168,4.179-2.848,6.35-1.508C25.057,31.399,25.734,34.243,24.401,36.411z"/>
	<circle fill-rule="evenodd" clip-rule="evenodd" fill="#EF8122" cx="13.791" cy="51.705" r="3.845"/>
	<path fill-rule="evenodd" clip-rule="evenodd" fill="#D71D4E" d="M18.139,69.61c0.537,1.615-0.335,3.355-1.947,3.893
		c-1.611,0.535-3.354-0.336-3.89-1.951c-0.536-1.611,0.335-3.354,1.95-3.887C15.862,67.127,17.602,68,18.139,69.61z"/>
</g>
</svg>
